<?xml version="1.0" standalone="no"?>
  <!DOCTYPE svg PUBLIC "-//W3C//DTD SVG 1.1//EN" "http://www.w3.org/Graphics/SVG/1.1/DTD/svg11.dtd" >
  <svg>
  <metadata>
  Created by font-carrier
  </metadata>
  <defs>
  <font id="Poppins-ThinItalic" horiz-adv-x="2607" vert-adv-y="2607" >
    <font-face
      
      font-family="Poppins Thin"
      
      font-weight="400"
      
      font-stretch="normal"
      
      units-per-em="1000"
      
      ascent="1050"
      
      descent="-350"
      
    />
      <missing-glyph />

      

      
      <glyph glyph-name="uni0905" unicode="&#x0905;" d="M916 740L914 724L752 724L624 0L607 0L675 385L425 386Q448 367 460.50 337.50Q473 308 473 273Q473 256 470 238Q455 152 391.50 100Q328 48 238 48Q158 48 109 91.50Q60 135 60 207Q60 225 63 244L80 244Q77 226 77 210Q77 144 121.50 104Q166 64 240 64Q323 64 381 112Q439 160 453 238Q456 255 456 271Q456 329 418.50 368.50Q381 408 300 408L266 408L269 424L303 424Q359 424 401 446Q443 468 467.50 502Q492 536 498 572Q501 589 501 604Q501 665 460 699Q419 733 355 733Q278 733 219 690.50Q160 648 148 577L131 577Q145 657 209 703Q273 749 358 749Q430 749 474.50 711Q519 673 519 608Q519 593 516 576Q505 514 463 471.50Q421 429 351 417L351 416Q380 413 402 401L678 401L738 740L916 740Z"  horiz-adv-x="816" vert-adv-y="1000"  />

      
      <glyph glyph-name="uni0906" unicode="&#x0906;" d="M916 740L914 724L752 724L624 0L607 0L675 385L425 386Q448 367 460.50 337.50Q473 308 473 273Q473 256 470 238Q455 152 391.50 100Q328 48 238 48Q158 48 109 91.50Q60 135 60 207Q60 225 63 244L80 244Q77 226 77 210Q77 144 121.50 104Q166 64 240 64Q323 64 381 112Q439 160 453 238Q456 255 456 271Q456 329 418.50 368.50Q381 408 300 408L266 408L269 424L303 424Q359 424 401 446Q443 468 467.50 502Q492 536 498 572Q501 589 501 604Q501 665 460 699Q419 733 355 733Q278 733 219 690.50Q160 648 148 577L131 577Q145 657 209 703Q273 749 358 749Q430 749 474.50 711Q519 673 519 608Q519 593 516 576Q505 514 463 471.50Q421 429 351 417L351 416Q380 413 402 401L678 401L738 740L916 740M1005 724L843 724L846 740L1187 740L1184 724L1022 724L895 0L878 0L1005 724Z"  horiz-adv-x="1087" vert-adv-y="1000"  />

      
      <glyph glyph-name="uni0907" unicode="&#x0907;" d="M530 724L501 562L498 546L329 546Q256 546 201.50 521Q147 496 136 429Q134 420 134 405Q134 358 171 336Q208 314 267 314L312 314Q389 314 439.50 283.50Q490 253 490 185Q490 170 487 150Q475 81 421 36Q367-9 275-9Q209-9 167.50 13.50Q126 36 107 66Q88 96 86 120L53-70L37-70L81 184L96 184Q91 106 137.50 56.50Q184 7 278 7Q359 7 409.50 48Q460 89 470 150Q473 167 473 182Q473 245 425.50 271.50Q378 298 308 298L263 298Q197 298 157 324.50Q117 351 117 404Q117 420 119 429Q131 501 189.50 531.50Q248 562 324 562L484 562L513 724L19 724L21 740L703 740L701 724L530 724Z"  horiz-adv-x="582" vert-adv-y="1000"  />

      
      <glyph glyph-name="uni0908" unicode="&#x0908;" d="M698 994Q750 994 779 965Q808 936 808 888Q808 873 805 858L789 858Q791 867 791 884Q791 926 765.50 952Q740 978 695 978Q635 978 597 938Q559 898 546 822L532 740L703 740L701 724L530 724L501 562L498 546L329 546Q256 546 201.50 521Q147 496 136 429Q134 420 134 405Q134 358 171 336Q208 314 267 314L312 314Q389 314 439.50 283.50Q490 253 490 185Q490 170 487 150Q475 81 421 36Q367-9 275-9Q209-9 167.50 13.50Q126 36 107 66Q88 96 86 120L53-70L37-70L81 184L96 184Q91 106 137.50 56.50Q184 7 278 7Q359 7 409.50 48Q460 89 470 150Q473 167 473 182Q473 245 425.50 271.50Q378 298 308 298L263 298Q197 298 157 324.50Q117 351 117 404Q117 420 119 429Q131 501 189.50 531.50Q248 562 324 562L484 562L513 724L19 724L21 740L515 740L530 823Q545 907 588.50 950.50Q632 994 698 994Z"  horiz-adv-x="582" vert-adv-y="1000"  />

      
      <glyph glyph-name="uni0909" unicode="&#x0909;" d="M681 724L529 724L504 582Q493 520 449.50 476.50Q406 433 349 425L348 424Q411 413 445 367.50Q479 322 479 258Q479 244 475 216Q464 154 430 105.50Q396 57 343 29.50Q290 2 225 2Q167 2 123 25Q79 48 55 88.50Q31 129 31 180Q31 198 34 217L51 217Q48 199 48 183Q48 136 71 98.50Q94 61 135 39.50Q176 18 228 18Q316 18 379 73.50Q442 129 458 216Q462 242 462 256Q462 323 421 369Q380 415 292 415L258 415L261 431L295 431Q377 431 426.50 475.50Q476 520 488 585L512 724L27 724L30 740L684 740L681 724Z"  horiz-adv-x="584" vert-adv-y="1000"  />

      
      <glyph glyph-name="uni090A" unicode="&#x090A;" d="M504 582Q493 520 449.50 476.50Q406 433 349 425L348 424L581 424Q670 424 725.50 386.50Q781 349 781 269Q781 247 777 227Q759 126 695 80.50Q631 35 546 35Q534 35 510 37L513 52Q539 50 549 50Q628 50 685.50 92Q743 134 760 227Q764 246 764 267Q764 341 712.50 374.50Q661 408 579 408L397 408Q437 387 458 347.50Q479 308 479 258Q479 244 475 216Q464 154 430 105.50Q396 57 343 29.50Q290 2 225 2Q167 2 123 25Q79 48 55 88.50Q31 129 31 180Q31 198 34 217L51 217Q48 199 48 183Q48 136 71 98.50Q94 61 135 39.50Q176 18 228 18Q316 18 379 73.50Q442 129 458 216Q462 242 462 256Q462 323 421 369Q380 415 292 415L258 415L261 431L295 431Q377 431 426.50 475.50Q476 520 488 585L512 724L27 724L30 740L976 740L973 724L529 724L504 582Z"  horiz-adv-x="876" vert-adv-y="1000"  />

      
      <glyph glyph-name="uni090B" unicode="&#x090B;" d="M597 724L545 426L754 426Q848 426 870 503L887 598L904 598L844 257L841 241L829 241Q761 241 715 202Q669 163 659 104Q656 88 656 73Q656 21 689.50-4.50Q723-30 777-30Q808-30 836-20L833-36Q824-40 806.50-43Q789-46 774-46Q715-46 677-17Q639 12 639 70Q639 86 642 104Q654 169 703.50 212.50Q753 256 827 257L862 455Q825 410 750 410L542 410L470 0L453 0L519 377L102 0L84 0L85 4L522 399L523 417Q523 489 478 534.50Q433 580 354 580Q291 580 236 552.50Q181 525 143.50 473Q106 421 94 352L77 352Q90 426 130.50 481Q171 536 229.50 566Q288 596 355 596Q430 596 476 560Q522 524 534 464L580 724L27 724L30 740L1094 740L1091 724L597 724Z"  horiz-adv-x="994" vert-adv-y="1000"  />

      
      <glyph glyph-name="uni0960" unicode="&#x0960;" d="M597 724L544 426L753 426Q857 426 873 520L881 568L882 568L887 598L904 598L844 257L841 241L797 241Q749 241 712 218Q675 195 666 144Q664 130 664 124Q664 86 693 67.50Q722 49 770 49L807 49L804 33L760 33Q712 33 675 10Q638-13 629-64Q627-78 627-84Q627-122 656-140.50Q685-159 733-159Q759-159 786-154Q813-149 830-143L827-159Q811-166 784-170.50Q757-175 730-175Q677-175 643.50-153Q610-131 610-87Q610-80 612-64Q620-21 648 6Q676 33 712 40L713 42Q682 50 664.50 70.50Q647 91 647 122Q647 128 649 144Q660 201 702 229Q744 257 800 257L827 257L862 457Q825 410 749 410L541 410L469 0L452 0L519 378L101 0L83 0L84 4L522 399L523 416Q523 489 477.50 534.50Q432 580 353 580Q290 580 235 552.50Q180 525 142.50 473Q105 421 93 352L76 352Q89 426 129.50 481Q170 536 228.50 566Q287 596 354 596Q429 596 475.50 560Q522 524 534 463L580 724L27 724L30 740L1094 740L1091 724L597 724Z"  horiz-adv-x="994" vert-adv-y="1000"  />

      
      <glyph glyph-name="uni090C" unicode="&#x090C;" d="M698 724L669 560Q738 556 773.50 511Q809 466 809 394Q809 365 805 341Q796 284 771 241L763 241Q695 241 649 202Q603 163 593 104Q590 88 590 73Q590 21 623.50-4.50Q657-30 711-30Q742-30 770-20L767-36Q758-40 740.50-43Q723-46 708-46Q649-46 611-17Q573 12 573 70Q573 86 576 104Q588 169 637.50 212.50Q687 256 761 257Q781 301 788 341Q793 373 793 395Q793 462 759 503Q725 544 659 544Q574 544 516 479.50Q458 415 444 303L443 295L426 295L427 303Q432 346 432 375Q432 456 401.50 500Q371 544 307 544Q223 544 168 487.50Q113 431 97 341Q92 309 92 287Q92 211 135 166Q178 121 263 121Q271 121 295 123L292 106Q268 104 258 104Q168 104 121.50 153Q75 202 75 284Q75 308 80 341Q97 439 156 499.50Q215 560 306 560Q359 560 391 534Q423 508 436 468.50Q449 429 447 387L449 387Q472 457 521.50 507.50Q571 558 652 560L681 724L27 724L30 740L995 740L992 724L698 724Z"  horiz-adv-x="895" vert-adv-y="1000"  />

      
      <glyph glyph-name="uni0961" unicode="&#x0961;" d="M699 724L670 560Q739 556 774 511Q809 466 809 394Q809 365 805 341Q796 286 772 241L728 241Q680 241 643 218Q606 195 597 144Q595 130 595 124Q595 86 624 67.50Q653 49 701 49L738 49L735 33L691 33Q643 33 606 10Q569-13 560-64Q558-78 558-84Q558-122 587-140.50Q616-159 664-159Q690-159 717-154Q744-149 761-143L758-159Q742-166 715-170.50Q688-175 661-175Q608-175 574.50-152.50Q541-130 541-86Q541-35 571.50-1.50Q602 32 643 40L644 42Q613 50 595.50 70.50Q578 91 578 122Q578 128 580 144Q591 201 633 229Q675 257 731 257L762 257Q781 298 788 341Q793 373 793 395Q793 462 759 503Q725 544 659 544Q574 544 516 479.50Q458 415 444 303L443 295L426 295L427 303Q432 346 432 375Q432 456 401.50 500Q371 544 307 544Q223 544 168 487.50Q113 431 97 341Q92 309 92 287Q92 211 135 166Q178 121 263 121Q271 121 295 123L292 106Q268 104 258 104Q168 104 121.50 153Q75 202 75 284Q75 308 80 341Q97 439 156 499.50Q215 560 306 560Q359 560 391 534Q423 508 436 468.50Q449 429 447 387L449 387Q472 457 521.50 507.50Q571 558 653 560L682 724L35 724L38 740L1003 740L1000 724L699 724Z"  horiz-adv-x="903" vert-adv-y="1000"  />

      
      <glyph glyph-name="uni090F" unicode="&#x090F;" d="M747 724L613 724L587 576Q569 473 524 427Q479 381 396 381L373 382L376 398Q384 397 398 397Q473 397 513 439.50Q553 482 570 576L596 724L198 724L119 278Q112 238 112 212Q112 129 160 82Q208 35 299 35Q395 35 453.50 91Q512 147 529 250L546 250Q528 140 464 79.50Q400 19 296 19Q197 19 146 69.50Q95 120 95 210Q95 236 102 278L181 724L26 724L29 740L750 740L747 724Z"  horiz-adv-x="650" vert-adv-y="1000"  />

      
      <glyph glyph-name="uni0910" unicode="&#x0910;" d="M747 724L613 724L587 576Q569 473 524 427Q479 381 396 381L373 382L376 398Q384 397 398 397Q473 397 513 439.50Q553 482 570 576L596 724L198 724L119 278Q112 238 112 212Q112 129 160 82Q208 35 299 35Q395 35 453.50 91Q512 147 529 250L546 250Q528 140 464 79.50Q400 19 296 19Q197 19 146 69.50Q95 120 95 210Q95 236 102 278L181 724L26 724L29 740L597 740Q553 838 519.50 881.50Q486 925 453 936.50Q420 948 360 948L328 948L331 964L363 964Q426 964 461.50 951.50Q497 939 532.50 892Q568 845 615 740L750 740L747 724Z"  horiz-adv-x="650" vert-adv-y="1000"  />

      
      <glyph glyph-name="uni0913" unicode="&#x0913;" d="M916 740L914 724L752 724L624 0L607 0L675 385L425 386Q448 367 460.50 337.50Q473 308 473 273Q473 256 470 238Q455 152 391.50 100Q328 48 238 48Q158 48 109 91.50Q60 135 60 207Q60 225 63 244L80 244Q77 226 77 210Q77 144 121.50 104Q166 64 240 64Q323 64 381 112Q439 160 453 238Q456 255 456 271Q456 329 418.50 368.50Q381 408 300 408L266 408L269 424L303 424Q359 424 401 446Q443 468 467.50 502Q492 536 498 572Q501 589 501 604Q501 665 460 699Q419 733 355 733Q278 733 219 690.50Q160 648 148 577L131 577Q145 657 209 703Q273 749 358 749Q430 749 474.50 711Q519 673 519 608Q519 593 516 576Q505 514 463 471.50Q421 429 351 417L351 416Q380 413 402 401L678 401L738 740L916 740M1005 724L843 724L846 740L1187 740L1184 724L1022 724L895 0L878 0L1005 724M1091 737Q1046 836 1012.50 880Q979 924 946 936Q913 948 853 948L821 948L824 964L856 964Q920 964 955 951.50Q990 939 1025.50 891.50Q1061 844 1109 737L1091 737Z"  horiz-adv-x="1087" vert-adv-y="1000"  />

      
      <glyph glyph-name="uni0914" unicode="&#x0914;" d="M916 740L914 724L752 724L624 0L607 0L675 385L425 386Q448 367 460.50 337.50Q473 308 473 273Q473 256 470 238Q455 152 391.50 100Q328 48 238 48Q158 48 109 91.50Q60 135 60 207Q60 225 63 244L80 244Q77 226 77 210Q77 144 121.50 104Q166 64 240 64Q323 64 381 112Q439 160 453 238Q456 255 456 271Q456 329 418.50 368.50Q381 408 300 408L266 408L269 424L303 424Q359 424 401 446Q443 468 467.50 502Q492 536 498 572Q501 589 501 604Q501 665 460 699Q419 733 355 733Q278 733 219 690.50Q160 648 148 577L131 577Q145 657 209 703Q273 749 358 749Q430 749 474.50 711Q519 673 519 608Q519 593 516 576Q505 514 463 471.50Q421 429 351 417L351 416Q380 413 402 401L678 401L738 740L916 740M1005 724L843 724L846 740L1187 740L1184 724L1022 724L895 0L878 0L1005 724M867 1014Q931 1014 965.50 999Q1000 984 1034 926Q1068 868 1112 737L1096 737Q1044 794 1007 819Q970 844 935 851Q900 858 840 858L808 858L811 874L843 874Q903 874 937 868Q971 862 1006.50 839Q1042 816 1088 764Q1049 874 1018 923Q987 972 955 985Q923 998 865 998L833 998L835 1014L867 1014Z"  horiz-adv-x="1087" vert-adv-y="1000"  />

      
      <glyph glyph-name="uni090D" unicode="&#x090D;" d="M391 854Q317 854 280 890.50Q243 927 243 977Q243 985 245 999L261 999Q259 987 259 980Q259 935 292.50 902.50Q326 870 394 870Q445 870 483 889.50Q521 909 543.50 938.50Q566 968 571 999L587 999Q581 965 556.50 931.50Q532 898 489.50 876Q447 854 391 854M724 724L590 724L564 576Q546 473 501 427Q456 381 373 381L350 382L353 398Q361 397 375 397Q450 397 490 439.50Q530 482 547 576L573 724L175 724L96 278Q89 238 89 212Q89 129 137 82Q185 35 276 35Q372 35 430.50 91Q489 147 506 250L523 250Q505 140 441 79.50Q377 19 273 19Q174 19 123 69.50Q72 120 72 210Q72 236 79 278L158 724L3 724L6 740L727 740L724 724Z"  horiz-adv-x="651" vert-adv-y="1000"  />

      
      <glyph glyph-name="uni0972" unicode="&#x0972;" d="M916 740L914 724L752 724L624 0L607 0L675 385L425 386Q448 367 460.50 337.50Q473 308 473 273Q473 256 470 238Q455 152 391.50 100Q328 48 238 48Q158 48 109 91.50Q60 135 60 207Q60 225 63 244L80 244Q77 226 77 210Q77 144 121.50 104Q166 64 240 64Q323 64 381 112Q439 160 453 238Q456 255 456 271Q456 329 418.50 368.50Q381 408 300 408L266 408L269 424L303 424Q359 424 401 446Q443 468 467.50 502Q492 536 498 572Q501 589 501 604Q501 665 460 699Q419 733 355 733Q278 733 219 690.50Q160 648 148 577L131 577Q145 657 209 703Q273 749 358 749Q430 749 474.50 711Q519 673 519 608Q519 593 516 576Q505 514 463 471.50Q421 429 351 417L351 416Q380 413 402 401L678 401L738 740L916 740M872 854Q797 854 758.50 891Q720 928 720 978Q720 985 722 999L738 999Q736 987 736 979Q736 934 769.50 902Q803 870 870 870Q921 870 959.50 889.50Q998 909 1020.50 938.50Q1043 968 1048 999L1064 999Q1057 964 1033.50 931Q1010 898 969 876Q928 854 872 854Z"  horiz-adv-x="816" vert-adv-y="1000"  />

      
      <glyph glyph-name="uni0911" unicode="&#x0911;" d="M916 740L914 724L752 724L624 0L607 0L675 385L425 386Q448 367 460.50 337.50Q473 308 473 273Q473 256 470 238Q455 152 391.50 100Q328 48 238 48Q158 48 109 91.50Q60 135 60 207Q60 225 63 244L80 244Q77 226 77 210Q77 144 121.50 104Q166 64 240 64Q323 64 381 112Q439 160 453 238Q456 255 456 271Q456 329 418.50 368.50Q381 408 300 408L266 408L269 424L303 424Q359 424 401 446Q443 468 467.50 502Q492 536 498 572Q501 589 501 604Q501 665 460 699Q419 733 355 733Q278 733 219 690.50Q160 648 148 577L131 577Q145 657 209 703Q273 749 358 749Q430 749 474.50 711Q519 673 519 608Q519 593 516 576Q505 514 463 471.50Q421 429 351 417L351 416Q380 413 402 401L678 401L738 740L916 740M1005 724L843 724L846 740L1187 740L1184 724L1022 724L895 0L878 0L1005 724M998 854Q923 854 884.50 891Q846 928 846 978Q846 985 848 999L864 999Q862 987 862 979Q862 934 895.50 902Q929 870 996 870Q1047 870 1085.50 889.50Q1124 909 1146.50 938.50Q1169 968 1174 999L1190 999Q1183 964 1159.50 931Q1136 898 1095 876Q1054 854 998 854Z"  horiz-adv-x="1087" vert-adv-y="1000"  />

      
      <glyph glyph-name="uni093E" unicode="&#x093E;" d="M189 724L27 724L30 740L371 740L368 724L206 724L79 0L62 0L189 724Z"  horiz-adv-x="271" vert-adv-y="1000"  />

      
      <glyph glyph-name="uni093F" unicode="&#x093F;" d="M586 965Q716 965 810.50 924Q905 883 905 785Q905 768 902 750L899 733L882 733L885 750Q888 767 888 781Q888 873 796 911Q704 949 583 949Q441 949 334.50 907.50Q228 866 209 745L208 740L371 740L368 724L206 724L78 0L61 0L189 724L27 724L30 740L191 740L192 745Q212 874 323.50 919.50Q435 965 586 965Z"  horiz-adv-x="271" vert-adv-y="1000"  />

      
      <glyph glyph-name="uni0940" unicode="&#x0940;" d="M370 740L368 724L206 724L78 0L61 0L189 724L27 724L29 740L191 740L200 786Q205 816 205 838Q205 889 180.50 919Q156 949 102 949Q35 949-2.50 904Q-40 859-54 786L-64 734L-81 734L-71 786Q-56 865-12.50 915Q31 965 105 965Q166 965 194 932Q222 899 222 841Q222 810 217 786L208 740L370 740Z"  horiz-adv-x="270" vert-adv-y="1000"  />

      
      <glyph glyph-name="uni0941" unicode="&#x0941;" d="M-297-264Q-375-264-423.50-228Q-472-192-472-123Q-472-101-466-75L-450-75Q-456-101-456-122Q-456-185-411.50-216.50Q-367-248-294-248Q-220-248-169.50-213Q-119-178-108-114Q-106-100-106-92Q-106-53-129.50-26.50Q-153 0-195 0L-209 0L-206 16L-192 16Q-144 16-116.50-15Q-89-46-89-91Q-89-108-91-116Q-104-186-158.50-225Q-213-264-297-264Z"   vert-adv-y="1000"  />

      
      <glyph glyph-name="uni0942" unicode="&#x0942;" d="M-261-262Q-315-262-351.50-231.50Q-388-201-388-151Q-388-135-386-127Q-375-62-324.50-23Q-274 16-198 16Q-114 16-61-33.50Q-8-83-8-173Q-8-207-15-241L-18-254L-34-254L-30-233Q-24-202-24-175Q-24-93-72-46.50Q-120 0-197 0Q-248 0-287.50-19.50Q-327-39-349-73Q-371-107-371-150Q-371-193-340.50-219Q-310-245-261-245Q-244-245-226-242L-229-259Q-244-262-261-262Z"   vert-adv-y="1000"  />

      
      <glyph glyph-name="uni0943" unicode="&#x0943;" d="M-254-287Q-311-287-352-251.50Q-393-216-393-157Q-393-108-369-68.50Q-345-29-301.50-6.50Q-258 16-201 16L-190 16L-192 0L-204 0Q-255 0-294.50-20Q-334-40-355-75.50Q-376-111-376-155Q-376-209-339.50-240Q-303-271-251-271Q-216-271-184-261L-187-277Q-198-281-217.50-284Q-237-287-254-287Z"   vert-adv-y="1000"  />

      
      <glyph glyph-name="uni0944" unicode="&#x0944;" d="M-302-416Q-355-416-389-391.50Q-423-367-423-322Q-423-316-421-300Q-413-259-385-233.50Q-357-208-320-201L-320-199Q-351-191-368.50-170.50Q-386-150-386-119Q-386-113-384-97Q-373-40-331-12Q-289 16-233 16L-190 16L-192 0L-236 0Q-284 0-321-23Q-358-46-367-97Q-369-111-369-117Q-369-155-340-173.50Q-311-192-263-192L-226-192L-228-208L-272-208Q-321-208-358.50-230Q-396-252-404-300Q-406-314-406-319Q-406-358-376-379Q-346-400-299-400Q-274-400-247-395.50Q-220-391-202-384L-205-400Q-222-407-248.50-411.50Q-275-416-302-416Z"   vert-adv-y="1000"  />

      
      <glyph glyph-name="uni0962" unicode="&#x0962;" d="M-73-20Q-22-20 4.50-51.50Q31-83 31-136Q31-149 27-177Q20-217 4-247L-2-247Q-56-247-90.50-281Q-125-315-125-362Q-125-399-100-417.50Q-75-436-38-436Q-13-436 4-429L1-445Q-17-451-41-451Q-84-451-112.50-429.50Q-141-408-141-367Q-141-311-103.50-272.50Q-66-234-5-232Q7-203 11-177Q15-149 15-137Q15-90-8-62.50Q-31-35-78-35Q-135-35-172.50-79.50Q-210-124-226-203L-227-208L-243-208L-242-203Q-236-172-236-146Q-236-93-259.50-64Q-283-35-327-35Q-385-35-423-74.50Q-461-114-472-177Q-475-195-475-213Q-475-266-445-297.50Q-415-329-356-329Q-344-329-334-327L-337-342Q-347-344-361-344Q-425-344-458-309Q-491-274-491-216Q-491-197-488-177Q-476-107-432-63.50Q-388-20-324-20Q-269-20-245.50-57Q-222-94-225-143L-223-143Q-207-93-170-56.50Q-133-20-73-20Z"   vert-adv-y="1000"  />

      
      <glyph glyph-name="uni0963" unicode="&#x0963;" d="M-73-20Q-22-20 4.50-51.50Q31-83 31-136Q31-149 27-177Q20-217 4-247L-28-247Q-64-247-91-266.50Q-118-286-118-328Q-118-356-98.50-369Q-79-382-46-382L-21-382L-23-397L-50-397Q-85-397-111.50-412.50Q-138-428-144-464Q-145-468-145-477Q-145-503-125-516Q-105-529-72-529Q-34-529-4-517L-6-532Q-37-543-74-543Q-112-543-136-527Q-160-511-160-479Q-160-475-158-463Q-152-433-132-414Q-112-395-87-390L-87-389Q-133-376-133-330Q-133-320-132-314Q-125-273-94.50-252.50Q-64-232-25-232L-5-232Q7-203 11-177Q15-149 15-137Q15-90-8-62.50Q-31-35-78-35Q-135-35-172.50-79.50Q-210-124-226-203L-227-208L-243-208L-242-203Q-236-172-236-146Q-236-93-259.50-64Q-283-35-327-35Q-385-35-423-74.50Q-461-114-472-177Q-475-195-475-213Q-475-266-445-297.50Q-415-329-356-329Q-344-329-334-327L-337-342Q-347-344-361-344Q-425-344-458-309Q-491-274-491-216Q-491-197-488-177Q-476-107-432-63.50Q-388-20-324-20Q-269-20-245.50-57Q-222-94-225-143L-223-143Q-207-93-170-56.50Q-133-20-73-20Z"   vert-adv-y="1000"  />

      
      <glyph glyph-name="uni0947" unicode="&#x0947;" d="M-79 737Q-124 836-157.50 880Q-191 924-224 936Q-257 948-317 948L-349 948L-346 964L-314 964Q-250 964-215 951.50Q-180 939-144.50 891.50Q-109 844-61 737L-79 737Z"   vert-adv-y="1000"  />

      
      <glyph glyph-name="uni0948" unicode="&#x0948;" d="M-307 1014Q-243 1014-208.50 999Q-174 984-140 926Q-106 868-62 737L-78 737Q-130 794-167 819Q-204 844-239 851Q-274 858-334 858L-366 858L-363 874L-331 874Q-271 874-237 868Q-203 862-167.50 839Q-132 816-86 764Q-125 874-156 923Q-187 972-219 985Q-251 998-309 998L-341 998L-339 1014L-307 1014Z"   vert-adv-y="1000"  />

      
      <glyph glyph-name="uni094B" unicode="&#x094B;" d="M371 740L368 724L206 724L78 0L61 0L189 724L27 724L30 740L190 740Q145 838 112 881.50Q79 925 46 936.50Q13 948-47 948L-79 948L-76 964L-44 964Q19 964 54.50 951.50Q90 939 125.50 892Q161 845 208 740L371 740Z"  horiz-adv-x="271" vert-adv-y="1000"  />

      
      <glyph glyph-name="uni094C" unicode="&#x094C;" d="M347 740L344 724L182 724L55 0L38 0L165 724L3 724L6 740L167 740Q116 795 79.50 820Q43 845 8.50 851.50Q-26 858-86 858L-118 858L-115 874L-83 874Q-23 874 11 868Q45 862 80.50 839Q116 816 162 764Q123 874 92 923Q61 972 29 985Q-3 998-61 998L-93 998L-91 1014L-59 1014Q5 1014 39.50 999Q74 984 108 926.50Q142 869 185 740L347 740Z"  horiz-adv-x="271" vert-adv-y="1000"  />

      
      <glyph glyph-name="uni0945" unicode="&#x0945;" d="M-52 824Q-127 824-165.50 861Q-204 898-204 948Q-204 955-202 969L-186 969Q-188 957-188 949Q-188 904-154.50 872Q-121 840-54 840Q-3 840 35.50 859.50Q74 879 96.50 908.50Q119 938 124 969L140 969Q133 934 109.50 901Q86 868 45 846Q4 824-52 824Z"   vert-adv-y="1000"  />

      
      <glyph glyph-name="uni0949" unicode="&#x0949;" d="M220 824Q145 824 106.50 861Q68 898 68 948Q68 955 70 969L86 969Q84 957 84 949Q84 904 117.50 872Q151 840 218 840Q269 840 307.50 859.50Q346 879 368.50 908.50Q391 938 396 969L412 969Q405 934 381.50 901Q358 868 317 846Q276 824 220 824M189 724L27 724L30 740L371 740L368 724L206 724L79 0L62 0L189 724Z"  horiz-adv-x="271" vert-adv-y="1000"  />

      
      <glyph glyph-name="uni0915" unicode="&#x0915;" d="M585 724L535 442Q567 504 623 544Q679 584 758 584Q837 584 887.50 536Q938 488 938 406Q938 382 934 359Q921 287 884.50 234.50Q848 182 795.50 154.50Q743 127 682 127Q652 127 626 133L629 149Q653 143 685 143Q739 143 788 168.50Q837 194 871 243Q905 292 917 359Q921 380 921 404Q921 480 875 524Q829 568 757 568Q691 568 641 537.50Q591 507 561.50 460Q532 413 521 361L458 0L442 0L489 266Q458 205 399.50 166Q341 127 263 127Q180 127 129 175Q78 223 78 307Q78 329 83 359Q95 427 133 478Q171 529 225.50 556.50Q280 584 340 584Q420 584 465 544.50Q510 505 520 443L569 724L27 724L30 740L1121 740L1118 724L585 724M264 143Q331 143 381 173.50Q431 204 461 250Q491 296 502 344L505 361Q508 381 508 400Q508 471 467 519.50Q426 568 339 568Q284 568 233.50 542.50Q183 517 147 469.50Q111 422 100 359Q96 336 96 310Q96 231 142 187Q188 143 264 143Z"  horiz-adv-x="1021" vert-adv-y="1000"  />

      
      <glyph glyph-name="uni0916" unicode="&#x0916;" d="M1009 740L1006 724L844 724L717 0L700 0L750 284Q722 230 670 194.50Q618 159 548 159Q525 159 502 164Q465 93 401 46.50Q337 0 255 0Q168 0 118 44.50Q68 89 68 168Q68 193 72 214L104 394L148 394Q210 394 260 430Q310 466 327 563L355 724L27 724L30 740L1009 740M827 724L372 724L344 563Q325 458 271 418Q217 378 139 378L118 378L89 214Q85 194 85 172Q85 100 131 58Q177 16 259 16Q331 16 392 60Q453 104 486 169Q437 185 408 225.50Q379 266 379 325Q379 345 382 366Q392 426 425.50 471.50Q459 517 508 541Q557 565 613 565Q686 565 727 530Q768 495 777 441L827 724M551 175Q612 175 657 203Q702 231 728.50 274Q755 317 763 361Q767 387 767 400Q767 463 728.50 506Q690 549 611 549Q561 549 516 527Q471 505 440 463.50Q409 422 399 366Q395 338 395 325Q395 255 438.50 215Q482 175 551 175Z"  horiz-adv-x="909" vert-adv-y="1000"  />

      
      <glyph glyph-name="uni0917" unicode="&#x0917;" d="M783 740L780 724L618 724L491 0L474 0L601 724L377 724L322 414Q311 353 274 313Q237 273 172 273Q117 273 90 304Q63 335 63 382Q63 397 66 412L72 442L89 442L83 411Q80 396 80 382Q80 342 102 315.50Q124 289 172 289Q232 289 263.50 325Q295 361 305 414L360 724L27 724L30 740L783 740Z"  horiz-adv-x="683" vert-adv-y="1000"  />

      
      <glyph glyph-name="uni0918" unicode="&#x0918;" d="M818 724L657 724L529 0L512 0L561 276Q522 203 447.50 159.50Q373 116 284 116Q191 116 136.50 154Q82 192 82 264Q82 281 85 299Q97 368 150 410Q203 452 270 458L270 460Q220 466 189.50 495Q159 524 159 581Q159 602 163 622L182 724L27 724L30 740L821 740L818 724M640 724L199 724L180 622Q176 594 176 582Q176 525 213.50 496Q251 467 331 467L385 467L382 451L328 451Q227 451 170.50 408.50Q114 366 102 299Q99 283 99 267Q99 200 150.50 166Q202 132 287 132Q355 132 416.50 161Q478 190 520.50 242.50Q563 295 576 361L640 724Z"  horiz-adv-x="721" vert-adv-y="1000"  />

      
      <glyph glyph-name="uni0919" unicode="&#x0919;" d="M723 740L720 724L525 724L496 562L493 546L324 546Q154 546 133 429Q131 413 131 406Q131 358 167.50 336Q204 314 262 314L307 314Q382 314 433.50 282.50Q485 251 485 183Q485 168 482 150Q469 80 410.50 35.50Q352-9 256-9Q157-9 105 35.50Q53 80 53 150Q53 166 56 184L73 184Q70 168 70 151Q70 86 117 46.50Q164 7 259 7Q345 7 399.50 47.50Q454 88 465 150Q468 167 468 182Q468 245 420.50 271.50Q373 298 303 298L258 298Q196 298 155 325.50Q114 353 114 405Q114 421 116 430Q129 502 185.50 532Q242 562 317 562L479 562L508 724L28 724L31 740L723 740M582 439Q592 439 598 432.50Q604 426 602 415Q600 404 591.50 397.50Q583 391 573 391Q562 391 556.50 397.50Q551 404 553 415Q555 426 563 432.50Q571 439 582 439Z"  horiz-adv-x="623" vert-adv-y="1000"  />

      
      <glyph glyph-name="uni091A" unicode="&#x091A;" d="M815 724L654 724L526 0L509 0L554 254Q520 193 456.50 154Q393 115 321 115Q240 115 187.50 160.50Q135 206 135 284Q135 296 139 324Q152 397 199.50 450Q247 503 318 525L76 525L79 541L436 541L433 525L404 525Q339 525 286.50 498.50Q234 472 200 426Q166 380 156 324Q152 296 152 285Q152 213 200.50 172Q249 131 323 131Q381 131 433.50 158.50Q486 186 521 231Q556 276 567 328L637 724L27 724L30 740L818 740L815 724Z"  horiz-adv-x="718" vert-adv-y="1000"  />

      
      <glyph glyph-name="uni091B" unicode="&#x091B;" d="M660 724L631 561Q687 559 724 520Q761 481 761 409Q761 388 756 356Q738 256 677.50 183Q617 110 527 71.50Q437 33 332 33Q209 33 133 81Q57 129 57 216Q57 233 60 251Q74 328 129 373.50Q184 419 256 425L256 427Q206 433 176 462Q146 491 146 547Q146 569 150 589L174 724L25 724L27 740L908 740L906 724L660 724M643 724L191 724L167 589Q163 569 163 548Q163 491 200 462.50Q237 434 317 434L341 434L339 418L315 418Q212 418 151 371Q90 324 77 251Q74 235 74 218Q74 136 146.50 92.50Q219 49 334 49Q432 49 518.50 86.50Q605 124 663.50 193.50Q722 263 738 355Q743 385 743 405Q743 474 707 509.50Q671 545 619 545Q563 545 513.50 509.50Q464 474 450 397Q446 377 446 351Q446 325 451 290L434 290Q429 315 429 348Q429 377 433 397Q448 478 499.50 518Q551 558 614 561L643 724Z"  horiz-adv-x="808" vert-adv-y="1000"  />

      
      <glyph glyph-name="uni091C" unicode="&#x091C;" d="M920 724L759 724L631 0L614 0L701 493L444 493L417 340Q402 259 350 209Q298 159 220 159Q159 159 123 198Q87 237 87 300Q87 312 91 340L121 509L138 509L108 339Q104 311 104 299Q104 243 135.50 209Q167 175 222 175Q290 175 338.50 220.50Q387 266 400 339L430 509L704 509L742 724L27 724L30 740L923 740L920 724Z"  horiz-adv-x="823" vert-adv-y="1000"  />

      
      <glyph glyph-name="uni091D" unicode="&#x091D;" d="M935 724L773 724L645 0L628 0L681 299L397 300Q439 288 464.50 258.50Q490 229 490 182Q490 167 487 150Q475 85 423 42.50Q371 0 282 0Q219 0 178 21.50Q137 43 117.50 70Q98 97 95 117L61-71L44-71L88 173L103 173Q102 106 147.50 61Q193 16 286 16Q366 16 413 54.50Q460 93 470 150Q473 167 473 180Q473 236 430.50 267Q388 298 309 298L264 298Q198 298 157.50 325Q117 352 117 404Q117 420 119 429Q131 501 189.50 531.50Q248 562 324 562L484 562L513 724L34 724L37 740L938 740L935 724M756 724L530 724L501 562L498 546L329 546Q258 546 202.50 520.50Q147 495 136 429Q134 420 134 405Q134 358 171 336Q208 314 267 314L312 314L684 314L756 724Z"  horiz-adv-x="838" vert-adv-y="1000"  />

      
      <glyph glyph-name="uni091E" unicode="&#x091E;" d="M884 724L722 724L595 0L578 0L639 347L509 347Q497 287 463.50 235.50Q430 184 376.50 152.50Q323 121 252 121Q162 121 117.50 167.50Q73 214 68 276L85 276Q90 220 130.50 179Q171 138 253 138Q318 138 369 167.50Q420 197 451.50 246Q483 295 493 354Q497 375 497 401Q497 474 454.50 520.50Q412 567 329 567Q246 567 190 525Q134 483 112 428L95 428Q120 491 179.50 537Q239 583 332 583Q424 583 469 532Q514 481 514 403Q514 383 511 363L642 363L705 724L27 724L30 740L887 740L884 724Z"  horiz-adv-x="787" vert-adv-y="1000"  />

      
      <glyph glyph-name="uni091F" unicode="&#x091F;" d="M400 557Q280 557 194 494.50Q108 432 86 312Q82 292 82 267Q82 212 108 169Q134 126 181 102.50Q228 79 289 79Q359 79 417 109.50Q475 140 513 195Q551 250 563 320L580 320Q567 244 527 186Q487 128 425 95.50Q363 63 286 63Q222 63 171.50 88.50Q121 114 93 160Q65 206 65 266Q65 292 69 313Q92 442 183.50 507.50Q275 573 403 573L455 573L481 724L22 724L25 740L749 740L746 724L498 724L468 557L400 557Z"  horiz-adv-x="649" vert-adv-y="1000"  />

      
      <glyph glyph-name="uni0920" unicode="&#x0920;" d="M405 724L376 559Q437 557 483.50 530.50Q530 504 556 458Q582 412 582 354Q582 328 578 307Q565 236 522 180.50Q479 125 415.50 94Q352 63 280 63Q217 63 168.50 89Q120 115 93 161.50Q66 208 66 267Q66 294 70 315Q82 385 123.50 439.50Q165 494 226.50 525.50Q288 557 359 559L388 724L22 724L25 740L775 740L772 724L405 724M561 307Q565 328 565 353Q565 409 540 452Q515 495 470 519Q425 543 365 543Q300 543 240.50 514Q181 485 140 433Q99 381 87 315Q83 295 83 270Q83 214 108 171Q133 128 178.50 103.50Q224 79 283 79Q348 79 407.50 108Q467 137 508 189Q549 241 561 307Z"  horiz-adv-x="675" vert-adv-y="1000"  />

      
      <glyph glyph-name="uni0921" unicode="&#x0921;" d="M324 546Q154 546 133 429Q131 413 131 406Q131 358 167.50 336Q204 314 262 314L307 314Q382 314 433.50 282.50Q485 251 485 183Q485 168 482 150Q469 80 410.50 35.50Q352-9 256-9Q157-9 105 35.50Q53 80 53 150Q53 166 56 184L73 184Q70 168 70 151Q70 86 117 46.50Q164 7 259 7Q345 7 399.50 47.50Q454 88 465 150Q468 167 468 182Q468 245 420.50 271.50Q373 298 303 298L258 298Q196 298 155 325.50Q114 353 114 405Q114 421 116 430Q129 502 185.50 532Q242 562 317 562L471 562L500 724L28 724L31 740L683 740L680 724L517 724L485 546L324 546Z"  horiz-adv-x="583" vert-adv-y="1000"  />

      
      <glyph glyph-name="uni0922" unicode="&#x0922;" d="M414 557Q334 557 265.50 527.50Q197 498 149.50 439.50Q102 381 87 295Q82 267 82 245Q82 184 110 137Q138 90 189.50 64.50Q241 39 307 39Q365 39 415 61.50Q465 84 497.50 123Q530 162 539 211Q542 226 542 240Q542 291 510 323Q478 355 424 355Q368 355 326 321.50Q284 288 276 232Q274 218 274 210L257 210Q257 219 259 233Q270 296 317 333.50Q364 371 427 371Q485 371 522 335Q559 299 559 242Q559 228 556 211Q547 157 511.50 114Q476 71 422 47Q368 23 304 23Q234 23 180 50.50Q126 78 95.50 128Q65 178 65 243Q65 264 70 294Q86 387 136.50 449.50Q187 512 259.50 542.50Q332 573 417 573L476 573L502 724L25 724L28 740L726 740L723 724L519 724L490 557L414 557Z"  horiz-adv-x="626" vert-adv-y="1000"  />

      
      <glyph glyph-name="uni0923" unicode="&#x0923;" d="M917 724L755 724L628 0L611 0L738 724L488 724L431 399Q416 318 365.50 268Q315 218 240 218Q175 218 138 255.50Q101 293 101 356Q101 379 105 399L162 724L27 724L30 740L920 740L917 724M471 724L179 724L122 398Q118 370 118 359Q118 302 150 268Q182 234 239 234Q307 234 354 279.50Q401 325 414 398L471 724Z"  horiz-adv-x="820" vert-adv-y="1000"  />

      
      <glyph glyph-name="uni0924" unicode="&#x0924;" d="M778 724L617 724L489 0L472 0L558 487L392 487Q266 487 184 428.50Q102 370 81 253Q76 220 76 197Q76 111 129.50 64.50Q183 18 283 18L307 18L304 2L280 2Q175 2 117 52.50Q59 103 59 196Q59 228 64 253Q87 379 173.50 441Q260 503 394 503L561 503L600 724L27 724L30 740L781 740L778 724Z"  horiz-adv-x="681" vert-adv-y="1000"  />

      
      <glyph glyph-name="uni0925" unicode="&#x0925;" d="M840 740L838 724L676 724L548 0L531 0L578 264Q562 228 526 193.50Q490 159 438 136.50Q386 114 325 114Q218 114 156.50 170Q95 226 95 320Q95 352 100 376Q102 387 108 411L216 411Q310 411 382 448Q454 485 471 581Q474 598 474 613Q474 667 441 700Q408 733 348 733Q262 733 211.50 675Q161 617 161 525L144 525Q144 590 169 641Q194 692 240.50 720.50Q287 749 348 749Q415 749 453 711.50Q491 674 491 615Q491 598 488 581Q470 480 394.50 437.50Q319 395 214 395L121 395Q112 356 112 322Q112 231 169 180.50Q226 130 327 130Q389 130 445.50 157.50Q502 185 541 233.50Q580 282 591 343L661 740L840 740Z"  horiz-adv-x="740" vert-adv-y="1000"  />

      
      <glyph glyph-name="uni0926" unicode="&#x0926;" d="M704 724L534 724L507 572L386 572Q317 572 256.50 548.50Q196 525 154 477Q112 429 100 358Q96 337 96 313Q96 236 143.50 190.50Q191 145 273 145Q317 145 363.50 163.50Q410 182 446 221.50Q482 261 492 321L507 321L451 0L434 0L476 241Q451 192 394.50 160.50Q338 129 271 129Q183 129 131 179Q79 229 79 311Q79 337 83 358Q104 473 188.50 530.50Q273 588 388 588L492 588L517 724L27 724L30 740L707 740L704 724Z"  horiz-adv-x="607" vert-adv-y="1000"  />

      
      <glyph glyph-name="uni0927" unicode="&#x0927;" d="M791 724L629 724L501 0L484 0L532 275Q493 202 422 159Q351 116 266 116Q187 116 135.50 154Q84 192 84 257Q84 271 87 287Q99 351 143 388Q187 425 241 430L241 432Q195 440 164.50 472.50Q134 505 134 558Q134 575 137 594Q149 661 199 705Q249 749 320 749Q381 749 415 717Q449 685 449 630Q449 600 441 573L424 573Q432 600 432 628Q432 678 402 705.50Q372 733 317 733Q256 733 210 692.50Q164 652 154 593Q151 577 151 561Q151 505 189.50 472.50Q228 440 303 440L357 440L354 424L300 424Q236 424 191.50 401.50Q147 379 124.50 342Q102 305 102 260Q102 199 149 165.50Q196 132 269 132Q334 132 393 161Q452 190 493.50 242Q535 294 547 359L613 732L614 740L793 740L791 724Z"  horiz-adv-x="693" vert-adv-y="1000"  />

      
      <glyph glyph-name="uni0928" unicode="&#x0928;" d="M857 724L696 724L568 0L551 0L639 496L352 496Q389 484 412.50 450.50Q436 417 436 370Q436 354 433 336Q419 259 360 209.50Q301 160 222 160Q151 160 108.50 199Q66 238 66 301Q66 316 69 334Q83 414 142.50 462.50Q202 511 289 511L641 511L679 724L27 724L30 740L860 740L857 724M416 336Q419 353 419 369Q419 425 381 460Q343 495 281 495Q207 495 153 450.50Q99 406 86 334Q83 318 83 302Q83 245 121 210.50Q159 176 225 176Q271 176 312 197.50Q353 219 380.50 255.50Q408 292 416 336Z"  horiz-adv-x="760" vert-adv-y="1000"  />

      
      <glyph glyph-name="uni092A" unicode="&#x092A;" d="M732 724L570 724L443 0L426 0L488 351Q458 295 405 263Q352 231 284 231Q200 231 155.50 276.50Q111 322 111 405Q111 435 117 469L162 724L27 724L30 740L735 740L732 724M553 724L179 724L134 469Q128 436 128 407Q128 330 168 288.50Q208 247 285 247Q342 247 387.50 271.50Q433 296 462.50 338Q492 380 502 430L553 724Z"  horiz-adv-x="635" vert-adv-y="1000"  />

      
      <glyph glyph-name="uni092B" unicode="&#x092B;" d="M550 724L500 438Q531 502 588 543Q645 584 725 584Q803 584 853 536.50Q903 489 903 407Q903 382 899 359Q886 287 849.50 234.50Q813 182 760 154.50Q707 127 647 127Q617 127 591 133L594 149Q618 143 650 143Q705 143 753.50 168.50Q802 194 836 243Q870 292 882 359Q886 380 886 404Q886 480 840 524Q794 568 722 568Q656 568 606 537Q556 506 526 458.50Q496 411 486 359L423 0L406 0L468 353Q439 296 387.50 263.50Q336 231 271 231Q191 231 150.50 274Q110 317 110 398Q110 424 117 469L162 724L27 724L30 740L1086 740L1083 724L550 724M533 724L179 724L134 469Q127 425 127 399Q127 325 163.50 286Q200 247 275 247Q357 247 413 301.50Q469 356 483 438L533 724Z"  horiz-adv-x="986" vert-adv-y="1000"  />

      
      <glyph glyph-name="uni092C" unicode="&#x092C;" d="M790 740L787 724L625 724L498 0L481 0L529 268Q496 204 433 162Q370 120 285 120Q227 120 179.50 142.50Q132 165 105 207.50Q78 250 78 308Q78 332 82 353Q95 426 135.50 480.50Q176 535 235 564Q294 593 360 593Q446 593 496.50 549.50Q547 506 558 441L608 724L27 724L30 740L790 740M462 206Q495 238 516 277.50Q537 317 543 355Q547 374 547 397Q547 445 527 486Q507 527 465 552Q423 577 360 577Q315 577 272 562Q229 547 194 518L462 206M99 353Q95 333 95 309Q95 228 148.50 182Q202 136 286 136Q381 136 451 196L183 508Q117 450 99 353Z"  horiz-adv-x="690" vert-adv-y="1000"  />

      
      <glyph glyph-name="uni092D" unicode="&#x092D;" d="M842 740L840 724L678 724L550 0L533 0L608 429L408 429L390 325Q374 231 327 183.50Q280 136 210 136Q150 136 113.50 170Q77 204 77 260Q77 274 80 290Q93 360 145.50 402.50Q198 445 272 445L394 445L414 556Q420 589 420 617Q420 672 395 702Q370 732 319 732Q264 732 223 694.50Q182 657 170 592Q167 571 167 548L150 548Q150 571 153 592Q166 665 211.50 707Q257 749 319 749Q378 749 407.50 715Q437 681 437 617Q437 590 431 557L411 445L611 445L663 740L842 740M392 429L270 429Q204 429 156 391Q108 353 97 290Q94 275 94 261Q94 211 126 181.50Q158 152 210 152Q272 152 315.50 197Q359 242 373 324L392 429Z"  horiz-adv-x="742" vert-adv-y="1000"  />

      
      <glyph glyph-name="uni092E" unicode="&#x092E;" d="M832 724L670 724L543 0L526 0L601 429L369 429L351 325Q335 231 288 183.50Q241 136 171 136Q111 136 74.50 170Q38 204 38 260Q38 274 41 290Q53 360 106 402.50Q159 445 233 445L355 445L404 724L27 724L30 740L835 740L832 724M653 724L421 724L372 445L604 445L653 724M352 429L230 429Q164 429 116.50 391Q69 353 58 290Q55 275 55 261Q55 211 87 181.50Q119 152 171 152Q233 152 276 197Q319 242 334 324L352 429Z"  horiz-adv-x="735" vert-adv-y="1000"  />

      
      <glyph glyph-name="uni092F" unicode="&#x092F;" d="M817 724L655 724L528 0L511 0L561 283Q530 224 463.50 181Q397 138 306 138Q202 138 143 196Q84 254 84 354Q84 386 90 420Q94 441 98 455L116 455Q211 455 273.50 493.50Q336 532 355 635L370 724L27 724L30 740L820 740L817 724M638 724L387 724L372 635Q352 526 285.50 482.50Q219 439 113 439L110 439L106 420Q100 384 100 354Q100 259 155.50 206.50Q211 154 310 154Q371 154 427 179.50Q483 205 522 252Q561 299 574 360L638 724Z"  horiz-adv-x="720" vert-adv-y="1000"  />

      
      <glyph glyph-name="uni0930" unicode="&#x0930;" d="M637 724L487 724L464 591Q444 481 378 427.50Q312 374 211 374L118 374L89 204Q84 182 84 151Q84 85 120 46Q156 7 224 7Q298 7 346.50 56Q395 105 410 188L412 199L429 199Q427 191 427 188Q412 97 358.50 44Q305-9 224-9Q149-9 107.50 33.50Q66 76 66 149Q66 175 72 205L104 390L214 390Q307 390 368 440Q429 490 447 591L470 724L28 724L31 740L640 740L637 724Z"  horiz-adv-x="540" vert-adv-y="1000"  />

      
      <glyph glyph-name="uni0932" unicode="&#x0932;" d="M689 724L660 560Q729 557 765 512Q801 467 801 396Q801 373 796 341Q778 236 711 170Q644 104 538 104Q525 104 501 106L504 123Q526 121 535 121Q635 121 698.50 182Q762 243 779 341Q784 371 784 394Q784 462 750.50 503Q717 544 650 544Q567 544 511 480Q455 416 435 303L434 295L417 295L418 303Q426 349 426 384Q426 460 392.50 502Q359 544 294 544Q210 544 157 488Q104 432 88 341Q83 309 83 287Q83 211 126 166Q169 121 254 121Q263 121 285 123L282 106Q262 104 253 104Q162 104 113.50 153.50Q65 203 65 285Q65 311 71 341Q88 440 146 500Q204 560 295 560Q375 560 409.50 508Q444 456 441 387L443 387Q465 455 514.50 506Q564 557 643 560L672 724L18 724L21 740L986 740L983 724L689 724Z"  horiz-adv-x="886" vert-adv-y="1000"  />

      
      <glyph glyph-name="uni0935" unicode="&#x0935;" d="M781 740L778 724L616 724L489 0L472 0L519 268Q487 206 425 165.50Q363 125 278 125Q189 125 134 174Q79 223 79 310Q79 336 83 359Q95 428 135 480Q175 532 232 560Q289 588 353 588Q441 588 490 546.50Q539 505 549 440L599 724L27 724L30 740L781 740M278 141Q352 141 406.50 173.50Q461 206 493 255Q525 304 534 354Q538 373 538 398Q538 472 493 522Q448 572 354 572Q295 572 241 546.50Q187 521 149.50 472.50Q112 424 100 359Q96 338 96 312Q96 231 146 186Q196 141 278 141Z"  horiz-adv-x="681" vert-adv-y="1000"  />

      
      <glyph glyph-name="uni0936" unicode="&#x0936;" d="M364 749Q437 749 481 706Q525 663 525 591Q525 567 521 546Q504 451 432.50 400Q361 349 259 349L123 349L98 204Q93 172 93 151Q93 84 129 45.50Q165 7 235 7Q311 7 364.50 59Q418 111 431 199L448 199Q434 107 379 49Q324-9 236-9Q158-9 117 33Q76 75 76 149Q76 180 81 205L109 365L262 365Q354 365 422 414Q490 463 505 550Q509 569 509 591Q509 657 469.50 695Q430 733 364 733Q303 733 256 702.50Q209 672 183 619Q157 566 157 500L140 500Q140 571 168.50 628Q197 685 248 717Q299 749 364 749M877 740L874 724L712 724L585 0L568 0L698 740L877 740Z"  horiz-adv-x="777" vert-adv-y="1000"  />

      
      <glyph glyph-name="uni0937" unicode="&#x0937;" d="M732 724L570 724L443 0L426 0L488 350Q458 295 405.50 263Q353 231 286 231Q206 231 158.50 278.50Q111 326 111 410Q111 438 117 469L162 724L27 724L30 740L735 740L732 724M553 724L180 724L489 388Q499 414 503 438L553 724M290 247Q355 247 405.50 281.50Q456 316 482 373L176 704L134 469Q129 444 129 412Q129 334 171.50 290.50Q214 247 290 247Z"  horiz-adv-x="635" vert-adv-y="1000"  />

      
      <glyph glyph-name="uni0938" unicode="&#x0938;" d="M908 724L746 724L619 0L602 0L671 394L121 394L88 204Q83 174 83 153Q83 85 119 46Q155 7 225 7Q301 7 349.50 60.50Q398 114 411 199L428 199Q414 107 361.50 49Q309-9 224-9Q149-9 107.50 34.50Q66 78 66 153Q66 175 71 205L107 410L217 410Q307 410 369.50 464Q432 518 449 611L470 724L27 724L30 740L911 740L908 724M729 724L486 724L465 611Q449 525 402.50 475Q356 425 298 409L674 409L729 724Z"  horiz-adv-x="811" vert-adv-y="1000"  />

      
      <glyph glyph-name="uni0939" unicode="&#x0939;" d="M696 740L693 724L540 724L512 565L509 549L317 549Q254 549 207.50 523Q161 497 151 440Q149 426 149 419Q149 381 175 356Q201 331 245 321Q280 328 309 328Q369 328 409.50 306Q450 284 469.50 251Q489 218 492 183L475 183Q472 214 454 243.50Q436 273 399 292.50Q362 312 306 312Q243 312 192.50 284.50Q142 257 110.50 212Q79 167 70 115Q66 96 66 74Q66 6 109-37Q152-80 237-80Q315-80 371-41.50Q427-3 451 48L468 48Q444-8 384-52.50Q324-97 237-97Q145-97 97-48.50Q49 0 49 74Q49 87 53 115Q65 181 108 235Q151 289 217 313Q184 324 158.50 350Q133 376 133 418Q133 425 135 441Q146 505 196.50 535Q247 565 320 565L495 565L523 724L36 724L39 740L696 740Z"  horiz-adv-x="596" vert-adv-y="1000"  />

      
      <glyph glyph-name="uni0933" unicode="&#x0933;" d="M790 724L764 576Q841 571 887.50 523Q934 475 934 398Q934 372 930 351Q919 289 882.50 239Q846 189 791 161Q736 133 673 133Q617 133 576 155Q535 177 513.50 214Q492 251 491 294L489 294Q464 227 400.50 180Q337 133 253 133Q169 133 117.50 182Q66 231 66 309Q66 332 70 351Q82 418 119 469Q156 520 210.50 548Q265 576 327 576Q415 576 460.50 529.50Q506 483 511 417L513 417Q540 483 600 529Q660 575 747 576L773 724L16 724L19 740L1119 740L1116 724L790 724M490 351Q494 372 494 397Q494 471 449.50 515.50Q405 560 326 560Q268 560 217.50 534Q167 508 132.50 460.50Q98 413 87 351Q83 323 83 311Q83 238 130 193.50Q177 149 254 149Q313 149 363 175Q413 201 446.50 247Q480 293 490 351M913 351Q917 372 917 395Q917 471 871 515.50Q825 560 748 560Q657 560 592 502Q527 444 510 351Q506 331 506 309Q506 237 551 193Q596 149 674 149Q732 149 782.50 174.50Q833 200 868 246Q903 292 913 351Z"  horiz-adv-x="1019" vert-adv-y="1000"  />

      
      <glyph glyph-name="uni0958" unicode="&#x0958;" d="M585 724L535 442Q567 504 623 544Q679 584 758 584Q837 584 887.50 536Q938 488 938 406Q938 382 934 359Q921 287 884.50 234.50Q848 182 795.50 154.50Q743 127 682 127Q652 127 626 133L629 149Q653 143 685 143Q739 143 788 168.50Q837 194 871 243Q905 292 917 359Q921 380 921 404Q921 480 875 524Q829 568 757 568Q691 568 641 537.50Q591 507 561.50 460Q532 413 521 361L458 0L442 0L489 266Q458 205 399.50 166Q341 127 263 127Q180 127 129 175Q78 223 78 307Q78 329 83 359Q95 427 133 478Q171 529 225.50 556.50Q280 584 340 584Q420 584 465 544.50Q510 505 520 443L569 724L27 724L30 740L1121 740L1118 724L585 724M264 143Q331 143 381 173.50Q431 204 461 250Q491 296 502 344L505 361Q508 381 508 400Q508 471 467 519.50Q426 568 339 568Q284 568 233.50 542.50Q183 517 147 469.50Q111 422 100 359Q96 336 96 310Q96 231 142 187Q188 143 264 143M229-21Q219-21 213.50-15.50Q208-10 208-1Q208 11 216.50 19Q225 27 237 27Q246 27 251.50 21.50Q257 16 257 7Q257-5 248.50-13Q240-21 229-21Z"  horiz-adv-x="1021" vert-adv-y="1000"  />

      
      <glyph glyph-name="uni0959" unicode="&#x0959;" d="M1009 740L1006 724L844 724L717 0L700 0L750 284Q722 230 670 194.50Q618 159 548 159Q525 159 502 164Q465 93 401 46.50Q337 0 255 0Q168 0 118 44.50Q68 89 68 168Q68 193 72 214L104 394L148 394Q210 394 260 430Q310 466 327 563L355 724L27 724L30 740L1009 740M827 724L372 724L344 563Q325 458 271 418Q217 378 139 378L118 378L89 214Q85 194 85 172Q85 100 131 58Q177 16 259 16Q331 16 392 60Q453 104 486 169Q437 185 408 225.50Q379 266 379 325Q379 345 382 366Q392 426 425.50 471.50Q459 517 508 541Q557 565 613 565Q686 565 727 530Q768 495 777 441L827 724M551 175Q612 175 657 203Q702 231 728.50 274Q755 317 763 361Q767 387 767 400Q767 463 728.50 506Q690 549 611 549Q561 549 516 527Q471 505 440 463.50Q409 422 399 366Q395 338 395 325Q395 255 438.50 215Q482 175 551 175M217-148Q207-148 201.50-142.50Q196-137 196-128Q196-116 204.50-108Q213-100 225-100Q234-100 239.50-105.50Q245-111 245-120Q245-132 236.50-140Q228-148 217-148Z"  horiz-adv-x="909" vert-adv-y="1000"  />

      
      <glyph glyph-name="uni095A" unicode="&#x095A;" d="M783 740L780 724L618 724L491 0L474 0L601 724L377 724L322 414Q311 353 274 313Q237 273 172 273Q117 273 90 304Q63 335 63 382Q63 397 66 412L72 442L89 442L83 411Q80 396 80 382Q80 342 102 315.50Q124 289 172 289Q232 289 263.50 325Q295 361 305 414L360 724L27 724L30 740L783 740M150 118Q140 118 134.50 123.50Q129 129 129 138Q129 150 137.50 158Q146 166 158 166Q167 166 172.50 160.50Q178 155 178 146Q178 134 169.50 126Q161 118 150 118Z"  horiz-adv-x="683" vert-adv-y="1000"  />

      
      <glyph glyph-name="uni095B" unicode="&#x095B;" d="M920 724L759 724L631 0L614 0L701 493L444 493L417 340Q402 259 350 209Q298 159 220 159Q159 159 123 198Q87 237 87 300Q87 312 91 340L121 509L138 509L108 339Q104 311 104 299Q104 243 135.50 209Q167 175 222 175Q290 175 338.50 220.50Q387 266 400 339L430 509L704 509L742 724L27 724L30 740L923 740L920 724M199 11Q189 11 183.50 16.50Q178 22 178 31Q178 43 186.50 51Q195 59 207 59Q216 59 221.50 53.50Q227 48 227 39Q227 27 218.50 19Q210 11 199 11Z"  horiz-adv-x="823" vert-adv-y="1000"  />

      
      <glyph glyph-name="uni095C" unicode="&#x095C;" d="M324 546Q154 546 133 429Q131 413 131 406Q131 358 167.50 336Q204 314 262 314L307 314Q382 314 433.50 282.50Q485 251 485 183Q485 168 482 150Q469 80 410.50 35.50Q352-9 256-9Q157-9 105 35.50Q53 80 53 150Q53 166 56 184L73 184Q70 168 70 151Q70 86 117 46.50Q164 7 259 7Q345 7 399.50 47.50Q454 88 465 150Q468 167 468 182Q468 245 420.50 271.50Q373 298 303 298L258 298Q196 298 155 325.50Q114 353 114 405Q114 421 116 430Q129 502 185.50 532Q242 562 317 562L471 562L500 724L28 724L31 740L683 740L680 724L517 724L485 546L324 546M223-157Q213-157 207.50-151.50Q202-146 202-137Q202-125 210.50-117Q219-109 231-109Q240-109 245.50-114.50Q251-120 251-129Q251-141 242.50-149Q234-157 223-157Z"  horiz-adv-x="583" vert-adv-y="1000"  />

      
      <glyph glyph-name="uni095D" unicode="&#x095D;" d="M414 557Q334 557 265.50 527.50Q197 498 149.50 439.50Q102 381 87 295Q82 267 82 245Q82 184 110 137Q138 90 189.50 64.50Q241 39 307 39Q365 39 415 61.50Q465 84 497.50 123Q530 162 539 211Q542 226 542 240Q542 291 510 323Q478 355 424 355Q368 355 326 321.50Q284 288 276 232Q274 218 274 210L257 210Q257 219 259 233Q270 296 317 333.50Q364 371 427 371Q485 371 522 335Q559 299 559 242Q559 228 556 211Q547 157 511.50 114Q476 71 422 47Q368 23 304 23Q234 23 180 50.50Q126 78 95.50 128Q65 178 65 243Q65 264 70 294Q86 387 136.50 449.50Q187 512 259.50 542.50Q332 573 417 573L476 573L502 724L25 724L28 740L726 740L723 724L519 724L490 557L414 557M250-125Q240-125 234.50-119.50Q229-114 229-105Q229-93 237.50-85Q246-77 258-77Q267-77 272.50-82.50Q278-88 278-97Q278-109 269.50-117Q261-125 250-125Z"  horiz-adv-x="626" vert-adv-y="1000"  />

      
      <glyph glyph-name="uni095E" unicode="&#x095E;" d="M550 724L500 438Q531 502 588 543Q645 584 725 584Q803 584 853 536.50Q903 489 903 407Q903 382 899 359Q886 287 849.50 234.50Q813 182 760 154.50Q707 127 647 127Q617 127 591 133L594 149Q618 143 650 143Q705 143 753.50 168.50Q802 194 836 243Q870 292 882 359Q886 380 886 404Q886 480 840 524Q794 568 722 568Q656 568 606 537Q556 506 526 458.50Q496 411 486 359L423 0L406 0L468 353Q439 296 387.50 263.50Q336 231 271 231Q191 231 150.50 274Q110 317 110 398Q110 424 117 469L162 724L27 724L30 740L1086 740L1083 724L550 724M533 724L179 724L134 469Q127 425 127 399Q127 325 163.50 286Q200 247 275 247Q357 247 413 301.50Q469 356 483 438L533 724M239 83Q229 83 223.50 88.50Q218 94 218 103Q218 115 226.50 123Q235 131 247 131Q256 131 261.50 125.50Q267 120 267 111Q267 99 258.50 91Q250 83 239 83Z"  horiz-adv-x="986" vert-adv-y="1000"  />

      
      <glyph glyph-name="uni0931" unicode="&#x0931;" d="M637 724L487 724L464 591Q444 481 378 427.50Q312 374 211 374L118 374L89 204Q84 182 84 151Q84 85 120 46Q156 7 224 7Q298 7 346.50 56Q395 105 410 188L412 199L429 199Q427 191 427 188Q412 97 358.50 44Q305-9 224-9Q149-9 107.50 33.50Q66 76 66 149Q66 175 72 205L104 390L214 390Q307 390 368 440Q429 490 447 591L470 724L28 724L31 740L640 740L637 724M47-112Q37-112 31.50-106.50Q26-101 26-92Q26-80 34.50-72Q43-64 55-64Q64-64 69.50-69.50Q75-75 75-84Q75-96 66.50-104Q58-112 47-112Z"  horiz-adv-x="540" vert-adv-y="1000"  />

      
      <glyph glyph-name="uni0902" unicode="&#x0902;" d="M-48 855Q-58 855-63.50 860.50Q-69 866-69 875Q-69 887-60.50 895Q-52 903-41 903Q-31 903-25.50 897.50Q-20 892-20 883Q-20 871-28.50 863Q-37 855-48 855Z"   vert-adv-y="1000"  />

      
      <glyph glyph-name="uni0901" unicode="&#x0901;" d="M-29 978Q-39 978-44 983.50Q-49 989-49 997Q-49 1010-41 1018Q-33 1026-20 1026Q-11 1026-5 1020.50Q1 1015 1 1007Q1 995-8 986.50Q-17 978-29 978M-52 824Q-127 824-165.50 861Q-204 898-204 948Q-204 955-202 969L-186 969Q-188 957-188 949Q-188 904-154.50 872Q-121 840-54 840Q-3 840 35.50 859.50Q74 879 96.50 908.50Q119 938 124 969L140 969Q133 934 109.50 901Q86 868 45 846Q4 824-52 824Z"   vert-adv-y="1000"  />

      
      <glyph glyph-name="uni0903" unicode="&#x0903;" d="M119 489Q108 489 102 496Q96 503 98 513Q100 524 108 530.50Q116 537 127 537Q137 537 143 530.50Q149 524 147 513Q145 502 137 495.50Q129 489 119 489M63 173Q52 173 46 179.50Q40 186 42 197Q44 208 52 214.50Q60 221 71 221Q82 221 87.50 214Q93 207 91 197Q90 187 82 180Q74 173 63 173Z"  horiz-adv-x="189" vert-adv-y="1000"  />

      
      <glyph glyph-name="uni093D" unicode="&#x093D;" d="M43 91L284 91Q339 91 370 121.50Q401 152 401 195Q401 234 374.50 271.50Q348 309 295 363Q238 421 209 462Q180 503 180 549Q180 556 182 572Q192 627 233.50 649.50Q275 672 334 672L516 672L513 656L335 656Q278 656 237.50 633Q197 610 197 552Q197 511 224.50 472Q252 433 306 378Q361 322 389.50 281.50Q418 241 418 197Q418 149 385.50 112Q353 75 281 75L40 75L43 91Z"  horiz-adv-x="558" vert-adv-y="1000"  />

      
      <glyph glyph-name="uni094D" unicode="&#x094D;" d="M-217-66L-199-66L-115-244L-134-244L-217-66Z"   vert-adv-y="1000"  />

      
      <glyph glyph-name="uni093C" unicode="&#x093C;" d="M-431-45Q-441-45-446.50-39.50Q-452-34-452-25Q-452-13-443.50-5Q-435 3-423 3Q-414 3-408.50-2.50Q-403-8-403-17Q-403-29-411.50-37Q-420-45-431-45Z"   vert-adv-y="1000"  />

      
      <glyph glyph-name="uni0966" unicode="&#x0966;" d="M70 354Q53 255 53 195Q53 97 94 45Q135-7 231-7Q320-7 377.50 38.50Q435 84 466.50 162Q498 240 518 354Q535 451 535 511Q535 607 494 659Q453 711 357 711Q267 711 210 666Q153 621 121.50 544Q90 467 70 354M498 354Q479 245 450 171Q421 97 369 54Q317 11 234 11Q147 11 110 59Q73 107 73 197Q73 257 90 354Q109 462 138 535Q167 608 219 650.50Q271 693 354 693Q441 693 478 645.50Q515 598 515 509Q515 451 498 354Z"  horiz-adv-x="558" vert-adv-y="1000"  />

      
      <glyph glyph-name="uni0967" unicode="&#x0967;" d="M74 686L77 704L203 704L79 0L59 0L180 686L74 686Z"  horiz-adv-x="226" vert-adv-y="1000"  />

      
      <glyph glyph-name="uni0968" unicode="&#x0968;" d="M-11 11Q207 137 344 261.50Q481 386 501 495Q506 525 506 547Q506 613 467.50 653Q429 693 343 693Q247 693 186.50 636Q126 579 108 480L88 480Q109 592 178 651.50Q247 711 346 711Q424 711 475 672Q526 633 526 549Q526 519 521 495Q506 410 426.50 319.50Q347 229 240 151.50Q133 74 28 18L457 18L454 0L-13 0L-11 11Z"  horiz-adv-x="557" vert-adv-y="1000"  />

      
      <glyph glyph-name="uni0969" unicode="&#x0969;" d="M356 711Q440 711 485.50 670Q531 629 531 563Q531 545 528 527Q518 467 468 422.50Q418 378 323 370L322 364Q481 327 481 200Q481 179 477 159Q465 86 408 39.50Q351-7 253-7Q145-7 85 46.50Q25 100 26 197L46 197Q47 113 98.50 63Q150 13 256 13Q342 13 394 54Q446 95 457 159Q461 185 461 197Q461 275 399 316Q337 357 227 357L210 357L213 376L231 376Q359 376 427 415.50Q495 455 508 527Q511 545 511 561Q511 622 470 657.50Q429 693 353 693Q271 693 203 649.50Q135 606 115 516L95 516Q113 605 184 658Q255 711 356 711Z"  horiz-adv-x="545" vert-adv-y="1000"  />

      
      <glyph glyph-name="uni096A" unicode="&#x096A;" d="M-9 190L-6 206L479 704L499 704L412 208L534 208L530 190L408 190L375 0L355 0L388 190L-9 190M473 672L20 208L392 208L473 672Z"  horiz-adv-x="554" vert-adv-y="1000"  />

      
      <glyph glyph-name="uni096B" unicode="&#x096B;" d="M563 686L161 686L104 366Q141 409 201.50 435Q262 461 328 461Q427 461 475 409.50Q523 358 523 275Q523 246 517 216Q500 121 434.50 57Q369-7 257-7Q156-7 98.50 46Q41 99 42 192L62 192Q63 105 116.50 59Q170 13 260 13Q360 13 420.50 69Q481 125 497 216Q502 249 502 272Q502 353 456.50 398Q411 443 325 443Q262 443 198 413Q134 383 96 333L78 333L144 704L566 704L563 686Z"  horiz-adv-x="592" vert-adv-y="1000"  />

      
      <glyph glyph-name="uni096C" unicode="&#x096C;" d="M535 522Q526 694 370 694Q255 694 181.50 600.50Q108 507 80 297Q107 375 180 421.50Q253 468 342 468Q436 468 486.50 420Q537 372 537 286Q537 257 531 224Q514 127 447 60Q380-7 264-7Q150-7 102 50.50Q54 108 54 208Q54 260 68 339Q99 519 171 615.50Q243 712 373 712Q466 712 509 660.50Q552 609 555 522L535 522M77 245Q72 217 72 195Q72 116 119.50 63.50Q167 11 267 11Q361 11 427.50 68Q494 125 511 224Q517 256 517 284Q517 365 470 407.50Q423 450 339 450Q283 450 227.50 427Q172 404 130.50 358Q89 312 77 245Z"  horiz-adv-x="594" vert-adv-y="1000"  />

      
      <glyph glyph-name="uni096D" unicode="&#x096D;" d="M501 686L100 0L77 0L482 686L49 686L52 704L504 704L501 686Z"  horiz-adv-x="462" vert-adv-y="1000"  />

      
      <glyph glyph-name="uni096E" unicode="&#x096E;" d="M108 542Q122 619 192 665Q262 711 369 711Q464 711 516.50 670Q569 629 569 558Q569 540 566 522Q556 463 510.50 421Q465 379 383 362Q451 350 489 309Q527 268 527 205Q527 187 524 167Q508 78 432.50 26.50Q357-25 239-25Q135-25 78.50 20Q22 65 22 144Q22 167 26 187Q38 257 92.50 302.50Q147 348 231 362Q166 376 135.50 413.50Q105 451 105 504Q105 523 108 542M128 542Q125 524 125 509Q125 443 174 407Q223 371 309 371Q406 371 469.50 410.50Q533 450 546 522Q549 540 549 556Q549 622 500 657.50Q451 693 366 693Q270 693 205.50 654Q141 615 128 542M46 187Q42 159 42 148Q42 73 95.50 33Q149-7 242-7Q347-7 418 38Q489 83 504 167Q507 187 507 204Q507 280 451 316.50Q395 353 306 353Q205 353 133 312.50Q61 272 46 187Z"  horiz-adv-x="608" vert-adv-y="1000"  />

      
      <glyph glyph-name="uni096F" unicode="&#x096F;" d="M79 182Q75 101 114 55.50Q153 10 234 10Q354 10 430 103.50Q506 197 534 407Q507 329 434 282.50Q361 236 272 236Q178 236 127.50 284Q77 332 77 418Q77 447 83 480Q100 577 167 644Q234 711 350 711Q464 711 512 653.50Q560 596 560 496Q560 444 546 365Q515 186 439.50 89Q364-8 231-8Q141-8 97.50 43Q54 94 59 182L79 182M537 459Q542 487 542 509Q542 588 494.50 640.50Q447 693 347 693Q253 693 186.50 636Q120 579 103 480Q97 449 97 420Q97 339 144 296.50Q191 254 275 254Q331 254 386.50 277Q442 300 483.50 346Q525 392 537 459Z"  horiz-adv-x="614" vert-adv-y="1000"  />

      
      <glyph glyph-name="uni0950" unicode="&#x0950;" d="M664 915Q654 915 648.50 920.50Q643 926 643 935Q643 947 651.50 955Q660 963 672 963Q681 963 686.50 957.50Q692 952 692 943Q692 931 683.50 923Q675 915 664 915M646 761Q568 761 528.50 797Q489 833 489 883Q489 899 491 906L507 906Q505 892 505 886Q505 841 540 809Q575 777 645 777Q722 777 764.50 815.50Q807 854 817 906L833 906Q823 849 776.50 805Q730 761 646 761M804 690Q877 690 910 649.50Q943 609 943 534Q943 492 934 442L907 292Q884 160 819 96.50Q754 33 622 33Q585 33 528 43L531 59Q589 49 625 49Q747 49 807.50 110Q868 171 890 292L917 442Q926 492 926 533Q926 601 896.50 637.50Q867 674 801 674Q722 674 678.50 629Q635 584 622 510Q595 360 449 360L411 360Q453 320 453 251Q453 234 450 214Q433 124 369.50 69Q306 14 216 14Q136 14 87 57.50Q38 101 38 173Q38 191 41 210L58 210Q55 192 55 176Q55 110 99.50 70Q144 30 218 30Q299 30 358.50 81Q418 132 433 214Q436 231 436 248Q436 307 398.50 347.50Q361 388 280 388L246 388L249 404L283 404Q339 404 381.50 427.50Q424 451 448.50 487Q473 523 480 562Q483 580 483 597Q483 661 441.50 697Q400 733 335 733Q260 733 202.50 690.50Q145 648 132 577L115 577Q129 657 191.50 703Q254 749 338 749Q411 749 456 709Q501 669 501 601Q501 584 498 566Q486 500 443.50 454.50Q401 409 332 397L332 396Q363 392 390 376L452 376Q511 376 551.50 407Q592 438 605 510Q620 593 668 641.50Q716 690 804 690Z"  horiz-adv-x="1042" vert-adv-y="1000"  />

      
      <glyph glyph-name="uni0970" unicode="&#x0970;" d="M415 358Q403 290 352 247Q301 204 232 204Q169 204 130 239Q91 274 91 331Q91 345 94 360Q106 428 158.50 472Q211 516 282 516Q343 516 380.50 481Q418 446 418 389Q418 375 415 358M109 333Q109 282 142.50 251Q176 220 232 220Q294 220 340.50 258.50Q387 297 398 358Q400 368 400 386Q400 437 368 468.50Q336 500 282 500Q235 500 195.50 478Q156 456 132.50 418Q109 380 109 333Z"  horiz-adv-x="509" vert-adv-y="1000"  />

      
      <glyph glyph-name="uni0964" unicode="&#x0964;" d="M117 0L100 0L230 742L247 742L117 0Z"  horiz-adv-x="227" vert-adv-y="1000"  />

      
      <glyph glyph-name="uni0965" unicode="&#x0965;" d="M117 0L100 0L230 742L247 742L117 0M272 0L255 0L385 742L402 742L272 0Z"  horiz-adv-x="382" vert-adv-y="1000"  />

      
      <glyph glyph-name="uni20A8" unicode="&#x20A8;" d="M326 704Q426 704 473 663.50Q520 623 520 551Q520 526 516 505Q500 412 437 361.50Q374 311 271 307L434 0L409 0L247 307L98 307L44 0L24 0L148 704L326 704M496 505Q500 526 500 551Q500 615 457.50 649.50Q415 684 322 684L164 684L101 328L259 328Q464 328 496 505M772 547Q852 547 894.50 502.50Q937 458 932 382L912 382Q916 444 880.50 486.50Q845 529 769 529Q702 529 657.50 495.50Q613 462 603 407Q601 391 601 385Q601 353 620 333.50Q639 314 666 304Q693 294 740 283Q792 270 822 258.50Q852 247 873.50 223.50Q895 200 895 161Q895 114 870.50 75.50Q846 37 804 15Q762-7 710-7Q625-7 577 37.50Q529 82 533 158L553 158Q549 95 589.50 53Q630 11 714 11Q778 11 820.50 45.50Q863 80 872 133Q874 149 874 156Q874 190 854.50 210.50Q835 231 807 241.50Q779 252 731 264Q682 276 652 287.50Q622 299 601.50 321.50Q581 344 581 381Q581 398 583 407Q594 471 646 509Q698 547 772 547Z"  horiz-adv-x="990" vert-adv-y="1000"  />

      
      <glyph glyph-name="uni20B9" unicode="&#x20B9;" d="M476 548L471 521L640 521L637 503L467 503Q449 427 414 389Q379 351 315 337Q251 323 135 323L112 194Q107 161 107 140Q107 8 244 8Q321 8 369 53.50Q417 99 432 184L452 184Q436 89 380 39.50Q324-10 241-10Q164-10 125.50 28.50Q87 67 87 135Q87 156 92 188L119 341Q243 341 306.50 354Q370 367 401 400.50Q432 434 448 503L93 503L96 521L452 521L458 550L482 686L125 686L128 704L672 704L669 686L501 686L476 548Z"  horiz-adv-x="674" vert-adv-y="1000"  />

      
      <glyph glyph-name="uni200C" unicode="&#x200C;" d="M-23 811L24 811L24-230L-23-230L-23 811Z"   vert-adv-y="1000"  />

      
      <glyph glyph-name="uni200D" unicode="&#x200D;" d="M23 635L23-230L-24-230L-24 635L-93 562L-126 595L-33 688L-128 783L-95 816L0 721L96 816L128 784L32 688L128 593L95 560L23 635Z"   vert-adv-y="1000"  />

      
      <glyph glyph-name="uni25CC" unicode="&#x25CC;" d="M301 456Q282 456 270 467.50Q258 479 258 498Q258 517 270 528.50Q282 540 301 540Q320 540 332 528.50Q344 517 344 498Q344 479 332 467.50Q320 456 301 456M422 441Q403 441 391 452.50Q379 464 379 483Q379 502 391 513.50Q403 525 422 525Q441 525 453 513.50Q465 502 465 483Q465 464 453 452.50Q441 441 422 441M184 414Q165 414 153 425.50Q141 437 141 456Q141 475 153 486.50Q165 498 184 498Q203 498 215 486.50Q227 475 227 456Q227 437 215 425.50Q203 414 184 414M514 367Q495 367 483 378.50Q471 390 471 409Q471 428 483 439.50Q495 451 514 451Q533 451 545 439.50Q557 428 557 409Q557 390 545 378.50Q533 367 514 367M108 315Q89 315 77 326.50Q65 338 65 357Q65 376 77 387.50Q89 399 108 399Q127 399 139 387.50Q151 376 151 357Q151 338 139 326.50Q127 315 108 315M558 253Q539 253 527 264.50Q515 276 515 295Q515 314 527 325.50Q539 337 558 337Q577 337 589 325.50Q601 314 601 295Q601 276 589 264.50Q577 253 558 253M93 194Q74 194 62 205.50Q50 217 50 236Q50 255 62 266.50Q74 278 93 278Q112 278 124 266.50Q136 255 136 236Q136 217 124 205.50Q112 194 93 194M548 133Q529 133 517 144.50Q505 156 505 175Q505 194 517 205.50Q529 217 548 217Q567 217 579 205.50Q591 194 591 175Q591 156 579 144.50Q567 133 548 133M138 81Q119 81 107 92.50Q95 104 95 123Q95 142 107 153.50Q119 165 138 165Q157 165 169 153.50Q181 142 181 123Q181 104 169 92.50Q157 81 138 81M475 37Q456 37 444 48.50Q432 60 432 79Q432 98 444 109.50Q456 121 475 121Q494 121 506 109.50Q518 98 518 79Q518 60 506 48.50Q494 37 475 37M236 5Q217 5 205 16.50Q193 28 193 47Q193 66 205 77.50Q217 89 236 89Q255 89 267 77.50Q279 66 279 47Q279 28 267 16.50Q255 5 236 5M360-9Q341-9 329 2.50Q317 14 317 33Q317 52 329 63.50Q341 75 360 75Q379 75 391 63.50Q403 52 403 33Q403 14 391 2.50Q379-9 360-9Z"  horiz-adv-x="651" vert-adv-y="1000"  />

      
      <glyph glyph-name="uni21" unicode="&#x21;" d="M184 704L83 167L71 167L160 704L184 704M84 49L75 0L25 0L34 49L84 49Z"  horiz-adv-x="224" vert-adv-y="1000"  />

      
      <glyph glyph-name="uni22" unicode="&#x22;" d="M87 793L48 614L32 614L56 793L87 793M172 793L133 614L117 614L141 793L172 793Z"  horiz-adv-x="196" vert-adv-y="1000"  />

      
      <glyph glyph-name="uni23" unicode="&#x23;" d="M557 465L480 266L635 266L631 248L473 248L376 0L356 0L453 248L202 248L105 0L85 0L182 248L18 248L22 266L189 266L266 465L107 465L110 483L273 483L373 740L393 740L293 483L544 483L644 740L664 740L564 483L723 483L720 465L557 465M537 465L286 465L209 266L460 266L537 465Z"  horiz-adv-x="743" vert-adv-y="1000"  />

      
      <glyph glyph-name="uni24" unicode="&#x24;" d="M475 559Q472 603 439 643.50Q406 684 337 691L280 367Q334 350 368 334Q402 318 424.50 288Q447 258 447 210Q447 189 443 169Q435 125 408.50 85Q382 45 334.50 19Q287-7 221-7L214-7L200-87L180-87L194-6Q140-1 101.50 24.50Q63 50 45 88.50Q27 127 30 169L50 169Q49 138 62.50 104Q76 70 109.50 44Q143 18 197 12L257 353Q202 370 168.50 385.50Q135 401 112 430Q89 459 89 505Q89 515 93 543Q106 616 164 663.50Q222 711 313 711L320 711L336 800L356 800L340 710Q417 702 454.50 658Q492 614 495 559L475 559M317 693L309 693Q232 693 179 653.50Q126 614 113 543Q110 525 110 510Q110 470 130 444Q150 418 181 403Q212 388 261 373L317 693M423 169Q426 189 426 204Q426 246 406 273Q386 300 355 316Q324 332 276 347L217 11L224 11Q307 11 359 56Q411 101 423 169Z"  horiz-adv-x="536" vert-adv-y="1000"  />

      
      <glyph glyph-name="uni25" unicode="&#x25;" d="M230 711Q278 711 307.50 682Q337 653 337 607Q337 565 316 529.50Q295 494 260 473.50Q225 453 185 453Q137 453 108 482Q79 511 79 557Q79 599 99.50 634.50Q120 670 155 690.50Q190 711 230 711M549 704L2 0L-21 0L526 704L549 704M99 558Q99 519 123 495Q147 471 188 471Q235 471 270.50 502.50Q306 534 315 582Q317 598 317 604Q317 644 292.50 668.50Q268 693 227 693Q192 693 162.50 675Q133 657 116 626Q99 595 99 558M344 250Q392 250 421 221Q450 192 450 146Q450 104 429.50 68.50Q409 33 374 12.50Q339-8 299-8Q251-8 221.50 21Q192 50 192 96Q192 138 213 173.50Q234 209 269 229.50Q304 250 344 250M214 121Q212 105 212 99Q212 59 236.50 34.50Q261 10 302 10Q337 10 366.50 28Q396 46 413 77Q430 108 430 145Q430 184 406 208Q382 232 341 232Q294 232 258.50 200.50Q223 169 214 121Z"  horiz-adv-x="529" vert-adv-y="1000"  />

      
      <glyph glyph-name="uni26" unicode="&#x26;" d="M576 0L383 255Q396 227 396 207Q396 197 393 180Q383 126 351.50 83.50Q320 41 273.50 17Q227-7 174-7Q102-7 55 35Q8 77 8 152Q8 174 12 194Q23 256 54 299Q85 342 128 364Q171 386 218 386Q246 386 268.50 379Q291 372 305 360Q272 401 270 404Q243 439 229.50 466Q216 493 216 530Q216 547 219 566Q230 625 278 668Q326 711 400 711Q472 711 506 674.50Q540 638 540 582Q540 565 537 548L531 521L511 521Q515 540 516 546Q519 564 519 581Q519 634 487 663.50Q455 693 397 693Q333 693 290.50 656Q248 619 239 566Q236 548 236 533Q236 503 246.50 479.50Q257 456 278 428L600 0L576 0M373 180Q376 195 376 210Q376 254 354 290Q332 326 295.50 346Q259 366 219 366Q150 366 98.50 322Q47 278 32 194Q29 175 29 156Q29 89 71 51Q113 13 177 13Q250 13 305 60Q360 107 373 180Z"  horiz-adv-x="672" vert-adv-y="1000"  />

      
      <glyph glyph-name="uni27" unicode="&#x27;" d="M95 793L52 614L36 614L56 793L95 793Z"  horiz-adv-x="119" vert-adv-y="1000"  />

      
      <glyph glyph-name="uni28" unicode="&#x28;" d="M60 403Q94 598 191 747.50Q288 897 420 987L440 987L439 984Q291 881 201.50 732.50Q112 584 80 403Q65 319 65 241Q65-21 235-178L234-181L214-181Q136-110 91-2Q46 106 46 245Q46 325 60 403Z"  horiz-adv-x="357" vert-adv-y="1000"  />

      
      <glyph glyph-name="uni29" unicode="&#x29;" d="M297 403Q263 208 166 58.50Q69-91-63-181L-83-181L-82-178Q66-75 155.50 73.50Q245 222 277 403Q292 487 292 565Q292 827 122 984L123 987L143 987Q221 916 266 808Q311 700 311 561Q311 481 297 403Z"  horiz-adv-x="357" vert-adv-y="1000"  />

      
      <glyph glyph-name="uni2a" unicode="&#x2a;" d="M383 653L400 608L228 544L378 480L347 437L227 531L213 360L162 360L204 531L46 434L29 479L199 543L51 609L87 656L208 559L226 728L276 728L232 559L383 653Z"  horiz-adv-x="429" vert-adv-y="1000"  />

      
      <glyph glyph-name="uni2b" unicode="&#x2b;" d="M547 371L302 371L259 125L239 125L282 371L38 371L42 389L286 389L329 635L349 635L306 389L551 389L547 371Z"  horiz-adv-x="589" vert-adv-y="1000"  />

      
      <glyph glyph-name="uni2c" unicode="&#x2c;" d="M68 31Q62-86-15-86L-12-68Q32-68 40-14L42-7L11-7L17 31L68 31Z"  horiz-adv-x="120" vert-adv-y="1000"  />

      
      <glyph glyph-name="uni2d" unicode="&#x2d;" d="M424 389L420 371L56 371L60 389L424 389Z"  horiz-adv-x="444" vert-adv-y="1000"  />

      
      <glyph glyph-name="uni2e" unicode="&#x2e;" d="M85 49L77 0L27 0L35 49L85 49Z"  horiz-adv-x="113" vert-adv-y="1000"  />

      
      <glyph glyph-name="uni2f" unicode="&#x2f;" d="M425 935L-46-156L-66-156L403 935L425 935Z"  horiz-adv-x="359" vert-adv-y="1000"  />

      
      <glyph glyph-name="uni30" unicode="&#x30;" d="M70 354Q53 255 53 195Q53 97 94 45Q135-7 231-7Q320-7 377.50 38.50Q435 84 466.50 162Q498 240 518 354Q535 451 535 511Q535 607 494 659Q453 711 357 711Q267 711 210 666Q153 621 121.50 544Q90 467 70 354M498 354Q479 245 450 171Q421 97 369 54Q317 11 234 11Q147 11 110 59Q73 107 73 197Q73 257 90 354Q109 462 138 535Q167 608 219 650.50Q271 693 354 693Q441 693 478 645.50Q515 598 515 509Q515 451 498 354Z"  horiz-adv-x="558" vert-adv-y="1000"  />

      
      <glyph glyph-name="uni31" unicode="&#x31;" d="M74 686L77 704L203 704L79 0L59 0L180 686L74 686Z"  horiz-adv-x="226" vert-adv-y="1000"  />

      
      <glyph glyph-name="uni32" unicode="&#x32;" d="M-11 11Q207 137 344 261.50Q481 386 501 495Q506 525 506 547Q506 613 467.50 653Q429 693 343 693Q247 693 186.50 636Q126 579 108 480L88 480Q109 592 178 651.50Q247 711 346 711Q424 711 475 672Q526 633 526 549Q526 519 521 495Q506 410 426.50 319.50Q347 229 240 151.50Q133 74 28 18L457 18L454 0L-13 0L-11 11Z"  horiz-adv-x="557" vert-adv-y="1000"  />

      
      <glyph glyph-name="uni33" unicode="&#x33;" d="M356 711Q440 711 485.50 670Q531 629 531 563Q531 545 528 527Q518 467 468 422.50Q418 378 323 370L322 364Q481 327 481 200Q481 179 477 159Q465 86 408 39.50Q351-7 253-7Q145-7 85 46.50Q25 100 26 197L46 197Q47 113 98.50 63Q150 13 256 13Q342 13 394 54Q446 95 457 159Q461 185 461 197Q461 275 399 316Q337 357 227 357L210 357L213 376L231 376Q359 376 427 415.50Q495 455 508 527Q511 545 511 561Q511 622 470 657.50Q429 693 353 693Q271 693 203 649.50Q135 606 115 516L95 516Q113 605 184 658Q255 711 356 711Z"  horiz-adv-x="545" vert-adv-y="1000"  />

      
      <glyph glyph-name="uni34" unicode="&#x34;" d="M-9 190L-6 206L479 704L499 704L412 208L534 208L530 190L408 190L375 0L355 0L388 190L-9 190M473 672L20 208L392 208L473 672Z"  horiz-adv-x="554" vert-adv-y="1000"  />

      
      <glyph glyph-name="uni35" unicode="&#x35;" d="M563 686L161 686L104 366Q141 409 201.50 435Q262 461 328 461Q427 461 475 409.50Q523 358 523 275Q523 246 517 216Q500 121 434.50 57Q369-7 257-7Q156-7 98.50 46Q41 99 42 192L62 192Q63 105 116.50 59Q170 13 260 13Q360 13 420.50 69Q481 125 497 216Q502 249 502 272Q502 353 456.50 398Q411 443 325 443Q262 443 198 413Q134 383 96 333L78 333L144 704L566 704L563 686Z"  horiz-adv-x="592" vert-adv-y="1000"  />

      
      <glyph glyph-name="uni36" unicode="&#x36;" d="M535 522Q526 694 370 694Q255 694 181.50 600.50Q108 507 80 297Q107 375 180 421.50Q253 468 342 468Q436 468 486.50 420Q537 372 537 286Q537 257 531 224Q514 127 447 60Q380-7 264-7Q150-7 102 50.50Q54 108 54 208Q54 260 68 339Q99 519 171 615.50Q243 712 373 712Q466 712 509 660.50Q552 609 555 522L535 522M77 245Q72 217 72 195Q72 116 119.50 63.50Q167 11 267 11Q361 11 427.50 68Q494 125 511 224Q517 256 517 284Q517 365 470 407.50Q423 450 339 450Q283 450 227.50 427Q172 404 130.50 358Q89 312 77 245Z"  horiz-adv-x="594" vert-adv-y="1000"  />

      
      <glyph glyph-name="uni37" unicode="&#x37;" d="M501 686L100 0L77 0L482 686L49 686L52 704L504 704L501 686Z"  horiz-adv-x="462" vert-adv-y="1000"  />

      
      <glyph glyph-name="uni38" unicode="&#x38;" d="M108 542Q122 619 192 665Q262 711 369 711Q464 711 516.50 670Q569 629 569 558Q569 540 566 522Q556 463 510.50 421Q465 379 383 362Q451 350 489 309Q527 268 527 205Q527 187 524 167Q508 78 432.50 26.50Q357-25 239-25Q135-25 78.50 20Q22 65 22 144Q22 167 26 187Q38 257 92.50 302.50Q147 348 231 362Q166 376 135.50 413.50Q105 451 105 504Q105 523 108 542M128 542Q125 524 125 509Q125 443 174 407Q223 371 309 371Q406 371 469.50 410.50Q533 450 546 522Q549 540 549 556Q549 622 500 657.50Q451 693 366 693Q270 693 205.50 654Q141 615 128 542M46 187Q42 159 42 148Q42 73 95.50 33Q149-7 242-7Q347-7 418 38Q489 83 504 167Q507 187 507 204Q507 280 451 316.50Q395 353 306 353Q205 353 133 312.50Q61 272 46 187Z"  horiz-adv-x="608" vert-adv-y="1000"  />

      
      <glyph glyph-name="uni39" unicode="&#x39;" d="M79 182Q75 101 114 55.50Q153 10 234 10Q354 10 430 103.50Q506 197 534 407Q507 329 434 282.50Q361 236 272 236Q178 236 127.50 284Q77 332 77 418Q77 447 83 480Q100 577 167 644Q234 711 350 711Q464 711 512 653.50Q560 596 560 496Q560 444 546 365Q515 186 439.50 89Q364-8 231-8Q141-8 97.50 43Q54 94 59 182L79 182M537 459Q542 487 542 509Q542 588 494.50 640.50Q447 693 347 693Q253 693 186.50 636Q120 579 103 480Q97 449 97 420Q97 339 144 296.50Q191 254 275 254Q331 254 386.50 277Q442 300 483.50 346Q525 392 537 459Z"  horiz-adv-x="614" vert-adv-y="1000"  />

      
      <glyph glyph-name="uni3a" unicode="&#x3a;" d="M125 503L117 454L67 454L75 503L125 503M45 49L37 0L-13 0L-5 49L45 49Z"  horiz-adv-x="113" vert-adv-y="1000"  />

      
      <glyph glyph-name="uni3b" unicode="&#x3b;" d="M153 504L145 455L95 455L103 504L153 504M51 31Q45-86-32-86L-29-68Q15-68 23-14L25-7L-6-7L0 31L51 31Z"  horiz-adv-x="140" vert-adv-y="1000"  />

      
      <glyph glyph-name="uni3c" unicode="&#x3c;" d="M274 143L40 380L358 618L383 618L65 380L299 143L274 143Z"  horiz-adv-x="381" vert-adv-y="1000"  />

      
      <glyph glyph-name="uni3d" unicode="&#x3d;" d="M541 478L538 460L54 460L57 478L541 478M510 301L507 283L23 283L26 301L510 301Z"  horiz-adv-x="564" vert-adv-y="1000"  />

      
      <glyph glyph-name="uni3e" unicode="&#x3e;" d="M82 618L107 618L341 380L23 143L-2 143L316 380L82 618Z"  horiz-adv-x="381" vert-adv-y="1000"  />

      
      <glyph glyph-name="uni3f" unicode="&#x3f;" d="M297 711Q380 711 427 666Q474 621 474 544Q474 520 470 499Q452 389 372.50 343.50Q293 298 171 297L145 152L125 152L154 315L170 315Q419 315 450 499Q454 520 454 545Q454 615 411.50 654Q369 693 294 693Q207 693 154 648Q101 603 79 522L59 522Q82 613 143.50 662Q205 711 297 711M143 49L134 0L84 0L93 49L143 49Z"  horiz-adv-x="482" vert-adv-y="1000"  />

      
      <glyph glyph-name="uni40" unicode="&#x40;" d="M578 553Q672 553 719.50 503Q767 453 767 373Q767 320 747 262L689 93Q680 66 680 49Q680 6 738 6Q785 6 831 45Q877 84 912.50 155.50Q948 227 965 321Q975 383 975 425Q975 573 888.50 656.50Q802 740 629 740Q484 740 365 673.50Q246 607 169 491.50Q92 376 67 233Q56 169 56 118Q56-50 156.50-133Q257-216 435-220L429-239Q243-236 138.50-147.50Q34-59 34 115Q34 167 45 233Q70 372 147.50 492Q225 612 349.50 685.50Q474 759 632 759Q813 759 903.50 668.50Q994 578 994 424Q994 375 985 321Q968 226 929 150Q890 74 839 31Q788-12 735-12Q701-12 682 1.50Q663 15 663 47Q663 82 687 137L685 138Q636 67 570.50 27.50Q505-12 426-12Q343-12 295 39Q247 90 247 177Q247 210 252 235Q268 325 316.50 398Q365 471 434.50 512Q504 553 578 553M574 533Q500 533 436.50 494Q373 455 329.50 387Q286 319 272 235Q267 203 267 180Q267 103 308.50 54.50Q350 6 429 6Q501 6 566.50 45Q632 84 678.50 154.50Q725 225 741 315Q747 347 747 376Q747 449 706.50 491Q666 533 574 533Z"  horiz-adv-x="1024" vert-adv-y="1000"  />

      
      <glyph glyph-name="uni41" unicode="&#x41;" d="M449 194L101 194L-7 0L-30 0L351 683L371 683L511 0L488 0L449 194M445 212L356 651L111 212L445 212Z"  horiz-adv-x="601" vert-adv-y="1000"  />

      
      <glyph glyph-name="uni42" unicode="&#x42;" d="M526 532Q513 461 467.50 419.50Q422 378 360 366Q416 355 450 316.50Q484 278 484 222Q484 206 481 188Q467 105 400.50 52.50Q334 0 225 0L23 0L147 704L349 704Q441 704 485 667Q529 630 529 568Q529 550 526 532M297 376Q385 376 439 417.50Q493 459 506 532Q509 549 509 564Q509 620 469 652Q429 684 346 684L164 684L109 376L297 376M461 188Q464 205 464 220Q464 284 417.50 320Q371 356 286 356L106 356L46 20L228 20Q324 20 385.50 65Q447 110 461 188Z"  horiz-adv-x="560" vert-adv-y="1000"  />

      
      <glyph glyph-name="uni43" unicode="&#x43;" d="M451 711Q574 711 644 654Q714 597 734 496L714 496Q697 585 630 639Q563 693 448 693Q362 693 285 651.50Q208 610 153.50 532.50Q99 455 81 351Q74 313 74 274Q74 193 106.50 133.50Q139 74 196.50 42.50Q254 11 328 11Q443 11 529.50 64.50Q616 118 663 207L683 207Q628 106 538 49.50Q448-7 325-7Q243-7 181.50 28Q120 63 86.50 126.50Q53 190 53 273Q53 313 60 351Q78 456 134.50 537.50Q191 619 273.50 665Q356 711 451 711Z"  horiz-adv-x="769" vert-adv-y="1000"  />

      
      <glyph glyph-name="uni44" unicode="&#x44;" d="M642 352Q612 184 501 92Q390 0 208 0L23 0L147 704L332 704Q489 704 569.50 635Q650 566 650 438Q650 400 642 352M211 18Q385 18 489.50 106Q594 194 622 352Q629 393 629 433Q629 554 553.50 620Q478 686 329 686L164 686L46 18L211 18Z"  horiz-adv-x="702" vert-adv-y="1000"  />

      
      <glyph glyph-name="uni45" unicode="&#x45;" d="M164 686L107 361L401 361L397 343L103 343L46 18L370 18L367 0L23 0L147 704L491 704L488 686L164 686Z"  horiz-adv-x="479" vert-adv-y="1000"  />

      
      <glyph glyph-name="uni46" unicode="&#x46;" d="M491 704L488 686L164 686L107 361L401 361L397 343L103 343L43 0L23 0L147 704L491 704Z"  horiz-adv-x="469" vert-adv-y="1000"  />

      
      <glyph glyph-name="uni47" unicode="&#x47;" d="M459 710Q573 710 644 652Q715 594 734 495L714 495Q698 583 630 637.50Q562 692 456 692Q368 692 289 650.50Q210 609 154.50 531.50Q99 454 81 351Q74 315 74 275Q74 194 107.50 134Q141 74 200 42Q259 10 336 10Q422 10 500.50 50Q579 90 635 165.50Q691 241 711 341L379 341L382 359L733 359L732 351Q714 247 656.50 165Q599 83 514.50 37.50Q430-8 333-8Q249-8 185.50 27Q122 62 87.50 126Q53 190 53 274Q53 313 60 351Q78 455 135.50 537Q193 619 277.50 664.50Q362 710 459 710Z"  horiz-adv-x="792" vert-adv-y="1000"  />

      
      <glyph glyph-name="uni48" unicode="&#x48;" d="M626 704L502 0L482 0L544 353L105 353L43 0L23 0L147 704L167 704L108 371L547 371L606 704L626 704Z"  horiz-adv-x="649" vert-adv-y="1000"  />

      
      <glyph glyph-name="uni49" unicode="&#x49;" d="M167 704L43 0L23 0L147 704L167 704Z"  horiz-adv-x="190" vert-adv-y="1000"  />

      
      <glyph glyph-name="uni4a" unicode="&#x4a;" d="M409 704L310 143Q298 78 250 35.50Q202-7 130-7Q64-7 29.50 28.50Q-5 64-5 127Q-5 152-1 173L19 173Q15 153 15 128Q15 75 43 43Q71 11 133 11Q204 11 242.50 50.50Q281 90 290 143L389 704L409 704Z"  horiz-adv-x="426" vert-adv-y="1000"  />

      
      <glyph glyph-name="uni4b" unicode="&#x4b;" d="M117 352L412 0L385 0L102 336L43 0L23 0L147 704L167 704L107 366L509 704L536 704L117 352Z"  horiz-adv-x="494" vert-adv-y="1000"  />

      
      <glyph glyph-name="uni4c" unicode="&#x4c;" d="M46 18L316 18L313 0L23 0L147 704L167 704L46 18Z"  horiz-adv-x="395" vert-adv-y="1000"  />

      
      <glyph glyph-name="uni4d" unicode="&#x4d;" d="M772 684L652 0L632 0L743 635L349 0L329 0L156 633L45 0L25 0L145 684L165 684L344 27L752 684L772 684Z"  horiz-adv-x="797" vert-adv-y="1000"  />

      
      <glyph glyph-name="uni4e" unicode="&#x4e;" d="M500 0L480 0L161 667L43 0L23 0L147 703L167 703L487 37L604 703L624 703L500 0Z"  horiz-adv-x="647" vert-adv-y="1000"  />

      
      <glyph glyph-name="uni4f" unicode="&#x4f;" d="M459 710Q543 710 606.50 675Q670 640 704.50 576Q739 512 739 428Q739 389 732 351Q714 247 656.50 165Q599 83 514.50 37.50Q430-8 333-8Q249-8 185.50 27Q122 62 87.50 126Q53 190 53 274Q53 313 60 351Q78 455 135.50 537Q193 619 277.50 664.50Q362 710 459 710M456 692Q368 692 289 650.50Q210 609 154.50 531.50Q99 454 81 351Q74 315 74 275Q74 194 107.50 134Q141 74 200 42Q259 10 336 10Q424 10 503 51.50Q582 93 637.50 170.50Q693 248 711 351Q718 389 718 427Q718 508 684.50 568Q651 628 592 660Q533 692 456 692Z"  horiz-adv-x="792" vert-adv-y="1000"  />

      
      <glyph glyph-name="uni50" unicode="&#x50;" d="M99 317L43 0L23 0L147 704L325 704Q520 704 520 555Q520 531 516 510Q499 413 433.50 365Q368 317 257 317L99 317M261 338Q369 338 425.50 383Q482 428 496 510Q500 531 500 555Q500 619 458 651.50Q416 684 322 684L164 684L103 338L261 338Z"  horiz-adv-x="528" vert-adv-y="1000"  />

      
      <glyph glyph-name="uni51" unicode="&#x51;" d="M733 351Q713 236 645.50 148.50Q578 61 481 21L667-149L632-149L455 12Q397-8 334-8Q250-8 186.50 27Q123 62 88.50 126Q54 190 54 274Q54 313 61 351Q79 455 136.50 537Q194 619 278.50 664.50Q363 710 460 710Q544 710 607.50 675Q671 640 705.50 576Q740 512 740 428Q740 389 733 351M337 10Q425 10 504 51.50Q583 93 638.50 170.50Q694 248 712 351Q719 389 719 427Q719 508 685.50 568Q652 628 593 660Q534 692 457 692Q369 692 290 650.50Q211 609 155.50 531.50Q100 454 82 351Q75 315 75 275Q75 194 108.50 134Q142 74 201 42Q260 10 337 10Z"  horiz-adv-x="792" vert-adv-y="1000"  />

      
      <glyph glyph-name="uni52" unicode="&#x52;" d="M325 704Q424 704 471.50 663.50Q519 623 519 552Q519 526 515 505Q499 412 436 361.50Q373 311 270 307L433 0L408 0L246 307L97 307L43 0L23 0L147 704L325 704M495 505Q499 526 499 551Q499 684 322 684L164 684L101 328L259 328Q464 328 495 505Z"  horiz-adv-x="535" vert-adv-y="1000"  />

      
      <glyph glyph-name="uni53" unicode="&#x53;" d="M444 159Q437 117 411.50 79.50Q386 42 340.50 17.50Q295-7 232-7Q166-7 120 19Q74 45 51.50 85.50Q29 126 31 169L51 169Q50 135 67 98.50Q84 62 125.50 36.50Q167 11 235 11Q314 11 363.50 53Q413 95 424 159Q428 187 428 199Q428 248 405 278Q382 308 349 324Q316 340 260 359Q204 377 170 393Q136 409 113 440Q90 471 90 520Q90 542 94 563Q105 627 160.50 669Q216 711 303 711Q365 711 408 688Q451 665 472.50 630.50Q494 596 496 559L476 559Q474 589 456.50 619.50Q439 650 400 671.50Q361 693 300 693Q226 693 175.50 659Q125 625 114 563Q111 542 111 526Q111 481 133 452.50Q155 424 186.50 409Q218 394 273 375Q331 356 365.50 339Q400 322 424 290Q448 258 448 205Q448 182 444 159Z"  horiz-adv-x="536" vert-adv-y="1000"  />

      
      <glyph glyph-name="uni54" unicode="&#x54;" d="M512 704L509 686L304 686L183 0L163 0L284 686L79 686L82 704L512 704Z"  horiz-adv-x="470" vert-adv-y="1000"  />

      
      <glyph glyph-name="uni55" unicode="&#x55;" d="M163 704L86 267Q78 221 78 188Q78 96 125.50 53.50Q173 11 257 11Q355 11 423 72Q491 133 515 267L592 704L612 704L535 267Q510 127 436.50 60Q363-7 254-7Q162-7 110 40.50Q58 88 58 186Q58 219 66 267L143 704L163 704Z"  horiz-adv-x="629" vert-adv-y="1000"  />

      
      <glyph glyph-name="uni56" unicode="&#x56;" d="M116 704L252 35L627 704L651 704L257 0L237 0L92 704L116 704Z"  horiz-adv-x="619" vert-adv-y="1000"  />

      
      <glyph glyph-name="uni57" unicode="&#x57;" d="M931 704L618 0L598 0L508 668L182 0L162 0L97 704L121 704L181 43L502 704L526 704L615 43L907 704L931 704Z"  horiz-adv-x="904" vert-adv-y="1000"  />

      
      <glyph glyph-name="uni58" unicode="&#x58;" d="M261 353L408 0L385 0L244 338L-9 0L-32 0L236 357L92 704L115 704L254 371L509 704L532 704L261 353Z"  horiz-adv-x="500" vert-adv-y="1000"  />

      
      <glyph glyph-name="uni59" unicode="&#x59;" d="M550 704L260 295L208 0L188 0L240 295L92 704L116 704L253 317L526 704L550 704Z"  horiz-adv-x="518" vert-adv-y="1000"  />

      
      <glyph glyph-name="uni5a" unicode="&#x5a;" d="M-2 19L393 19L390 0L-27 0L-24 19L480 684L107 684L110 704L504 704L501 684L-2 19Z"  horiz-adv-x="487" vert-adv-y="1000"  />

      
      <glyph glyph-name="uni5b" unicode="&#x5b;" d="M275 935L272 917L198 917L12-137L86-137L83-155L-11-155L181 935L275 935Z"  horiz-adv-x="219" vert-adv-y="1000"  />

      
      <glyph glyph-name="uni5c" unicode="&#x5c;" d="M288-156L126 935L149 935L309-156L288-156Z"  horiz-adv-x="474" vert-adv-y="1000"  />

      
      <glyph glyph-name="uni5d" unicode="&#x5d;" d="M-56-155L-53-137L21-137L207 917L133 917L136 935L230 935L38-155L-56-155Z"  horiz-adv-x="219" vert-adv-y="1000"  />

      
      <glyph glyph-name="uni5e" unicode="&#x5e;" d="M15 174L-5 174L315 683L327 683L467 174L447 174L317 653L15 174Z"  horiz-adv-x="552" vert-adv-y="1000"  />

      
      <glyph glyph-name="uni5f" unicode="&#x5f;" d="M495-30L491-48L38-48L42-30L495-30Z"  horiz-adv-x="533" vert-adv-y="1000"  />

      
      <glyph glyph-name="uni60" unicode="&#x60;" d="M277 606L273 586L109 716L114 740L277 606Z"  horiz-adv-x="267" vert-adv-y="1000"  />

      
      <glyph glyph-name="uni61" unicode="&#x61;" d="M372 547Q465 547 520.50 497Q576 447 584 366L615 540L634 540L538 0L519 0L550 174Q514 93 441 43Q368-7 274-7Q172-7 113 50Q54 107 54 206Q54 237 60 270Q75 355 119 417.50Q163 480 229 513.50Q295 547 372 547M369 529Q257 529 179 459.50Q101 390 80 270Q74 237 74 208Q74 115 127.50 63Q181 11 277 11Q347 11 408.50 43.50Q470 76 511.50 134.50Q553 193 567 270Q572 295 572 327Q572 420 517 474.50Q462 529 369 529Z"  horiz-adv-x="671" vert-adv-y="1000"  />

      
      <glyph glyph-name="uni62" unicode="&#x62;" d="M20 0L151 740L170 740L104 366Q140 447 213 497Q286 547 380 547Q482 547 541 490Q600 433 600 334Q600 303 594 270Q579 185 535 122.50Q491 60 425 26.50Q359-7 282-7Q189-7 133.50 43Q78 93 70 174L39 0L20 0M285 11Q397 11 475 80.50Q553 150 574 270Q580 303 580 332Q580 425 526.50 477Q473 529 377 529Q307 529 245.50 496.50Q184 464 142 405.50Q100 347 87 270Q82 245 82 213Q82 120 137 65.50Q192 11 285 11Z"  horiz-adv-x="671" vert-adv-y="1000"  />

      
      <glyph glyph-name="uni63" unicode="&#x63;" d="M369 547Q472 547 528.50 494.50Q585 442 583 357L563 357Q564 437 510.50 483Q457 529 366 529Q301 529 241.50 500.50Q182 472 138.50 414Q95 356 80 270Q74 236 74 207Q74 111 130.50 61Q187 11 274 11Q365 11 435.50 57.50Q506 104 533 183L553 183Q524 98 449 45.50Q374-7 271-7Q172-7 113 49.50Q54 106 54 206Q54 236 60 270Q75 355 119.50 418Q164 481 229 514Q294 547 369 547Z"  horiz-adv-x="628" vert-adv-y="1000"  />

      
      <glyph glyph-name="uni64" unicode="&#x64;" d="M652 740L521 0L502 0L533 174Q497 93 424 43Q351-7 257-7Q155-7 96 50Q37 107 37 206Q37 237 43 270Q58 355 102 417.50Q146 480 212 513.50Q278 547 355 547Q448 547 503.50 497Q559 447 567 366L633 740L652 740M352 529Q240 529 162 459.50Q84 390 63 270Q57 237 57 208Q57 115 110.50 63Q164 11 260 11Q330 11 391.50 43.50Q453 76 494.50 134.50Q536 193 550 270Q555 303 555 326Q555 419 499.50 474Q444 529 352 529Z"  horiz-adv-x="671" vert-adv-y="1000"  />

      
      <glyph glyph-name="uni65" unicode="&#x65;" d="M369 547Q438 547 485.50 520.50Q533 494 556.50 451Q580 408 580 356Q580 343 576 315Q569 279 562 261L78 261Q73 228 73 206Q73 110 130 60.50Q187 11 274 11Q365 11 435.50 57.50Q506 104 533 183L553 183Q524 98 449 45.50Q374-7 271-7Q172-7 113 49.50Q54 106 54 206Q54 236 60 270Q75 355 119.50 418Q164 481 229 514Q294 547 369 547M552 279Q561 318 561 349Q561 438 505 483.50Q449 529 366 529Q302 529 243 501.50Q184 474 140.50 418Q97 362 82 279L552 279Z"  horiz-adv-x="628" vert-adv-y="1000"  />

      
      <glyph glyph-name="uni66" unicode="&#x66;" d="M345 720Q258 720 218 686.50Q178 653 165 578L158 540L313 540L309 519L155 519L63 0L43 0L135 519L46 519L50 540L138 540L145 578Q159 660 206 700Q253 740 348 740L345 720Z"  horiz-adv-x="318" vert-adv-y="1000"  />

      
      <glyph glyph-name="uni67" unicode="&#x67;" d="M278-8Q176-8 116.50 49Q57 106 57 205Q57 236 63 270Q78 355 122 417.50Q166 480 232 514Q298 548 376 548Q470 548 525 498Q580 448 587 366L618 540L636 540L537-20Q524-95 481.50-150.50Q439-206 379-235Q319-264 256-264Q159-264 102.50-216.50Q46-169 35-88L55-88Q66-162 117.50-204Q169-246 260-246Q321-246 376-218.50Q431-191 469-139.50Q507-88 519-20L554 174Q517 93 444 42.50Q371-8 278-8M372 530Q260 530 182 460.50Q104 391 83 270Q77 237 77 208Q77 116 131 64Q185 12 281 12Q351 12 412 44Q473 76 515 134.50Q557 193 571 270Q576 302 576 325Q576 419 520.50 474.50Q465 530 372 530Z"  horiz-adv-x="671" vert-adv-y="1000"  />

      
      <glyph glyph-name="uni68" unicode="&#x68;" d="M369 552Q450 552 500 508.50Q550 465 550 377Q550 350 544 315L489 0L470 0L526 317Q531 342 531 374Q531 452 487.50 493Q444 534 366 534Q274 534 206.50 476.50Q139 419 114 306L60 0L40 0L170 740L190 740L128 389Q162 470 227.50 511Q293 552 369 552Z"  horiz-adv-x="614" vert-adv-y="1000"  />

      
      <glyph glyph-name="uni69" unicode="&#x69;" d="M143 699Q143 714 152.50 723Q162 732 175 732Q184 732 190.50 726Q197 720 197 711Q197 696 187.50 687Q178 678 165 678Q156 678 149.50 684Q143 690 143 699M151 540L55 0L35 0L131 540L151 540Z"  horiz-adv-x="190" vert-adv-y="1000"  />

      
      <glyph glyph-name="uni6a" unicode="&#x6a;" d="M172 678Q163 678 156.50 684Q150 690 150 699Q150 714 159.50 723Q169 732 182 732Q191 732 197.50 726Q204 720 204 711Q204 696 194.50 687Q185 678 172 678M-118-234L-82-234Q-38-234-15-214.50Q8-195 17-146L138 540L158 540L36-152Q27-201-1.50-227.50Q-30-254-86-254L-122-254L-118-234Z"  horiz-adv-x="200" vert-adv-y="1000"  />

      
      <glyph glyph-name="uni6b" unicode="&#x6b;" d="M97 274L320 0L289 0L84 253L40 0L20 0L150 740L170 740L92 293L378 540L408 540L97 274Z"  horiz-adv-x="395" vert-adv-y="1000"  />

      
      <glyph glyph-name="uni6c" unicode="&#x6c;" d="M190 740L60 0L40 0L170 740L190 740Z"  horiz-adv-x="190" vert-adv-y="1000"  />

      
      <glyph glyph-name="uni6d" unicode="&#x6d;" d="M767 552Q843 552 889.50 509Q936 466 936 379Q936 350 930 315L874 0L855 0L911 317Q917 350 917 378Q917 455 876.50 494.50Q836 534 763 534Q672 534 605.50 473Q539 412 517 292L465 0L446 0L502 317Q508 350 508 378Q508 455 467.50 494.50Q427 534 354 534Q263 534 196.50 473Q130 412 108 292L56 0L36 0L132 540L152 540L125 389Q159 470 222 511Q285 552 358 552Q435 552 481.50 508Q528 464 527 375Q558 463 624 507.50Q690 552 767 552Z"  horiz-adv-x="1003" vert-adv-y="1000"  />

      
      <glyph glyph-name="uni6e" unicode="&#x6e;" d="M366 552Q447 552 497 508Q547 464 547 376Q547 348 541 315L485 0L466 0L522 317Q528 349 528 375Q528 453 484 493.50Q440 534 362 534Q267 534 198.50 473Q130 412 108 292L56 0L36 0L132 540L152 540L125 388Q158 470 224 511Q290 552 366 552Z"  horiz-adv-x="614" vert-adv-y="1000"  />

      
      <glyph glyph-name="uni6f" unicode="&#x6f;" d="M373 547Q473 547 533 490Q593 433 593 333Q593 303 587 270Q572 185 527 122.50Q482 60 416 26.50Q350-7 275-7Q175-7 114.50 50Q54 107 54 207Q54 237 60 270Q75 355 120.50 417.50Q166 480 232 513.50Q298 547 373 547M370 529Q305 529 244.50 500.50Q184 472 139.50 413.50Q95 355 80 270Q74 237 74 209Q74 112 132 61.50Q190 11 278 11Q343 11 403 39.50Q463 68 507.50 126Q552 184 567 270Q573 303 573 332Q573 429 515.50 479Q458 529 370 529Z"  horiz-adv-x="647" vert-adv-y="1000"  />

      
      <glyph glyph-name="uni70" unicode="&#x70;" d="M399 547Q501 547 560 490Q619 433 619 334Q619 303 613 270Q598 185 553.50 122.50Q509 60 443.50 26.50Q378-7 301-7Q207-7 151.50 43Q96 93 89 174L13-254L-6-254L134 540L153 540L123 366Q159 447 232 497Q305 547 399 547M304 11Q415 11 493 80.50Q571 150 593 270Q599 303 599 332Q599 425 545 477Q491 529 395 529Q325 529 264 496.50Q203 464 161 405.50Q119 347 106 270Q101 245 101 213Q101 120 156 65.50Q211 11 304 11Z"  horiz-adv-x="671" vert-adv-y="1000"  />

      
      <glyph glyph-name="uni71" unicode="&#x71;" d="M625 540L485-254L466-254L542 174Q506 93 432.50 43Q359-7 266-7Q164-7 105 49.50Q46 106 46 205Q46 236 52 270Q67 355 111 417.50Q155 480 221 513.50Q287 547 364 547Q457 547 512.50 497Q568 447 576 366L606 540L625 540M360 529Q248 529 170.50 459.50Q93 390 72 270Q66 237 66 207Q66 115 120 63Q174 11 269 11Q339 11 400.50 43.50Q462 76 503.50 134.50Q545 193 559 270Q564 302 564 326Q564 419 508.50 474Q453 529 360 529Z"  horiz-adv-x="671" vert-adv-y="1000"  />

      
      <glyph glyph-name="uni72" unicode="&#x72;" d="M129 410Q189 552 367 552L363 530L354 530Q271 530 203 482.50Q135 435 114 329L56 0L36 0L132 540L152 540L129 410Z"  horiz-adv-x="338" vert-adv-y="1000"  />

      
      <glyph glyph-name="uni73" unicode="&#x73;" d="M249 547Q339 547 386.50 503Q434 459 429 382L409 382Q413 445 373 487Q333 529 246 529Q179 529 138 492.50Q97 456 97 400Q97 365 115.50 343.50Q134 322 161.50 310.50Q189 299 236 285Q288 270 319 256.50Q350 243 371.50 216.50Q393 190 393 146Q393 137 389 109Q380 57 336.50 25Q293-7 227-7Q132-7 78.50 37.50Q25 82 30 158L50 158Q45 95 91 53Q137 11 231 11Q287 11 324 38.50Q361 66 369 109Q372 126 372 139Q372 179 352 203.50Q332 228 302.50 240.50Q273 253 224 267Q174 282 145.50 294.50Q117 307 97 331Q77 355 77 395Q77 409 80 427Q90 483 135 515Q180 547 249 547Z"  horiz-adv-x="463" vert-adv-y="1000"  />

      
      <glyph glyph-name="uni74" unicode="&#x74;" d="M93 142Q88 112 88 94Q88 52 110.50 36Q133 20 185 20L242 20L238 0L179 0Q121 0 94.50 21.50Q68 43 68 92Q68 110 73 142L140 520L52 520L55 540L144 540L168 678L188 678L164 540L333 540L330 520L160 520L93 142Z"  horiz-adv-x="338" vert-adv-y="1000"  />

      
      <glyph glyph-name="uni75" unicode="&#x75;" d="M563 540L467 0L447 0L474 152Q441 70 375 29Q309-12 233-12Q152-12 102 32Q52 76 52 164Q52 192 58 225L114 540L133 540L77 223Q71 192 71 165Q71 87 115 46.50Q159 6 237 6Q332 6 400.50 67Q469 128 491 248L543 540L563 540Z"  horiz-adv-x="599" vert-adv-y="1000"  />

      
      <glyph glyph-name="uni76" unicode="&#x76;" d="M217 35L521 540L543 540L217 0L202 0L68 540L90 540L217 35Z"  horiz-adv-x="515" vert-adv-y="1000"  />

      
      <glyph glyph-name="uni77" unicode="&#x77;" d="M831 540L565 0L550 0L443 504L157 0L142 0L68 540L90 540L159 41L441 540L458 540L564 41L809 540L831 540Z"  horiz-adv-x="803" vert-adv-y="1000"  />

      
      <glyph glyph-name="uni78" unicode="&#x78;" d="M221 272L348 0L324 0L204 256L-6 0L-28 0L195 276L72 540L96 540L212 291L417 540L439 540L221 272Z"  horiz-adv-x="416" vert-adv-y="1000"  />

      
      <glyph glyph-name="uni79" unicode="&#x79;" d="M82 540L210 29L501 540L523 540L75-254L50-254L194-1L60 540L82 540Z"  horiz-adv-x="503" vert-adv-y="1000"  />

      
      <glyph glyph-name="uni7a" unicode="&#x7a;" d="M7 18L333 18L329 0L-18 0L-14 18L389 522L84 522L88 540L415 540L411 522L7 18Z"  horiz-adv-x="407" vert-adv-y="1000"  />

      
      <glyph glyph-name="uni7b" unicode="&#x7b;" d="M52 371Q100 360 123.50 326Q147 292 147 245Q147 226 144 208Q141 187 133.50 165.50Q126 144 118 124Q103 87 95 61.50Q87 36 81 1Q77-19 77-42Q77-100 102-144Q127-188 160-213L159-217L139-217Q111-198 84-153.50Q57-109 57-44Q57-23 62 7Q67 37 75 62Q83 87 97 124Q118 175 124 208Q128 232 128 249Q128 330 38 360L42 384Q117 406 145 446Q173 486 182 536Q186 557 186 585Q186 608 185 621L184 662Q184 705 190 737Q206 823 255 880Q304 937 347 961L367 961L366 957Q316 927 270 871.50Q224 816 211 743Q204 705 204 661L205 620Q206 609 206 587Q206 560 202 536Q191 477 153 431.50Q115 386 52 373L52 371Z"  horiz-adv-x="293" vert-adv-y="1000"  />

      
      <glyph glyph-name="uni7c" unicode="&#x7c;" d="M29-86L9-86L161 778L181 778L29-86Z"  horiz-adv-x="190" vert-adv-y="1000"  />

      
      <glyph glyph-name="uni7d" unicode="&#x7d;" d="M251 373Q203 384 179.50 418Q156 452 156 499Q156 518 159 536Q162 557 169.50 578.50Q177 600 185 620Q199 657 207.50 682.50Q216 708 222 743Q226 763 226 786Q226 844 201 888Q176 932 143 957L144 961L164 961Q192 942 219 897.50Q246 853 246 788Q246 767 241 737Q236 707 228 682Q220 657 206 620Q185 569 179 536Q175 512 175 495Q175 414 265 384L261 360Q186 338 158 298Q130 258 121 208Q117 187 117 159Q117 136 118 123L119 82Q119 39 113 7Q97-79 48-136Q-1-193-44-217L-64-217L-63-213Q-13-183 33-127.50Q79-72 92 1Q99 40 99 83L98 124Q97 135 97 157Q97 184 101 208Q112 267 150 312.50Q188 358 251 371L251 373Z"  horiz-adv-x="303" vert-adv-y="1000"  />

      
      <glyph glyph-name="uni7e" unicode="&#x7e;" d="M137 367Q160 367 176 358.50Q192 350 215 332Q236 316 249.50 308Q263 300 282 300Q307 300 328.50 319.50Q350 339 360 367L380 367Q365 326 338 302.50Q311 279 275 279Q252 279 235.50 288Q219 297 198 314Q177 330 163 338Q149 346 130 346Q105 346 83.50 326.50Q62 307 52 279L32 279Q47 320 74 343.50Q101 367 137 367Z"  horiz-adv-x="412" vert-adv-y="1000"  />

      
      <glyph glyph-name="unia1" unicode="&#xa1;" d="M23.96-152L131.02 385L143.74 385L49.40-152L23.96-152M129.96 503L139.50 552L192.50 552L182.96 503L129.96 503Z"  horiz-adv-x="224" vert-adv-y="1000"  />

      
      <glyph glyph-name="unia2" unicode="&#xa2;" d="M346 517Q440 516 490.50 464Q541 412 539 327L519 327Q520 407 471.50 453Q423 499 341 499Q282 499 227.50 474Q173 449 133.50 397.50Q94 346 81 270Q76 238 76 216Q76 130 128.50 85.50Q181 41 261 41Q343 41 407.50 87Q472 133 499 213L519 213Q490 128 421 76Q352 24 259 23L239-93L219-93L240 24Q156 29 106 79.50Q56 130 56 215Q56 238 61 270Q74 342 111.50 396.50Q149 451 205 481.50Q261 512 326 516L345 623L365 623L346 517Z"  horiz-adv-x="588" vert-adv-y="1000"  />

      
      <glyph glyph-name="unia3" unicode="&#xa3;" d="M367 711Q455 711 499.50 657Q544 603 539 521L519 521Q524 596 482 644.50Q440 693 364 693Q294 693 237.50 650Q181 607 166 524Q161 494 161 472Q161 447 164.50 423Q168 399 172.50 377Q177 355 179 345L371 345L368 328L182 328Q190 278 190 253Q190 228 186 207Q177 153 149 110.50Q121 68 69 20L445 20L441 0L48 0L48 19Q87 59 107 82Q127 105 143.50 135Q160 165 167 202Q171 222 171 246Q171 274 161 328L45 328L48 345L158 345Q149 390 145 414.50Q141 439 141 468Q141 491 146 524Q160 606 218.50 658.50Q277 711 367 711Z"  horiz-adv-x="540" vert-adv-y="1000"  />

      
      <glyph glyph-name="unia4" unicode="&#xa4;" d="M384 492Q404 458 404 414Q404 397 401 377Q390 313 345 263L396 203L380 190L331 250Q306 228 277 216.50Q248 205 219 205Q188 205 163.50 216.50Q139 228 122 249L53 190L41 203L114 263Q96 293 96 336Q96 349 100 377Q112 445 155 491L103 553L119 566L169 505Q219 549 280 549Q308 549 333 537.50Q358 526 375 505L446 566L458 553L384 492M381 377Q384 395 384 412Q384 466 353.50 498.50Q323 531 277 531Q220 531 176.50 489Q133 447 120 377Q116 349 116 339Q116 284 145 253.50Q174 223 223 223Q258 223 291 241.50Q324 260 348.50 295Q373 330 381 377Z"  horiz-adv-x="501" vert-adv-y="1000"  />

      
      <glyph glyph-name="unia5" unicode="&#xa5;" d="M321 346L494 346L491 328L308 328L285 295L273 229L473 229L470 209L270 209L233 0L213 0L250 209L50 209L53 229L253 229L265 295L253 328L71 328L74 346L247 346L117 704L141 704L278 317L551 704L575 704L321 346Z"  horiz-adv-x="563" vert-adv-y="1000"  />

      
      <glyph glyph-name="unia6" unicode="&#xa6;" d="M161 778L181 778L119 428L99 428L161 778M29-86L9-86L71 265L91 265L29-86Z"  horiz-adv-x="190" vert-adv-y="1000"  />

      
      <glyph glyph-name="unia7" unicode="&#xa7;" d="M328 747Q420 747 471.50 703.50Q523 660 521 581L501 581Q504 617 488 650.50Q472 684 431.50 706.50Q391 729 325 729Q258 729 213 703Q168 677 159 626Q157 612 157 605Q157 562 192 533.50Q227 505 307 486Q405 463 457 429.50Q509 396 509 330Q509 317 506 300Q498 258 468 221Q438 184 388.50 161Q339 138 277 138Q256 138 246 139L245 135Q328 118 378.50 89Q429 60 429-2Q429-66 379.50-106.50Q330-147 239-147Q147-147 95-103.50Q43-60 45 19L65 19Q63-43 104-86Q145-129 242-129Q317-129 363-97Q409-65 409-2Q409 42 374.50 68Q340 94 259 114Q161 137 109 170.50Q57 204 57 270Q57 284 60 300Q68 342 98 379Q128 416 177.50 439Q227 462 289 462Q310 462 320 461L321 465Q242 482 189.50 513Q137 544 137 603Q137 666 187 706.50Q237 747 328 747M306 447Q236 447 184 423Q132 399 105 359.50Q78 320 78 276Q78 219 125.50 186Q173 153 260 153Q330 153 382 177Q434 201 461 240.50Q488 280 488 324Q488 381 440.50 414Q393 447 306 447Z"  horiz-adv-x="566" vert-adv-y="1000"  />

      
      <glyph glyph-name="unia8" unicode="&#xa8;" d="M123 652Q123 666 133.50 676.50Q144 687 158 687Q169 687 176 680Q183 673 183 662Q183 649 172.50 638Q162 627 148 627Q137 627 130 634Q123 641 123 652M257 652Q257 666 267.50 676.50Q278 687 292 687Q302 687 309 680Q316 673 316 662Q316 648 305.50 637.50Q295 627 282 627Q271 627 264 634Q257 641 257 652Z"  horiz-adv-x="319" vert-adv-y="1000"  />

      
      <glyph glyph-name="unia9" unicode="&#xa9;" d="M464 702Q363 702 277 657.50Q191 613 134.50 533.50Q78 454 60 352Q53 308 53 279Q53 196 87.50 133.50Q122 71 187 36.50Q252 2 340 2Q442 2 527.50 46.50Q613 91 669 170.50Q725 250 743 352Q750 398 750 426Q750 508 715.50 570.50Q681 633 616.50 667.50Q552 702 464 702M461 684Q545 684 605.50 651Q666 618 698 559Q730 500 730 423Q730 396 723 352Q706 257 653 181.50Q600 106 519.50 63Q439 20 343 20Q259 20 198 53Q137 86 105 145Q73 204 73 281Q73 308 80 352Q97 447 150 522.50Q203 598 283.50 641Q364 684 461 684M447 590Q518 590 567 549.50Q616 509 623 435L602 435Q593 500 549 535Q505 570 443 570Q391 570 342.50 545Q294 520 258.50 470.50Q223 421 211 351Q206 321 206 300Q206 221 252 177.50Q298 134 367 134Q429 134 484.50 169Q540 204 572 269L593 269Q560 195 497 154.50Q434 114 363 114Q285 114 235.50 161.50Q186 209 186 296Q186 328 191 353Q204 428 243 481.50Q282 535 335.50 562.50Q389 590 447 590Z"  horiz-adv-x="803" vert-adv-y="1000"  />

      
      <glyph glyph-name="uniaa" unicode="&#xaa;" d="M234 709Q292 709 325.50 680Q359 651 364 600L382 703L402 703L340 354L320 354L338 456Q316 405 272 376Q228 347 170 347Q108 347 72 384.50Q36 422 36 485Q36 508 40 528Q54 609 107.50 659Q161 709 234 709M231 691Q169 691 121 646.50Q73 602 60 528Q56 509 56 488Q56 431 88 398Q120 365 173 365Q240 365 289 409.50Q338 454 351 528Q354 548 354 565Q354 623 321 657Q288 691 231 691Z"  horiz-adv-x="433" vert-adv-y="1000"  />

      
      <glyph glyph-name="uniab" unicode="&#xab;" d="M121 120L45 295L183 470L210 470L70 295L148 120L121 120M266 120L190 295L328 470L355 470L215 295L293 120L266 120Z"  horiz-adv-x="374" vert-adv-y="1000"  />

      
      <glyph glyph-name="uniac" unicode="&#xac;" d="M678 424L648 255L630 255L656 404L70 404L74 424L678 424Z"  horiz-adv-x="708" vert-adv-y="1000"  />

      
      <glyph glyph-name="uniad" unicode="&#xad;" d="M424 389L420 371L56 371L60 389L424 389Z"  horiz-adv-x="444" vert-adv-y="1000"  />

      
      <glyph glyph-name="uniae" unicode="&#xae;" d="M456 703Q541 703 604 670.50Q667 638 700.50 577Q734 516 734 433Q734 392 727 353Q709 251 653 171Q597 91 513.50 46Q430 1 332 1Q247 1 184 35.50Q121 70 87 133Q53 196 53 278Q53 317 60 353Q79 458 135 537.50Q191 617 274.50 660Q358 703 456 703M707 353Q714 391 714 430Q714 548 645 616.50Q576 685 453 685Q358 685 279.50 644Q201 603 149 527.50Q97 452 80 353Q73 309 73 280Q73 164 142.50 96Q212 28 337 28Q432 28 510 68.50Q588 109 639 183Q690 257 707 353M453 598Q520 598 553 572.50Q586 547 586 501Q586 484 584 475Q573 414 528.50 382.50Q484 351 413 350L523 140L499 140L391 350L289 350L252 140L232 140L312 598L453 598M564 475Q567 489 567 501Q567 540 539 560Q511 580 450 580L329 580L292 369L413 369Q483 369 518.50 396.50Q554 424 564 475Z"  horiz-adv-x="787" vert-adv-y="1000"  />

      
      <glyph glyph-name="uniaf" unicode="&#xaf;" d="M411 677L407 659L98 659L102 677L411 677Z"  horiz-adv-x="389" vert-adv-y="1000"  />

      
      <glyph glyph-name="unib0" unicode="&#xb0;" d="M208 691Q265 691 297.50 656Q330 621 330 561Q330 539 326 519Q312 442 263.50 394.50Q215 347 148 347Q91 347 58.50 382Q26 417 26 477Q26 499 30 519Q44 596 92.50 643.50Q141 691 208 691M205 673Q146 673 104.50 632Q63 591 50 519Q46 499 46 477Q46 424 73.50 394.50Q101 365 151 365Q210 365 251.50 406Q293 447 306 519Q310 539 310 561Q310 614 282.50 643.50Q255 673 205 673Z"  horiz-adv-x="356" vert-adv-y="1000"  />

      
      <glyph glyph-name="unib1" unicode="&#xb1;" d="M557 409L554 391L309 391L269 165L249 165L289 391L45 391L48 409L292 409L332 635L352 635L312 409L557 409M-5 109L504 109L501 91L-8 91L-5 109Z"  horiz-adv-x="589" vert-adv-y="1000"  />

      
      </font>
</defs>
</svg>
