<?xml version="1.0" standalone="no"?>
  <!DOCTYPE svg PUBLIC "-//W3C//DTD SVG 1.1//EN" "http://www.w3.org/Graphics/SVG/1.1/DTD/svg11.dtd" >
  <svg>
  <metadata>
  Created by font-carrier
  </metadata>
  <defs>
  <font id="Poppins-MediumItalic" horiz-adv-x="2514" vert-adv-y="2514" >
    <font-face
      
      font-family="Poppins Medium"
      
      font-weight="400"
      
      font-stretch="normal"
      
      units-per-em="1000"
      
      ascent="1050"
      
      descent="-350"
      
    />
      <missing-glyph />

      

      
      <glyph glyph-name="uni0905" unicode="&#x0905;" d="M918 740L904 652L782 652L666 0L562 0L616 308L478 309Q481 296 481 281Q481 265 478 248Q462 160 396.50 107.50Q331 55 239 55Q150 55 97.50 100Q45 145 45 221Q45 232 49 260L148 260Q146 244 146 238Q146 196 173.50 170.50Q201 145 248 145Q301 145 338 176Q375 207 383 258Q385 272 385 281Q385 297 381 309L380 309L380 312Q371 339 345.50 355Q320 371 277 371L236 371L251 456L292 456Q334 456 365 473.50Q396 491 412.50 519Q429 547 429 576Q429 615 403.50 637.50Q378 660 337 660Q289 660 251.50 632Q214 604 207 559L110 559Q125 645 192.50 697Q260 749 353 749Q433 749 479.50 710Q526 671 526 604Q526 588 523 570Q513 514 475.50 473.50Q438 433 379 417L378 415Q405 409 427 395L632 395L692 740L918 740Z"  horiz-adv-x="830" vert-adv-y="1000"  />

      
      <glyph glyph-name="uni0906" unicode="&#x0906;" d="M918 740L904 652L782 652L666 0L562 0L616 308L478 309Q481 296 481 281Q481 265 478 248Q462 160 396.50 107.50Q331 55 239 55Q150 55 97.50 100Q45 145 45 221Q45 232 49 260L148 260Q146 244 146 238Q146 196 173.50 170.50Q201 145 248 145Q301 145 338 176Q375 207 383 258Q385 272 385 281Q385 297 381 309L380 309L380 312Q371 339 345.50 355Q320 371 277 371L236 371L251 456L292 456Q334 456 365 473.50Q396 491 412.50 519Q429 547 429 576Q429 615 403.50 637.50Q378 660 337 660Q289 660 251.50 632Q214 604 207 559L110 559Q125 645 192.50 697Q260 749 353 749Q433 749 479.50 710Q526 671 526 604Q526 588 523 570Q513 514 475.50 473.50Q438 433 379 417L378 415Q405 409 427 395L632 395L692 740L918 740M977 652L855 652L870 740L1219 740L1203 652L1082 652L967 0L862 0L977 652Z"  horiz-adv-x="1130" vert-adv-y="1000"  />

      
      <glyph glyph-name="uni0907" unicode="&#x0907;" d="M523 652L504 546L490 470L311 470Q266 470 233 454Q200 438 193 397Q191 387 191 382Q191 353 214 339.50Q237 326 275 326L319 326Q395 326 446.50 292Q498 258 498 186Q498 175 494 147Q481 75 427.50 30Q374-15 289-15Q226-15 190 11Q154 37 143 66L118-79L19-79L64 177L158 177Q154 126 183.50 95Q213 64 272 64Q331 64 364 96.50Q397 129 397 175Q397 216 366 233.50Q335 251 286 251L231 251Q169 253 127.50 283.50Q86 314 86 372Q86 386 89 401Q102 477 160 511.50Q218 546 297 546L403 546L421 652L25 652L40 740L684 740L669 652L523 652Z"  horiz-adv-x="584" vert-adv-y="1000"  />

      
      <glyph glyph-name="uni0908" unicode="&#x0908;" d="M663 1011Q732 1011 769 976Q806 941 806 880Q806 853 801 832L709 832Q712 846 712 858Q712 888 695.50 905.50Q679 923 649 923Q568 923 548 812L536 740L685 740L670 652L524 652L500 520L499 520L490 470L311 470Q266 470 233 454Q200 438 193 397Q191 387 191 382Q191 353 214 339.50Q237 326 275 326L319 326Q395 326 446.50 292Q498 258 498 186Q498 175 494 147Q481 75 427.50 30Q374-15 289-15Q226-15 190 11Q154 37 143 66L118-79L19-79L64 177L158 177Q154 126 183.50 95Q213 64 272 64Q330 64 363.50 96.50Q397 129 397 174Q397 215 366.50 233Q336 251 286 251L231 251Q169 253 127.50 283.50Q86 314 86 372Q86 386 89 401Q102 477 160 511.50Q218 546 297 546L403 546L422 652L26 652L41 740L439 740L452 811Q468 900 519.50 955.50Q571 1011 663 1011Z"  horiz-adv-x="580" vert-adv-y="1000"  />

      
      <glyph glyph-name="uni0909" unicode="&#x0909;" d="M645 652L534 652L518 561Q507 500 470.50 459.50Q434 419 386 410L385 408Q435 396 462.50 355.50Q490 315 490 258Q490 239 487 219Q469 123 399 63Q329 3 226 3Q132 3 75.50 53Q19 103 19 186Q19 210 23 230L123 230Q121 221 121 205Q121 157 153.50 127Q186 97 238 97Q296 97 337 133Q378 169 389 227Q391 236 391 254Q391 300 363.50 330Q336 360 277 360L227 360L243 452L279 452Q336 452 372.50 483Q409 514 418 567L433 652L26 652L41 740L661 740L645 652Z"  horiz-adv-x="572" vert-adv-y="1000"  />

      
      <glyph glyph-name="uni090A" unicode="&#x090A;" d="M518 561Q507 500 470.50 459.50Q434 419 386 410L385 408L584 408Q677 408 731.50 370Q786 332 786 254Q786 231 782 211Q766 121 704.50 73Q643 25 556 25Q540 25 506 29L521 109Q532 108 553 108Q602 108 637 134Q672 160 682 215Q684 223 684 239Q684 282 653 303Q622 324 571 324L475 324Q488 292 488 256Q488 242 484 214Q473 153 438.50 105Q404 57 349 30Q294 3 226 3Q132 3 75.50 53Q19 103 19 186Q19 210 23 230L123 230Q121 221 121 205Q121 157 153.50 127Q186 97 238 97Q296 97 337 133Q378 169 389 227Q391 236 391 254Q391 300 363.50 330Q336 360 277 360L227 360L243 452L279 452Q336 452 372.50 483Q409 514 418 567L433 652L26 652L41 740L949 740L934 652L534 652L518 561Z"  horiz-adv-x="860" vert-adv-y="1000"  />

      
      <glyph glyph-name="uni090B" unicode="&#x090B;" d="M639 652L602 442L771 442Q846 442 860 504L866 543L867 546L870 563L961 563L899 210L878 210Q820 210 786 176.50Q752 143 752 94Q752 57 778 39.50Q804 22 848 22Q874 22 906 30L891-54Q855-62 820-62Q743-62 696-27.50Q649 7 649 72Q649 88 652 106Q664 170 708 213Q752 256 819 270L838 378Q793 358 741 358L587 358L524 0L427 0L470 244L179 0L47 0L48 6L489 350Q486 402 451.50 434.50Q417 467 359 467Q283 467 228.50 419.50Q174 372 161 293L56 293Q70 371 110.50 430.50Q151 490 211.50 523Q272 556 345 556Q465 556 509 467L542 652L26 652L41 740L1119 740L1104 652L639 652Z"  horiz-adv-x="1030" vert-adv-y="1000"  />

      
      <glyph glyph-name="uni0960" unicode="&#x0960;" d="M638 652L601 442L770 442Q845 442 860 505L865 536L867 546L870 563L961 563L898 208L860 208Q773 208 760 141Q759 137 759 129Q759 101 781 88.50Q803 76 840 76L889 76L875-3L828-3Q787-3 758-19Q729-35 723-72Q722-77 722-86Q722-114 746-126.50Q770-139 808-139Q835-139 863.50-134Q892-129 909-123L896-202Q874-210 841-215.50Q808-221 778-221Q709-221 663.50-193Q618-165 618-108Q618-53 651.50-15Q685 23 733 33L734 36Q700 44 679.50 65.50Q659 87 659 122Q659 137 661 146Q671 205 716.50 234.50Q762 264 818 267L838 378Q792 358 740 358L587 358L524 0L427 0L470 244L179 0L46 0L47 6L488 351Q486 403 451.50 435Q417 467 359 467Q283 467 228.50 419.50Q174 372 160 293L55 293Q69 371 109.50 430.50Q150 490 210.50 523Q271 556 344 556Q405 556 446 532.50Q487 509 509 467L541 652L26 652L41 740L1120 740L1105 652L638 652Z"  horiz-adv-x="1032" vert-adv-y="1000"  />

      
      <glyph glyph-name="uni090C" unicode="&#x090C;" d="M733 652L712 534Q766 520 796.50 475.50Q827 431 827 364Q827 341 822 308Q813 251 788 208L781 208Q714 208 678.50 175.50Q643 143 643 92Q643 56 670 38Q697 20 741 20Q773 20 800 28L785-56Q751-64 713-64Q635-64 588-29Q541 6 541 72Q541 89 544 107Q554 167 599.50 210.50Q645 254 707 265Q713 281 718 309Q721 329 721 346Q721 392 697.50 420Q674 448 628 448Q568 448 528.50 403Q489 358 478 284L474 263L387 263L390 284Q394 318 394 333Q394 387 372 417.50Q350 448 303 448Q244 448 206 409Q168 370 156 307Q152 288 152 267Q152 212 183 182Q214 152 272 152Q278 152 302 154L285 62Q271 61 250 61Q149 61 97 112Q45 163 45 250Q45 275 50 308Q63 381 99.50 433.50Q136 486 188.50 513.50Q241 541 303 541Q373 541 409 501.50Q445 462 451 404L454 404Q477 452 516 488Q555 524 610 536L631 652L22 652L38 740L987 740L971 652L733 652Z"  horiz-adv-x="902" vert-adv-y="1000"  />

      
      <glyph glyph-name="uni0961" unicode="&#x0961;" d="M733 652L712 534Q766 519 797 475.50Q828 432 828 366Q828 340 822 308Q814 257 789 208L754 208Q716 208 688.50 192.50Q661 177 654 141Q653 137 653 129Q653 101 675 88.50Q697 76 734 76L784 76L770-3L722-3Q681-3 652-19Q623-35 616-72Q615-76 615-84Q615-113 639-126Q663-139 702-139Q729-139 758-134Q787-129 804-123L790-202Q769-210 736.50-215.50Q704-221 673-221Q603-221 557.50-193Q512-165 512-107Q512-53 545.50-15Q579 23 627 33L628 36Q593 44 573 66Q553 88 553 123Q553 130 555 146Q565 203 608 232.50Q651 262 706 266Q714 288 718 309Q721 329 721 346Q721 392 697.50 420Q674 448 628 448Q567 448 527.50 402.50Q488 357 478 284L474 263L387 263L390 284Q393 310 393 332Q393 448 303 448Q244 448 205.50 409Q167 370 156 307Q152 288 152 267Q152 212 183 182Q214 152 272 152Q279 152 301 154L285 62Q271 61 250 61Q149 61 97 112Q45 163 45 250Q45 275 50 308Q63 381 99.50 433.50Q136 486 188.50 513.50Q241 541 303 541Q372 541 408.50 501.50Q445 462 451 404L454 404Q477 453 516 489Q555 525 611 536L631 652L26 652L41 740L996 740L980 652L733 652Z"  horiz-adv-x="911" vert-adv-y="1000"  />

      
      <glyph glyph-name="uni090F" unicode="&#x090F;" d="M724 652L619 652L601 547Q583 443 534 391.50Q485 340 394 340Q373 340 350 343L366 437Q373 436 387 436Q435 436 462 463.50Q489 491 500 550L518 652L249 652L182 269Q178 248 178 225Q178 169 209 139Q240 109 298 109Q359 109 398.50 145Q438 181 449 247L551 247Q533 139 465 79Q397 19 289 19Q184 19 128 71Q72 123 72 213Q72 241 78 272L144 652L25 652L40 740L740 740L724 652Z"  horiz-adv-x="651" vert-adv-y="1000"  />

      
      <glyph glyph-name="uni0910" unicode="&#x0910;" d="M724 652L619 652L601 547Q583 443 534 391.50Q485 340 394 340Q373 340 350 343L366 437Q373 436 387 436Q435 436 462 463.50Q489 491 500 550L518 652L249 652L182 269Q178 248 178 225Q178 169 209 139Q240 109 298 109Q359 109 398.50 145Q438 181 449 247L551 247Q533 139 465 79Q397 19 289 19Q184 19 128 71Q72 123 72 213Q72 241 78 272L144 652L25 652L40 740L530 740Q495 815 470 848Q445 881 417.50 891Q390 901 338 901L294 901L309 987L352 987Q428 986 469.50 970.50Q511 955 547.50 904Q584 853 629 740L740 740L724 652Z"  horiz-adv-x="651" vert-adv-y="1000"  />

      
      <glyph glyph-name="uni0913" unicode="&#x0913;" d="M918 740L904 652L782 652L666 0L562 0L616 308L478 309Q481 296 481 281Q481 265 478 248Q462 160 396.50 107.50Q331 55 239 55Q150 55 97.50 100Q45 145 45 221Q45 232 49 260L148 260Q146 244 146 238Q146 196 173.50 170.50Q201 145 248 145Q301 145 338 176Q375 207 383 258Q385 272 385 281Q385 297 381 309L380 309L380 312Q371 339 345.50 355Q320 371 277 371L236 371L251 456L292 456Q334 456 365 473.50Q396 491 412.50 519Q429 547 429 576Q429 615 403.50 637.50Q378 660 337 660Q289 660 251.50 632Q214 604 207 559L110 559Q125 645 192.50 697Q260 749 353 749Q433 749 479.50 710Q526 671 526 604Q526 588 523 570Q513 514 475.50 473.50Q438 433 379 417L378 415Q405 409 427 395L632 395L692 740L918 740M977 652L855 652L870 740L1219 740L1203 652L1082 652L967 0L862 0L977 652M1039 736Q1003 813 978 846.50Q953 880 925.50 890.50Q898 901 846 901L801 901L816 987L859 987Q936 986 977.50 970.50Q1019 955 1055 903Q1091 851 1138 736L1039 736Z"  horiz-adv-x="1130" vert-adv-y="1000"  />

      
      <glyph glyph-name="uni0914" unicode="&#x0914;" d="M918 740L904 652L782 652L666 0L562 0L616 308L478 309Q481 296 481 281Q481 265 478 248Q462 160 396.50 107.50Q331 55 239 55Q150 55 97.50 100Q45 145 45 221Q45 232 49 260L148 260Q146 244 146 238Q146 196 173.50 170.50Q201 145 248 145Q301 145 338 176Q375 207 383 258Q385 272 385 281Q385 297 381 309L380 309L380 312Q371 339 345.50 355Q320 371 277 371L236 371L251 456L292 456Q334 456 365 473.50Q396 491 412.50 519Q429 547 429 576Q429 615 403.50 637.50Q378 660 337 660Q289 660 251.50 632Q214 604 207 559L110 559Q125 645 192.50 697Q260 749 353 749Q433 749 479.50 710Q526 671 526 604Q526 588 523 570Q513 514 475.50 473.50Q438 433 379 417L378 415Q405 409 427 395L632 395L692 740L918 740M977 652L855 652L870 740L1219 740L1203 652L1082 652L967 0L862 0L977 652M863 1050Q940 1050 977.50 1033Q1015 1016 1049.50 952.50Q1084 889 1136 737L1046 737Q992 783 965 800Q938 817 910 822Q882 827 824 827L778 827L790 894L834 894Q890 894 918 890Q946 886 973.50 870.50Q1001 855 1039 819Q1010 895 983.50 929.50Q957 964 929.50 973Q902 982 854 982L806 982L818 1050L863 1050Z"  horiz-adv-x="1130" vert-adv-y="1000"  />

      
      <glyph glyph-name="uni090D" unicode="&#x090D;" d="M384 832Q291 832 245 873Q199 914 199 981Q199 993 203 1019L293 1019Q291 1005 291 998Q291 960 317.50 935.50Q344 911 398 911Q458 911 495 942.50Q532 974 540 1019L630 1019Q616 938 552.50 885Q489 832 384 832M699 652L594 652L576 547Q558 443 509 391.50Q460 340 369 340Q347 340 325 343L341 437Q348 436 362 436Q410 436 437 463.50Q464 491 475 550L493 652L224 652L157 269Q153 248 153 225Q153 169 184 139Q215 109 273 109Q334 109 373.50 145Q413 181 424 247L526 247Q508 139 440 79Q372 19 264 19Q159 19 103 71Q47 123 47 213Q47 241 53 272L119 652L0 652L15 740L715 740L699 652Z"  horiz-adv-x="652" vert-adv-y="1000"  />

      
      <glyph glyph-name="uni0972" unicode="&#x0972;" d="M918 740L904 652L782 652L666 0L562 0L616 308L478 309Q481 296 481 281Q481 265 478 248Q462 160 396.50 107.50Q331 55 239 55Q150 55 97.50 100Q45 145 45 221Q45 232 49 260L148 260Q146 244 146 238Q146 196 173.50 170.50Q201 145 248 145Q301 145 338 176Q375 207 383 258Q385 272 385 281Q385 297 381 309L380 309L380 312Q371 339 345.50 355Q320 371 277 371L236 371L251 456L292 456Q334 456 365 473.50Q396 491 412.50 519Q429 547 429 576Q429 615 403.50 637.50Q378 660 337 660Q289 660 251.50 632Q214 604 207 559L110 559Q125 645 192.50 697Q260 749 353 749Q433 749 479.50 710Q526 671 526 604Q526 588 523 570Q513 514 475.50 473.50Q438 433 379 417L378 415Q405 409 427 395L632 395L692 740L918 740M824 835Q730 835 682 877Q634 919 634 986Q634 1003 637 1021L728 1021Q726 1007 726 1000Q726 962 752 938Q778 914 832 914Q893 914 930 945.50Q967 977 975 1021L1065 1021Q1050 939 989.50 887Q929 835 824 835Z"  horiz-adv-x="830" vert-adv-y="1000"  />

      
      <glyph glyph-name="uni0911" unicode="&#x0911;" d="M918 740L904 652L782 652L666 0L562 0L616 308L478 309Q481 296 481 281Q481 265 478 248Q462 160 396.50 107.50Q331 55 239 55Q150 55 97.50 100Q45 145 45 221Q45 232 49 260L148 260Q146 244 146 238Q146 196 173.50 170.50Q201 145 248 145Q301 145 338 176Q375 207 383 258Q385 272 385 281Q385 297 381 309L380 309L380 312Q371 339 345.50 355Q320 371 277 371L236 371L251 456L292 456Q334 456 365 473.50Q396 491 412.50 519Q429 547 429 576Q429 615 403.50 637.50Q378 660 337 660Q289 660 251.50 632Q214 604 207 559L110 559Q125 645 192.50 697Q260 749 353 749Q433 749 479.50 710Q526 671 526 604Q526 588 523 570Q513 514 475.50 473.50Q438 433 379 417L378 415Q405 409 427 395L632 395L692 740L918 740M977 652L855 652L870 740L1219 740L1203 652L1082 652L967 0L862 0L977 652M967 832Q873 832 825 874Q777 916 777 983Q777 1000 780 1018L871 1018Q869 1004 869 997Q869 959 895 935Q921 911 975 911Q1036 911 1073 942.50Q1110 974 1118 1018L1208 1018Q1193 936 1132.50 884Q1072 832 967 832Z"  horiz-adv-x="1130" vert-adv-y="1000"  />

      
      <glyph glyph-name="uni093E" unicode="&#x093E;" d="M148 652L26 652L41 740L390 740L374 652L253 652L138 0L33 0L148 652Z"  horiz-adv-x="301" vert-adv-y="1000"  />

      
      <glyph glyph-name="uni093F" unicode="&#x093F;" d="M604 1006Q704 1006 783.50 979.50Q863 953 908 901Q953 849 953 776Q953 753 949 733L946 716L842 716L844 731Q846 741 846 760Q846 842 770.50 881Q695 920 589 920Q470 920 377.50 878Q285 836 266 740L390 740L374 652L253 652L137 0L32 0L148 652L26 652L41 740L163 740Q181 828 244 887.50Q307 947 400.50 976.50Q494 1006 604 1006Z"  horiz-adv-x="301" vert-adv-y="1000"  />

      
      <glyph glyph-name="uni0940" unicode="&#x0940;" d="M390 740L375 652L253 652L138 0L33 0L148 652L26 652L41 740L166 740L174 781Q178 801 178 827Q178 918 98 918Q-1 918-29 781L-41 716L-143 716L-132 776Q-113 882-53 944Q7 1006 113 1006Q202 1006 242 963Q282 920 282 845Q282 818 275 776L268 740L390 740Z"  horiz-adv-x="301" vert-adv-y="1000"  />

      
      <glyph glyph-name="uni0941" unicode="&#x0941;" d="M-317-311Q-406-311-466-269.50Q-526-228-526-145Q-526-118-521-95L-427-95Q-431-112-431-132Q-431-181-397.50-205Q-364-229-309-229Q-254-229-218-204Q-182-179-175-134Q-174-128-174-117Q-174-88-193.50-68.50Q-213-49-249-49L-277-49L-262 33L-234 33Q-162 33-122-5.50Q-82-44-82-107Q-82-116-84-136Q-96-218-158.50-264.50Q-221-311-317-311Z"   vert-adv-y="1000"  />

      
      <glyph glyph-name="uni0942" unicode="&#x0942;" d="M-286-301Q-351-301-396.50-266Q-442-231-442-169Q-442-154-439-137Q-426-58-366.50-14Q-307 30-219 30Q-116 30-59.50-30Q-3-90-3-187Q-3-213-10-255L-19-295L-105-295L-96-248Q-91-224-91-194Q-91-127-126.50-88Q-162-49-227-49Q-282-49-319-78.50Q-356-108-356-157Q-356-188-332.50-206.50Q-309-225-273-225Q-265-225-243-223L-257-300Q-266-301-286-301Z"   vert-adv-y="1000"  />

      
      <glyph glyph-name="uni0943" unicode="&#x0943;" d="M-258-318Q-301-318-340.50-300.50Q-380-283-404.50-249Q-429-215-429-166Q-429-151-426-133Q-412-57-352-13Q-292 31-198 31Q-165 31-158 30L-170-42L-203-42Q-259-42-292.50-72Q-326-102-326-151Q-326-190-297-211.50Q-268-233-227-233Q-188-233-148-222L-163-304Q-207-318-258-318Z"   vert-adv-y="1000"  />

      
      <glyph glyph-name="uni0944" unicode="&#x0944;" d="M-278-457Q-347-457-393.50-428Q-440-399-440-343Q-440-289-406.50-251.50Q-373-214-323-203L-323-200Q-357-192-377.50-170.50Q-398-149-398-114Q-398-99-396-90Q-385-28-335 1.50Q-285 31-225 31L-158 31L-168-28L-197-28Q-235-28-262.50-44Q-290-60-296-95Q-297-100-297-108Q-297-135-275-148Q-253-161-217-161L-167-161L-181-239L-228-239Q-269-239-298.50-254.50Q-328-270-334-306Q-335-311-335-319Q-335-347-310-361Q-285-375-248-375Q-221-375-192-370Q-163-365-147-360L-161-439Q-183-447-215.50-452Q-248-457-278-457Z"   vert-adv-y="1000"  />

      
      <glyph glyph-name="uni0962" unicode="&#x0962;" d="M8-267Q-41-267-67.50-290Q-94-313-94-348Q-94-374-74-387.50Q-54-401-23-401Q1-401 21-395L9-462Q-18-467-45-467Q-103-467-138.50-441Q-174-415-174-366Q-174-312-139.50-272.50Q-105-233-52-222L-46-194Q-43-179-43-166Q-43-133-59.50-113.50Q-76-94-109-94Q-151-94-178-126Q-205-158-215-211L-218-226L-287-226L-284-211Q-280-194-280-173Q-280-136-296.50-115Q-313-94-346-94Q-388-94-415.50-121.50Q-443-149-451-195Q-454-210-454-222Q-454-261-432-282.50Q-410-304-368-304Q-354-304-347-302L-361-374Q-369-375-385-375Q-460-375-499.50-337.50Q-539-300-539-235Q-539-222-535-194Q-520-112-467.50-66.50Q-415-21-345-21Q-294-21-267.50-49.50Q-241-78-237-120L-234-120Q-213-78-175.50-49.50Q-138-21-84-21Q-27-21 7.50-55.50Q42-90 42-152Q42-174 38-194Q31-232 14-267L8-267Z"   vert-adv-y="1000"  />

      
      <glyph glyph-name="uni0963" unicode="&#x0963;" d="M-14-267Q-41-267-60.50-278Q-80-289-84-314Q-85-317-85-323Q-85-342-69-351.50Q-53-361-27-361L9-361L-2-423L-35-423Q-104-423-113-472L-114-480Q-114-519-51-519Q-13-519 23-508L12-570Q-3-575-27-578.50Q-51-582-74-582Q-126-582-159.50-562.50Q-193-543-193-501Q-193-459-168.50-430.50Q-144-402-108-395L-108-393Q-133-387-148-370.50Q-163-354-163-327Q-163-277-129.50-250Q-96-223-51-220L-45-194Q-42-179-42-166Q-42-133-59-113.50Q-76-94-109-94Q-151-94-177.50-125.50Q-204-157-214-211L-217-226L-287-226L-284-211Q-280-194-280-173Q-280-136-296.50-115Q-313-94-346-94Q-388-94-415.50-121.50Q-443-149-451-195Q-454-210-454-222Q-454-261-431.50-282.50Q-409-304-368-304Q-353-304-347-302L-360-374Q-368-375-385-375Q-460-375-499-337.50Q-538-300-538-236Q-538-214-534-194Q-519-112-467-66.50Q-415-21-345-21Q-294-21-267.50-49.50Q-241-78-236-120L-234-120Q-213-78-175.50-49.50Q-138-21-84-21Q-27-21 7.50-55.50Q42-90 42-151Q42-174 38-194Q33-228 14-267L-14-267Z"   vert-adv-y="1000"  />

      
      <glyph glyph-name="uni0947" unicode="&#x0947;" d="M-133 736Q-169 813-194 846.50Q-219 880-246.50 890.50Q-274 901-326 901L-371 901L-356 987L-313 987Q-236 986-194.50 970.50Q-153 955-117 903Q-81 851-34 736L-133 736Z"   vert-adv-y="1000"  />

      
      <glyph glyph-name="uni0948" unicode="&#x0948;" d="M-311 1050Q-234 1050-196.50 1033Q-159 1016-124.50 952.50Q-90 889-38 737L-128 737Q-182 783-209 800Q-236 817-264 822Q-292 827-350 827L-396 827L-384 894L-340 894Q-284 894-256 890Q-228 886-200.50 870.50Q-173 855-135 819Q-164 895-190.50 929.50Q-217 964-244.50 973Q-272 982-320 982L-368 982L-356 1050L-311 1050Z"   vert-adv-y="1000"  />

      
      <glyph glyph-name="uni094B" unicode="&#x094B;" d="M390 740L375 652L253 652L138 0L33 0L148 652L26 652L42 740L166 740Q132 814 107 847.50Q82 881 54 891Q26 901-25 901L-70 901L-55 987L-12 987Q64 986 105.50 971Q147 956 183 904.50Q219 853 265 740L390 740Z"  horiz-adv-x="302" vert-adv-y="1000"  />

      
      <glyph glyph-name="uni094C" unicode="&#x094C;" d="M363 740L347 652L225 652L111 0L6 0L120 652L-2 652L14 740L143 740Q92 784 65 801Q38 818 10 822.50Q-18 827-76 827L-121 827L-109 894L-66 894Q-10 894 18 890Q46 886 73.50 870.50Q101 855 139 819Q110 895 84 930Q58 965 30.50 973.50Q3 982-46 982L-93 982L-82 1050L-37 1050Q40 1050 78 1033Q116 1016 150.50 953Q185 890 236 740L363 740Z"  horiz-adv-x="301" vert-adv-y="1000"  />

      
      <glyph glyph-name="uni0945" unicode="&#x0945;" d="M-67 816Q-161 816-209 858Q-257 900-257 967Q-257 984-254 1002L-163 1002Q-165 988-165 981Q-165 943-139 919Q-113 895-59 895Q2 895 39 926.50Q76 958 84 1002L174 1002Q159 920 98.50 868Q38 816-67 816Z"   vert-adv-y="1000"  />

      
      <glyph glyph-name="uni0949" unicode="&#x0949;" d="M235 816Q141 816 93 858Q45 900 45 967Q45 984 48 1002L139 1002Q137 988 137 981Q137 943 163 919Q189 895 243 895Q304 895 341 926.50Q378 958 386 1002L476 1002Q461 920 400.50 868Q340 816 235 816M148 652L26 652L41 740L390 740L374 652L253 652L138 0L33 0L148 652Z"  horiz-adv-x="302" vert-adv-y="1000"  />

      
      <glyph glyph-name="uni0915" unicode="&#x0915;" d="M599 652L565 459Q594 501 639.50 526Q685 551 742 551Q821 551 869 500.50Q917 450 917 369Q917 347 912 319Q892 212 824.50 153Q757 94 664 94Q629 94 602 101L616 184Q629 180 653 180Q709 180 752 217.50Q795 255 807 321Q809 331 809 350Q809 400 779 430.50Q749 461 699 461Q636 461 595.50 421Q555 381 541 322L485 0L384 0L416 181Q385 138 338.50 113Q292 88 232 88Q152 88 102 138Q52 188 52 271Q52 293 57 323Q69 392 104.50 443.50Q140 495 193.50 523Q247 551 310 551Q372 551 410.50 526Q449 501 465 458L499 652L26 652L41 740L1074 740L1059 652L599 652M440 319Q443 334 443 348Q443 396 413.50 428.50Q384 461 326 461Q267 461 220.50 422.50Q174 384 163 320Q160 304 160 288Q160 236 192 206Q224 176 277 176Q343 177 385.50 218.50Q428 260 439 313L440 319Z"  horiz-adv-x="986" vert-adv-y="1000"  />

      
      <glyph glyph-name="uni0916" unicode="&#x0916;" d="M1030 740L1014 652L893 652L779 0L674 0L709 200Q683 167 644 148Q605 129 556 129Q538 129 521 132Q478 71 413.50 33.50Q349-4 271-4Q168-4 110 47.50Q52 99 52 193Q52 222 58 253L84 400L116 400Q182 400 225.50 433Q269 466 282 544L300 652L26 652L42 740L1030 740M788 652L405 652L385 531Q366 428 310 377.50Q254 327 174 324L160 241Q157 223 157 207Q157 152 192 119.50Q227 87 290 87Q342 87 381.50 110Q421 133 447 170Q423 193 409.50 226.50Q396 260 396 300Q396 325 400 346Q410 404 442 447.50Q474 491 520.50 515Q567 539 620 539Q673 539 706.50 520Q740 501 756 468L788 652M591 210Q636 210 668.50 233Q701 256 717.50 291Q734 326 734 360Q734 401 708.50 429.50Q683 458 632 458Q580 458 540 425Q500 392 490 336Q488 326 488 309Q488 262 516.50 236Q545 210 591 210Z"  horiz-adv-x="941" vert-adv-y="1000"  />

      
      <glyph glyph-name="uni0917" unicode="&#x0917;" d="M854 740L839 652L717 652L602 0L498 0L612 652L449 652L404 395Q390 312 339 260Q288 208 200 208Q127 208 85.50 246Q44 284 44 349Q44 370 48 389L54 420L156 420L150 389Q148 380 148 363Q148 298 208 298Q249 298 270.50 324.50Q292 351 298 391L345 652L26 652L41 740L854 740Z"  horiz-adv-x="766" vert-adv-y="1000"  />

      
      <glyph glyph-name="uni0918" unicode="&#x0918;" d="M780 652L659 652L545 0L439 0L475 205Q435 156 377 129Q319 102 252 102Q167 102 113 142Q59 182 59 253Q59 269 62 285Q73 345 116.50 385Q160 425 215 435L215 437Q175 445 151 471.50Q127 498 127 545Q127 565 131 584L143 652L26 652L41 740L796 740L780 652M553 652L248 652L236 589Q234 579 234 562Q234 522 259.50 501Q285 480 340 480L385 480L370 395L317 395Q244 395 206.50 361Q169 327 169 274Q169 232 202.50 210Q236 188 291 188Q341 188 385.50 209Q430 230 461 268.50Q492 307 501 356L553 652Z"  horiz-adv-x="707" vert-adv-y="1000"  />

      
      <glyph glyph-name="uni0919" unicode="&#x0919;" d="M762 740L747 652L520 652L500 545L501 545L488 470L309 470Q264 470 231 454Q198 438 191 398Q190 393 190 384Q190 354 213 340Q236 326 272 326L316 326Q394 326 444.50 291.50Q495 257 495 187Q495 172 492 152Q478 75 416 29.50Q354-16 251-16Q150-16 90 28.50Q30 73 30 148Q30 167 32 177L136 177Q135 171 135 159Q135 115 167 89.50Q199 64 258 64Q320 64 357 96Q394 128 394 176Q394 215 364 233Q334 251 285 251L246 251Q182 251 133 280Q84 309 84 373Q84 386 87 401Q100 475 158 510Q216 545 293 545L399 545L418 652L28 652L43 740L762 740M609 447Q631 447 645.50 433Q660 419 660 397Q660 369 638 347.50Q616 326 587 326Q565 326 550.50 340Q536 354 536 375Q536 404 558.50 425.50Q581 447 609 447Z"  horiz-adv-x="673" vert-adv-y="1000"  />

      
      <glyph glyph-name="uni091A" unicode="&#x091A;" d="M813 652L692 652L577 0L472 0L506 191Q470 146 416 120.50Q362 95 301 95Q222 95 172 137.50Q122 180 122 253Q122 264 126 292Q134 340 160.50 378Q187 416 228 440L62 440L77 523L442 523L427 440L390 440Q328 440 283.50 403.50Q239 367 228 309Q226 300 226 284Q226 236 260 209Q294 182 347 182Q417 183 468.50 231.50Q520 280 534 353L587 652L26 652L41 740L829 740L813 652Z"  horiz-adv-x="740" vert-adv-y="1000"  />

      
      <glyph glyph-name="uni091B" unicode="&#x091B;" d="M681 652L662 542Q713 529 742 490Q771 451 771 388Q771 367 766 337Q749 242 690.50 171.50Q632 101 540.50 63Q449 25 336 25Q251 25 184.50 47.50Q118 70 80.50 112.50Q43 155 43 213Q43 234 47 251Q59 314 101.50 354Q144 394 205 407L205 410Q165 417 141.50 444Q118 471 118 520Q118 536 121 557L138 652L24 652L39 740L906 740L890 652L681 652M584 652L243 652L227 561Q224 545 224 531Q224 452 324 452L346 452L331 367L311 367Q235 367 193.50 328Q152 289 152 232Q152 175 204.50 145Q257 115 352 115Q480 115 567.50 175Q655 235 674 341Q677 359 677 376Q677 420 655 444.50Q633 469 599 469Q562 469 529.50 442.50Q497 416 488 364Q485 345 485 324Q485 300 488 276L401 276Q397 304 397 321Q397 345 402 375Q415 447 459 488.50Q503 530 564 542L584 652Z"  horiz-adv-x="817" vert-adv-y="1000"  />

      
      <glyph glyph-name="uni091C" unicode="&#x091C;" d="M919 652L798 652L683 0L578 0L650 406L482 406L468 330Q452 237 389 179.50Q326 122 233 122Q152 122 105 167Q58 212 58 288Q58 313 62 333L91 496L196 496L167 332Q164 316 164 300Q164 260 185 237Q206 214 245 214Q292 214 324 246Q356 278 366 332L395 496L665 496L693 652L26 652L41 740L935 740L919 652Z"  horiz-adv-x="846" vert-adv-y="1000"  />

      
      <glyph glyph-name="uni091D" unicode="&#x091D;" d="M935 652L813 652L699 0L596 0L639 246L470 247Q492 217 492 174Q492 159 489 142Q477 75 426 33Q375-9 293-9Q232-9 197.50 14.50Q163 38 148 64L123-79L23-79L68 171L162 171Q160 126 188.50 97.50Q217 69 276 69Q334 69 365.50 99.50Q397 130 397 173Q397 210 368.50 230.50Q340 251 287 251L231 251Q168 253 126.50 284Q85 315 85 374Q85 388 88 404Q101 478 159 512Q217 546 297 546L403 546L421 652L33 652L49 740L951 740L935 652M710 652L523 652L504 546L490 470L311 470Q267 470 233.50 454Q200 438 193 397Q191 387 191 382Q191 353 214 339.50Q237 326 275 326L319 326L653 326L710 652Z"  horiz-adv-x="862" vert-adv-y="1000"  />

      
      <glyph glyph-name="uni091E" unicode="&#x091E;" d="M890 652L769 652L654 0L549 0L598 276L499 276Q472 187 403 133Q334 79 239 79Q175 79 130.50 102.50Q86 126 64 167Q42 208 45 259L144 259Q148 220 176 194Q204 168 254 168Q318 168 360.50 210.50Q403 253 414 316Q417 334 417 350Q417 400 389 431.50Q361 463 307 463Q256 463 218.50 436.50Q181 410 164 372L65 372Q88 451 156.50 501.50Q225 552 322 552Q415 552 465 500.50Q515 449 514 365L613 365L664 652L26 652L41 740L906 740L890 652Z"  horiz-adv-x="817" vert-adv-y="1000"  />

      
      <glyph glyph-name="uni091F" unicode="&#x091F;" d="M373 459Q289 459 228 415.50Q167 372 152 289Q149 273 149 258Q149 199 189 163Q229 127 295 127Q372 127 425.50 174Q479 221 492 297L592 297Q579 219 537 160Q495 101 430 68.50Q365 36 284 36Q213 36 158.50 62.50Q104 89 73.50 136.50Q43 184 43 247Q43 272 47 293Q69 417 159 482.50Q249 548 382 548L397 548L415 652L23 652L39 740L735 740L719 652L518 652L484 459L373 459Z"  horiz-adv-x="646" vert-adv-y="1000"  />

      
      <glyph glyph-name="uni0920" unicode="&#x0920;" d="M434 652L414 542Q496 528 546 474Q596 420 596 337Q596 312 592 289Q579 214 534 158Q489 102 423 72Q357 42 280 42Q213 42 159.50 68Q106 94 75.50 141.50Q45 189 45 252Q45 277 49 300Q67 403 140 467Q213 531 312 544L331 652L22 652L38 740L760 740L744 652L434 652M488 292Q491 309 491 325Q491 385 452.50 421.50Q414 458 349 458Q276 458 221 413Q166 368 153 297Q150 281 150 264Q150 204 188.50 167Q227 130 291 130Q364 130 419.50 175.50Q475 221 488 292Z"  horiz-adv-x="671" vert-adv-y="1000"  />

      
      <glyph glyph-name="uni0921" unicode="&#x0921;" d="M309 470Q264 470 231 454Q198 438 191 398Q190 393 190 384Q190 354 213 340Q236 326 272 326L316 326Q394 326 444.50 291.50Q495 257 495 187Q495 172 492 152Q478 75 416 29.50Q354-16 251-16Q150-16 90 28.50Q30 73 30 148Q30 167 32 177L136 177Q135 171 135 159Q135 115 167 89.50Q199 64 258 64Q320 64 357 96Q394 128 394 176Q394 215 364 233Q334 251 285 251L246 251Q182 251 133 280Q84 309 84 373Q84 386 87 401Q100 475 158 510Q216 545 293 545L394 545L414 652L28 652L43 740L662 740L647 652L516 652L483 470L309 470Z"  horiz-adv-x="573" vert-adv-y="1000"  />

      
      <glyph glyph-name="uni0922" unicode="&#x0922;" d="M409 479Q311 479 239 426.50Q167 374 150 277Q146 249 146 237Q146 166 192.50 123Q239 80 323 80Q391 80 440.50 113Q490 146 500 201Q502 213 502 219Q502 251 482 270.50Q462 290 429 290Q395 290 369 269.50Q343 249 337 215Q335 203 335 195L259 195Q259 213 262 228Q273 293 323.50 329.50Q374 366 446 366Q512 366 552 328.50Q592 291 592 230Q592 215 589 198Q573 109 499 56Q425 3 312 3Q234 3 173.50 31.50Q113 60 79 112Q45 164 45 233Q45 255 50 285Q66 372 114.50 432Q163 492 234.50 522.50Q306 553 390 553L424 553L441 652L25 652L41 740L734 740L718 652L540 652L510 479L409 479Z"  horiz-adv-x="645" vert-adv-y="1000"  />

      
      <glyph glyph-name="uni0923" unicode="&#x0923;" d="M941 652L819 652L704 0L599 0L714 652L537 652L488 378Q472 286 414 229Q356 172 263 172Q181 172 133 216.50Q85 261 85 335Q85 358 89 378L138 652L26 652L41 740L956 740L941 652M434 652L241 652L191 368Q188 355 188 342Q188 305 209.50 283Q231 261 269 261Q314 261 345 290.50Q376 320 384 368L434 652Z"  horiz-adv-x="867" vert-adv-y="1000"  />

      
      <glyph glyph-name="uni0924" unicode="&#x0924;" d="M771 652L649 652L535 0L430 0L501 406L361 406Q276 406 219.50 365Q163 324 149 246Q145 218 145 207Q145 149 182 117Q219 85 290 85L310 85L296 2L269 2Q167 2 103 53Q39 104 39 201Q39 227 43 251Q64 375 153 435.50Q242 496 372 496L517 496L544 652L26 652L41 740L787 740L771 652Z"  horiz-adv-x="698" vert-adv-y="1000"  />

      
      <glyph glyph-name="uni0925" unicode="&#x0925;" d="M862 740L847 652L725 652L610 0L505 0L544 217Q515 167 450 130.50Q385 94 303 94Q193 94 129 151.50Q65 209 65 309Q65 339 71 370Q75 394 85 428L180 428Q379 428 403 561Q405 575 405 583Q405 617 384.50 638Q364 659 326 659Q270 659 238.50 618Q207 577 208 516L113 516Q115 581 143 634Q171 687 222.50 718Q274 749 342 749Q418 749 462 708Q506 667 506 598Q506 586 502 558Q484 458 405.50 405Q327 352 206 352L170 352Q167 336 167 319Q167 257 209.50 219.50Q252 182 333 182Q390 182 441 207Q492 232 527.50 279Q563 326 574 390L635 740L862 740Z"  horiz-adv-x="773" vert-adv-y="1000"  />

      
      <glyph glyph-name="uni0926" unicode="&#x0926;" d="M359 461Q284 461 230 423Q176 385 164 315Q161 299 161 284Q161 233 193 203Q225 173 279 173Q330 173 374 205Q418 237 428 296L524 296L469-21L366-21L398 158Q371 125 328.50 107Q286 89 236 89Q156 89 104.50 138Q53 187 53 271Q53 292 58 322Q78 435 162.50 493Q247 551 365 551L427 551L445 652L27 652L43 740L700 740L684 652L550 652L516 461L359 461Z"  horiz-adv-x="612" vert-adv-y="1000"  />

      
      <glyph glyph-name="uni0927" unicode="&#x0927;" d="M795 652L675 652L560 0L455 0L491 204Q451 151 389 121.50Q327 92 252 92Q169 92 115 131Q61 170 61 239Q61 254 64 270Q76 332 118 368Q160 404 210 413L210 416Q167 427 138.50 461Q110 495 110 549Q110 566 113 584Q126 659 180 704Q234 749 312 749Q382 749 421.50 714Q461 679 461 618Q461 586 451 552L372 552Q378 573 378 590Q378 623 359 642Q340 661 304 661Q260 661 229 626.50Q198 592 198 545Q198 503 228 481Q258 459 312 459L384 459L369 374L316 374Q248 374 209.50 343.50Q171 313 171 263Q171 223 204.50 201Q238 179 293 179Q349 179 397.50 203.50Q446 228 478.50 272Q511 316 521 373L521 372L571 653L585 740L810 740L795 652Z"  horiz-adv-x="721" vert-adv-y="1000"  />

      
      <glyph glyph-name="uni0928" unicode="&#x0928;" d="M873 652L751 652L636 0L531 0L604 414L430 414Q457 375 457 326Q457 315 453 289Q443 232 410 190Q377 148 329 125.50Q281 103 227 103Q145 103 94.50 149.50Q44 196 44 271Q44 289 47 308Q64 401 132.50 451.50Q201 502 299 502L619 502L646 652L26 652L41 740L888 740L873 652M373 325Q373 365 347 389.50Q321 414 278 414Q227 414 189 382.50Q151 351 142 302Q140 288 140 281Q140 240 166.50 216Q193 192 239 192Q275 192 306 210Q337 228 355 258.50Q373 289 373 325Z"  horiz-adv-x="799" vert-adv-y="1000"  />

      
      <glyph glyph-name="uni092A" unicode="&#x092A;" d="M734 652L613 652L498 0L394 0L439 259Q376 186 272 186Q183 186 134 237Q85 288 85 375Q85 404 91 437L130 652L26 652L41 740L750 740L734 652M508 652L234 652L196 437Q192 416 192 393Q192 337 221.50 306Q251 275 309 275Q369 275 410 311.50Q451 348 465 406L508 652Z"  horiz-adv-x="661" vert-adv-y="1000"  />

      
      <glyph glyph-name="uni092B" unicode="&#x092B;" d="M595 652L560 457Q591 500 638.50 525.50Q686 551 747 551Q826 551 872 502.50Q918 454 918 375Q918 349 914 326Q901 254 865 201.50Q829 149 776.50 121.50Q724 94 664 94Q628 94 599 102L613 184Q633 179 653 179Q710 179 752.50 217.50Q795 256 806 321Q809 338 809 352Q809 401 779 431Q749 461 699 461Q634 461 592 418.50Q550 376 535 313L480 0L375 0L420 257Q391 223 350.50 204.50Q310 186 261 186Q176 186 130.50 234.50Q85 283 85 367Q85 398 91 432L130 652L26 652L41 740L1074 740L1058 652L595 652M490 652L234 652L196 432Q191 404 191 383Q191 331 218 303Q245 275 299 275Q354 275 393 310.50Q432 346 445 400L490 652Z"  horiz-adv-x="985" vert-adv-y="1000"  />

      
      <glyph glyph-name="uni092C" unicode="&#x092C;" d="M777 740L762 652L640 652L526 0L425 0L456 177Q425 134 373.50 108Q322 82 258 82Q199 82 152.50 106.50Q106 131 80 175.50Q54 220 54 279Q54 304 58 327Q70 398 110 451Q150 504 209 532.50Q268 561 338 561Q401 561 443.50 535.50Q486 510 507 467L539 652L26 652L41 740L777 740M487 324Q490 339 490 355Q490 413 453 452Q416 491 348 491Q279 491 227 450L446 234Q479 275 487 324M149 322Q146 304 146 288Q146 228 187 193Q228 158 291 158Q359 158 411 198L190 415Q157 373 149 322Z"  horiz-adv-x="689" vert-adv-y="1000"  />

      
      <glyph glyph-name="uni092D" unicode="&#x092D;" d="M900 740L885 652L763 652L647 0L542 0L607 371L456 371L444 302Q426 200 367.50 144.50Q309 89 217 89Q139 89 94 129.50Q49 170 49 238Q49 255 52 274Q68 361 133 409Q198 457 288 457L372 457L388 546Q392 574 392 585Q392 659 327 659Q291 659 264.50 634Q238 609 230 566Q227 548 228 530L123 530L123 540Q123 550 125 570Q140 651 196 700Q252 749 337 749Q416 749 452.50 708.50Q489 668 489 595Q489 564 483 528L471 457L622 457L672 740L900 740M357 371L276 371Q227 371 192.50 345Q158 319 150 274Q148 260 148 253Q148 219 170.50 198.50Q193 178 229 178Q274 178 304 209.50Q334 241 344 297L357 371Z"  horiz-adv-x="811" vert-adv-y="1000"  />

      
      <glyph glyph-name="uni092E" unicode="&#x092E;" d="M876 652L754 652L639 0L534 0L600 371L432 371L420 302Q402 200 343.50 144.50Q285 89 193 89Q116 89 70.50 129Q25 169 25 237Q25 248 29 274Q43 361 109 409Q175 457 264 457L349 457L384 652L26 652L41 740L891 740L876 652M649 652L482 652L447 457L615 457L649 652M334 371L251 371Q197 371 161 339Q125 307 125 254Q125 219 147.50 198.50Q170 178 206 178Q251 178 280.50 209.50Q310 241 321 297L334 371Z"  horiz-adv-x="803" vert-adv-y="1000"  />

      
      <glyph glyph-name="uni092F" unicode="&#x092F;" d="M816 652L694 652L580 0L475 0L509 197Q473 154 418 128.50Q363 103 294 103Q186 103 123.50 162Q61 221 61 323Q61 352 67 385Q71 404 80 436L93 436Q178 436 226.50 472.50Q275 509 290 590L301 652L26 652L41 740L832 740L816 652M589 652L405 652L390 572Q358 390 170 379L169 375Q165 356 165 334Q165 267 207 229Q249 191 325 191Q407 191 467 241.50Q527 292 540 372L589 652Z"  horiz-adv-x="743" vert-adv-y="1000"  />

      
      <glyph glyph-name="uni0930" unicode="&#x0930;" d="M608 652L499 652L485 569Q464 453 396.50 390Q329 327 211 327L174 327L152 202Q148 178 148 168Q148 128 170 104.50Q192 81 233 81Q278 81 308 111.50Q338 142 347 193L350 215L451 215L449 196Q433 101 374.50 46Q316-9 225-9Q139-9 91.50 37Q44 83 44 158Q44 179 49 207L85 413L189 413Q272 413 319 452Q366 491 380 569L394 652L27 652L42 740L624 740L608 652Z"  horiz-adv-x="535" vert-adv-y="1000"  />

      
      <glyph glyph-name="uni0932" unicode="&#x0932;" d="M744 652L723 527Q773 510 801.50 465Q830 420 830 355Q830 324 825 299Q806 190 732.50 123.50Q659 57 544 57L503 59L520 151Q536 149 548 149Q616 149 661.50 191Q707 233 719 303Q722 323 722 340Q722 388 698 416.50Q674 445 627 445Q567 445 528 400Q489 355 476 281L473 263L386 263L388 281Q394 310 394 335Q394 386 370.50 415.50Q347 445 300 445Q241 445 203.50 406Q166 367 154 303Q151 284 151 266Q151 212 182 180.50Q213 149 273 149Q280 149 300 151L283 59Q259 57 253 57Q152 57 98 111Q44 165 44 253Q44 285 49 309Q68 418 136 477.50Q204 537 298 537Q370 537 407.50 498Q445 459 452 402L454 402Q478 452 519.50 488.50Q561 525 621 534L641 652L21 652L37 740L991 740L975 652L744 652Z"  horiz-adv-x="902" vert-adv-y="1000"  />

      
      <glyph glyph-name="uni0935" unicode="&#x0935;" d="M761 740L745 652L624 652L509 0L407 0L438 178Q405 135 356 110.50Q307 86 247 86Q159 86 106.50 136.50Q54 187 54 274Q54 306 59 331Q77 433 148 494Q219 555 319 555Q381 555 424 530.50Q467 506 488 465L521 652L26 652L41 740L761 740M285 170Q355 170 401.50 212.50Q448 255 462 312L464 328Q465 335 465 349Q465 401 433 435.50Q401 470 337 470Q272 470 221.50 429Q171 388 159 321Q156 305 156 290Q156 234 191 202Q226 170 285 170Z"  horiz-adv-x="672" vert-adv-y="1000"  />

      
      <glyph glyph-name="uni0936" unicode="&#x0936;" d="M367 749Q450 749 501.50 703Q553 657 553 578Q553 553 549 532Q529 423 448 366.50Q367 310 253 310L178 310L161 212Q158 194 158 177Q158 133 181 108Q204 83 251 83Q302 83 335.50 118Q369 153 380 215L482 215Q468 113 407 52.50Q346-8 244-8Q153-8 102 39Q51 86 51 167Q51 189 56 219L88 399L232 399Q313 399 372 434.50Q431 470 444 541Q446 550 446 567Q446 609 421.50 633.50Q397 658 356 658Q295 658 259 612.50Q223 567 223 500L119 500Q122 575 154.50 631.50Q187 688 242 718.50Q297 749 367 749M915 740L899 652L778 652L663 0L557 0L687 740L915 740Z"  horiz-adv-x="826" vert-adv-y="1000"  />

      
      <glyph glyph-name="uni0937" unicode="&#x0937;" d="M743 652L622 652L507 0L404 0L449 257Q418 220 374 199.50Q330 179 274 179Q185 179 135 232Q85 285 85 375Q85 404 91 437L130 652L26 652L41 740L759 740L743 652M519 652L232 652L480 430L519 652M308 268Q358 268 396.50 292.50Q435 317 457 359L217 574L192 434Q188 414 188 391Q188 334 219.50 301Q251 268 308 268Z"  horiz-adv-x="670" vert-adv-y="1000"  />

      
      <glyph glyph-name="uni0938" unicode="&#x0938;" d="M895 652L774 652L659 0L554 0L613 335L175 335L151 203Q148 187 148 171Q148 129 170 105Q192 81 236 81Q284 81 314 115Q344 149 353 205L454 205Q443 108 382.50 49.50Q322-9 226-9Q140-9 92.50 38.50Q45 86 45 165Q45 190 49 213L84 411L172 411Q253 411 301 453Q349 495 362 568L377 652L26 652L42 740L911 740L895 652M669 652L482 652L466 568Q451 478 392 421L628 421L669 652Z"  horiz-adv-x="822" vert-adv-y="1000"  />

      
      <glyph glyph-name="uni0939" unicode="&#x0939;" d="M684 740L669 652L531 652L513 549L499 473L319 473Q278 473 248.50 456Q219 439 213 402Q211 392 211 388Q211 348 255 332Q279 336 309 336Q376 336 421 311Q466 286 487 246.50Q508 207 506 165L405 165Q403 199 375 225.50Q347 252 294 252Q234 252 191 213Q148 174 138 116Q135 100 135 85Q135 38 164.50 9.50Q194-19 247-19Q297-19 334.50 6.50Q372 32 388 66L488 66Q474 19 439.50-20Q405-59 353.50-82.50Q302-106 238-106Q142-106 87.50-54.50Q33-3 33 79Q33 103 37 123Q47 183 81.50 229.50Q116 276 169 303Q111 337 111 399Q111 407 113 423Q124 483 173.50 516Q223 549 297 549L412 549L431 652L36 652L51 740L684 740Z"  horiz-adv-x="595" vert-adv-y="1000"  />

      
      <glyph glyph-name="uni0933" unicode="&#x0933;" d="M803 652L781 531Q840 515 874 469.50Q908 424 908 357Q908 331 904 310Q892 243 854 191.50Q816 140 760 111.50Q704 83 641 83Q568 83 520.50 119.50Q473 156 461 216L457 216Q426 156 367 119.50Q308 83 235 83Q150 83 96.50 132.50Q43 182 43 265Q43 289 47 310Q59 378 97.50 430.50Q136 483 192 511.50Q248 540 311 540Q382 540 428 505Q474 470 492 409L495 409Q527 462 575 496Q623 530 682 538L702 652L19 652L35 740L1069 740L1053 652L803 652M424 310Q427 325 427 339Q427 389 396 419.50Q365 450 312 450Q251 450 205.50 411Q160 372 150 309Q147 294 147 280Q147 231 179 202Q211 173 263 173Q324 173 368.50 211Q413 249 424 310M802 309Q804 319 804 338Q804 389 773 419.50Q742 450 689 450Q628 450 583 411Q538 372 527 310Q524 295 524 282Q524 232 555 202.50Q586 173 639 173Q700 173 745.50 210.50Q791 248 802 309Z"  horiz-adv-x="980" vert-adv-y="1000"  />

      
      <glyph glyph-name="uni0958" unicode="&#x0958;" d="M599 652L565 459Q594 501 639.50 526Q685 551 742 551Q821 551 869 500.50Q917 450 917 369Q917 347 912 319Q892 212 824.50 153Q757 94 664 94Q629 94 602 101L616 184Q629 180 653 180Q709 180 752 217.50Q795 255 807 321Q809 331 809 350Q809 400 779 430.50Q749 461 699 461Q636 461 595.50 421Q555 381 541 322L485 0L384 0L416 181Q385 138 338.50 113Q292 88 232 88Q152 88 102 138Q52 188 52 271Q52 293 57 323Q69 392 104.50 443.50Q140 495 193.50 523Q247 551 310 551Q372 551 410.50 526Q449 501 465 458L499 652L26 652L41 740L1074 740L1059 652L599 652M440 319Q443 334 443 348Q443 396 413.50 428.50Q384 461 326 461Q267 461 220.50 422.50Q174 384 163 320Q160 304 160 288Q160 236 192 206Q224 176 277 176Q343 177 385.50 218.50Q428 260 439 313L440 319M174-118Q149-118 133.50-102.50Q118-87 118-64Q118-32 141.50-9Q165 14 197 14Q222 14 237.50-1.50Q253-17 253-42Q253-73 229-95.50Q205-118 174-118Z"  horiz-adv-x="986" vert-adv-y="1000"  />

      
      <glyph glyph-name="uni0959" unicode="&#x0959;" d="M1030 740L1014 652L893 652L779 0L674 0L709 200Q683 167 644 148Q605 129 556 129Q538 129 521 132Q478 71 413.50 33.50Q349-4 271-4Q168-4 110 47.50Q52 99 52 193Q52 222 58 253L84 400L116 400Q182 400 225.50 433Q269 466 282 544L300 652L26 652L42 740L1030 740M788 652L405 652L385 531Q366 428 310 377.50Q254 327 174 324L160 241Q157 223 157 207Q157 152 192 119.50Q227 87 290 87Q342 87 381.50 110Q421 133 447 170Q423 193 409.50 226.50Q396 260 396 300Q396 325 400 346Q410 404 442 447.50Q474 491 520.50 515Q567 539 620 539Q673 539 706.50 520Q740 501 756 468L788 652M591 210Q636 210 668.50 233Q701 256 717.50 291Q734 326 734 360Q734 401 708.50 429.50Q683 458 632 458Q580 458 540 425Q500 392 490 336Q488 326 488 309Q488 262 516.50 236Q545 210 591 210M217-207Q192-207 176.50-191.50Q161-176 161-153Q161-121 184.50-98Q208-75 240-75Q265-75 280.50-90.50Q296-106 296-131Q296-162 272-184.50Q248-207 217-207Z"  horiz-adv-x="941" vert-adv-y="1000"  />

      
      <glyph glyph-name="uni095A" unicode="&#x095A;" d="M854 740L839 652L717 652L602 0L498 0L612 652L449 652L404 395Q390 312 339 260Q288 208 200 208Q127 208 85.50 246Q44 284 44 349Q44 370 48 389L54 420L156 420L150 389Q148 380 148 363Q148 298 208 298Q249 298 270.50 324.50Q292 351 298 391L345 652L26 652L41 740L854 740M163-1Q138-1 122.50 14.50Q107 30 107 53Q107 85 130.50 108Q154 131 186 131Q211 131 226.50 115.50Q242 100 242 75Q242 44 218 21.50Q194-1 163-1Z"  horiz-adv-x="766" vert-adv-y="1000"  />

      
      <glyph glyph-name="uni095B" unicode="&#x095B;" d="M919 652L798 652L683 0L578 0L650 406L482 406L468 330Q452 237 389 179.50Q326 122 233 122Q152 122 105 167Q58 212 58 288Q58 313 62 333L91 496L196 496L167 332Q164 316 164 300Q164 260 185 237Q206 214 245 214Q292 214 324 246Q356 278 366 332L395 496L665 496L693 652L26 652L41 740L935 740L919 652M196-83Q171-83 155.50-67.50Q140-52 140-29Q140 3 163.50 26Q187 49 219 49Q244 49 259.50 33.50Q275 18 275-7Q275-38 251-60.50Q227-83 196-83Z"  horiz-adv-x="846" vert-adv-y="1000"  />

      
      <glyph glyph-name="uni095C" unicode="&#x095C;" d="M309 470Q264 470 231 454Q198 438 191 398Q190 393 190 384Q190 354 213 340Q236 326 272 326L316 326Q394 326 444.50 291.50Q495 257 495 187Q495 172 492 152Q478 75 416 29.50Q354-16 251-16Q150-16 90 28.50Q30 73 30 148Q30 167 32 177L136 177Q135 171 135 159Q135 115 167 89.50Q199 64 258 64Q320 64 357 96Q394 128 394 176Q394 215 364 233Q334 251 285 251L246 251Q182 251 133 280Q84 309 84 373Q84 386 87 401Q100 475 158 510Q216 545 293 545L394 545L414 652L28 652L43 740L662 740L647 652L516 652L483 470L309 470M207-221Q182-221 166.50-205.50Q151-190 151-167Q151-135 174.50-112Q198-89 230-89Q255-89 270.50-104.50Q286-120 286-145Q286-176 262-198.50Q238-221 207-221Z"  horiz-adv-x="573" vert-adv-y="1000"  />

      
      <glyph glyph-name="uni095D" unicode="&#x095D;" d="M409 479Q311 479 239 426.50Q167 374 150 277Q146 249 146 237Q146 166 192.50 123Q239 80 323 80Q391 80 440.50 113Q490 146 500 201Q502 213 502 219Q502 251 482 270.50Q462 290 429 290Q395 290 369 269.50Q343 249 337 215Q335 203 335 195L259 195Q259 213 262 228Q273 293 323.50 329.50Q374 366 446 366Q512 366 552 328.50Q592 291 592 230Q592 215 589 198Q573 109 499 56Q425 3 312 3Q234 3 173.50 31.50Q113 60 79 112Q45 164 45 233Q45 255 50 285Q66 372 114.50 432Q163 492 234.50 522.50Q306 553 390 553L424 553L441 652L25 652L41 740L734 740L718 652L540 652L510 479L409 479M248-201Q223-201 207.50-185.50Q192-170 192-147Q192-115 215.50-92Q239-69 271-69Q296-69 311.50-84.50Q327-100 327-125Q327-156 303-178.50Q279-201 248-201Z"  horiz-adv-x="645" vert-adv-y="1000"  />

      
      <glyph glyph-name="uni095E" unicode="&#x095E;" d="M595 652L560 457Q591 500 638.50 525.50Q686 551 747 551Q826 551 872 502.50Q918 454 918 375Q918 349 914 326Q901 254 865 201.50Q829 149 776.50 121.50Q724 94 664 94Q628 94 599 102L613 184Q633 179 653 179Q710 179 752.50 217.50Q795 256 806 321Q809 338 809 352Q809 401 779 431Q749 461 699 461Q634 461 592 418.50Q550 376 535 313L480 0L375 0L420 257Q391 223 350.50 204.50Q310 186 261 186Q176 186 130.50 234.50Q85 283 85 367Q85 398 91 432L130 652L26 652L41 740L1074 740L1058 652L595 652M490 652L234 652L196 432Q191 404 191 383Q191 331 218 303Q245 275 299 275Q354 275 393 310.50Q432 346 445 400L490 652M183-15Q158-15 142.50 0.50Q127 16 127 39Q127 71 150.50 94Q174 117 206 117Q231 117 246.50 101.50Q262 86 262 61Q262 30 238 7.50Q214-15 183-15Z"  horiz-adv-x="985" vert-adv-y="1000"  />

      
      <glyph glyph-name="uni0931" unicode="&#x0931;" d="M608 652L499 652L485 569Q464 453 396.50 390Q329 327 211 327L174 327L152 202Q148 178 148 168Q148 128 170 104.50Q192 81 233 81Q278 81 308 111.50Q338 142 347 193L350 215L451 215L449 196Q433 101 374.50 46Q316-9 225-9Q139-9 91.50 37Q44 83 44 158Q44 179 49 207L85 413L189 413Q272 413 319 452Q366 491 380 569L394 652L27 652L42 740L624 740L608 652M23-175Q-2-175-17.50-159.50Q-33-144-33-121Q-33-89-9.50-66Q14-43 46-43Q71-43 86.50-58.50Q102-74 102-99Q102-130 78-152.50Q54-175 23-175Z"  horiz-adv-x="535" vert-adv-y="1000"  />

      
      <glyph glyph-name="uni0902" unicode="&#x0902;" d="M-71 829Q-96 829-111.50 844.50Q-127 860-127 884Q-127 915-103.50 938Q-80 961-49 961Q-23 961-7.50 945.50Q8 930 8 906Q8 875-16 852Q-40 829-71 829Z"   vert-adv-y="1000"  />

      
      <glyph glyph-name="uni0901" unicode="&#x0901;" d="M-44 983Q-61 983-72 993.50Q-83 1004-83 1021Q-83 1027-82 1030Q-79 1049-63 1063Q-47 1077-27 1077Q-9 1077 2 1066.50Q13 1056 13 1039Q13 1016-4 999.50Q-21 983-44 983M-67 816Q-155 816-206 858.50Q-257 901-257 969Q-257 986-254 1002L-170 1002Q-171 996-171 984Q-171 945-143 918.50Q-115 892-60 892Q1 892 41 924.50Q81 957 89 1002L174 1002Q159 919 97 867.50Q35 816-67 816Z"   vert-adv-y="1000"  />

      
      <glyph glyph-name="uni0903" unicode="&#x0903;" d="M138 419Q113 419 97.50 434.50Q82 450 82 473Q82 504 106 527.50Q130 551 161 551Q186 551 201.50 535.50Q217 520 217 496Q217 465 193 442Q169 419 138 419M85 119Q60 119 44.50 134.50Q29 150 29 174Q29 205 53 228Q77 251 108 251Q133 251 148.50 235.50Q164 220 164 197Q164 166 140 142.50Q116 119 85 119Z"  horiz-adv-x="246" vert-adv-y="1000"  />

      
      <glyph glyph-name="uni093D" unicode="&#x093D;" d="M32 146L271 146Q308 146 329.50 165Q351 184 351 213Q351 239 332 264Q313 289 272 329Q218 380 188.50 421.50Q159 463 159 516Q159 530 162 545Q173 609 221.50 640.50Q270 672 340 672L551 672L535 583L351 583Q276 583 266 530Q265 526 265 519Q265 492 284.50 466Q304 440 345 400Q382 364 403.50 339.50Q425 315 440.50 283Q456 251 456 215Q456 146 409 101.50Q362 57 281 57L16 57L32 146Z"  horiz-adv-x="582" vert-adv-y="1000"  />

      
      <glyph glyph-name="uni094D" unicode="&#x094D;" d="M-274-59L-170-59L-80-265L-187-265L-274-59Z"   vert-adv-y="1000"  />

      
      <glyph glyph-name="uni093C" unicode="&#x093C;" d="M-348-181Q-373-181-388.50-165.50Q-404-150-404-127Q-404-95-380.50-72Q-357-49-325-49Q-300-49-284.50-64.50Q-269-80-269-105Q-269-136-293-158.50Q-317-181-348-181Z"   vert-adv-y="1000"  />

      
      <glyph glyph-name="uni0966" unicode="&#x0966;" d="M52 358Q39 283 39 229Q39-2 249-2Q389-2 466 94Q543 190 572 358Q584 426 584 486Q584 716 375 716Q235 716 158 621Q81 526 52 358M458 358Q436 236 395 171Q354 106 268 106Q205 106 179 141.50Q153 177 153 242Q153 286 165 358Q187 479 228 543Q269 607 356 607Q418 607 444.50 572.50Q471 538 471 474Q471 426 458 358Z"  horiz-adv-x="607" vert-adv-y="1000"  />

      
      <glyph glyph-name="uni0967" unicode="&#x0967;" d="M56 599L75 706L301 706L177 0L57 0L162 599L56 599Z"  horiz-adv-x="307" vert-adv-y="1000"  />

      
      <glyph glyph-name="uni0968" unicode="&#x0968;" d="M-4 89Q398 333 427 493Q430 511 430 529Q430 572 406 597Q382 622 331 622Q271 622 233.50 583.50Q196 545 182 470L71 470Q92 593 169.50 656Q247 719 352 719Q447 719 498.50 674.50Q550 630 550 550Q550 529 545 499Q527 391 411 283.50Q295 176 153 98L488 98L472 5L-19 5L-4 89Z"  horiz-adv-x="561" vert-adv-y="1000"  />

      
      <glyph glyph-name="uni0969" unicode="&#x0969;" d="M361 728Q455 728 505 683.50Q555 639 555 567Q555 550 552 530Q541 467 495 425.50Q449 384 379 375L378 370Q438 352 472.50 313.50Q507 275 507 212Q507 189 503 169Q490 90 425.50 41.50Q361-7 255-7Q142-7 80.50 45.50Q19 98 19 198Q19 213 20 221L132 221Q128 160 160 125Q192 90 263 90Q316 90 350.50 116.50Q385 143 392 186Q395 201 395 214Q395 266 354.50 294Q314 322 237 322L211 322L228 416L254 416Q418 414 438 521Q440 537 440 544Q440 586 414.50 609Q389 632 342 632Q289 632 247.50 600Q206 568 193 509L81 509Q102 612 176 670Q250 728 361 728Z"  horiz-adv-x="563" vert-adv-y="1000"  />

      
      <glyph glyph-name="uni096A" unicode="&#x096A;" d="M-1 152L16 248L448 712L571 712L490 252L589 252L571 152L472 152L446 0L330 0L357 152L-1 152M440 576L135 252L383 252L440 576Z"  horiz-adv-x="610" vert-adv-y="1000"  />

      
      <glyph glyph-name="uni096B" unicode="&#x096B;" d="M573 616L224 616L186 406Q216 437 263.50 455.50Q311 474 364 474Q457 474 502 423Q547 372 547 290Q547 265 542 233Q523 127 451 61.50Q379-4 265-4Q158-4 98.50 46.50Q39 97 39 184Q39 194 41 212L153 212Q153 158 185 127Q217 96 276 96Q341 96 380.50 134Q420 172 431 235Q434 255 434 273Q434 325 404.50 354Q375 383 320 383Q277 383 237 362.50Q197 342 175 310L64 310L136 717L590 717L573 616Z"  horiz-adv-x="596" vert-adv-y="1000"  />

      
      <glyph glyph-name="uni096C" unicode="&#x096C;" d="M466 516Q464 573 439 603.50Q414 634 358 634Q280 634 231.50 565.50Q183 497 162 350Q186 404 242 436Q298 468 366 468Q455 468 504 421.50Q553 375 553 288Q553 259 547 226Q529 124 457.50 58.50Q386-7 273-7Q151-7 98.50 55.50Q46 118 46 229Q46 285 59 358Q92 544 166.50 635.50Q241 727 376 727Q484 727 530.50 668Q577 609 574 516L466 516M154 245Q151 227 151 210Q151 158 182.50 125Q214 92 277 92Q340 92 384 128Q428 164 439 228Q443 247 443 267Q443 322 412 350.50Q381 379 325 379Q265 379 215 344.50Q165 310 154 245Z"  horiz-adv-x="602" vert-adv-y="1000"  />

      
      <glyph glyph-name="uni096D" unicode="&#x096D;" d="M517 624L145 0L25 0L399 611L49 611L67 710L533 710L517 624Z"  horiz-adv-x="481" vert-adv-y="1000"  />

      
      <glyph glyph-name="uni096E" unicode="&#x096E;" d="M101 552Q110 601 146 642Q182 683 242.50 707.50Q303 732 381 732Q485 732 540 685.50Q595 639 595 566Q595 550 592 532Q583 478 545 439Q507 400 443 381Q499 361 529 321Q559 281 559 224Q559 211 555 183Q538 87 455.50 34.50Q373-18 248-18Q144-18 82 30Q20 78 20 165Q20 189 24 210Q35 273 79 316Q123 359 194 381Q146 397 122 431.50Q98 466 98 514Q98 533 101 552M210 503Q210 459 240.50 435Q271 411 324 411Q393 411 435.50 446Q478 481 478 544Q478 589 447.50 613.50Q417 638 364 638Q296 638 253 602.50Q210 567 210 503M133 183Q133 132 168.50 104Q204 76 265 76Q343 76 393 117Q443 158 443 227Q443 279 406.50 305Q370 331 310 331Q235 331 184 293.50Q133 256 133 183Z"  horiz-adv-x="616" vert-adv-y="1000"  />

      
      <glyph glyph-name="uni096F" unicode="&#x096F;" d="M149 204Q147 147 172.50 116Q198 85 252 85Q333 85 382.50 153.50Q432 222 453 370Q428 316 372 283.50Q316 251 249 251Q160 251 111 297.50Q62 344 62 430Q62 460 68 493Q79 559 115 612Q151 665 210 696Q269 727 347 727Q468 727 519 667Q570 607 570 499Q570 437 556 361Q525 178 453 85Q381-8 241-8Q135-8 86 52.50Q37 113 41 204L149 204M461 476Q464 494 464 510Q464 563 433 595.50Q402 628 338 628Q275 628 231 591Q187 554 176 487Q172 468 172 449Q172 396 203 368Q234 340 290 340Q349 340 399.50 375.50Q450 411 461 476Z"  horiz-adv-x="592" vert-adv-y="1000"  />

      
      <glyph glyph-name="uni0950" unicode="&#x0950;" d="M642 906Q625 906 613.50 917Q602 928 602 945Q602 968 619 984.50Q636 1001 658 1001Q676 1001 687 990Q698 979 698 962Q698 956 697 953Q694 933 678 919.50Q662 906 642 906M623 739Q529 739 479 781.50Q429 824 429 891Q429 907 432 925L516 925Q514 913 514 907Q514 868 543.50 841.50Q573 815 629 815Q691 815 729 847Q767 879 775 925L860 925Q847 841 786.50 790Q726 739 623 739M809 685Q975 685 975 520Q975 484 967 438L944 306Q919 165 843 93.50Q767 22 635 22Q595 22 537 32L552 120Q600 112 633 112Q730 112 777.50 162Q825 212 842 309L868 451Q873 484 873 506Q873 550 854.50 573Q836 596 793 596Q742 596 713.50 564.50Q685 533 676 481Q657 378 605.50 334Q554 290 454 289Q459 266 459 245Q459 228 456 210Q440 120 373.50 66Q307 12 214 12Q125 12 73.50 57Q22 102 22 178Q22 196 25 217L124 217Q122 201 122 194Q122 152 149.50 127Q177 102 224 102Q277 102 314 134.50Q351 167 361 220Q363 234 363 241Q363 282 336.50 309Q310 336 254 336L213 336L229 425L270 425Q325 425 361.50 456Q398 487 405 530Q407 546 407 552Q407 592 381.50 615.50Q356 639 315 639Q267 639 231 611.50Q195 584 187 538L89 538Q105 624 172 676Q239 728 333 728Q413 728 460 688Q507 648 507 579Q507 562 504 544Q493 484 455.50 442Q418 400 358 385L358 382Q378 377 390 371L449 371Q503 371 535 395.50Q567 420 578 482Q596 580 650.50 632.50Q705 685 809 685Z"  horiz-adv-x="1061" vert-adv-y="1000"  />

      
      <glyph glyph-name="uni0970" unicode="&#x0970;" d="M412 344Q399 272 345.50 227Q292 182 219 182Q153 182 113.50 218.50Q74 255 74 314Q74 329 77 345Q90 417 144.50 462.50Q199 508 274 508Q338 508 376.50 472Q415 436 415 377Q415 361 412 344M140 326Q140 290 164.50 268Q189 246 229 246Q278 246 312.50 280Q347 314 347 364Q347 400 324.50 422Q302 444 264 444Q213 444 176.50 410Q140 376 140 326Z"  horiz-adv-x="488" vert-adv-y="1000"  />

      
      <glyph glyph-name="uni0964" unicode="&#x0964;" d="M193 0L89 0L219 741L323 741L193 0Z"  horiz-adv-x="300" vert-adv-y="1000"  />

      
      <glyph glyph-name="uni0965" unicode="&#x0965;" d="M193 0L89 0L219 741L323 741L193 0M421 0L317 0L447 741L551 741L421 0Z"  horiz-adv-x="529" vert-adv-y="1000"  />

      
      <glyph glyph-name="uni20A8" unicode="&#x20A8;" d="M589 491Q574 408 518 355Q462 302 372 287L506 0L378 0L252 282L172 282L122 0L7 0L132 706L381 706Q487 706 540 660Q593 614 593 536Q593 511 589 491M472 485Q474 495 474 514Q474 608 354 608L229 608L186 363L311 363Q449 363 472 485M948 376Q949 418 921.50 445Q894 472 842 472Q797 472 767.50 451.50Q738 431 731 397Q730 393 730 386Q730 355 760 341Q790 327 854 312Q910 299 945 286.50Q980 274 1004.50 248.50Q1029 223 1029 180Q1029 128 1000.50 85.50Q972 43 920.50 18Q869-7 804-7Q700-7 643.50 41Q587 89 589 175L702 175Q699 132 730 105.50Q761 79 818 79Q862 79 889 99.50Q916 120 922 154Q923 158 923 165Q923 198 892 213Q861 228 797 243Q743 255 708.50 267.50Q674 280 650 305Q626 330 626 372Q626 424 655 466.50Q684 509 736.50 533.50Q789 558 858 558Q959 558 1010.50 508.50Q1062 459 1060 376L948 376Z"  horiz-adv-x="1102" vert-adv-y="1000"  />

      
      <glyph glyph-name="uni20B9" unicode="&#x20B9;" d="M522 628L504 525L621 525L609 457L490 457Q462 363 391 319.50Q320 276 182 276L168 199Q164 173 164 162Q164 121 185.50 99Q207 77 250 77Q349 77 370 197L477 197Q457 99 395.50 44.50Q334-10 240-10Q150-10 103.50 31Q57 72 57 152Q57 180 63 213L88 352Q201 352 257.50 360Q314 368 342 389.50Q370 411 383 457L77 457L89 525L397 525L415 628L108 628L121 706L652 706L639 628L522 628Z"  horiz-adv-x="628" vert-adv-y="1000"  />

      
      <glyph glyph-name="uni200C" unicode="&#x200C;" d="M-23 811L24 811L24-230L-23-230L-23 811Z"   vert-adv-y="1000"  />

      
      <glyph glyph-name="uni200D" unicode="&#x200D;" d="M23 635L23-230L-24-230L-24 635L-93 562L-126 595L-33 688L-128 783L-95 816L0 721L96 816L128 784L32 688L128 593L95 560L23 635Z"   vert-adv-y="1000"  />

      
      <glyph glyph-name="uni25CC" unicode="&#x25CC;" d="M301 456Q282 456 270 467.50Q258 479 258 498Q258 517 270 528.50Q282 540 301 540Q320 540 332 528.50Q344 517 344 498Q344 479 332 467.50Q320 456 301 456M422 441Q403 441 391 452.50Q379 464 379 483Q379 502 391 513.50Q403 525 422 525Q441 525 453 513.50Q465 502 465 483Q465 464 453 452.50Q441 441 422 441M184 414Q165 414 153 425.50Q141 437 141 456Q141 475 153 486.50Q165 498 184 498Q203 498 215 486.50Q227 475 227 456Q227 437 215 425.50Q203 414 184 414M514 367Q495 367 483 378.50Q471 390 471 409Q471 428 483 439.50Q495 451 514 451Q533 451 545 439.50Q557 428 557 409Q557 390 545 378.50Q533 367 514 367M108 315Q89 315 77 326.50Q65 338 65 357Q65 376 77 387.50Q89 399 108 399Q127 399 139 387.50Q151 376 151 357Q151 338 139 326.50Q127 315 108 315M558 253Q539 253 527 264.50Q515 276 515 295Q515 314 527 325.50Q539 337 558 337Q577 337 589 325.50Q601 314 601 295Q601 276 589 264.50Q577 253 558 253M93 194Q74 194 62 205.50Q50 217 50 236Q50 255 62 266.50Q74 278 93 278Q112 278 124 266.50Q136 255 136 236Q136 217 124 205.50Q112 194 93 194M548 133Q529 133 517 144.50Q505 156 505 175Q505 194 517 205.50Q529 217 548 217Q567 217 579 205.50Q591 194 591 175Q591 156 579 144.50Q567 133 548 133M138 81Q119 81 107 92.50Q95 104 95 123Q95 142 107 153.50Q119 165 138 165Q157 165 169 153.50Q181 142 181 123Q181 104 169 92.50Q157 81 138 81M475 37Q456 37 444 48.50Q432 60 432 79Q432 98 444 109.50Q456 121 475 121Q494 121 506 109.50Q518 98 518 79Q518 60 506 48.50Q494 37 475 37M236 5Q217 5 205 16.50Q193 28 193 47Q193 66 205 77.50Q217 89 236 89Q255 89 267 77.50Q279 66 279 47Q279 28 267 16.50Q255 5 236 5M360-9Q341-9 329 2.50Q317 14 317 33Q317 52 329 63.50Q341 75 360 75Q379 75 391 63.50Q403 52 403 33Q403 14 391 2.50Q379-9 360-9Z"  horiz-adv-x="651" vert-adv-y="1000"  />

      
      <glyph glyph-name="uni21" unicode="&#x21;" d="M294 728L188 221L93 221L167 728L294 728M190 126L168 0L38 0L60 126L190 126Z"  horiz-adv-x="323" vert-adv-y="1000"  />

      
      <glyph glyph-name="uni22" unicode="&#x22;" d="M159 798L113 592L35 592L61 798L159 798M310 798L264 592L186 592L212 798L310 798Z"  horiz-adv-x="334" vert-adv-y="1000"  />

      
      <glyph glyph-name="uni23" unicode="&#x23;" d="M659 444L600 294L735 294L716 190L560 190L486 0L379 0L453 190L254 190L180 0L73 0L147 190L-6 190L13 294L187 294L246 444L98 444L116 549L287 549L361 740L468 740L394 549L593 549L667 740L774 740L700 549L838 549L820 444L659 444M552 444L353 444L294 294L493 294L552 444Z"  horiz-adv-x="832" vert-adv-y="1000"  />

      
      <glyph glyph-name="uni24" unicode="&#x24;" d="M444 527Q445 562 424 589Q403 616 361 624L322 404Q333 401 342 397Q401 378 438 361Q475 344 500.50 311.50Q526 279 526 228Q526 207 522 188Q513 136 479 91.50Q445 47 387 20Q329-7 252-7L250-7L236-87L202-87L216-5Q125 3 72 51Q19 99 19 175Q19 189 20 196L142 196Q140 157 162.50 125Q185 93 232 85L272 312Q200 335 164.50 350.50Q129 366 100.50 399Q72 432 72 486Q72 497 76 525Q86 581 123 624Q160 667 217 691Q274 715 343 715L358 800L392 800L377 714Q474 707 523 656Q572 605 567 527L444 527M199 529Q197 515 197 510Q197 475 221 453.50Q245 432 290 415L328 627Q276 626 241.50 600.50Q207 575 199 529M400 185Q402 199 402 204Q402 241 377 262.50Q352 284 304 301L266 82Q320 82 355.50 111Q391 140 400 185Z"  horiz-adv-x="597" vert-adv-y="1000"  />

      
      <glyph glyph-name="uni25" unicode="&#x25;" d="M246 716Q305 716 340 683.50Q375 651 375 594Q375 579 372 562Q359 491 309.50 450Q260 409 193 409Q135 409 100 441Q65 473 65 529Q65 544 68 562Q80 633 129.50 674.50Q179 716 246 716M669 707L144 0L33 0L557 707L669 707M147 562Q145 554 145 540Q145 512 161 495.50Q177 479 204 479Q238 479 262 501.50Q286 524 293 562Q295 576 295 582Q295 612 279 629Q263 646 234 646Q201 646 177 623Q153 600 147 562M509 298Q567 298 602 266.50Q637 235 637 179Q637 163 634 145Q622 74 572.50 32.50Q523-9 456-9Q397-9 362 23.50Q327 56 327 113Q327 129 330 145Q343 216 393 257Q443 298 509 298M407 124Q407 95 423 78Q439 61 467 61Q500 61 524.50 84Q549 107 555 145Q557 152 557 166Q557 195 541 211.50Q525 228 497 228Q459 228 433 198.50Q407 169 407 124Z"  horiz-adv-x="701" vert-adv-y="1000"  />

      
      <glyph glyph-name="uni26" unicode="&#x26;" d="M501 0L394 151Q389 136 372 110Q349 57 299 25Q249-7 186-7Q101-7 52 39Q3 85 3 162Q3 185 7 205Q18 267 51 313.50Q84 360 130 384Q176 408 226 408L234 408Q230 414 227.50 419Q225 424 223 428Q208 454 200.50 475Q193 496 193 521Q193 536 196 552Q203 594 231 631Q259 668 305.50 690.50Q352 713 412 713Q500 713 539 671Q578 629 578 565Q579 559 579 546Q579 524 572 494L465 494Q470 526 470 527Q471 534 471 546Q471 580 452 598.50Q433 617 397 617Q358 617 333 595Q308 573 302 541Q300 527 300 521Q300 502 307 486.50Q314 471 329 447L618 0L501 0M338 222Q338 265 307.50 293Q277 321 234 321Q186 321 151 291.50Q116 262 107 208Q105 190 105 183Q105 139 132.50 114.50Q160 90 204 90Q240 90 271 107Q302 124 320 154.50Q338 185 338 222Z"  horiz-adv-x="685" vert-adv-y="1000"  />

      
      <glyph glyph-name="uni27" unicode="&#x27;" d="M164 798L115 592L37 592L61 798L164 798Z"  horiz-adv-x="188" vert-adv-y="1000"  />

      
      <glyph glyph-name="uni28" unicode="&#x28;" d="M38 403Q72 594 172 745.50Q272 897 408 990L519 990L517 978Q212 760 149 403Q135 324 135 255Q135-2 314-174L312-185L201-185Q119-111 72 0.50Q25 112 25 253Q25 326 38 403Z"  horiz-adv-x="391" vert-adv-y="1000"  />

      
      <glyph glyph-name="uni29" unicode="&#x29;" d="M354 403Q320 210 220 59Q120-92-16-185L-128-185L-126-174Q180 45 243 403Q257 482 257 550Q257 807 77 978L79 990L191 990Q273 917 320.50 805.50Q368 694 368 553Q368 485 354 403Z"  horiz-adv-x="392" vert-adv-y="1000"  />

      
      <glyph glyph-name="uni2a" unicode="&#x2a;" d="M414 679L444 599L298 548L426 498L365 415L268 506L264 360L171 360L217 506L85 413L52 498L198 549L70 599L131 680L232 590L236 736L330 736L283 590L414 679Z"  horiz-adv-x="491" vert-adv-y="1000"  />

      
      <glyph glyph-name="uni2b" unicode="&#x2b;" d="M531 308L332 308L296 106L185 106L221 308L21 308L40 413L239 413L275 616L386 616L350 413L550 413L531 308Z"  horiz-adv-x="571" vert-adv-y="1000"  />

      
      <glyph glyph-name="uni2c" unicode="&#x2c;" d="M142 78Q147 57 147 25Q147-46 111-95Q75-144 5-144L13-98Q38-98 52-85Q66-72 71-41L73-32L16-32L35 78L142 78Z"  horiz-adv-x="193" vert-adv-y="1000"  />

      
      <glyph glyph-name="uni2d" unicode="&#x2d;" d="M487 410L470 314L58 314L75 410L487 410Z"  horiz-adv-x="506" vert-adv-y="1000"  />

      
      <glyph glyph-name="uni2e" unicode="&#x2e;" d="M171 126L148 0L19 0L41 126L171 126Z"  horiz-adv-x="190" vert-adv-y="1000"  />

      
      <glyph glyph-name="uni2f" unicode="&#x2f;" d="M481 944L11-176L-100-176L370 944L481 944Z"  horiz-adv-x="378" vert-adv-y="1000"  />

      
      <glyph glyph-name="uni30" unicode="&#x30;" d="M52 358Q39 283 39 229Q39-2 249-2Q389-2 466 94Q543 190 572 358Q584 426 584 486Q584 716 375 716Q235 716 158 621Q81 526 52 358M458 358Q436 236 395 171Q354 106 268 106Q205 106 179 141.50Q153 177 153 242Q153 286 165 358Q187 479 228 543Q269 607 356 607Q418 607 444.50 572.50Q471 538 471 474Q471 426 458 358Z"  horiz-adv-x="607" vert-adv-y="1000"  />

      
      <glyph glyph-name="uni31" unicode="&#x31;" d="M56 599L75 706L301 706L177 0L57 0L162 599L56 599Z"  horiz-adv-x="307" vert-adv-y="1000"  />

      
      <glyph glyph-name="uni32" unicode="&#x32;" d="M-4 89Q398 333 427 493Q430 511 430 529Q430 572 406 597Q382 622 331 622Q271 622 233.50 583.50Q196 545 182 470L71 470Q92 593 169.50 656Q247 719 352 719Q447 719 498.50 674.50Q550 630 550 550Q550 529 545 499Q527 391 411 283.50Q295 176 153 98L488 98L472 5L-19 5L-4 89Z"  horiz-adv-x="561" vert-adv-y="1000"  />

      
      <glyph glyph-name="uni33" unicode="&#x33;" d="M361 728Q455 728 505 683.50Q555 639 555 567Q555 550 552 530Q541 467 495 425.50Q449 384 379 375L378 370Q438 352 472.50 313.50Q507 275 507 212Q507 189 503 169Q490 90 425.50 41.50Q361-7 255-7Q142-7 80.50 45.50Q19 98 19 198Q19 213 20 221L132 221Q128 160 160 125Q192 90 263 90Q316 90 350.50 116.50Q385 143 392 186Q395 201 395 214Q395 266 354.50 294Q314 322 237 322L211 322L228 416L254 416Q418 414 438 521Q440 537 440 544Q440 586 414.50 609Q389 632 342 632Q289 632 247.50 600Q206 568 193 509L81 509Q102 612 176 670Q250 728 361 728Z"  horiz-adv-x="563" vert-adv-y="1000"  />

      
      <glyph glyph-name="uni34" unicode="&#x34;" d="M-1 152L16 248L448 712L571 712L490 252L589 252L571 152L472 152L446 0L330 0L357 152L-1 152M440 576L135 252L383 252L440 576Z"  horiz-adv-x="610" vert-adv-y="1000"  />

      
      <glyph glyph-name="uni35" unicode="&#x35;" d="M573 616L224 616L186 406Q216 437 263.50 455.50Q311 474 364 474Q457 474 502 423Q547 372 547 290Q547 265 542 233Q523 127 451 61.50Q379-4 265-4Q158-4 98.50 46.50Q39 97 39 184Q39 194 41 212L153 212Q153 158 185 127Q217 96 276 96Q341 96 380.50 134Q420 172 431 235Q434 255 434 273Q434 325 404.50 354Q375 383 320 383Q277 383 237 362.50Q197 342 175 310L64 310L136 717L590 717L573 616Z"  horiz-adv-x="596" vert-adv-y="1000"  />

      
      <glyph glyph-name="uni36" unicode="&#x36;" d="M466 516Q464 573 439 603.50Q414 634 358 634Q280 634 231.50 565.50Q183 497 162 350Q186 404 242 436Q298 468 366 468Q455 468 504 421.50Q553 375 553 288Q553 259 547 226Q529 124 457.50 58.50Q386-7 273-7Q151-7 98.50 55.50Q46 118 46 229Q46 285 59 358Q92 544 166.50 635.50Q241 727 376 727Q484 727 530.50 668Q577 609 574 516L466 516M154 245Q151 227 151 210Q151 158 182.50 125Q214 92 277 92Q340 92 384 128Q428 164 439 228Q443 247 443 267Q443 322 412 350.50Q381 379 325 379Q265 379 215 344.50Q165 310 154 245Z"  horiz-adv-x="602" vert-adv-y="1000"  />

      
      <glyph glyph-name="uni37" unicode="&#x37;" d="M517 624L145 0L25 0L399 611L49 611L67 710L533 710L517 624Z"  horiz-adv-x="481" vert-adv-y="1000"  />

      
      <glyph glyph-name="uni38" unicode="&#x38;" d="M101 552Q110 601 146 642Q182 683 242.50 707.50Q303 732 381 732Q485 732 540 685.50Q595 639 595 566Q595 550 592 532Q583 478 545 439Q507 400 443 381Q499 361 529 321Q559 281 559 224Q559 211 555 183Q538 87 455.50 34.50Q373-18 248-18Q144-18 82 30Q20 78 20 165Q20 189 24 210Q35 273 79 316Q123 359 194 381Q146 397 122 431.50Q98 466 98 514Q98 533 101 552M210 503Q210 459 240.50 435Q271 411 324 411Q393 411 435.50 446Q478 481 478 544Q478 589 447.50 613.50Q417 638 364 638Q296 638 253 602.50Q210 567 210 503M133 183Q133 132 168.50 104Q204 76 265 76Q343 76 393 117Q443 158 443 227Q443 279 406.50 305Q370 331 310 331Q235 331 184 293.50Q133 256 133 183Z"  horiz-adv-x="616" vert-adv-y="1000"  />

      
      <glyph glyph-name="uni39" unicode="&#x39;" d="M149 204Q147 147 172.50 116Q198 85 252 85Q333 85 382.50 153.50Q432 222 453 370Q428 316 372 283.50Q316 251 249 251Q160 251 111 297.50Q62 344 62 430Q62 460 68 493Q79 559 115 612Q151 665 210 696Q269 727 347 727Q468 727 519 667Q570 607 570 499Q570 437 556 361Q525 178 453 85Q381-8 241-8Q135-8 86 52.50Q37 113 41 204L149 204M461 476Q464 494 464 510Q464 563 433 595.50Q402 628 338 628Q275 628 231 591Q187 554 176 487Q172 468 172 449Q172 396 203 368Q234 340 290 340Q349 340 399.50 375.50Q450 411 461 476Z"  horiz-adv-x="592" vert-adv-y="1000"  />

      
      <glyph glyph-name="uni3a" unicode="&#x3a;" d="M224 550L202 424L72 424L94 550L224 550M149 126L127 0L-3 0L19 126L149 126Z"  horiz-adv-x="216" vert-adv-y="1000"  />

      
      <glyph glyph-name="uni3b" unicode="&#x3b;" d="M262 546L239 420L110 420L132 546L262 546M163 78Q168 57 168 25Q168-46 132-95Q96-144 26-144L34-98Q59-98 73-85Q87-72 92-41L94-32L37-32L56 78L163 78Z"  horiz-adv-x="278" vert-adv-y="1000"  />

      
      <glyph glyph-name="uni3c" unicode="&#x3c;" d="M221 135L31 361L302 589L445 589L174 361L365 135L221 135Z"  horiz-adv-x="436" vert-adv-y="1000"  />

      
      <glyph glyph-name="uni3d" unicode="&#x3d;" d="M591 526L573 422L41 422L59 526L591 526M552 301L534 197L2 197L20 301L552 301Z"  horiz-adv-x="593" vert-adv-y="1000"  />

      
      <glyph glyph-name="uni3e" unicode="&#x3e;" d="M71 589L214 589L405 361L134 135L-10 135L261 361L71 589Z"  horiz-adv-x="436" vert-adv-y="1000"  />

      
      <glyph glyph-name="uni3f" unicode="&#x3f;" d="M319 740Q409 740 460 696Q511 652 511 572Q511 547 507 526Q490 427 415 377Q340 327 231 325L211 215L102 215L136 401L184 401Q268 401 325 427.50Q382 454 394 526Q397 541 397 555Q397 598 370.50 622Q344 646 298 646Q243 646 209.50 616Q176 586 163 534L54 534Q73 627 141.50 683.50Q210 740 319 740M207 126L185 0L55 0L77 126L207 126Z"  horiz-adv-x="508" vert-adv-y="1000"  />

      
      <glyph glyph-name="uni40" unicode="&#x40;" d="M740 798Q876 798 971 755.50Q1066 713 1115 633Q1164 553 1164 442Q1164 396 1155 343Q1138 245 1087 164.50Q1036 84 967 37.50Q898-9 827-9Q771-9 739 14.50Q707 38 707 90Q707 105 710 123Q615-9 475-9Q394-9 347.50 40.50Q301 90 301 174Q301 214 311 255Q331 343 384 412.50Q437 482 512 521Q587 560 669 560Q764 560 817 512.50Q870 465 870 385Q870 340 854 292L814 171Q805 146 805 129Q805 108 817 99.50Q829 91 852 91Q889 91 927 120Q965 149 994.50 205.50Q1024 262 1038 339Q1046 385 1046 421Q1046 553 960 628.50Q874 704 707 704Q559 704 441.50 641.50Q324 579 249.50 471.50Q175 364 152 230Q143 179 143 135Q143-12 236.50-88.50Q330-165 509-166L471-261Q257-258 143-161.50Q29-65 29 115Q29 166 40 230Q69 395 169 524.50Q269 654 418.50 726Q568 798 740 798M747 299Q753 326 753 350Q753 402 722 430.50Q691 459 632 459Q584 459 540.50 434.50Q497 410 465.50 364Q434 318 421 257Q415 232 415 208Q415 154 446.50 122.50Q478 91 531 91Q577 91 621.50 115.50Q666 140 699.50 187Q733 234 747 299Z"  horiz-adv-x="1179" vert-adv-y="1000"  />

      
      <glyph glyph-name="uni41" unicode="&#x41;" d="M456 153L158 153L77 0L-45 0L337 695L468 695L605 0L483 0L456 153M440 241L381 571L205 241L440 241Z"  horiz-adv-x="682" vert-adv-y="1000"  />

      
      <glyph glyph-name="uni42" unicode="&#x42;" d="M595 528Q584 462 541 420Q498 378 439 364Q493 352 524 314Q555 276 555 223Q555 208 552 191Q537 103 468.50 51.50Q400 0 288 0L7 0L131 706L407 706Q501 706 549.50 668.50Q598 631 598 564Q598 548 595 528M475 508Q477 524 477 531Q477 570 450 591.50Q423 613 366 613L229 613L192 402L332 402Q393 402 429.50 430Q466 458 475 508M437 206Q439 222 439 229Q439 271 408.50 295Q378 319 321 319L178 319L138 94L282 94Q347 94 387.50 123.50Q428 153 437 206Z"  horiz-adv-x="618" vert-adv-y="1000"  />

      
      <glyph glyph-name="uni43" unicode="&#x43;" d="M447 713Q577 713 651.50 647Q726 581 735 468L615 468Q602 532 554 569.50Q506 607 427 607Q364 607 308.50 576Q253 545 214.50 487.50Q176 430 163 353Q157 322 157 292Q157 203 206.50 151.50Q256 100 338 100Q416 100 477.50 137.50Q539 175 575 238L695 238Q645 125 548 59.50Q451-6 321-6Q234-6 170 29Q106 64 72.50 127Q39 190 39 274Q39 315 46 353Q64 458 120.50 539.50Q177 621 262 667Q347 713 447 713Z"  horiz-adv-x="761" vert-adv-y="1000"  />

      
      <glyph glyph-name="uni44" unicode="&#x44;" d="M675 354Q656 247 598.50 167.50Q541 88 450 44Q359 0 243 0L7 0L131 706L367 706Q519 706 600.50 633.50Q682 561 682 433Q682 393 675 354M251 103Q379 103 458.50 168.50Q538 234 559 354Q565 386 565 414Q565 506 507.50 555.50Q450 605 340 605L228 605L139 103L251 103Z"  horiz-adv-x="721" vert-adv-y="1000"  />

      
      <glyph glyph-name="uni45" unicode="&#x45;" d="M229 614L192 400L451 400L435 312L176 312L138 93L427 93L411 0L7 0L131 706L535 706L519 614L229 614Z"  horiz-adv-x="515" vert-adv-y="1000"  />

      
      <glyph glyph-name="uni46" unicode="&#x46;" d="M548 706L532 614L229 614L191 395L441 395L425 307L175 307L121 0L7 0L131 706L548 706Z"  horiz-adv-x="519" vert-adv-y="1000"  />

      
      <glyph glyph-name="uni47" unicode="&#x47;" d="M455 712Q579 712 651.50 649Q724 586 736 481L615 481Q603 538 556.50 572Q510 606 438 606Q372 606 314 575Q256 544 216 486.50Q176 429 163 353Q157 320 157 290Q157 197 211 146Q265 95 359 95Q447 95 519 149Q591 203 621 299L362 299L377 383L733 383L714 274Q689 192 635 128.50Q581 65 503 29Q425-7 330-7Q240-7 174.50 28.50Q109 64 74 129Q39 194 39 279Q39 319 46 358Q64 461 121.50 541.50Q179 622 265.50 667Q352 712 455 712Z"  horiz-adv-x="773" vert-adv-y="1000"  />

      
      <glyph glyph-name="uni48" unicode="&#x48;" d="M692 706L568 0L453 0L509 317L177 317L121 0L7 0L131 706L245 706L193 410L525 410L577 706L692 706Z"  horiz-adv-x="699" vert-adv-y="1000"  />

      
      <glyph glyph-name="uni49" unicode="&#x49;" d="M245 706L121 0L7 0L131 706L245 706Z"  horiz-adv-x="252" vert-adv-y="1000"  />

      
      <glyph glyph-name="uni4a" unicode="&#x4a;" d="M502 706L412 194Q395 99 332.50 46Q270-7 176-7Q89-7 41 36.50Q-7 80-7 162Q-7 194-2 219L111 219Q107 191 107 181Q107 141 127 119Q147 97 189 97Q236 97 263 124Q290 151 297 194L388 706L502 706Z"  horiz-adv-x="503" vert-adv-y="1000"  />

      
      <glyph glyph-name="uni4b" unicode="&#x4b;" d="M291 357L539 0L400 0L179 328L121 0L7 0L131 706L245 706L188 382L525 706L663 706L291 357Z"  horiz-adv-x="617" vert-adv-y="1000"  />

      
      <glyph glyph-name="uni4c" unicode="&#x4c;" d="M137 89L380 89L365 0L7 0L131 706L245 706L137 89Z"  horiz-adv-x="447" vert-adv-y="1000"  />

      
      <glyph glyph-name="uni4d" unicode="&#x4d;" d="M862 695L740 0L625 0L717 521L424 0L324 0L214 520L123 0L8 0L129 695L268 695L400 140L724 695L862 695Z"  horiz-adv-x="869" vert-adv-y="1000"  />

      
      <glyph glyph-name="uni4e" unicode="&#x4e;" d="M578 0L464 0L213 521L121 0L7 0L131 705L245 705L496 182L588 705L702 705L578 0Z"  horiz-adv-x="709" vert-adv-y="1000"  />

      
      <glyph glyph-name="uni4f" unicode="&#x4f;" d="M441 715Q534 715 602 678Q670 641 706.50 573Q743 505 743 416Q743 374 736 335Q719 235 664 157Q609 79 525.50 35.50Q442-8 342-8Q248-8 180 29Q112 66 75.50 133Q39 200 39 289Q39 327 47 373Q64 473 119.50 550.50Q175 628 258 671.50Q341 715 441 715M432 609Q366 609 308.50 578.50Q251 548 212 491.50Q173 435 159 359Q154 333 154 300Q154 206 207 152.50Q260 99 352 99Q418 99 475 129.50Q532 160 571.50 216.50Q611 273 624 349Q629 375 629 409Q629 502 576 555.50Q523 609 432 609Z"  horiz-adv-x="783" vert-adv-y="1000"  />

      
      <glyph glyph-name="uni50" unicode="&#x50;" d="M170 274L121 0L7 0L131 706L371 706Q477 706 530 661Q583 616 583 537Q583 512 579 489Q561 389 487.50 331.50Q414 274 295 274L170 274M300 367Q441 367 462 489Q465 506 465 520Q465 565 436 588.50Q407 612 343 612L229 612L186 367L300 367Z"  horiz-adv-x="585" vert-adv-y="1000"  />

      
      <glyph glyph-name="uni51" unicode="&#x51;" d="M737 335Q720 236 665.50 158.50Q611 81 530 38L667-133L525-133L427 0Q384-8 343-8Q249-8 181 29Q113 66 76.50 133Q40 200 40 289Q40 327 48 373Q65 473 120.50 550.50Q176 628 259 671.50Q342 715 442 715Q535 715 603 678Q671 641 707.50 573Q744 505 744 416Q744 374 737 335M353 99Q419 99 476 129.50Q533 160 572.50 216.50Q612 273 625 349Q630 375 630 409Q630 502 577 555.50Q524 609 433 609Q367 609 309.50 578.50Q252 548 213 491.50Q174 435 160 359Q155 333 155 300Q155 206 208 152.50Q261 99 353 99Z"  horiz-adv-x="783" vert-adv-y="1000"  />

      
      <glyph glyph-name="uni52" unicode="&#x52;" d="M380 706Q486 706 539 660.50Q592 615 592 537Q592 512 588 491Q574 408 518 355Q462 302 371 287L506 0L378 0L252 282L171 282L121 0L7 0L131 706L380 706M471 485Q474 500 474 514Q474 608 354 608L229 608L185 363L310 363Q450 363 471 485Z"  horiz-adv-x="598" vert-adv-y="1000"  />

      
      <glyph glyph-name="uni53" unicode="&#x53;" d="M503 168Q495 122 463.50 82Q432 42 379.50 17.50Q327-7 257-7Q182-7 128 19.50Q74 46 46.50 92Q19 138 20 196L141 196Q139 150 168.50 117Q198 84 259 84Q316 84 349 118Q382 152 382 202Q382 236 364 258.50Q346 281 318.50 295.50Q291 310 244 328Q188 350 153.50 368.50Q119 387 95 421Q71 455 71 508Q71 531 75 554Q88 627 154.50 671Q221 715 317 715Q430 715 487.50 662.50Q545 610 548 527L425 527Q425 567 398 595.50Q371 624 315 624Q263 624 230 596.50Q197 569 197 518Q197 487 214.50 466Q232 445 258 432Q284 419 330 401Q386 380 421.50 360.50Q457 341 482 306Q507 271 507 216Q507 191 503 168Z"  horiz-adv-x="576" vert-adv-y="1000"  />

      
      <glyph glyph-name="uni54" unicode="&#x54;" d="M585 706L569 614L372 614L264 0L149 0L257 614L61 614L77 706L585 706Z"  horiz-adv-x="539" vert-adv-y="1000"  />

      
      <glyph glyph-name="uni55" unicode="&#x55;" d="M241 706L168 287Q162 256 162 230Q162 165 196 133Q230 101 292 101Q366 101 415.50 147Q465 193 482 287L556 706L670 706L597 287Q571 142 482.50 67.50Q394-7 271-7Q167-7 106.50 47.50Q46 102 46 209Q46 248 53 287L127 706L241 706Z"  horiz-adv-x="671" vert-adv-y="1000"  />

      
      <glyph glyph-name="uni56" unicode="&#x56;" d="M202 706L302 122L609 706L733 706L354 0L208 0L78 706L202 706Z"  horiz-adv-x="687" vert-adv-y="1000"  />

      
      <glyph glyph-name="uni57" unicode="&#x57;" d="M1025 706L725 0L585 0L532 546L287 0L147 0L95 706L220 706L241 132L497 706L623 706L677 130L900 706L1025 706Z"  horiz-adv-x="996" vert-adv-y="1000"  />

      
      <glyph glyph-name="uni58" unicode="&#x58;" d="M381 352L546 0L410 0L287 262L90 0L-41 0L240 361L78 706L214 706L335 450L530 706L661 706L381 352Z"  horiz-adv-x="624" vert-adv-y="1000"  />

      
      <glyph glyph-name="uni59" unicode="&#x59;" d="M664 706L350 257L305 0L190 0L235 257L78 706L210 706L314 379L534 706L664 706Z"  horiz-adv-x="618" vert-adv-y="1000"  />

      
      <glyph glyph-name="uni5a" unicode="&#x5a;" d="M123 93L466 93L450 0L-20 0L-5 89L424 613L95 613L111 706L569 706L554 617L123 93Z"  horiz-adv-x="554" vert-adv-y="1000"  />

      
      <glyph glyph-name="uni5b" unicode="&#x5b;" d="M418 944L401 851L280 851L116-82L237-82L220-176L-9-176L189 944L418 944Z"  horiz-adv-x="367" vert-adv-y="1000"  />

      
      <glyph glyph-name="uni5c" unicode="&#x5c;" d="M312-176L209 944L321 944L422-176L312-176Z"  horiz-adv-x="664" vert-adv-y="1000"  />

      
      <glyph glyph-name="uni5d" unicode="&#x5d;" d="M-52-176L-36-82L86-82L250 851L129 851L145 944L375 944L177-176L-52-176Z"  horiz-adv-x="365" vert-adv-y="1000"  />

      
      <glyph glyph-name="uni5e" unicode="&#x5e;" d="M101 168L-13 168L317 696L426 696L569 168L455 168L348 562L101 168Z"  horiz-adv-x="649" vert-adv-y="1000"  />

      
      <glyph glyph-name="uni5f" unicode="&#x5f;" d="M583-36L563-147L6-147L26-36L583-36Z"  horiz-adv-x="627" vert-adv-y="1000"  />

      
      <glyph glyph-name="uni60" unicode="&#x60;" d="M303 674L289 594L88 707L104 796L303 674Z"  horiz-adv-x="294" vert-adv-y="1000"  />

      
      <glyph glyph-name="uni61" unicode="&#x61;" d="M337 558Q414 558 461.50 521Q509 484 520 423L543 551L657 551L559 0L445 0L468 128Q436 67 376.50 30Q317-7 242-7Q146-7 91 51Q36 109 36 211Q36 249 43 285Q58 369 100.50 430.50Q143 492 204.50 525Q266 558 337 558M359 458Q283 458 228.50 409Q174 360 159 276Q155 255 155 231Q155 166 192 130Q229 94 294 94Q367 94 423 143.50Q479 193 494 276Q498 296 498 318Q498 382 460 420Q422 458 359 458Z"  horiz-adv-x="677" vert-adv-y="1000"  />

      
      <glyph glyph-name="uni62" unicode="&#x62;" d="M11 0L142 740L256 740L200 423Q232 484 291.50 521Q351 558 426 558Q520 558 575.50 501Q631 444 631 344Q631 312 625 276Q610 189 566.50 125Q523 61 460.50 27Q398-7 326-7Q251-7 205 30Q159 67 148 128L125 0L11 0M309 94Q385 94 439.50 142.50Q494 191 509 276Q513 297 513 320Q513 385 476 421.50Q439 458 374 458Q300 458 244 408Q188 358 173 276Q169 256 169 235Q169 170 207 132Q245 94 309 94Z"  horiz-adv-x="676" vert-adv-y="1000"  />

      
      <glyph glyph-name="uni63" unicode="&#x63;" d="M361 558Q469 558 530.50 501.50Q592 445 591 348L470 348Q470 400 436.50 429.50Q403 459 345 459Q280 459 227 412Q174 365 158 276Q154 253 154 228Q154 161 189.50 126.50Q225 92 281 92Q338 92 382 122Q426 152 445 204L566 204Q532 107 452 50Q372-7 265-7Q160-7 98 53Q36 113 36 218Q36 249 42 285Q57 369 102.50 430.50Q148 492 215 525Q282 558 361 558Z"  horiz-adv-x="622" vert-adv-y="1000"  />

      
      <glyph glyph-name="uni64" unicode="&#x64;" d="M681 740L550 0L435 0L458 128Q426 67 366.50 30Q307-7 232-7Q139-7 82.50 52Q26 111 26 214Q26 241 33 285Q48 369 90.50 430.50Q133 492 194.50 525Q256 558 327 558Q404 558 451.50 521Q499 484 510 423L566 740L681 740M349 458Q273 458 218.50 409Q164 360 149 276Q145 255 145 231Q145 166 182 130Q219 94 284 94Q358 94 414 143.50Q470 193 485 276Q489 304 489 316Q489 382 451 420Q413 458 349 458Z"  horiz-adv-x="673" vert-adv-y="1000"  />

      
      <glyph glyph-name="uni65" unicode="&#x65;" d="M364 558Q435 558 486 532Q537 506 563.50 459.50Q590 413 590 354Q590 332 585 302Q579 273 572 253L148 253Q146 240 146 218Q146 151 181.50 118.50Q217 86 275 86Q332 86 376.50 115Q421 144 439 192L561 192Q529 103 450 48Q371-7 264-7Q160-7 98 52Q36 111 36 214Q36 247 42 281Q57 366 103 428.50Q149 491 216.50 524.50Q284 558 364 558M471 305Q476 325 476 349Q476 407 439.50 437Q403 467 348 467Q281 467 228.50 426Q176 385 159 305L471 305Z"  horiz-adv-x="623" vert-adv-y="1000"  />

      
      <glyph glyph-name="uni66" unicode="&#x66;" d="M123 569Q141 670 209 720.50Q277 771 394 765L376 665Q309 668 278 643.50Q247 619 236 560L234 551L356 551L339 453L217 453L138 0L23 0L103 453L28 453L45 551L120 551L123 569Z"  horiz-adv-x="349" vert-adv-y="1000"  />

      
      <glyph glyph-name="uni67" unicode="&#x67;" d="M244-8Q150-8 93.50 51Q37 110 37 214Q37 241 44 285Q59 369 101.50 431Q144 493 206 526Q268 559 339 559Q416 559 463.50 522Q511 485 522 423L545 551L658 551L560-6Q546-83 505-142.50Q464-202 399.50-236Q335-270 256-270Q142-270 79-215Q16-160 10-66L123-66Q129-115 164-142.50Q199-170 262-170Q330-170 381-128Q432-86 446-6L470 128Q438 67 378.50 29.50Q319-8 244-8M360 458Q284 458 230 409.50Q176 361 161 276Q157 255 157 231Q157 166 194 130Q231 94 296 94Q369 94 425 143.50Q481 193 496 276Q500 295 500 317Q500 382 461.50 420Q423 458 360 458Z"  horiz-adv-x="675" vert-adv-y="1000"  />

      
      <glyph glyph-name="uni68" unicode="&#x68;" d="M428 560Q509 560 556.50 514.50Q604 469 604 383Q604 354 598 321L542 0L428 0L482 309Q486 328 486 349Q486 405 454.50 434.50Q423 464 367 464Q302 464 255 424.50Q208 385 190 308L136 0L21 0L151 740L266 740L212 431Q245 492 302.50 526Q360 560 428 560Z"  horiz-adv-x="653" vert-adv-y="1000"  />

      
      <glyph glyph-name="uni69" unicode="&#x69;" d="M127 700Q127 732 152 755Q177 778 214 778Q243 778 259.50 763Q276 748 276 724Q276 690 251.50 668Q227 646 190 646Q160 646 143.50 661Q127 676 127 700M231 551L133 0L19 0L116 551L231 551Z"  horiz-adv-x="251" vert-adv-y="1000"  />

      
      <glyph glyph-name="uni6a" unicode="&#x6a;" d="M197 646Q167 646 150.50 660Q134 674 134 698Q134 731 159 754.50Q184 778 221 778Q250 778 266.50 763Q283 748 283 724Q283 690 258.50 668Q234 646 197 646M-107-162L-67-162Q-34-162-16.50-147.50Q1-133 8-98L122 551L237 551L122-99Q93-262-70-262L-124-262L-107-162Z"  horiz-adv-x="256" vert-adv-y="1000"  />

      
      <glyph glyph-name="uni6b" unicode="&#x6b;" d="M267 281L459 0L323 0L170 248L126 0L11 0L141 740L256 740L183 322L417 551L555 551L267 281Z"  horiz-adv-x="527" vert-adv-y="1000"  />

      
      <glyph glyph-name="uni6c" unicode="&#x6c;" d="M266 740L136 0L21 0L151 740L266 740Z"  horiz-adv-x="250" vert-adv-y="1000"  />

      
      <glyph glyph-name="uni6d" unicode="&#x6d;" d="M807 560Q891 560 939 514Q987 468 987 382Q987 354 981 321L924 0L810 0L864 309Q868 328 868 349Q868 402 838 431Q808 460 755 460Q689 460 643 418.50Q597 377 582 297L529 0L415 0L470 309Q474 337 474 348Q474 402 443.50 431Q413 460 360 460Q294 460 247.50 417.50Q201 375 186 293L186 297L134 0L19 0L116 551L231 551L211 435Q242 495 297 527.50Q352 560 418 560Q486 560 530.50 526Q575 492 587 428Q623 490 682 525Q741 560 807 560Z"  horiz-adv-x="1037" vert-adv-y="1000"  />

      
      <glyph glyph-name="uni6e" unicode="&#x6e;" d="M427 560Q508 560 555 514.50Q602 469 602 384Q602 354 596 321L540 0L426 0L480 309Q484 328 484 349Q484 405 452.50 434.50Q421 464 365 464Q297 464 249 420.50Q201 377 186 293L186 296L134 0L19 0L116 551L231 551L210 429Q242 492 299.50 526Q357 560 427 560Z"  horiz-adv-x="653" vert-adv-y="1000"  />

      
      <glyph glyph-name="uni6f" unicode="&#x6f;" d="M369 558Q477 558 542 497.50Q607 437 607 331Q607 301 601 266Q586 183 539 121Q492 59 423.50 26Q355-7 276-7Q205-7 150.50 20Q96 47 66 98.50Q36 150 36 221Q36 251 42 285Q57 368 104 430Q151 492 220.50 525Q290 558 369 558M354 459Q286 459 230 412Q174 365 158 276Q154 253 154 230Q154 162 192 127.50Q230 93 289 93Q358 93 413.50 139.50Q469 186 485 276Q489 297 489 321Q489 389 451 424Q413 459 354 459Z"  horiz-adv-x="643" vert-adv-y="1000"  />

      
      <glyph glyph-name="uni70" unicode="&#x70;" d="M436 558Q530 558 585.50 501Q641 444 641 344Q641 312 635 276Q619 189 576 125Q533 61 470.50 27Q408-7 336-7Q261-7 214.50 30Q168 67 158 128L89-262L-26-262L118 551L232 551L209 423Q242 484 301.50 521Q361 558 436 558M319 94Q395 94 449 142.50Q503 191 518 276Q522 297 522 320Q522 385 485 421.50Q448 458 383 458Q309 458 253.50 408Q198 358 183 276Q179 256 179 234Q179 169 217 131.50Q255 94 319 94Z"  horiz-adv-x="676" vert-adv-y="1000"  />

      
      <glyph glyph-name="uni71" unicode="&#x71;" d="M652 551L509-262L395-262L463 121Q426 61 370 27Q314-7 245-7Q145-7 88.50 52Q32 111 32 213Q32 246 38 283Q53 368 97 430Q141 492 204.50 524.50Q268 557 340 557Q411 557 457 525Q503 493 518 436L538 551L652 551M353 457Q280 457 224.50 408.50Q169 360 154 274Q150 253 150 230Q150 164 188.50 129Q227 94 290 94Q336 94 378 115.50Q420 137 449.50 178Q479 219 489 276Q493 296 493 318Q493 383 453.50 420Q414 457 353 457Z"  horiz-adv-x="673" vert-adv-y="1000"  />

      
      <glyph glyph-name="uni72" unicode="&#x72;" d="M212 443Q250 497 307.50 528.50Q365 560 433 560L411 436L377 436Q302 436 250 399.50Q198 363 184 279L183 280L134 0L19 0L116 551L231 551L212 443Z"  horiz-adv-x="399" vert-adv-y="1000"  />

      
      <glyph glyph-name="uni73" unicode="&#x73;" d="M272 558Q379 558 435.50 508.50Q492 459 494 376L381 376Q382 421 351.50 448.50Q321 476 262 476Q217 476 190 455.50Q163 435 163 400Q163 377 179 361.50Q195 346 218.50 337Q242 328 286 315Q342 300 377.50 284.50Q413 269 438 239.50Q463 210 463 163Q463 144 459 125Q448 66 394 29.50Q340-7 251-7Q144-7 81.50 41Q19 89 18 175L131 175Q127 130 161.50 102Q196 74 261 74Q306 74 330.50 96Q355 118 355 152Q355 178 338 194.50Q321 211 296.50 220.50Q272 230 228 243Q173 259 139.50 273Q106 287 82.50 315Q59 343 59 388Q59 404 62 423Q73 484 128 521Q183 558 272 558Z"  horiz-adv-x="518" vert-adv-y="1000"  />

      
      <glyph glyph-name="uni74" unicode="&#x74;" d="M183 182Q180 166 180 152Q180 123 196 111Q212 99 248 99L304 99L285 0L215 0Q141 0 102.50 30Q64 60 64 128Q64 158 69 184L117 454L37 454L54 551L134 551L158 688L273 688L249 551L382 551L365 454L231 454L183 182Z"  horiz-adv-x="384" vert-adv-y="1000"  />

      
      <glyph glyph-name="uni75" unicode="&#x75;" d="M621 551L524 0L409 0L430 120Q397 59 339.50 25.50Q282-8 214-8Q132-8 85 38Q38 84 38 170Q38 198 44 231L101 551L215 551L160 243Q156 223 156 202Q156 146 187.50 116.50Q219 87 275 87Q343 87 391 131Q439 175 454 259L454 255L506 551L621 551Z"  horiz-adv-x="640" vert-adv-y="1000"  />

      
      <glyph glyph-name="uni76" unicode="&#x76;" d="M253 118L486 551L608 551L300 0L162 0L50 551L172 551L253 118Z"  horiz-adv-x="574" vert-adv-y="1000"  />

      
      <glyph glyph-name="uni77" unicode="&#x77;" d="M880 551L629 0L504 0L443 428L230 0L104 0L50 551L165 551L190 105L407 551L528 551L588 105L772 551L880 551Z"  horiz-adv-x="841" vert-adv-y="1000"  />

      
      <glyph glyph-name="uni78" unicode="&#x78;" d="M325 273L466 0L336 0L236 194L83 0L-43 0L189 286L52 551L182 551L280 361L430 551L557 551L325 273Z"  horiz-adv-x="525" vert-adv-y="1000"  />

      
      <glyph glyph-name="uni79" unicode="&#x79;" d="M171 551L265 146L489 551L616 551L139-262L12-262L180 13L43 551L171 551Z"  horiz-adv-x="580" vert-adv-y="1000"  />

      
      <glyph glyph-name="uni7a" unicode="&#x7a;" d="M119 96L403 96L385 0L-24 0L-7 91L325 455L63 455L81 551L473 551L456 460L119 96Z"  horiz-adv-x="459" vert-adv-y="1000"  />

      
      <glyph glyph-name="uni7b" unicode="&#x7b;" d="M144 371Q190 362 212.50 333Q235 304 235 260Q235 242 232 224Q225 186 206 136Q183 69 175 25Q170-8 170-31Q170-96 196.50-141Q223-186 262-207L261-217L143-217Q113-200 84-154Q55-108 55-35Q55-5 61 30Q68 68 91 138Q111 194 117 227Q120 241 120 256Q120 332 35 349L42 395Q151 416 169 517Q174 546 174 603Q174 672 181 714Q194 785 225.50 837.50Q257 890 291 919Q325 948 351 961L469 961L467 951Q409 925 360.50 865.50Q312 806 297 719Q290 677 290 613Q290 554 284 520Q274 462 239 423.50Q204 385 144 373L144 371Z"  horiz-adv-x="396" vert-adv-y="1000"  />

      
      <glyph glyph-name="uni7c" unicode="&#x7c;" d="M89-113L-26-113L135 802L250 802L89-113Z"  horiz-adv-x="224" vert-adv-y="1000"  />

      
      <glyph glyph-name="uni7d" unicode="&#x7d;" d="M259 373Q212 383 189 410.50Q166 438 166 480Q166 495 169 511Q176 549 195 599Q218 666 226 710Q231 742 231 765Q231 831 204.50 881Q178 931 140 951L142 961L259 961Q290 944 319 898Q348 852 348 777Q348 749 342 714Q334 670 311 608Q308 599 298.50 570.50Q289 542 285 517Q282 504 282 487Q282 410 367 395L360 349Q298 340 269.50 305Q241 270 233 227Q228 196 228 153Q228 125 227 93Q226 61 221 30Q208-41 176.50-93.50Q145-146 111-175Q77-204 51-217L-66-217L-64-207Q-8-182 42-116.50Q92-51 107 34Q115 79 115 132L115 168Q115 203 120 233Q129 287 164 323Q199 359 259 371L259 373Z"  horiz-adv-x="390" vert-adv-y="1000"  />

      
      <glyph glyph-name="uni7e" unicode="&#x7e;" d="M203 404Q232 404 253.50 394.50Q275 385 303 366Q326 351 341 344Q356 337 374 337Q400 337 418.50 355Q437 373 448 405L537 405Q508 320 459.50 277Q411 234 349 234Q320 234 298.50 243.50Q277 253 250 271Q229 286 212.50 293.50Q196 301 178 301Q127 301 103 233L16 233Q45 318 93 361Q141 404 203 404Z"  horiz-adv-x="553" vert-adv-y="1000"  />

      
      <glyph glyph-name="unia1" unicode="&#xa1;" d="M22.49-167L134.80 340L235.46 340L157.05-167L22.49-167M132.68 435L155.99 561L293.74 561L270.43 435L132.68 435Z"  horiz-adv-x="336" vert-adv-y="1000"  />

      
      <glyph glyph-name="unia2" unicode="&#xa2;" d="M329 423Q264 423 215 381.50Q166 340 152 262Q148 234 148 223Q148 164 182.50 133Q217 102 273 102Q325 102 367.50 130.50Q410 159 428 209L534 209Q509 122 439 68.50Q369 15 278 9L261-88L207-88L224 9Q137 17 87 68Q37 119 37 204Q37 237 42 262Q61 373 134 439.50Q207 506 313 515L329 607L383 607L367 515Q456 509 507.50 455.50Q559 402 553 315L447 315Q446 366 413.50 394.50Q381 423 329 423Z"  horiz-adv-x="584" vert-adv-y="1000"  />

      
      <glyph glyph-name="unia3" unicode="&#xa3;" d="M489 526Q493 579 466 612Q439 645 386 645Q336 645 298.50 613.50Q261 582 251 523Q247 504 247 481Q247 449 259 381L441 381L427 303L267 303Q269 278 264 254Q256 211 230.50 168Q205 125 160 88L516 88L500-3L32-3L28 56Q83 101 113.50 145.50Q144 190 155 252Q159 272 157 303L39 303L53 381L146 381Q138 439 138 472Q138 508 143 535Q159 628 228.50 683.50Q298 739 399 739Q496 739 546 687.50Q596 636 596 553Q596 535 595 526L489 526Z"  horiz-adv-x="596" vert-adv-y="1000"  />

      
      <glyph glyph-name="unia4" unicode="&#xa4;" d="M444 491Q466 458 466 412Q466 396 463 378Q451 313 406 266L452 211L399 166L350 225Q301 199 243 199Q184 199 144 225L74 166L37 211L104 267Q85 299 85 341Q85 352 89 378Q101 444 144 489L96 547L149 592L200 531Q251 555 306 555Q362 555 403 531L474 592L511 547L444 491M179 377Q176 362 176 350Q176 311 198 290Q220 269 256 269Q296 269 329.50 297.50Q363 326 372 377Q374 395 374 402Q374 442 351.50 464Q329 486 294 486Q253 486 220.50 457Q188 428 179 377Z"  horiz-adv-x="549" vert-adv-y="1000"  />

      
      <glyph glyph-name="unia5" unicode="&#xa5;" d="M460 396L587 396L574 319L406 319L363 257L362 249L561 249L548 171L348 171L318 0L203 0L233 171L33 171L46 249L247 249L248 257L226 319L59 319L72 396L199 396L91 706L223 706L325 362L547 706L677 706L460 396Z"  horiz-adv-x="641" vert-adv-y="1000"  />

      
      <glyph glyph-name="unia6" unicode="&#xa6;" d="M175 802L290 802L221 414L107 414L175 802M129-113L14-113L82 275L197 275L129-113Z"  horiz-adv-x="304" vert-adv-y="1000"  />

      
      <glyph glyph-name="unia7" unicode="&#xa7;" d="M439 549Q440 554 440 564Q440 604 415.50 628.50Q391 653 340 653Q296 653 268.50 633Q241 613 241 572Q241 539 273 513Q305 487 381 458Q458 430 499.50 394Q541 358 541 302Q541 240 499.50 190.50Q458 141 376 117Q456 69 456-8Q456-26 454-35Q442-104 382-146Q322-188 224-188Q130-188 78-142.50Q26-97 26-19L27-2L140-2Q137-49 160.50-77.50Q184-106 241-106Q280-106 306-89Q332-72 337-40Q339-28 339-22Q339 12 307.50 36.50Q276 61 199 90Q122 117 80.50 153Q39 189 39 245Q39 307 81.50 359Q124 411 206 429Q123 479 123 556Q123 573 125 582Q137 652 197.50 694Q258 736 356 736Q456 736 507 685.50Q558 635 553 549L439 549M419 293Q419 331 390.50 354Q362 377 308 377Q264 377 231 360Q198 343 180 315Q162 287 162 254Q162 216 191 193Q220 170 273 170Q317 170 350 187Q383 204 401 232.50Q419 261 419 293Z"  horiz-adv-x="580" vert-adv-y="1000"  />

      
      <glyph glyph-name="unia8" unicode="&#xa8;" d="M97 670Q97 697 117 716.50Q137 736 164 736Q185 736 198.50 723.50Q212 711 212 691Q212 664 191.50 644Q171 624 144 624Q124 624 110.50 637Q97 650 97 670M274 669Q274 697 294 716.50Q314 736 340 736Q361 736 374.50 723.50Q388 711 388 691Q388 664 368 644Q348 624 321 624Q300 624 287 636.50Q274 649 274 669Z"  horiz-adv-x="365" vert-adv-y="1000"  />

      
      <glyph glyph-name="unia9" unicode="&#xa9;" d="M457 710Q354 710 267 665Q180 620 122 539.50Q64 459 46 355Q39 319 39 280Q39 196 74.50 132.50Q110 69 176.50 33.50Q243-2 332-2Q435-2 522 43.50Q609 89 666.50 170Q724 251 742 355Q749 391 749 430Q749 514 713.50 577Q678 640 612 675Q546 710 457 710M451 670Q571 670 638.50 604Q706 538 706 426Q706 399 699 355Q683 263 632.50 191Q582 119 506 78.50Q430 38 338 38Q217 38 149.50 105Q82 172 82 285Q82 313 89 355Q105 448 155.50 519.50Q206 591 282 630.50Q358 670 451 670M439 584Q515 584 564.50 539.50Q614 495 616 418L519 418Q514 459 487 482.50Q460 506 420 506Q367 506 324.50 466.50Q282 427 269 354Q265 335 265 315Q265 261 293.50 232Q322 203 367 203Q407 203 441.50 226Q476 249 496 291L594 291Q564 213 498.50 168.50Q433 124 357 124Q274 124 223.50 171Q173 218 173 302Q173 323 178 355Q191 426 229 478Q267 530 321.50 557Q376 584 439 584Z"  horiz-adv-x="788" vert-adv-y="1000"  />

      
      <glyph glyph-name="uniaa" unicode="&#xaa;" d="M226 710Q275 710 304.50 688.50Q334 667 343 627L357 705L444 705L382 354L295 354L308 432Q260 348 162 348Q100 348 63.50 384.50Q27 421 27 486Q27 509 31 529Q46 612 99.50 661Q153 710 226 710M241 640Q197 640 163.50 609.50Q130 579 121 528Q118 515 118 502Q118 463 141 441.50Q164 420 202 420Q248 420 282.50 449.50Q317 479 326 530Q328 546 328 553Q328 594 304.50 617Q281 640 241 640Z"  horiz-adv-x="446" vert-adv-y="1000"  />

      
      <glyph glyph-name="uniab" unicode="&#xab;" d="M107 120L45 295L169 470L278 470L152 295L216 120L107 120M304 120L242 295L366 470L474 470L348 295L412 120L304 120Z"  horiz-adv-x="489" vert-adv-y="1000"  />

      
      <glyph glyph-name="uniac" unicode="&#xac;" d="M714 435L674 208L560 208L585 347L46 347L61 435L714 435Z"  horiz-adv-x="748" vert-adv-y="1000"  />

      
      <glyph glyph-name="uniad" unicode="&#xad;" d="M487 410L470 314L58 314L75 410L487 410Z"  horiz-adv-x="506" vert-adv-y="1000"  />

      
      <glyph glyph-name="uniae" unicode="&#xae;" d="M464 711Q556 711 623.50 676.50Q691 642 727 579Q763 516 763 431Q763 393 756 355Q738 252 679 170.50Q620 89 531.50 43.50Q443-2 339-2Q247-2 179.50 33.50Q112 69 75.50 133Q39 197 39 281Q39 320 46 355Q65 460 124 541Q183 622 271.50 666.50Q360 711 464 711M713 355Q720 399 720 427Q720 540 651 605.50Q582 671 458 671Q363 671 285 632Q207 593 156.50 521.50Q106 450 89 355Q83 319 83 286Q83 174 152.50 108.50Q222 43 346 43Q441 43 518.50 82Q596 121 646.50 191.50Q697 262 713 355M463 585Q532 585 565.50 557.50Q599 530 599 484Q599 425 562 384Q525 343 458 333L545 146L463 146L381 330L330 330L298 146L224 146L301 585L463 585M519 449Q521 461 521 467Q521 518 445 518L363 518L339 379L421 379Q507 379 519 449Z"  horiz-adv-x="802" vert-adv-y="1000"  />

      
      <glyph glyph-name="uniaf" unicode="&#xaf;" d="M459 720L445 642L79 642L93 720L459 720Z"  horiz-adv-x="418" vert-adv-y="1000"  />

      
      <glyph glyph-name="unib0" unicode="&#xb0;" d="M242 702Q315 702 357 665.50Q399 629 399 565Q399 545 395 526Q381 444 323 395.50Q265 347 182 347Q109 347 66.50 385.50Q24 424 24 489Q24 507 27 526Q41 607 99.50 654.50Q158 702 242 702M232 639Q190 639 158 609Q126 579 117 525Q114 510 114 496Q114 455 135.50 433.50Q157 412 193 412Q234 412 265 441.50Q296 471 305 525Q308 542 308 555Q308 595 287 617Q266 639 232 639Z"  horiz-adv-x="422" vert-adv-y="1000"  />

      
      <glyph glyph-name="unib1" unicode="&#xb1;" d="M347 369L316 197L516 197L498 93L-12 93L6 197L205 197L236 369L37 369L55 473L254 473L282 633L393 633L365 473L565 473L546 369L347 369Z"  horiz-adv-x="571" vert-adv-y="1000"  />

      
      <glyph glyph-name="unib2" unicode="&#xb2;" d="M335 610Q328 570 295.50 538.50Q263 507 198 472L109 420L304 420L292 352L12 352L23 415L163 507Q197 531 217 553.50Q237 576 242 603Q243 607 243 613Q243 631 232 640Q221 649 204 649Q179 649 161.50 632.50Q144 616 136 584L49 584Q63 640 109.50 676Q156 712 226 712Q280 712 308.50 689Q337 666 337 629Q337 622 335 610Z"  horiz-adv-x="358" vert-adv-y="1000"  />

      
      <glyph glyph-name="unib3" unicode="&#xb3;" d="M212 712Q268 712 299.50 689Q331 666 331 627Q331 616 330 611Q317 547 245 532L244 529Q307 513 307 463Q307 413 264 380.50Q221 348 149 348Q73 348 42 377Q11 406 15 462L107 462Q104 433 116 422Q128 411 153 411Q179 411 195 423.50Q211 436 215 460Q216 464 216 472Q216 492 202 502Q188 512 163 512L117 512L122 547L166 547Q194 547 212.50 560.50Q231 574 235 600Q236 604 236 610Q236 627 224.50 637.50Q213 648 192 648Q143 648 127 599L43 599Q57 648 98.50 680Q140 712 212 712Z"  horiz-adv-x="349" vert-adv-y="1000"  />

      
      <glyph glyph-name="unib4" unicode="&#xb4;" d="M309 707L68 594L82 674L325 796L309 707Z"  horiz-adv-x="273" vert-adv-y="1000"  />

      
      <glyph glyph-name="unib5" unicode="&#xb5;" d="M649 551L552 0L437 0L457 114Q425 56 371 24Q317-8 253-8Q180-8 153 42L99-262L-15-262L129 551L243 551L192 264Q188 241 188 217Q188 156 220.50 124Q253 92 310 92Q375 92 421.50 135Q468 178 482 259L482 254L534 551L649 551Z"  horiz-adv-x="658" vert-adv-y="1000"  />

      
      <glyph glyph-name="unib6" unicode="&#xb6;" d="M484 0L390 0L496 608L412 608L305 0L212 0L261 282L246 282Q143 282 92.50 327Q42 372 42 446Q42 469 46 488Q62 579 132 637Q202 695 319 695L605 695L484 0Z"  horiz-adv-x="625" vert-adv-y="1000"  />

      
      <glyph glyph-name="unib7" unicode="&#xb7;" d="M198 395L175 269L46 269L68 395L198 395Z"  horiz-adv-x="204" vert-adv-y="1000"  />

      
      <glyph glyph-name="unib8" unicode="&#xb8;" d="M152-60Q201-58 232.50-78.50Q264-99 264-143Q264-150 262-164Q253-214 213-238Q173-262 118-262L2-262L13-198L116-198Q183-198 183-152Q183-116 130-116L71-116L93 7L163 7L152-60Z"  horiz-adv-x="293" vert-adv-y="1000"  />

      
      <glyph glyph-name="unib9" unicode="&#xb9;" d="M50 635L62 704L209 704L147 352L59 352L109 635L50 635Z"  horiz-adv-x="216" vert-adv-y="1000"  />

      
      <glyph glyph-name="uniba" unicode="&#xba;" d="M252 709Q327 709 370 669Q413 629 413 563Q413 545 410 527Q401 475 369.50 433.50Q338 392 291 368.50Q244 345 188 345Q114 345 71 385.50Q28 426 28 491Q28 508 31 527Q45 608 106 658.50Q167 709 252 709M240 640Q196 640 162.50 610.50Q129 581 120 527Q117 512 117 498Q117 459 140 437Q163 415 200 415Q244 415 277.50 444.50Q311 474 321 527Q324 542 324 555Q324 596 301 618Q278 640 240 640Z"  horiz-adv-x="430" vert-adv-y="1000"  />

      
      </font>
</defs>
</svg>
