<?xml version="1.0" standalone="no"?>
  <!DOCTYPE svg PUBLIC "-//W3C//DTD SVG 1.1//EN" "http://www.w3.org/Graphics/SVG/1.1/DTD/svg11.dtd" >
  <svg>
  <metadata>
  Created by font-carrier
  </metadata>
  <defs>
  <font id="Poppins-BlackItalic" horiz-adv-x="2410" vert-adv-y="2410" >
    <font-face
      
      font-family="Poppins Black"
      
      font-weight="400"
      
      font-stretch="normal"
      
      units-per-em="1000"
      
      ascent="1050"
      
      descent="-350"
      
    />
      <missing-glyph />

      

      
      <glyph glyph-name="uni0905" unicode="&#x0905;" d="M921 740L892 571L815 571L714 0L511 0L550 222L476 222Q451 148 388 105.50Q325 63 240 63Q142 63 86 110Q30 157 30 237Q30 259 34 279L224 279Q223 276 223 270Q223 256 232 246.50Q241 237 258 237Q279 237 292.50 252Q306 267 306 289Q306 308 292 319Q278 330 251 330L202 330L231 493L280 493Q308 493 327.50 506.50Q347 520 347 546Q347 560 339 568.50Q331 577 317 577Q300 577 288 566Q276 555 273 539L86 539Q97 600 132.50 648Q168 696 223.50 722.50Q279 749 347 749Q435 749 484 709.50Q533 670 533 601Q533 584 530 564Q521 512 489.50 474.50Q458 437 410 418L409 414Q435 405 453 389L580 389L641 740L921 740Z"  horiz-adv-x="845" vert-adv-y="1000"  />

      
      <glyph glyph-name="uni0906" unicode="&#x0906;" d="M921 740L892 571L815 571L714 0L511 0L550 222L476 222Q451 148 388 105.50Q325 63 240 63Q142 63 86 110Q30 157 30 237Q30 259 34 279L224 279Q223 276 223 270Q223 256 232 246.50Q241 237 258 237Q279 237 292.50 252Q306 267 306 289Q306 308 292 319Q278 330 251 330L202 330L231 493L280 493Q308 493 327.50 506.50Q347 520 347 546Q347 560 339 568.50Q331 577 317 577Q300 577 288 566Q276 555 273 539L86 539Q97 600 132.50 648Q168 696 223.50 722.50Q279 749 347 749Q435 749 484 709.50Q533 670 533 601Q533 584 530 564Q521 512 489.50 474.50Q458 437 410 418L409 414Q435 405 453 389L580 389L641 740L921 740M945 571L868 571L898 740L1255 740L1225 571L1149 571L1049 0L845 0L945 571Z"  horiz-adv-x="1179" vert-adv-y="1000"  />

      
      <glyph glyph-name="uni0907" unicode="&#x0907;" d="M515 571L508 528L482 384L291 384Q277 384 268 378Q259 372 257 361Q254 339 284 339L327 339Q403 339 454 301.50Q505 264 505 187Q505 164 501 144Q487 68 434.50 23.50Q382-21 306-21Q275-21 249.50-13.50Q224-6 208 5L192-89L-1-89L44 169L227 169Q224 148 234.50 138Q245 128 265 128Q286 128 298.50 139Q311 150 311 168Q311 197 262 197Q221 197 194 199Q138 202 95 237Q52 272 52 336Q52 352 55 370Q69 450 126 489Q183 528 266 528L311 528L318 571L31 571L61 740L662 740L632 571L515 571Z"  horiz-adv-x="586" vert-adv-y="1000"  />

      
      <glyph glyph-name="uni0908" unicode="&#x0908;" d="M618 802Q622 817 622 831Q622 862 597 862Q577 862 566.50 847.50Q556 833 551 801L540 740L664 740L634 571L517 571L502 490L501 490L482 384L291 384Q276 384 266.50 377Q257 370 257 357Q257 339 284 339L327 339Q403 339 454 301.50Q505 264 505 187Q505 164 501 144Q487 68 434.50 23.50Q382-21 306-21Q275-21 249.50-13.50Q224-6 208 5L192-89L-1-89L44 169L227 169Q224 148 234.50 138Q245 128 265 128Q285 128 297.50 139Q310 150 310 167Q310 197 262 197Q221 197 194 199Q137 202 94.50 237Q52 272 52 337Q52 352 55 370Q69 450 126 489Q183 528 266 528L312 528L320 571L33 571L63 740L353 740L363 798Q381 894 442 962Q503 1030 623 1030Q712 1030 758.50 988.50Q805 947 805 872Q805 840 796 802L618 802Z"  horiz-adv-x="577" vert-adv-y="1000"  />

      
      <glyph glyph-name="uni0909" unicode="&#x0909;" d="M605 570L539 570L533 538Q523 479 494.50 441Q466 403 428 393L427 390Q462 376 482.50 342Q503 308 503 261Q503 243 500 223Q483 124 410 64.50Q337 5 227 5Q125 5 65.50 54Q6 103 6 192Q6 213 11 245L205 245Q203 235 203 230Q203 210 215 198Q227 186 249 186Q276 186 294 204Q312 222 312 252Q312 273 299.50 285.50Q287 298 261 298L192 298L223 475L262 475Q289 475 310.50 491.50Q332 508 339 547L343 570L24 570L54 740L635 740L605 570Z"  horiz-adv-x="559" vert-adv-y="1000"  />

      
      <glyph glyph-name="uni090A" unicode="&#x090A;" d="M533 538Q523 479 494.50 441Q466 403 428 393L427 390L587 390Q685 390 738.50 351.50Q792 313 792 237Q792 214 788 194Q774 116 716 65Q658 14 567 14Q534 14 502 21L529 173L558 173Q575 173 585 182.50Q595 192 595 207Q595 217 586.50 223.50Q578 230 562 230L498 230L495 211Q484 152 448 105.50Q412 59 355 32Q298 5 227 5Q125 5 65.50 54Q6 103 6 192Q6 213 11 245L205 245Q203 235 203 230Q203 210 215 198Q227 186 249 186Q276 186 294 204Q312 222 312 252Q312 273 299.50 285.50Q287 298 261 298L192 298L223 475L262 475Q289 475 310.50 491.50Q332 508 339 547L343 571L24 571L54 740L919 740L889 571L539 571L533 538Z"  horiz-adv-x="843" vert-adv-y="1000"  />

      
      <glyph glyph-name="uni090B" unicode="&#x090B;" d="M686 571L666 459L790 459Q812 459 827.50 468.50Q843 478 847 498L851 523L1025 523L964 176L933 176Q898 176 879 160Q860 144 860 119Q860 99 878.50 89.50Q897 80 927 80Q954 80 985 87L957-74Q911-81 871-81Q774-81 717-40Q660 1 660 74Q660 90 663 108Q674 170 712 212.50Q750 255 808 277L814 310Q776 299 731 299L638 299L585 0L398 0L418 110L266 0L5 0L6 8L443 295Q434 316 414 327.50Q394 339 365 339Q312 339 278.50 308Q245 277 236 227L32 227Q47 310 87.50 374Q128 438 190.50 474Q253 510 333 510Q430 510 478 454L499 571L25 571L54 740L1147 740L1118 571L686 571Z"  horiz-adv-x="1071" vert-adv-y="1000"  />

      
      <glyph glyph-name="uni0960" unicode="&#x0960;" d="M685 571L665 459L790 459Q812 459 827 468.50Q842 478 846 497L851 523L1025 523L963 171L930 171Q903 171 886.50 164Q870 157 867 138Q861 106 918 106L982 106L956-44L904-44Q871-44 851.50-51Q832-58 828-80Q824-102 842.50-109Q861-116 892-116Q943-116 999-101L973-250Q946-261 907.50-266.50Q869-272 833-272Q746-272 686-238Q626-204 626-133Q626-119 629-102Q637-55 672.50-20Q708 15 757 26L758 30Q672 50 672 124Q672 140 674 149Q683 200 720 230.50Q757 261 807 272L814 310Q774 299 730 299L637 299L585 0L398 0L417 110L266 0L5 0L6 8L442 296Q433 316 413 327.50Q393 339 365 339Q312 339 278.50 308Q245 277 236 227L32 227Q47 310 87.50 374Q128 438 190.50 474Q253 510 333 510Q429 510 478 455L498 571L24 571L54 740L1150 740L1120 571L685 571Z"  horiz-adv-x="1074" vert-adv-y="1000"  />

      
      <glyph glyph-name="uni090C" unicode="&#x090C;" d="M771 571L758 496Q799 474 823 432.50Q847 391 847 329Q847 306 842 271Q834 219 808 171L802 171Q751 171 729 158Q707 145 703 120Q699 99 719.50 87.50Q740 76 775 76Q809 76 834 82L805-79Q759-85 719-85Q619-85 562-44Q505-3 505 73Q505 91 508 110Q517 162 553 202.50Q589 243 638 264L639 272Q641 286 641 291Q641 314 628.50 327Q616 340 593 340Q560 340 541.50 317.50Q523 295 517 263L510 227L342 227L349 263Q351 277 351 284Q351 308 338.50 324Q326 340 299 340Q263 340 242 314Q221 288 221 244Q221 188 282 188Q298 188 309 189L278 13Q261 12 242 12Q129 12 69.50 64.50Q10 117 10 211Q10 240 16 271Q31 355 74.50 410.50Q118 466 177.50 492.50Q237 519 300 519Q423 519 456 424L460 424Q498 478 562 502L574 571L16 571L46 740L977 740L947 571L771 571Z"  horiz-adv-x="909" vert-adv-y="1000"  />

      
      <glyph glyph-name="uni0961" unicode="&#x0961;" d="M770 571L757 496Q799 475 823.50 434Q848 393 848 333Q848 304 842 271Q832 220 808 171L783 171Q756 171 739 164Q722 157 719 138Q713 106 771 106L835 106L809-44L757-44Q724-44 704-51Q684-58 680-80Q676-102 695-109Q714-116 745-116Q796-116 852-101L826-250Q799-261 760.50-266.50Q722-272 686-272Q599-272 539-238Q479-204 479-133Q479-119 482-102Q490-55 525.50-20Q561 15 610 26L611 30Q525 50 525 124Q525 140 527 149Q535 194 565 223Q595 252 638 266L639 272Q641 286 641 291Q641 314 628.50 327Q616 340 593 340Q560 340 540.50 317Q521 294 516 263L510 227L342 227L348 263Q350 277 350 284Q350 308 338 324Q326 340 299 340Q263 340 241.50 314Q220 288 220 244Q220 188 282 188Q298 188 308 189L277 13Q261 12 242 12Q129 12 69.50 64.50Q10 117 10 211Q10 240 16 271Q31 355 74.50 410.50Q118 466 177 492.50Q236 519 299 519Q363 519 401.50 494Q440 469 456 424L460 424Q497 478 561 502L573 571L15 571L45 740L988 740L958 571L770 571Z"  horiz-adv-x="921" vert-adv-y="1000"  />

      
      <glyph glyph-name="uni090F" unicode="&#x090F;" d="M698 571L627 571L617 515Q598 408 543 350.50Q488 293 386 293Q360 293 323 298L355 480Q367 478 372 478Q392 478 404.50 489Q417 500 420 520L429 571L307 571L252 258Q250 246 250 241Q250 216 263 204Q276 192 296 192Q319 192 336.50 205.50Q354 219 358 243L557 243Q539 136 465.50 77.50Q392 19 281 19Q169 19 107.50 72.50Q46 126 46 217Q46 243 50 266L103 571L23 571L53 740L728 740L698 571Z"  horiz-adv-x="652" vert-adv-y="1000"  />

      
      <glyph glyph-name="uni0910" unicode="&#x0910;" d="M699 571L628 571L618 515Q599 408 544 350.50Q489 293 387 293Q361 293 324 298L356 480Q368 478 373 478Q393 478 405.50 489Q418 500 421 520L430 571L308 571L253 258Q251 246 251 241Q251 216 264 204Q277 192 297 192Q320 192 337.50 205.50Q355 219 359 243L558 243Q540 136 466.50 77.50Q393 19 282 19Q170 19 108.50 72.50Q47 126 47 217Q47 243 51 266L104 571L24 571L54 740L456 740Q431 790 415.50 811Q400 832 378 840.50Q356 849 314 849L255 849L284 1012L340 1012Q430 1011 479 992Q528 973 565 917Q602 861 646 740L729 740L699 571Z"  horiz-adv-x="653" vert-adv-y="1000"  />

      
      <glyph glyph-name="uni0913" unicode="&#x0913;" d="M921 740L892 571L815 571L714 0L511 0L550 222L476 222Q451 148 388 105.50Q325 63 240 63Q142 63 86 110Q30 157 30 237Q30 259 34 279L224 279Q223 276 223 270Q223 256 232 246.50Q241 237 258 237Q279 237 292.50 252Q306 267 306 289Q306 308 292 319Q278 330 251 330L202 330L231 493L280 493Q308 493 327.50 506.50Q347 520 347 546Q347 560 339 568.50Q331 577 317 577Q300 577 288 566Q276 555 273 539L86 539Q97 600 132.50 648Q168 696 223.50 722.50Q279 749 347 749Q435 749 484 709.50Q533 670 533 601Q533 584 530 564Q521 512 489.50 474.50Q458 437 410 418L409 414Q435 405 453 389L580 389L641 740L921 740M945 571L868 571L898 740L1255 740L1225 571L1149 571L1049 0L845 0L945 571M981 735Q956 787 940 809.50Q924 832 901.50 840.50Q879 849 837 849L778 849L806 1012L862 1012Q953 1011 1002 992Q1051 973 1088.50 916Q1126 859 1171 735L981 735Z"  horiz-adv-x="1179" vert-adv-y="1000"  />

      
      <glyph glyph-name="uni0914" unicode="&#x0914;" d="M921 740L892 571L815 571L714 0L511 0L550 222L476 222Q451 148 388 105.50Q325 63 240 63Q142 63 86 110Q30 157 30 237Q30 259 34 279L224 279Q223 276 223 270Q223 256 232 246.50Q241 237 258 237Q279 237 292.50 252Q306 267 306 289Q306 308 292 319Q278 330 251 330L202 330L231 493L280 493Q308 493 327.50 506.50Q347 520 347 546Q347 560 339 568.50Q331 577 317 577Q300 577 288 566Q276 555 273 539L86 539Q97 600 132.50 648Q168 696 223.50 722.50Q279 749 347 749Q435 749 484 709.50Q533 670 533 601Q533 584 530 564Q521 512 489.50 474.50Q458 437 410 418L409 414Q435 405 453 389L580 389L641 740L921 740M945 571L868 571L898 740L1255 740L1225 571L1149 571L1049 0L845 0L945 571M859 1091Q950 1091 991.50 1072Q1033 1053 1068 984Q1103 915 1165 737L991 737Q988 739 954 759Q923 777 909 782.50Q895 788 876.50 789.50Q858 791 807 791L746 791L768 916L824 916Q875 916 898.50 914Q922 912 941.50 904Q961 896 984 877Q964 919 942.50 937.50Q921 956 900 960.50Q879 965 842 965L777 965L799 1091L859 1091Z"  horiz-adv-x="1179" vert-adv-y="1000"  />

      
      <glyph glyph-name="uni090D" unicode="&#x090D;" d="M376 808Q261 808 205.50 854.50Q150 901 150 985Q150 1008 155 1041L329 1041Q327 1025 327 1019Q327 957 402 957Q447 957 472.50 979.50Q498 1002 505 1041L679 1041Q660 931 584 869.50Q508 808 376 808M671 571L600 571L590 515Q571 408 516 350.50Q461 293 359 293Q333 293 296 298L328 480Q340 478 345 478Q365 478 377.50 489Q390 500 393 520L402 571L280 571L225 258Q223 246 223 241Q223 216 236 204Q249 192 269 192Q292 192 309.50 205.50Q327 219 331 243L530 243Q512 136 438.50 77.50Q365 19 254 19Q142 19 80.50 72.50Q19 126 19 217Q19 243 23 266L76 571L-4 571L26 740L701 740L671 571Z"  horiz-adv-x="653" vert-adv-y="1000"  />

      
      <glyph glyph-name="uni0972" unicode="&#x0972;" d="M921 740L892 571L815 571L714 0L511 0L550 222L476 222Q451 148 388 105.50Q325 63 240 63Q142 63 86 110Q30 157 30 237Q30 259 34 279L224 279Q223 276 223 270Q223 256 232 246.50Q241 237 258 237Q279 237 292.50 252Q306 267 306 289Q306 308 292 319Q278 330 251 330L202 330L231 493L280 493Q308 493 327.50 506.50Q347 520 347 546Q347 560 339 568.50Q331 577 317 577Q300 577 288 566Q276 555 273 539L86 539Q97 600 132.50 648Q168 696 223.50 722.50Q279 749 347 749Q435 749 484 709.50Q533 670 533 601Q533 584 530 564Q521 512 489.50 474.50Q458 437 410 418L409 414Q435 405 453 389L580 389L641 740L921 740M771 814Q655 814 596 861.50Q537 909 537 994Q537 1015 542 1047L716 1047Q714 1031 714 1025Q714 963 789 963Q834 963 859.50 985.50Q885 1008 892 1047L1066 1047Q1047 936 974.50 875Q902 814 771 814Z"  horiz-adv-x="845" vert-adv-y="1000"  />

      
      <glyph glyph-name="uni0911" unicode="&#x0911;" d="M921 740L892 571L815 571L714 0L511 0L550 222L476 222Q451 148 388 105.50Q325 63 240 63Q142 63 86 110Q30 157 30 237Q30 259 34 279L224 279Q223 276 223 270Q223 256 232 246.50Q241 237 258 237Q279 237 292.50 252Q306 267 306 289Q306 308 292 319Q278 330 251 330L202 330L231 493L280 493Q308 493 327.50 506.50Q347 520 347 546Q347 560 339 568.50Q331 577 317 577Q300 577 288 566Q276 555 273 539L86 539Q97 600 132.50 648Q168 696 223.50 722.50Q279 749 347 749Q435 749 484 709.50Q533 670 533 601Q533 584 530 564Q521 512 489.50 474.50Q458 437 410 418L409 414Q435 405 453 389L580 389L641 740L921 740M945 571L868 571L898 740L1255 740L1225 571L1149 571L1049 0L845 0L945 571M934 808Q818 808 759 855.50Q700 903 700 988Q700 1009 705 1041L879 1041Q877 1025 877 1019Q877 957 952 957Q997 957 1022.50 979.50Q1048 1002 1055 1041L1229 1041Q1210 930 1137.50 869Q1065 808 934 808Z"  horiz-adv-x="1179" vert-adv-y="1000"  />

      
      <glyph glyph-name="uni093E" unicode="&#x093E;" d="M101 571L24 571L54 740L411 740L381 571L305 571L205 0L1 0L101 571Z"  horiz-adv-x="335" vert-adv-y="1000"  />

      
      <glyph glyph-name="uni093F" unicode="&#x093F;" d="M624 1053Q749 1053 835.50 1016Q922 979 965 914.50Q1008 850 1008 769Q1008 746 1003 714L1000 696L796 696L798 710Q800 728 800 736Q800 808 744 848Q688 888 595 888Q499 888 427 848.50Q355 809 334 740L411 740L381 571L305 571L204 0L0 0L101 571L24 571L54 740L132 740Q155 829 219.50 899.50Q284 970 387 1011.50Q490 1053 624 1053Z"  horiz-adv-x="335" vert-adv-y="1000"  />

      
      <glyph glyph-name="uni0940" unicode="&#x0940;" d="M412 740L382 571L306 571L205 0L1 0L102 571L25 571L55 740L138 740L144 775Q149 805 149 818Q149 882 93 882Q47 882 27.50 850.50Q8 819 0 775L-14 696L-212 696L-200 765Q-177 900-98.50 976.50Q-20 1053 123 1053Q348 1053 348 849Q348 811 340 765L336 740L412 740Z"  horiz-adv-x="335" vert-adv-y="1000"  />

      
      <glyph glyph-name="uni0941" unicode="&#x0941;" d="M-339-365Q-442-365-514.50-318.50Q-587-272-587-172Q-587-142-582-118L-402-118Q-405-132-405-143Q-405-176-384-191.50Q-363-207-326-207Q-290-207-269.50-191Q-249-175-249-147Q-249-128-264.50-116.50Q-280-105-310-105L-353-105L-325 52L-282 52Q-184 52-129 5.50Q-74-41-74-125Q-74-147-76-159Q-87-254-159-309.50Q-231-365-339-365Z"   vert-adv-y="1000"  />

      
      <glyph glyph-name="uni0942" unicode="&#x0942;" d="M-315-346Q-364-346-407-328.50Q-450-311-476.50-275.50Q-503-240-503-188Q-503-168-499-149Q-483-55-414-5Q-345 45-243 45Q-116 45-57.50-25Q1-95 1-202Q1-236-5-270Q-8-286-10.50-298.50Q-13-311-15-321Q-19-336-20-341L-185-341L-171-264Q-166-232-166-211Q-166-162-189-133.50Q-212-105-261-105Q-288-105-310.50-117Q-333-129-338-155Q-339-158-339-164Q-339-183-323.50-192.50Q-308-202-286-202L-263-202L-288-346L-315-346Z"   vert-adv-y="1000"  />

      
      <glyph glyph-name="uni0943" unicode="&#x0943;" d="M-262-352Q-312-352-359.50-333Q-407-314-438-275Q-469-236-469-178Q-469-157-465-138Q-449-49-378.50-0.50Q-308 48-195 48Q-144 48-122 46L-146-90L-201-90Q-259-90-268-135Q-269-139-269-146Q-269-167-249-179Q-229-191-200-191Q-161-191-108-177L-136-334Q-197-352-262-352Z"   vert-adv-y="1000"  />

      
      <glyph glyph-name="uni0944" unicode="&#x0944;" d="M-251-503Q-339-503-398.50-469.50Q-458-436-458-366Q-458-351-455-334Q-446-286-411-251.50Q-376-217-326-206L-326-202Q-365-193-388.50-170Q-412-147-412-108Q-412-92-410-83Q-398-15-339 16.50Q-280 48-216 48L-122 48L-141-60L-153-60Q-180-60-196.50-67Q-213-74-216-93Q-222-126-165-126L-101-126L-127-275L-178-275Q-212-275-232-282.50Q-252-290-256-312Q-260-333-241-340Q-222-347-191-347Q-140-347-84-332L-111-482Q-137-492-176.50-497.50Q-216-503-251-503Z"   vert-adv-y="1000"  />

      
      <glyph glyph-name="uni0962" unicode="&#x0962;" d="M19-289Q-21-289-38.50-299Q-56-309-59-328Q-62-344-47-353Q-32-362-6-362Q20-362 40-357L18-481Q-20-486-49-486Q-125-486-169-454Q-213-422-213-364Q-213-314-183.50-274.50Q-154-235-111-217L-110-213Q-109-208-109-198Q-109-180-118-170Q-127-160-144-160Q-169-160-183.50-177.50Q-198-195-202-219L-207-246L-337-246L-332-219Q-330-207-330-202Q-330-183-339-171.50Q-348-160-368-160Q-396-160-413-179.50Q-430-199-430-232Q-430-276-382-276Q-370-276-362-274L-387-411L-413-411Q-500-411-545.50-370.50Q-591-330-591-258Q-591-234-587-213Q-576-149-542.50-106Q-509-63-463-43Q-417-23-369-23Q-275-23-250-95L-247-95Q-223-62-184-42.50Q-145-23-96-23Q-33-23 10.50-59.50Q54-96 54-168Q54-192 50-213Q43-251 25-289L19-289Z"   vert-adv-y="1000"  />

      
      <glyph glyph-name="uni0963" unicode="&#x0963;" d="M-78-482Q-81-498-66.50-503Q-52-508-27-508Q10-508 54-497L33-612Q13-619-16.50-623Q-46-627-74-627Q-141-627-186-602Q-231-577-231-523Q-231-477-203-443.50Q-175-410-131-400L-131-398Q-160-391-178-372.50Q-196-354-196-324Q-196-280-171.50-253.50Q-147-227-109-214L-109-213Q-108-208-108-199Q-108-181-117.50-170.50Q-127-160-144-160Q-169-160-182.50-177Q-196-194-201-219L-206-246L-336-246L-331-219Q-329-209-329-203Q-329-185-338.50-172.50Q-348-160-368-160Q-396-160-413-179.50Q-430-199-430-232Q-430-276-381-276Q-369-276-362-274L-386-411L-412-411Q-498-411-544-370.50Q-590-330-590-259Q-590-234-586-213Q-568-118-506.50-70.50Q-445-23-369-23Q-276-23-249-95L-246-95Q-223-62-184-42.50Q-145-23-96-23Q-32-23 11.50-59.50Q55-96 55-168Q55-192 51-213Q45-248 25-289L2-289Q-47-289-47-317Q-47-338-5-338L42-338L21-453L-18-453Q-45-453-60-458.50Q-75-464-78-482Z"   vert-adv-y="1000"  />

      
      <glyph glyph-name="uni0947" unicode="&#x0947;" d="M-193 735Q-218 787-234 809.50Q-250 832-272.50 840.50Q-295 849-337 849L-396 849L-368 1012L-312 1012Q-221 1011-172 992Q-123 973-85.50 916Q-48 859-3 735L-193 735Z"   vert-adv-y="1000"  />

      
      <glyph glyph-name="uni0948" unicode="&#x0948;" d="M-316 1091Q-225 1091-183.50 1072Q-142 1053-107 984Q-72 915-10 737L-184 737Q-187 739-221 759Q-252 777-266 782.50Q-280 788-298.50 789.50Q-317 791-368 791L-429 791L-407 916L-351 916Q-300 916-276.50 914Q-253 912-233.50 904Q-214 896-191 877Q-211 919-232.50 937.50Q-254 956-275 960.50Q-296 965-333 965L-398 965L-376 1091L-316 1091Z"   vert-adv-y="1000"  />

      
      <glyph glyph-name="uni094B" unicode="&#x094B;" d="M412 740L382 571L306 571L206 0L2 0L102 571L25 571L55 740L141 740Q117 789 101 810.50Q85 832 63 840.50Q41 849-1 849L-60 849L-31 1012L25 1012Q115 1011 164 992.50Q213 974 250 917.50Q287 861 331 740L412 740Z"  horiz-adv-x="336" vert-adv-y="1000"  />

      
      <glyph glyph-name="uni094C" unicode="&#x094C;" d="M380 740L350 571L274 571L174 0L-30 0L70 571L-7 571L23 740L115 740L83 758Q52 776 38 782Q24 788 5.50 789.50Q-13 791-64 791L-125 791L-103 916L-47 916Q4 916 27.50 914Q51 912 70.50 904Q90 896 113 877Q93 919 71.50 937.50Q50 956 29 960.50Q8 965-29 965L-94 965L-72 1091L-12 1091Q79 1091 120.50 1072Q162 1053 197 985Q232 917 293 740L380 740Z"  horiz-adv-x="335" vert-adv-y="1000"  />

      
      <glyph glyph-name="uni0945" unicode="&#x0945;" d="M-83 807Q-199 807-258 854.50Q-317 902-317 987Q-317 1008-312 1040L-138 1040Q-140 1024-140 1018Q-140 956-65 956Q-20 956 5.50 978.50Q31 1001 38 1040L212 1040Q193 929 120.50 868Q48 807-83 807Z"   vert-adv-y="1000"  />

      
      <glyph glyph-name="uni0949" unicode="&#x0949;" d="M253 807Q137 807 78 854.50Q19 902 19 987Q19 1008 24 1040L198 1040Q196 1024 196 1018Q196 956 271 956Q316 956 341.50 978.50Q367 1001 374 1040L548 1040Q529 929 456.50 868Q384 807 253 807M101 571L24 571L54 740L411 740L381 571L305 571L205 0L1 0L101 571Z"  horiz-adv-x="337" vert-adv-y="1000"  />

      
      <glyph glyph-name="uni0915" unicode="&#x0915;" d="M615 571L596 464Q647 513 723 513Q803 513 847.50 461Q892 409 892 328Q892 297 887 273Q867 168 801.50 112Q736 56 644 56Q607 56 574 65L602 223Q608 221 617 221Q644 221 663.50 240Q683 259 683 290Q683 311 671 325.50Q659 340 634 340Q606 340 587.50 321Q569 302 562 266L515 0L319 0L336 97Q284 43 196 43Q145 43 105.50 67Q66 91 44 134Q22 177 22 232Q22 253 27 283Q45 388 111 450.50Q177 513 277 513Q363 513 400 462L419 571L24 571L54 740L1022 740L992 571L615 571M289 214Q319 214 340.50 231Q362 248 367 273L368 278L369 288Q369 312 353.50 326.50Q338 341 312 341Q278 341 255 319Q232 297 232 265Q232 243 248 228.50Q264 214 289 214Z"  horiz-adv-x="946" vert-adv-y="1000"  />

      
      <glyph glyph-name="uni0916" unicode="&#x0916;" d="M1054 740L1024 571L948 571L848 0L645 0L667 125Q626 95 564 95Q549 95 535 98Q488 49 425.50 20Q363-9 290-9Q168-9 101.50 50.50Q35 110 35 221Q35 259 42 297L61 406L80 406Q150 406 185.50 435Q221 464 231 523L239 571L25 571L55 740L1054 740M326 166Q392 166 424 206Q416 240 416 273Q416 300 420 323Q434 406 492 457.50Q550 509 627 509Q695 509 728 476L745 571L444 571L431 494Q415 401 364 342.50Q313 284 239 268Q237 254 237 248Q237 211 260 188.50Q283 166 326 166M592 292Q592 271 604.50 260Q617 249 637 249Q660 249 677 263.50Q694 278 698 303Q699 307 699 314Q699 332 688 344Q677 356 656 356Q629 356 610.50 339Q592 322 592 292Z"  horiz-adv-x="978" vert-adv-y="1000"  />

      
      <glyph glyph-name="uni0917" unicode="&#x0917;" d="M935 740L905 571L828 571L728 0L524 0L624 571L531 571L497 373Q479 265 412.50 200Q346 135 231 135Q136 135 79 180Q22 225 22 311Q22 333 27 363Q31 385 34 396L231 396L225 364Q223 355 223 340Q223 308 249 308Q282 308 291 364L327 571L24 571L54 740L935 740Z"  horiz-adv-x="859" vert-adv-y="1000"  />

      
      <glyph glyph-name="uni0918" unicode="&#x0918;" d="M737 571L662 571L562 0L357 0L382 143Q314 87 216 87Q139 87 86.50 127.50Q34 168 34 238Q34 253 37 269Q46 320 79 356.50Q112 393 153 408L153 412Q91 434 91 507Q91 523 94 542L99 571L24 571L54 740L767 740L737 571M457 571L303 571L300 552Q298 540 298 536Q298 494 350 494L385 494L356 331L305 331Q278 331 262.50 318Q247 305 247 284Q247 269 260.50 260.50Q274 252 296 252Q341 252 375 279Q409 306 419 351L457 571Z"  horiz-adv-x="691" vert-adv-y="1000"  />

      
      <glyph glyph-name="uni0919" unicode="&#x0919;" d="M806 740L777 571L515 571L506 526L507 526L482 384L292 384Q278 384 268 378Q258 372 257 362Q253 339 283 339L327 339Q406 339 456.50 302Q507 265 507 193Q507 173 503 154Q488 68 422 22Q356-24 245-24Q140-24 72 20Q4 64 4 146Q4 161 5 169L208 169Q206 146 221 137Q236 128 256 128Q280 128 295.50 138.50Q311 149 311 169Q311 197 264 197L232 197Q166 197 108.50 228.50Q51 260 51 335Q51 351 54 369Q67 444 125.50 485Q184 526 266 526L309 526L318 571L27 571L56 740L806 740M639 455Q677 455 701 431Q725 407 725 371Q725 340 707.50 313Q690 286 662 269.50Q634 253 603 253Q566 253 542 276.50Q518 300 518 335Q518 367 535 394.50Q552 422 580 438.50Q608 455 639 455Z"  horiz-adv-x="730" vert-adv-y="1000"  />

      
      <glyph glyph-name="uni091A" unicode="&#x091A;" d="M811 571L735 571L634 0L430 0L454 134Q384 72 279 72Q202 72 155 110.50Q108 149 108 217Q108 229 112 255Q121 308 157 344L46 344L74 503L448 503L420 344L374 344Q351 344 332.50 331Q314 318 309 293Q308 290 308 284Q308 263 324.50 251.50Q341 240 369 240Q419 240 450.50 273Q482 306 495 368L531 571L24 571L54 740L841 740L811 571Z"  horiz-adv-x="765" vert-adv-y="1000"  />

      
      <glyph glyph-name="uni091B" unicode="&#x091B;" d="M705 571L695 515Q737 495 759.50 456.50Q782 418 782 365Q782 345 777 315Q761 225 705 157.50Q649 90 556 53Q463 16 340 16Q249 16 178 39.50Q107 63 67.50 107.50Q28 152 28 212Q28 234 32 251Q52 347 147 387L147 391Q119 400 102.50 424Q86 448 86 486Q86 502 89 521L98 571L23 571L53 740L903 740L873 571L705 571M517 571L302 571L295 530Q293 516 293 511Q293 472 332 472L351 472L322 310L307 310Q276 310 257.50 292Q239 274 239 248Q239 220 269.50 204.50Q300 189 373 189Q478 189 533 222Q588 255 601 325Q603 339 603 345Q603 383 577 383Q559 383 547.50 367.50Q536 352 531 327Q528 308 528 287Q528 269 529 260L363 260Q362 268 362 290Q362 321 367 350Q378 414 415 455.50Q452 497 507 516L517 571Z"  horiz-adv-x="827" vert-adv-y="1000"  />

      
      <glyph glyph-name="uni091C" unicode="&#x091C;" d="M918 571L842 571L742 0L538 0L592 308L524 308Q503 205 428.50 142.50Q354 80 245 80Q144 80 84 133Q24 186 24 276Q24 296 29 326L57 481L262 481L234 325Q232 316 232 301Q232 258 270 258Q316 258 328 325L356 481L622 481L638 571L24 571L54 740L948 740L918 571Z"  horiz-adv-x="872" vert-adv-y="1000"  />

      
      <glyph glyph-name="uni091D" unicode="&#x091D;" d="M936 571L859 571L759 0L559 0L592 187L495 187Q496 162 492 132Q480 64 429.50 22Q379-20 306-20Q275-20 249.50-13Q224-6 208 5L192-89L0-89L45 168L228 168Q227 165 227 159Q227 128 265 128Q286 128 298 138Q310 148 310 166Q310 180 298 188.50Q286 197 262 197Q221 197 194 199Q136 202 93 237.50Q50 273 50 340Q50 357 53 376Q66 453 124 490.50Q182 528 266 528L311 528L318 571L32 571L62 740L966 740L936 571M659 571L515 571L508 528L482 384L291 384Q277 384 268 378Q259 372 257 361Q254 339 284 339L327 339L618 339L659 571Z"  horiz-adv-x="890" vert-adv-y="1000"  />

      
      <glyph glyph-name="uni091E" unicode="&#x091E;" d="M897 571L821 571L721 0L517 0L551 196L484 196Q449 117 379.50 74Q310 31 224 31Q131 31 74 77Q17 123 17 207Q17 229 19 240L211 240Q214 219 227 210.50Q240 202 256 202Q286 202 306.50 228.50Q327 255 327 293Q327 316 315.50 330.50Q304 345 282 345Q266 345 249 336.50Q232 328 223 308L31 308Q46 374 87 421.50Q128 469 186 493.50Q244 518 310 518Q392 518 445.50 478.50Q499 439 510 367L581 367L617 571L24 571L54 740L927 740L897 571Z"  horiz-adv-x="851" vert-adv-y="1000"  />

      
      <glyph glyph-name="uni091F" unicode="&#x091F;" d="M342 349Q295 349 260 321.50Q225 294 225 246Q225 216 245 198.50Q265 181 302 181Q346 181 375.50 205.50Q405 230 412 270L606 270Q592 190 548 130Q504 70 435.50 37.50Q367 5 281 5Q203 5 143.50 32Q84 59 51.50 108.50Q19 158 19 224Q19 249 23 270Q42 381 123 446.50Q204 512 332 518L341 571L24 571L54 740L719 740L689 571L541 571L502 349L342 349Z"  horiz-adv-x="643" vert-adv-y="1000"  />

      
      <glyph glyph-name="uni0920" unicode="&#x0920;" d="M467 571L457 518Q527 496 570 444.50Q613 393 613 318Q613 296 608 268Q594 189 547.50 132.50Q501 76 431 47.50Q361 19 279 19Q207 19 148.50 45Q90 71 55.50 120Q21 169 21 236Q21 261 25 284Q41 382 104 442Q167 502 257 523L266 571L23 571L53 740L743 740L713 571L467 571M408 295Q408 327 388 345Q368 363 331 363Q284 363 254.50 333Q225 303 225 257Q225 225 244.50 206.50Q264 188 300 188Q348 188 378 218.50Q408 249 408 295Z"  horiz-adv-x="667" vert-adv-y="1000"  />

      
      <glyph glyph-name="uni0921" unicode="&#x0921;" d="M292 384Q278 384 268 378Q258 372 257 362Q253 339 283 339L327 339Q406 339 456.50 302Q507 265 507 193Q507 173 503 154Q488 68 422 22Q356-24 245-24Q140-24 72 20Q4 64 4 146Q4 161 5 169L208 169Q206 146 221 137Q236 128 256 128Q280 128 295.50 138.50Q311 149 311 169Q311 197 264 197L232 197Q166 197 108.50 228.50Q51 260 51 335Q51 351 54 369Q67 444 125.50 485Q184 526 266 526L309 526L318 571L27 571L56 740L638 740L609 571L514 571L481 384L292 384Z"  horiz-adv-x="562" vert-adv-y="1000"  />

      
      <glyph glyph-name="uni0922" unicode="&#x0922;" d="M403 392Q334 392 283 356Q232 320 221 256Q218 240 218 225Q218 180 247.50 153Q277 126 340 126Q387 126 418 141.50Q449 157 455 189Q457 201 451 209Q445 217 434 217Q412 217 406 196Q404 190 404 179L262 179Q262 204 265 222Q276 288 331 324Q386 360 468 360Q542 360 586 321Q630 282 630 216Q630 201 627 183Q609 87 530 34Q451-19 320-19Q233-19 165.50 10.50Q98 40 60 95Q22 150 22 224Q22 245 27 275Q42 355 89 412.50Q136 470 206.50 500Q277 530 360 530L366 530L373 571L26 571L56 740L742 740L712 571L564 571L533 392L403 392Z"  horiz-adv-x="666" vert-adv-y="1000"  />

      
      <glyph glyph-name="uni0923" unicode="&#x0923;" d="M967 571L891 571L790 0L586 0L687 571L592 571L553 354Q535 249 468.50 184.50Q402 120 289 120Q188 120 128 171.50Q68 223 68 309Q68 333 72 354L111 571L24 571L54 740L997 740L967 571M392 571L310 571L268 335Q267 331 267 325Q267 309 276.50 300Q286 291 302 291Q322 291 334 303Q346 315 350 335L392 571Z"  horiz-adv-x="921" vert-adv-y="1000"  />

      
      <glyph glyph-name="uni0924" unicode="&#x0924;" d="M763 571L686 571L586 0L382 0L437 314L326 314Q282 314 252.50 287.50Q223 261 223 220Q223 192 241.50 176Q260 160 298 160L314 160L286 1L257 1Q195 1 140 23Q85 45 50.50 90.50Q16 136 16 203Q16 227 20 248Q40 370 131 429Q222 488 347 488L467 488L482 571L24 571L54 740L793 740L763 571Z"  horiz-adv-x="717" vert-adv-y="1000"  />

      
      <glyph glyph-name="uni0925" unicode="&#x0925;" d="M887 740L858 571L781 571L680 0L476 0L505 165Q472 125 412.50 98.50Q353 72 279 72Q165 72 98.50 132.50Q32 193 32 299Q32 330 38 364Q47 414 59 448L139 448Q223 448 270.50 469Q318 490 327 539Q328 542 328 548Q328 560 321 568Q314 576 302 576Q279 576 269 554.50Q259 533 262 506L79 506Q82 571 113.50 626.50Q145 682 202 715.50Q259 749 336 749Q421 749 471 704Q521 659 521 580Q521 556 517 533Q500 438 428 375Q356 312 229 305Q234 278 259.50 259Q285 240 339 240Q418 240 477.50 292Q537 344 554 444L606 740L887 740Z"  horiz-adv-x="811" vert-adv-y="1000"  />

      
      <glyph glyph-name="uni0926" unicode="&#x0926;" d="M329 336Q286 336 261 312Q236 288 236 251Q236 229 249 216.50Q262 204 286 204Q314 204 332 221.50Q350 239 355 267L544 267L489-44L290-44L312 79Q266 44 197 44Q150 44 111 64.50Q72 85 48.50 125.50Q25 166 25 225Q25 248 30 281Q50 392 133 451Q216 510 338 510L353 510L364 571L28 571L58 740L693 740L662 571L569 571L527 336L329 336Z"  horiz-adv-x="617" vert-adv-y="1000"  />

      
      <glyph glyph-name="uni0927" unicode="&#x0927;" d="M800 571L728 571L627 0L423 0L447 137Q369 65 237 65Q149 65 92.50 105Q36 145 36 218Q36 233 39 251Q49 309 89 345Q129 381 175 394L176 398Q136 413 109.50 448.50Q83 484 83 536Q83 553 86 572Q100 657 158.50 703Q217 749 302 749Q384 749 429.50 710.50Q475 672 475 603Q475 569 463 528L314 528Q317 537 317 549Q317 579 290 579Q273 579 262.50 564.50Q252 550 252 527Q252 481 322 481L414 481L385 318L333 318Q258 318 250 274Q246 253 264 242Q282 231 320 231Q386 231 431 271Q476 311 490 379L524 571L553 740L829 740L800 571Z"  horiz-adv-x="753" vert-adv-y="1000"  />

      
      <glyph glyph-name="uni0928" unicode="&#x0928;" d="M890 571L814 571L713 0L509 0L566 322L474 322Q480 294 480 276Q480 256 476 237Q465 173 428 128.50Q391 84 339.50 61.50Q288 39 232 39Q171 39 122 64Q73 89 45.50 134Q18 179 18 236Q18 250 22 278Q42 386 120 438.50Q198 491 310 491L596 491L610 571L24 571L54 740L920 740L890 571M321 276Q321 297 308.50 309.50Q296 322 274 322Q245 322 225 302.50Q205 283 205 255Q205 235 218.50 222.50Q232 210 254 210Q281 210 301 229Q321 248 321 276Z"  horiz-adv-x="844" vert-adv-y="1000"  />

      
      <glyph glyph-name="uni092A" unicode="&#x092A;" d="M737 571L661 571L561 0L357 0L388 176Q334 136 258 136Q163 136 109.50 192.50Q56 249 56 341Q56 370 62 401L92 571L24 571L54 740L767 740L737 571M457 571L296 571L266 401Q263 388 263 376Q263 344 281 325.50Q299 307 336 307Q372 307 394.50 330Q417 353 426 392L457 571Z"  horiz-adv-x="691" vert-adv-y="1000"  />

      
      <glyph glyph-name="uni092B" unicode="&#x092B;" d="M645 571L626 461Q683 513 771 513Q851 513 893 465Q935 417 935 340Q935 318 930 288Q911 180 843.50 118Q776 56 684 56Q640 56 607 68L634 223Q646 220 657 220Q686 220 704 241.50Q722 263 722 292Q722 313 710.50 326.50Q699 340 674 340Q642 340 620 317.50Q598 295 589 252L545 0L341 0L372 174Q320 136 250 136Q159 136 107 190Q55 244 55 331Q55 360 61 390L92 571L24 571L54 740L1060 740L1030 571L645 571M441 571L296 571L265 390Q262 378 262 367Q262 340 278 323.50Q294 307 326 307Q359 307 379.50 327.50Q400 348 408 382L441 571Z"  horiz-adv-x="984" vert-adv-y="1000"  />

      
      <glyph glyph-name="uni092C" unicode="&#x092C;" d="M763 740L733 571L657 571L557 0L361 0L376 85Q349 62 310.50 50.50Q272 39 228 39Q167 39 121 65.50Q75 92 50.50 139.50Q26 187 26 247Q26 274 30 298Q48 401 125 462.50Q202 524 313 524Q396 524 447 489L461 571L24 571L54 740L763 740M334 395Q300 395 271 378L418 265Q424 284 424 288Q426 302 426 308Q426 347 401 371Q376 395 334 395M205 288Q203 274 203 267Q203 228 229.50 205Q256 182 297 182Q330 182 359 198L212 312Q206 296 205 288Z"  horiz-adv-x="687" vert-adv-y="1000"  />

      
      <glyph glyph-name="uni092D" unicode="&#x092D;" d="M965 740L936 571L858 571L757 0L553 0L607 305L509 305L504 277Q484 165 412 100.50Q340 36 224 36Q128 36 72.50 83Q17 130 17 211Q17 235 21 255Q40 362 119 416.50Q198 471 305 471L348 471L359 534Q360 539 360 549Q360 576 336 576Q321 576 311 565Q301 554 298 537Q295 522 296 509L92 509L92 518Q92 527 94 545Q110 635 178 692Q246 749 358 749Q459 749 504 701Q549 653 549 570Q549 532 542 496L538 471L636 471L683 740L965 740M319 305L282 305Q250 305 229.50 289.50Q209 274 209 245Q209 227 220.50 217.50Q232 208 251 208Q277 208 292 224Q307 240 312 266L319 305Z"  horiz-adv-x="889" vert-adv-y="1000"  />

      
      <glyph glyph-name="uni092E" unicode="&#x092E;" d="M925 571L849 571L748 0L543 0L597 305L503 305L498 277Q478 165 405.50 100.50Q333 36 217 36Q121 36 66 83.50Q11 131 11 212Q11 235 15 255Q33 362 112.50 416.50Q192 471 298 471L342 471L359 571L24 571L54 740L955 740L925 571M644 571L549 571L532 471L626 471L644 571M313 305L275 305Q243 305 223 290Q203 275 203 246Q203 228 215.50 218Q228 208 245 208Q271 208 286 224Q301 240 306 266L313 305Z"  horiz-adv-x="879" vert-adv-y="1000"  />

      
      <glyph glyph-name="uni092F" unicode="&#x092F;" d="M815 571L739 571L638 0L434 0L455 120Q384 63 280 63Q206 63 151 90.50Q96 118 66.50 168.50Q37 219 37 286Q37 320 42 345Q47 372 59 414L67 414Q144 414 175 447Q206 480 217 540L223 571L24 571L54 740L845 740L815 571M535 571L424 571L411 502Q383 340 240 314Q238 279 264.50 255.50Q291 232 342 232Q407 232 448 272Q489 312 500 375L535 571Z"  horiz-adv-x="769" vert-adv-y="1000"  />

      
      <glyph glyph-name="uni0930" unicode="&#x0930;" d="M575 571L512 571L508 545Q487 427 424.50 355Q362 283 236 276L223 199Q222 195 222 187Q222 164 243 164Q256 164 264.50 174Q273 184 276 199L281 232L476 232L473 206Q456 106 392.50 48.50Q329-9 227-9Q129-9 73.50 40.50Q18 90 18 168Q18 190 22 209L63 438L161 438Q233 438 264 465.50Q295 493 304 545L308 571L25 571L55 740L605 740L575 571Z"  horiz-adv-x="529" vert-adv-y="1000"  />

      
      <glyph glyph-name="uni0932" unicode="&#x0932;" d="M806 571L789 473Q824 447 843.50 405.50Q863 364 863 309Q863 277 858 251Q844 175 802 118.50Q760 62 693 32.50Q626 3 541 5L506 7L538 183Q548 181 563 181Q595 181 620 201.50Q645 222 651 261Q653 273 653 279Q653 304 639 318.50Q625 333 600 333Q567 333 548 310.50Q529 288 523 256L518 227L350 227L355 256Q357 270 357 278Q357 302 345 317.50Q333 333 306 333Q276 333 255.50 313.50Q235 294 229 261Q227 247 227 242Q227 212 244.50 196.50Q262 181 294 181Q300 181 316 183L284 6Q270 5 254 5Q142 5 81 63Q20 121 20 216Q20 248 25 273Q39 356 81.50 410Q124 464 181.50 488Q239 512 301 512Q365 512 406 486.50Q447 461 464 418L467 418Q514 484 594 504L606 571L24 571L54 740L996 740L966 571L806 571Z"  horiz-adv-x="920" vert-adv-y="1000"  />

      
      <glyph glyph-name="uni0935" unicode="&#x0935;" d="M738 740L708 571L632 571L532 0L333 0L349 93Q294 41 212 41Q125 41 75 93Q25 145 25 234Q25 260 32 300Q50 400 115 458.50Q180 517 281 517Q365 517 414 465L433 571L24 571L54 740L738 740M225 265Q225 238 243 220.50Q261 203 292 203Q330 203 356.50 230Q383 257 383 295Q383 322 365.50 338.50Q348 355 318 355Q278 355 251.50 328.50Q225 302 225 265Z"  horiz-adv-x="662" vert-adv-y="1000"  />

      
      <glyph glyph-name="uni0936" unicode="&#x0936;" d="M268 168Q291 168 303.50 184Q316 200 322 233L520 233Q506 118 438.50 56Q371-6 252-6Q147-6 85 45Q23 96 23 185Q23 206 28 234L64 437L199 437Q269 437 317 456.50Q365 476 375 530Q376 534 376 540Q376 555 369 564Q362 573 348 573Q323 573 310.50 551.50Q298 530 298 500L95 500Q106 618 180.50 683.50Q255 749 371 749Q464 749 524 700Q584 651 584 564Q584 538 580 517Q558 392 466 329.50Q374 267 247 267L240 267L232 222Q230 210 230 204Q230 168 268 168M958 740L928 571L852 571L751 0L544 0L675 740L958 740Z"  horiz-adv-x="882" vert-adv-y="1000"  />

      
      <glyph glyph-name="uni0937" unicode="&#x0937;" d="M756 571L679 571L579 0L379 0L409 170Q348 120 261 120Q162 120 109 179Q56 238 56 334Q56 367 62 401L92 571L24 571L54 740L786 740L756 571M479 571L292 571L460 463L479 571M258 395Q256 386 256 368Q256 333 274 312Q292 291 329 291Q392 291 428 342L267 443L258 395Z"  horiz-adv-x="710" vert-adv-y="1000"  />

      
      <glyph glyph-name="uni0938" unicode="&#x0938;" d="M881 571L805 571L704 0L500 0L547 269L235 269L223 201Q222 198 222 192Q222 164 248 164Q265 164 274 176Q283 188 288 212L483 212Q474 108 405.50 49.50Q337-9 228-9Q129-9 75 43Q21 95 21 178Q21 203 25 223L58 413L121 413Q193 413 224 440.50Q255 468 264 520L273 571L25 571L55 740L911 740L881 571M601 571L477 571L468 520Q460 472 442 435L577 435L601 571Z"  horiz-adv-x="835" vert-adv-y="1000"  />

      
      <glyph glyph-name="uni0939" unicode="&#x0939;" d="M321 388Q306 388 295.50 381Q285 374 283 360L282 353Q282 348 285 343Q294 344 310 344Q378 344 426 320Q474 296 498.50 256Q523 216 523 170Q523 162 521 144L326 144Q327 161 314 172.50Q301 184 280 184Q255 184 233.50 162.50Q212 141 212 100Q212 74 225.50 62Q239 50 258 50Q277 50 293 60Q309 70 316 86L511 86Q491-7 417-62Q343-117 240-117Q174-117 122.50-92Q71-67 42.50-21.50Q14 24 14 84Q14 109 18 132Q36 237 124 294Q86 326 86 376Q86 419 108.50 454.50Q131 490 173 510.50Q215 531 272 531L320 531L327 571L35 571L65 740L671 740L641 571L521 571L514 531L488 388L321 388Z"  horiz-adv-x="594" vert-adv-y="1000"  />

      
      <glyph glyph-name="uni0933" unicode="&#x0933;" d="M818 571L799 466Q837 442 858 402Q879 362 879 311Q879 286 875 263Q862 191 822.50 137Q783 83 726 54.50Q669 26 605 26Q544 26 496.50 51Q449 76 427 127L421 127Q384 76 330 51Q276 26 215 26Q159 26 114 48.50Q69 71 43 114Q17 157 17 215Q17 240 21 263Q34 334 73.50 387.50Q113 441 170.50 470Q228 499 292 499Q350 499 396 477.50Q442 456 470 399L474 399Q530 469 607 490L621 571L22 571L52 740L1012 740L982 571L818 571M349 263Q350 267 350 274Q350 297 335 312Q320 327 296 327Q264 327 241.50 305Q219 283 219 249Q219 226 234 212.50Q249 199 274 199Q301 199 322.50 216.50Q344 234 349 263M677 274Q677 298 662.50 312.50Q648 327 622 327Q591 327 568.50 304.50Q546 282 546 250Q546 226 560.50 212.50Q575 199 600 199Q632 199 654.50 219.50Q677 240 677 274Z"  horiz-adv-x="936" vert-adv-y="1000"  />

      
      <glyph glyph-name="uni0958" unicode="&#x0958;" d="M615 571L596 464Q647 513 723 513Q803 513 847.50 461Q892 409 892 328Q892 297 887 273Q867 168 801.50 112Q736 56 644 56Q607 56 574 65L602 223Q608 221 617 221Q644 221 663.50 240Q683 259 683 290Q683 311 671 325.50Q659 340 634 340Q606 340 587.50 321Q569 302 562 266L515 0L319 0L336 97Q284 43 196 43Q145 43 105.50 67Q66 91 44 134Q22 177 22 232Q22 253 27 283Q45 388 111 450.50Q177 513 277 513Q363 513 400 462L419 571L24 571L54 740L1022 740L992 571L615 571M289 214Q319 214 340.50 231Q362 248 367 273L368 278L369 288Q369 312 353.50 326.50Q338 341 312 341Q278 341 255 319Q232 297 232 265Q232 243 248 228.50Q264 214 289 214M112-227Q70-227 43.50-200.50Q17-174 17-135Q17-99 36-68Q55-37 86.50-18.50Q118 0 152 0Q194 0 221-27Q248-54 248-95Q248-130 229-160.50Q210-191 178.50-209Q147-227 112-227Z"  horiz-adv-x="946" vert-adv-y="1000"  />

      
      <glyph glyph-name="uni0959" unicode="&#x0959;" d="M1054 740L1024 571L948 571L848 0L645 0L667 125Q626 95 564 95Q549 95 535 98Q488 49 425.50 20Q363-9 290-9Q168-9 101.50 50.50Q35 110 35 221Q35 259 42 297L61 406L80 406Q150 406 185.50 435Q221 464 231 523L239 571L25 571L55 740L1054 740M326 166Q392 166 424 206Q416 240 416 273Q416 300 420 323Q434 406 492 457.50Q550 509 627 509Q695 509 728 476L745 571L444 571L431 494Q415 401 364 342.50Q313 284 239 268Q237 254 237 248Q237 211 260 188.50Q283 166 326 166M592 292Q592 271 604.50 260Q617 249 637 249Q660 249 677 263.50Q694 278 698 303Q699 307 699 314Q699 332 688 344Q677 356 656 356Q629 356 610.50 339Q592 322 592 292M216-275Q174-275 147.50-248.50Q121-222 121-183Q121-147 140-116Q159-85 190.50-66.50Q222-48 256-48Q298-48 325-75Q352-102 352-143Q352-178 333-208.50Q314-239 282.50-257Q251-275 216-275Z"  horiz-adv-x="978" vert-adv-y="1000"  />

      
      <glyph glyph-name="uni095A" unicode="&#x095A;" d="M935 740L905 571L828 571L728 0L524 0L624 571L531 571L497 373Q479 265 412.50 200Q346 135 231 135Q136 135 79 180Q22 225 22 311Q22 333 27 363Q31 385 34 396L231 396L225 364Q223 355 223 340Q223 308 249 308Q282 308 291 364L327 571L24 571L54 740L935 740M176-135Q134-135 107.50-108.50Q81-82 81-43Q81-7 100 24Q119 55 150.50 73.50Q182 92 216 92Q258 92 285 65Q312 38 312-3Q312-38 293-68.50Q274-99 242.50-117Q211-135 176-135Z"  horiz-adv-x="859" vert-adv-y="1000"  />

      
      <glyph glyph-name="uni095B" unicode="&#x095B;" d="M918 571L842 571L742 0L538 0L592 308L524 308Q503 205 428.50 142.50Q354 80 245 80Q144 80 84 133Q24 186 24 276Q24 296 29 326L57 481L262 481L234 325Q232 316 232 301Q232 258 270 258Q316 258 328 325L356 481L622 481L638 571L24 571L54 740L948 740L918 571M191-189Q149-189 122.50-162.50Q96-136 96-97Q96-61 115-30Q134 1 165.50 19.50Q197 38 231 38Q273 38 300 11Q327-16 327-57Q327-92 308-122.50Q289-153 257.50-171Q226-189 191-189Z"  horiz-adv-x="872" vert-adv-y="1000"  />

      
      <glyph glyph-name="uni095C" unicode="&#x095C;" d="M292 384Q278 384 268 378Q258 372 257 362Q253 339 283 339L327 339Q406 339 456.50 302Q507 265 507 193Q507 173 503 154Q488 68 422 22Q356-24 245-24Q140-24 72 20Q4 64 4 146Q4 161 5 169L208 169Q206 146 221 137Q236 128 256 128Q280 128 295.50 138.50Q311 149 311 169Q311 197 264 197L232 197Q166 197 108.50 228.50Q51 260 51 335Q51 351 54 369Q67 444 125.50 485Q184 526 266 526L309 526L318 571L27 571L56 740L638 740L609 571L514 571L481 384L292 384M188-293Q146-293 119.50-266.50Q93-240 93-201Q93-165 112-134Q131-103 162.50-84.50Q194-66 228-66Q270-66 297-93Q324-120 324-161Q324-196 305-226.50Q286-257 254.50-275Q223-293 188-293Z"  horiz-adv-x="562" vert-adv-y="1000"  />

      
      <glyph glyph-name="uni095D" unicode="&#x095D;" d="M403 392Q334 392 283 356Q232 320 221 256Q218 240 218 225Q218 180 247.50 153Q277 126 340 126Q387 126 418 141.50Q449 157 455 189Q457 201 451 209Q445 217 434 217Q412 217 406 196Q404 190 404 179L262 179Q262 204 265 222Q276 288 331 324Q386 360 468 360Q542 360 586 321Q630 282 630 216Q630 201 627 183Q609 87 530 34Q451-19 320-19Q233-19 165.50 10.50Q98 40 60 95Q22 150 22 224Q22 245 27 275Q42 355 89 412.50Q136 470 206.50 500Q277 530 360 530L366 530L373 571L26 571L56 740L742 740L712 571L564 571L533 392L403 392M245-287Q203-287 176.50-260.50Q150-234 150-195Q150-159 169-128Q188-97 219.50-78.50Q251-60 285-60Q327-60 354-87Q381-114 381-155Q381-190 362-220.50Q343-251 311.50-269Q280-287 245-287Z"  horiz-adv-x="666" vert-adv-y="1000"  />

      
      <glyph glyph-name="uni095E" unicode="&#x095E;" d="M645 571L626 461Q683 513 771 513Q851 513 893 465Q935 417 935 340Q935 318 930 288Q911 180 843.50 118Q776 56 684 56Q640 56 607 68L634 223Q646 220 657 220Q686 220 704 241.50Q722 263 722 292Q722 313 710.50 326.50Q699 340 674 340Q642 340 620 317.50Q598 295 589 252L545 0L341 0L372 174Q320 136 250 136Q159 136 107 190Q55 244 55 331Q55 360 61 390L92 571L24 571L54 740L1060 740L1030 571L645 571M441 571L296 571L265 390Q262 378 262 367Q262 340 278 323.50Q294 307 326 307Q359 307 379.50 327.50Q400 348 408 382L441 571M119-127Q77-127 50.50-100.50Q24-74 24-35Q24 1 43 32Q62 63 93.50 81.50Q125 100 159 100Q201 100 228 73Q255 46 255 5Q255-30 236-60.50Q217-91 185.50-109Q154-127 119-127Z"  horiz-adv-x="984" vert-adv-y="1000"  />

      
      <glyph glyph-name="uni0931" unicode="&#x0931;" d="M575 571L512 571L508 545Q487 427 424.50 355Q362 283 236 276L223 199Q222 195 222 187Q222 164 243 164Q256 164 264.50 174Q273 184 276 199L281 232L476 232L473 206Q456 106 392.50 48.50Q329-9 227-9Q129-9 73.50 40.50Q18 90 18 168Q18 190 22 209L63 438L161 438Q233 438 264 465.50Q295 493 304 545L308 571L25 571L55 740L605 740L575 571M-4-246Q-46-246-72.50-219.50Q-99-193-99-154Q-99-118-80-87Q-61-56-29.50-37.50Q2-19 36-19Q78-19 105-46Q132-73 132-114Q132-149 113-179.50Q94-210 62.50-228Q31-246-4-246Z"  horiz-adv-x="529" vert-adv-y="1000"  />

      
      <glyph glyph-name="uni0902" unicode="&#x0902;" d="M-97 799Q-139 799-165.50 825.50Q-192 852-192 892Q-192 928-173 958.50Q-154 989-122.50 1007.50Q-91 1026-57 1026Q-14 1026 13 999.50Q40 973 40 932Q40 898 20.50 867Q1 836-30.50 817.50Q-62 799-97 799Z"   vert-adv-y="1000"  />

      
      <glyph glyph-name="uni0901" unicode="&#x0901;" d="M-61 989Q-87 989-104 1006Q-121 1023-121 1049Q-121 1083-94.50 1109Q-68 1135-35 1135Q-7 1135 10 1118Q27 1101 27 1075Q27 1040 0.50 1014.50Q-26 989-61 989M-83 807Q-188 807-252 855.50Q-316 904-316 993Q-316 1017-312 1040L-151 1040Q-153 1028-153 1023Q-153 990-130 970Q-107 950-66 950Q-20 950 11 975Q42 1000 49 1040L212 1040Q192 925 117.50 866Q43 807-83 807Z"   vert-adv-y="1000"  />

      
      <glyph glyph-name="uni0903" unicode="&#x0903;" d="M160 340Q118 340 91 367Q64 394 64 433Q64 468 83.50 499Q103 530 134.50 548.50Q166 567 200 567Q242 567 269 540Q296 513 296 473Q296 438 276.50 407.50Q257 377 225.50 358.50Q194 340 160 340M110 59Q68 59 41 85.50Q14 112 14 152Q14 187 33.50 218Q53 249 84.50 267Q116 285 150 285Q192 285 219 258.50Q246 232 246 191Q246 156 226.50 125.50Q207 95 176 77Q145 59 110 59Z"  horiz-adv-x="310" vert-adv-y="1000"  />

      
      <glyph glyph-name="uni093D" unicode="&#x093D;" d="M19 207L256 207Q294 207 294 234Q294 247 282 260.50Q270 274 244 295Q211 323 189.50 345.50Q168 368 152 401Q136 434 136 476Q136 494 139 515Q152 590 208.50 631Q265 672 347 672L590 672L560 501L369 501Q344 501 342 483Q340 470 351.50 457Q363 444 390 421Q424 394 446 371.50Q468 349 484.50 315Q501 281 501 238Q501 227 497 199Q483 122 422.50 79.50Q362 37 280 37L-11 37L19 207Z"  horiz-adv-x="610" vert-adv-y="1000"  />

      
      <glyph glyph-name="uni094D" unicode="&#x094D;" d="M-339-51L-137-51L-40-289L-247-289L-339-51Z"   vert-adv-y="1000"  />

      
      <glyph glyph-name="uni093C" unicode="&#x093C;" d="M-255-335Q-297-335-323.50-308.50Q-350-282-350-243Q-350-207-331-176Q-312-145-280.50-126.50Q-249-108-215-108Q-173-108-146-135Q-119-162-119-203Q-119-238-138-268.50Q-157-299-188.50-317Q-220-335-255-335Z"   vert-adv-y="1000"  />

      
      <glyph glyph-name="uni0966" unicode="&#x0966;" d="M32 363Q22 301 22 259Q22 139 82.50 71.50Q143 4 269 4Q421 4 512 101.50Q603 199 632 363Q642 423 642 466Q642 585 581.50 653Q521 721 395 721Q243 721 152 624Q61 527 32 363M413 363Q400 292 377.50 253Q355 214 306 214Q271 214 256.50 234Q242 254 242 291Q242 321 250 363Q263 434 285.50 472.50Q308 511 358 511Q421 511 421 435Q421 403 413 363Z"  horiz-adv-x="662" vert-adv-y="1000"  />

      
      <glyph glyph-name="uni0967" unicode="&#x0967;" d="M36 500L72 708L411 708L287 0L54 0L142 500L36 500Z"  horiz-adv-x="399" vert-adv-y="1000"  />

      
      <glyph glyph-name="uni0968" unicode="&#x0968;" d="M4 177Q153 276 243 353Q333 430 344 491Q345 497 345 508Q345 541 317 541Q297 541 285.50 523.50Q274 506 266 458L51 458Q66 550 112.50 610.50Q159 671 223 699Q287 727 358 727Q473 727 525 677.50Q577 628 577 550Q577 524 573 503Q557 412 479.50 331Q402 250 294 189L523 189L492 10L-25 10L4 177Z"  horiz-adv-x="566" vert-adv-y="1000"  />

      
      <glyph glyph-name="uni0969" unicode="&#x0969;" d="M366 747Q471 747 527 698.50Q583 650 583 572Q583 559 579 533Q567 468 527.50 431Q488 394 443 380L442 376Q486 359 511 322Q536 285 536 229Q536 204 532 181Q517 95 445 44Q373-7 258-7Q138-7 74 45.50Q10 98 10 204Q10 225 13 249L229 249Q224 229 224 218Q224 176 270 176Q288 176 302 187Q316 198 319 216Q321 228 321 233Q321 282 249 282L212 282L244 461L280 461Q348 457 358 515Q359 520 359 529Q359 547 350.50 555.50Q342 564 329 564Q292 564 281 502L65 502Q89 621 166.50 684Q244 747 366 747Z"  horiz-adv-x="583" vert-adv-y="1000"  />

      
      <glyph glyph-name="uni096A" unicode="&#x096A;" d="M8 110L41 295L413 720L652 720L579 302L651 302L617 110L545 110L526 0L302 0L321 110L8 110M402 467L265 302L373 302L402 467Z"  horiz-adv-x="674" vert-adv-y="1000"  />

      
      <glyph glyph-name="uni096B" unicode="&#x096B;" d="M584 536L294 536L279 452Q302 470 334 479.50Q366 489 404 489Q490 489 532.50 439.50Q575 390 575 310Q575 286 570 253Q549 133 470 66.50Q391 0 273 0Q159 0 97 50.50Q35 101 35 185Q35 206 40 234L256 234L255 225Q255 211 264 200.50Q273 190 295 190Q320 190 335 208Q350 226 356 257Q358 269 358 274Q358 295 346.50 305.50Q335 316 314 316Q293 316 280.50 306Q268 296 265 283L49 283L128 731L618 731L584 536Z"  horiz-adv-x="600" vert-adv-y="1000"  />

      
      <glyph glyph-name="uni096C" unicode="&#x096C;" d="M388 509Q388 539 378.50 553Q369 567 345 567Q307 567 288 529Q269 491 255 409Q278 437 314.50 453Q351 469 394 469Q476 469 523 424Q570 379 570 293Q570 264 564 229Q545 120 470 56.50Q395-7 283-7Q153-7 94.50 61.50Q36 130 36 252Q36 307 49 380Q72 508 113.50 588Q155 668 220.50 706Q286 744 380 744Q493 744 545 688.50Q597 633 597 546Q597 533 595 509L388 509M238 228Q238 205 251.50 194Q265 183 289 183Q321 183 340 199Q359 215 359 248Q359 272 345.50 285.50Q332 299 309 299Q278 299 258 280.50Q238 262 238 228Z"  horiz-adv-x="611" vert-adv-y="1000"  />

      
      <glyph glyph-name="uni096D" unicode="&#x096D;" d="M536 554L195 0L-33 0L306 527L50 527L83 717L565 717L536 554Z"  horiz-adv-x="502" vert-adv-y="1000"  />

      
      <glyph glyph-name="uni096E" unicode="&#x096E;" d="M94 563Q103 611 140.50 655Q178 699 243 727.50Q308 756 394 756Q471 756 523 730.50Q575 705 600 664Q625 623 625 575Q625 560 622 543Q606 452 511 402Q594 349 594 251Q594 230 589 200Q571 97 481.50 43Q392-11 258-11Q191-11 136.50 11.50Q82 34 50 79Q18 124 18 188Q18 212 22 235Q32 291 64.50 332Q97 373 153 402Q91 442 91 524Q91 542 94 563M306 515Q304 501 304 497Q304 477 314 466.50Q324 456 341 456Q361 456 376.50 471Q392 486 398 515Q399 520 399 530Q399 551 389 563.50Q379 576 362 576Q342 576 326 559.50Q310 543 306 515M237 223Q237 199 251 184.50Q265 170 291 170Q326 170 347.50 194Q369 218 369 253Q369 278 355 292.50Q341 307 315 307Q281 307 259 283Q237 259 237 223Z"  horiz-adv-x="626" vert-adv-y="1000"  />

      
      <glyph glyph-name="uni096F" unicode="&#x096F;" d="M228 228Q228 199 238.50 184.50Q249 170 273 170Q310 170 328 207.50Q346 245 361 328Q338 300 301.50 284Q265 268 222 268Q140 268 92.50 313.50Q45 359 45 445Q45 475 51 508Q70 617 148.50 680.50Q227 744 343 744Q472 744 527.50 681.50Q583 619 583 503Q583 444 568 357Q546 233 511.50 155Q477 77 414.50 35Q352-7 252-7Q168-7 115.50 27.50Q63 62 40.50 115.50Q18 169 21 228L228 228M377 510Q377 532 364 543Q351 554 327 554Q299 554 281 539.50Q263 525 258 495Q257 490 257 482Q257 461 270.50 449.50Q284 438 307 438Q337 438 357 457Q377 476 377 510Z"  horiz-adv-x="567" vert-adv-y="1000"  />

      
      <glyph glyph-name="uni0950" unicode="&#x0950;" d="M617 896Q591 896 574 913Q557 930 557 956Q557 991 583.50 1017Q610 1043 643 1043Q670 1043 687 1026Q704 1009 704 982Q704 947 678 921.50Q652 896 617 896M596 714Q485 714 423 763.50Q361 813 361 900Q361 926 365 947L526 947Q525 941 525 931Q525 898 548 878Q571 858 612 858Q658 858 689 882.50Q720 907 727 947L890 947Q873 833 797.50 773.50Q722 714 596 714M814 680Q916 680 964 635.50Q1012 591 1012 505Q1012 479 1005 433L985 321Q958 171 869.50 90.50Q781 10 649 10Q600 10 547 20L576 188Q626 182 641 182Q709 182 742.50 219.50Q776 257 788 328L812 461Q813 466 813 476Q813 508 784 508Q746 508 736 449Q721 361 692 310Q663 259 608.50 234Q554 209 463 208Q462 207 462 205Q446 115 377 62Q308 9 212 9Q114 9 59 55.50Q4 102 4 181Q4 204 8 224L198 224Q197 221 197 216Q197 202 206 192.50Q215 183 231 183Q253 183 266.50 198Q280 213 280 236Q280 255 266 266Q252 277 225 277L176 277L206 448L255 448Q283 448 302.50 461.50Q322 475 322 502Q322 516 314 524Q306 532 292 532Q275 532 263 521.50Q251 511 248 494L60 494Q71 556 107.50 604Q144 652 201 678.50Q258 705 327 705Q415 705 464 665.50Q513 626 513 556Q513 539 510 519Q500 467 468 428.50Q436 390 388 371L387 367L390 366L445 366Q479 366 498.50 373Q518 380 529 398Q540 416 547 451Q567 566 629.50 623Q692 680 814 680Z"  horiz-adv-x="1082" vert-adv-y="1000"  />

      
      <glyph glyph-name="uni0970" unicode="&#x0970;" d="M408 328Q394 253 337.50 205Q281 157 204 157Q135 157 94.50 194.50Q54 232 54 294Q54 310 57 328Q71 404 128.50 452Q186 500 264 500Q332 500 371.50 462.50Q411 425 411 363Q411 346 408 328M177 318Q177 299 190.50 287.50Q204 276 225 276Q248 276 265 290.50Q282 305 286 328Q287 331 287 338Q287 358 275 369.50Q263 381 243 381Q216 381 196.50 363Q177 345 177 318Z"  horiz-adv-x="465" vert-adv-y="1000"  />

      
      <glyph glyph-name="uni0964" unicode="&#x0964;" d="M278 0L76 0L206 740L408 740L278 0Z"  horiz-adv-x="383" vert-adv-y="1000"  />

      
      <glyph glyph-name="uni0965" unicode="&#x0965;" d="M278 0L76 0L206 740L408 740L278 0M590 0L387 0L517 740L720 740L590 0Z"  horiz-adv-x="695" vert-adv-y="1000"  />

      
      <glyph glyph-name="uni20A8" unicode="&#x20A8;" d="M671 476Q658 404 609 349.50Q560 295 481 271L588 0L344 0L255 254L210 0L-12 0L113 708L443 708Q557 708 616 657Q675 606 675 521Q675 496 671 476M876 382Q876 369 897 362.50Q918 356 965 347Q1028 336 1071 322.50Q1114 309 1146.50 279.50Q1179 250 1179 200Q1179 183 1177 173Q1168 122 1133 81Q1098 40 1040.50 16.50Q983-7 909-7Q785-7 718.50 45Q652 97 653 195L870 195Q869 174 887.50 165Q906 156 935 156Q973 156 978 178Q981 194 958 202.50Q935 211 885 219Q823 230 781.50 242.50Q740 255 709 284Q678 313 678 363Q678 377 681 393Q690 442 725 482.50Q760 523 819.50 547Q879 571 956 571Q1079 571 1141 515.50Q1203 460 1205 369L988 369Q984 407 924 407Q902 407 889 401Q876 395 876 382M281 402L369 402Q401 402 419.50 416.50Q438 431 444 462Q445 467 445 475Q445 497 431 509.50Q417 522 390 522L302 522L281 402Z"  horiz-adv-x="1229" vert-adv-y="1000"  />

      
      <glyph glyph-name="uni20B9" unicode="&#x20B9;" d="M547 563L541 530L599 530L577 406L514 406Q484 325 413 274Q342 223 235 223L231 204Q229 190 229 185Q229 155 257 155Q276 155 285.50 167.50Q295 180 300 211L505 211Q481 109 413 49.50Q345-10 238-10Q24-10 24 171Q24 206 31 242L53 365Q150 365 197 367.50Q244 370 269.50 378.50Q295 387 306 406L60 406L82 530L334 530L340 563L88 563L113 708L630 708L605 563L547 563Z"  horiz-adv-x="577" vert-adv-y="1000"  />

      
      <glyph glyph-name="uni200C" unicode="&#x200C;" d="M-23 811L24 811L24-230L-23-230L-23 811Z"   vert-adv-y="1000"  />

      
      <glyph glyph-name="uni200D" unicode="&#x200D;" d="M23 635L23-230L-24-230L-24 635L-93 562L-126 595L-33 688L-128 783L-95 816L0 721L96 816L128 784L32 688L128 593L95 560L23 635Z"   vert-adv-y="1000"  />

      
      <glyph glyph-name="uni25CC" unicode="&#x25CC;" d="M301 456Q282 456 270 467.50Q258 479 258 498Q258 517 270 528.50Q282 540 301 540Q320 540 332 528.50Q344 517 344 498Q344 479 332 467.50Q320 456 301 456M422 441Q403 441 391 452.50Q379 464 379 483Q379 502 391 513.50Q403 525 422 525Q441 525 453 513.50Q465 502 465 483Q465 464 453 452.50Q441 441 422 441M184 414Q165 414 153 425.50Q141 437 141 456Q141 475 153 486.50Q165 498 184 498Q203 498 215 486.50Q227 475 227 456Q227 437 215 425.50Q203 414 184 414M514 367Q495 367 483 378.50Q471 390 471 409Q471 428 483 439.50Q495 451 514 451Q533 451 545 439.50Q557 428 557 409Q557 390 545 378.50Q533 367 514 367M108 315Q89 315 77 326.50Q65 338 65 357Q65 376 77 387.50Q89 399 108 399Q127 399 139 387.50Q151 376 151 357Q151 338 139 326.50Q127 315 108 315M558 253Q539 253 527 264.50Q515 276 515 295Q515 314 527 325.50Q539 337 558 337Q577 337 589 325.50Q601 314 601 295Q601 276 589 264.50Q577 253 558 253M93 194Q74 194 62 205.50Q50 217 50 236Q50 255 62 266.50Q74 278 93 278Q112 278 124 266.50Q136 255 136 236Q136 217 124 205.50Q112 194 93 194M548 133Q529 133 517 144.50Q505 156 505 175Q505 194 517 205.50Q529 217 548 217Q567 217 579 205.50Q591 194 591 175Q591 156 579 144.50Q567 133 548 133M138 81Q119 81 107 92.50Q95 104 95 123Q95 142 107 153.50Q119 165 138 165Q157 165 169 153.50Q181 142 181 123Q181 104 169 92.50Q157 81 138 81M475 37Q456 37 444 48.50Q432 60 432 79Q432 98 444 109.50Q456 121 475 121Q494 121 506 109.50Q518 98 518 79Q518 60 506 48.50Q494 37 475 37M236 5Q217 5 205 16.50Q193 28 193 47Q193 66 205 77.50Q217 89 236 89Q255 89 267 77.50Q279 66 279 47Q279 28 267 16.50Q255 5 236 5M360-9Q341-9 329 2.50Q317 14 317 33Q317 52 329 63.50Q341 75 360 75Q379 75 391 63.50Q403 52 403 33Q403 14 391 2.50Q379-9 360-9Z"  horiz-adv-x="651" vert-adv-y="1000"  />

      
      <glyph glyph-name="uni21" unicode="&#x21;" d="M417 755L307 281L117 281L175 755L417 755M310 212L272 0L52 0L90 212L310 212Z"  horiz-adv-x="435" vert-adv-y="1000"  />

      
      <glyph glyph-name="uni22" unicode="&#x22;" d="M241 803L186 568L38 568L66 803L241 803M466 803L411 568L263 568L291 803L466 803Z"  horiz-adv-x="490" vert-adv-y="1000"  />

      
      <glyph glyph-name="uni23" unicode="&#x23;" d="M774 421L737 326L847 326L812 124L658 124L610 0L404 0L452 124L313 124L265 0L60 0L108 124L-33 124L2 326L187 326L224 421L87 421L123 623L302 623L348 740L553 740L507 623L646 623L692 740L898 740L852 623L968 623L932 421L774 421M568 421L429 421L392 326L531 326L568 421Z"  horiz-adv-x="933" vert-adv-y="1000"  />

      
      <glyph glyph-name="uni24" unicode="&#x24;" d="M410 491Q413 533 388 546L371 447L407 435Q472 414 513.50 395Q555 376 585 340Q615 304 615 248Q615 237 611 209Q600 149 558.50 100Q517 51 448 22Q379-7 291-7L277-87L226-87L240-5Q133 4 70 55.50Q7 107 7 197Q7 207 9 227L245 227Q241 183 271 168L288 267L266 273Q200 292 157.50 310.50Q115 329 83.50 366Q52 403 52 462Q52 484 56 504Q68 570 113 617.50Q158 665 224.50 691Q291 717 368 720L382 800L433 800L419 719Q530 713 590.50 662Q651 611 651 521Q651 511 649 491L410 491M296 514Q291 487 323 467L338 551Q300 546 296 514M373 204Q376 219 366.50 230Q357 241 336 251L321 161Q342 163 356 174Q370 185 373 204Z"  horiz-adv-x="665" vert-adv-y="1000"  />

      
      <glyph glyph-name="uni25" unicode="&#x25;" d="M265 721Q334 721 375.50 685.50Q417 650 417 582Q417 560 413 540Q397 452 339.50 406Q282 360 202 360Q132 360 90.50 395Q49 430 49 497Q49 520 53 540Q68 628 126 674.50Q184 721 265 721M804 711L305 0L93 0L592 711L804 711M198 540Q196 526 196 521Q196 489 223 489Q241 489 253 502Q265 515 269 540Q271 552 271 557Q271 592 241 592Q207 592 198 540M696 352Q766 352 806.50 317Q847 282 847 215Q847 192 843 171Q828 83 771 36.50Q714-10 633-10Q564-10 522 25.50Q480 61 480 129Q480 151 484 171Q500 259 558 305.50Q616 352 696 352M628 171Q626 157 626 152Q626 119 654 119Q671 119 683 132Q695 145 699 171Q701 185 701 189Q701 223 673 223Q656 223 644 209.50Q632 196 628 171Z"  horiz-adv-x="896" vert-adv-y="1000"  />

      
      <glyph glyph-name="uni26" unicode="&#x26;" d="M417 0L386 56Q368 41 349 31Q281-7 200-7Q100-7 48.50 43Q-3 93-3 173Q-3 198 1 218Q15 297 64 352.50Q113 408 180 426Q172 444 170 454Q166 480 166 494Q166 507 170 537Q178 584 211 624.50Q244 665 299.50 690Q355 715 425 715Q519 715 565.50 679.50Q612 644 625 584Q629 558 629 542Q629 506 619 464L413 464Q418 491 418 505Q418 519 413 525.50Q408 532 396 532Q386 532 379.50 524.50Q373 517 373 506Q373 494 386 468L638 0L417 0M296 233Q296 250 284 260Q272 270 251 270Q225 270 207.50 254.50Q190 239 190 215Q190 197 202 186.50Q214 176 235 176Q261 176 278.50 192Q296 208 296 233Z"  horiz-adv-x="700" vert-adv-y="1000"  />

      
      <glyph glyph-name="uni27" unicode="&#x27;" d="M241 803L186 568L38 568L66 803L241 803Z"  horiz-adv-x="265" vert-adv-y="1000"  />

      
      <glyph glyph-name="uni28" unicode="&#x28;" d="M14 402Q47 590 150.50 743.50Q254 897 395 993L609 993L606 972Q445 854 351 713.50Q257 573 227 402Q215 333 215 268Q215 142 262 33.50Q309-75 404-169L401-189L187-189Q101-113 51 1.50Q1 116 1 258Q1 330 14 402Z"  horiz-adv-x="429" vert-adv-y="1000"  />

      
      <glyph glyph-name="uni29" unicode="&#x29;" d="M418 403Q384 213 281 59.50Q178-94 37-189L-178-189L-175-169Q-13-51 81 90Q175 231 205 402Q217 471 217 535Q217 661 170 769.50Q123 878 27 972L30 993L245 993Q331 917 381 802Q431 687 431 546Q431 475 418 403Z"  horiz-adv-x="432" vert-adv-y="1000"  />

      
      <glyph glyph-name="uni2a" unicode="&#x2a;" d="M448 709L493 588L376 552L481 518L386 391L314 477L321 360L182 360L231 477L130 390L78 519L196 555L92 587L181 708L258 625L248 744L390 744L340 625L448 709Z"  horiz-adv-x="561" vert-adv-y="1000"  />

      
      <glyph glyph-name="uni2b" unicode="&#x2b;" d="M513 238L364 238L337 85L124 85L151 238L2 238L38 441L187 441L214 595L427 595L400 441L549 441L513 238Z"  horiz-adv-x="551" vert-adv-y="1000"  />

      
      <glyph glyph-name="uni2c" unicode="&#x2c;" d="M226 131Q245 87 245 30Q245-30 222-85Q199-140 150-175Q101-210 27-210L41-132Q69-132 84.50-120Q100-108 106-72L108-61L21-61L55 131L226 131Z"  horiz-adv-x="276" vert-adv-y="1000"  />

      
      <glyph glyph-name="uni2d" unicode="&#x2d;" d="M557 433L525 250L59 250L91 433L557 433Z"  horiz-adv-x="576" vert-adv-y="1000"  />

      
      <glyph glyph-name="uni2e" unicode="&#x2e;" d="M267 212L229 0L9 0L47 212L267 212Z"  horiz-adv-x="277" vert-adv-y="1000"  />

      
      <glyph glyph-name="uni2f" unicode="&#x2f;" d="M544 955L75-198L-138-198L332 955L544 955Z"  horiz-adv-x="399" vert-adv-y="1000"  />

      
      <glyph glyph-name="uni30" unicode="&#x30;" d="M32 363Q22 301 22 259Q22 139 82.50 71.50Q143 4 269 4Q421 4 512 101.50Q603 199 632 363Q642 423 642 466Q642 585 581.50 653Q521 721 395 721Q243 721 152 624Q61 527 32 363M413 363Q400 292 377.50 253Q355 214 306 214Q271 214 256.50 234Q242 254 242 291Q242 321 250 363Q263 434 285.50 472.50Q308 511 358 511Q421 511 421 435Q421 403 413 363Z"  horiz-adv-x="662" vert-adv-y="1000"  />

      
      <glyph glyph-name="uni31" unicode="&#x31;" d="M36 500L72 708L411 708L287 0L54 0L142 500L36 500Z"  horiz-adv-x="399" vert-adv-y="1000"  />

      
      <glyph glyph-name="uni32" unicode="&#x32;" d="M4 177Q153 276 243 353Q333 430 344 491Q345 497 345 508Q345 541 317 541Q297 541 285.50 523.50Q274 506 266 458L51 458Q66 550 112.50 610.50Q159 671 223 699Q287 727 358 727Q473 727 525 677.50Q577 628 577 550Q577 524 573 503Q557 412 479.50 331Q402 250 294 189L523 189L492 10L-25 10L4 177Z"  horiz-adv-x="566" vert-adv-y="1000"  />

      
      <glyph glyph-name="uni33" unicode="&#x33;" d="M366 747Q471 747 527 698.50Q583 650 583 572Q583 559 579 533Q567 468 527.50 431Q488 394 443 380L442 376Q486 359 511 322Q536 285 536 229Q536 204 532 181Q517 95 445 44Q373-7 258-7Q138-7 74 45.50Q10 98 10 204Q10 225 13 249L229 249Q224 229 224 218Q224 176 270 176Q288 176 302 187Q316 198 319 216Q321 228 321 233Q321 282 249 282L212 282L244 461L280 461Q348 457 358 515Q359 520 359 529Q359 547 350.50 555.50Q342 564 329 564Q292 564 281 502L65 502Q89 621 166.50 684Q244 747 366 747Z"  horiz-adv-x="583" vert-adv-y="1000"  />

      
      <glyph glyph-name="uni34" unicode="&#x34;" d="M8 110L41 295L413 720L652 720L579 302L651 302L617 110L545 110L526 0L302 0L321 110L8 110M402 467L265 302L373 302L402 467Z"  horiz-adv-x="674" vert-adv-y="1000"  />

      
      <glyph glyph-name="uni35" unicode="&#x35;" d="M584 536L294 536L279 452Q302 470 334 479.50Q366 489 404 489Q490 489 532.50 439.50Q575 390 575 310Q575 286 570 253Q549 133 470 66.50Q391 0 273 0Q159 0 97 50.50Q35 101 35 185Q35 206 40 234L256 234L255 225Q255 211 264 200.50Q273 190 295 190Q320 190 335 208Q350 226 356 257Q358 269 358 274Q358 295 346.50 305.50Q335 316 314 316Q293 316 280.50 306Q268 296 265 283L49 283L128 731L618 731L584 536Z"  horiz-adv-x="600" vert-adv-y="1000"  />

      
      <glyph glyph-name="uni36" unicode="&#x36;" d="M388 509Q388 539 378.50 553Q369 567 345 567Q307 567 288 529Q269 491 255 409Q278 437 314.50 453Q351 469 394 469Q476 469 523 424Q570 379 570 293Q570 264 564 229Q545 120 470 56.50Q395-7 283-7Q153-7 94.50 61.50Q36 130 36 252Q36 307 49 380Q72 508 113.50 588Q155 668 220.50 706Q286 744 380 744Q493 744 545 688.50Q597 633 597 546Q597 533 595 509L388 509M238 228Q238 205 251.50 194Q265 183 289 183Q321 183 340 199Q359 215 359 248Q359 272 345.50 285.50Q332 299 309 299Q278 299 258 280.50Q238 262 238 228Z"  horiz-adv-x="611" vert-adv-y="1000"  />

      
      <glyph glyph-name="uni37" unicode="&#x37;" d="M536 554L195 0L-33 0L306 527L50 527L83 717L565 717L536 554Z"  horiz-adv-x="502" vert-adv-y="1000"  />

      
      <glyph glyph-name="uni38" unicode="&#x38;" d="M94 563Q103 611 140.50 655Q178 699 243 727.50Q308 756 394 756Q471 756 523 730.50Q575 705 600 664Q625 623 625 575Q625 560 622 543Q606 452 511 402Q594 349 594 251Q594 230 589 200Q571 97 481.50 43Q392-11 258-11Q191-11 136.50 11.50Q82 34 50 79Q18 124 18 188Q18 212 22 235Q32 291 64.50 332Q97 373 153 402Q91 442 91 524Q91 542 94 563M306 515Q304 501 304 497Q304 477 314 466.50Q324 456 341 456Q361 456 376.50 471Q392 486 398 515Q399 520 399 530Q399 551 389 563.50Q379 576 362 576Q342 576 326 559.50Q310 543 306 515M237 223Q237 199 251 184.50Q265 170 291 170Q326 170 347.50 194Q369 218 369 253Q369 278 355 292.50Q341 307 315 307Q281 307 259 283Q237 259 237 223Z"  horiz-adv-x="626" vert-adv-y="1000"  />

      
      <glyph glyph-name="uni39" unicode="&#x39;" d="M228 228Q228 199 238.50 184.50Q249 170 273 170Q310 170 328 207.50Q346 245 361 328Q338 300 301.50 284Q265 268 222 268Q140 268 92.50 313.50Q45 359 45 445Q45 475 51 508Q70 617 148.50 680.50Q227 744 343 744Q472 744 527.50 681.50Q583 619 583 503Q583 444 568 357Q546 233 511.50 155Q477 77 414.50 35Q352-7 252-7Q168-7 115.50 27.50Q63 62 40.50 115.50Q18 169 21 228L228 228M377 510Q377 532 364 543Q351 554 327 554Q299 554 281 539.50Q263 525 258 495Q257 490 257 482Q257 461 270.50 449.50Q284 438 307 438Q337 438 357 457Q377 476 377 510Z"  horiz-adv-x="567" vert-adv-y="1000"  />

      
      <glyph glyph-name="uni3a" unicode="&#x3a;" d="M335 603L298 391L78 391L115 603L335 603M266 212L229 0L9 0L46 212L266 212Z"  horiz-adv-x="332" vert-adv-y="1000"  />

      
      <glyph glyph-name="uni3b" unicode="&#x3b;" d="M383 593L345 381L125 381L163 593L383 593M290 131Q309 87 309 30Q309-30 286-85Q263-140 214-175Q165-210 91-210L105-132Q133-132 148.50-120Q164-108 170-72L172-61L85-61L119 131L290 131Z"  horiz-adv-x="433" vert-adv-y="1000"  />

      
      <glyph glyph-name="uni3c" unicode="&#x3c;" d="M162 125L20 340L238 556L515 556L297 340L439 125L162 125Z"  horiz-adv-x="497" vert-adv-y="1000"  />

      
      <glyph glyph-name="uni3d" unicode="&#x3d;" d="M648 580L613 379L27 379L62 580L648 580M599 300L564 99L-22 99L13 300L599 300Z"  horiz-adv-x="626" vert-adv-y="1000"  />

      
      <glyph glyph-name="uni3e" unicode="&#x3e;" d="M58 556L335 556L477 340L259 125L-18 125L200 340L58 556Z"  horiz-adv-x="497" vert-adv-y="1000"  />

      
      <glyph glyph-name="uni3f" unicode="&#x3f;" d="M343 773Q440 773 496.50 730.50Q553 688 553 605Q553 585 548 557Q532 468 463 413.50Q394 359 298 357L285 286L77 286L115 498L199 498Q259 498 292 511.50Q325 525 331 556L332 564Q332 578 324 585.50Q316 593 303 593Q284 593 272.50 580.50Q261 568 257 548L48 548Q56 609 92.50 660.50Q129 712 193 742.50Q257 773 343 773M279 212L242 0L22 0L59 212L279 212Z"  horiz-adv-x="538" vert-adv-y="1000"  />

      
      <glyph glyph-name="uni40" unicode="&#x40;" d="M861 843Q1092 843 1224 747Q1356 651 1356 466Q1356 420 1347 367Q1329 266 1265 180Q1201 94 1111 44Q1021-6 930-6Q853-6 806 26Q759 58 752 121Q709 59 656 26.50Q603-6 531-6Q452-6 406 41.50Q360 89 360 172Q360 224 377 278Q402 362 460.50 428Q519 494 600 530.50Q681 567 772 567Q869 567 927.50 526Q986 485 986 404Q986 370 974 326L954 258Q946 231 946 217Q946 201 954.50 194Q963 187 980 187Q1007 187 1035 205.50Q1063 224 1086.50 262.50Q1110 301 1120 359Q1125 385 1125 419Q1125 533 1040.50 598Q956 663 795 663Q644 663 528 605.50Q412 548 340.50 449Q269 350 248 227Q241 192 241 153Q241 31 326.50-38.50Q412-108 592-106L519-285Q274-282 149-176.50Q24-71 24 115Q24 171 34 227Q69 423 193.50 562Q318 701 494.50 772Q671 843 861 843M645 187Q676 187 707 208Q738 229 753 282Q759 300 759 321Q759 352 740.50 364Q722 376 698 376Q666 376 635 355Q604 334 589 281Q582 260 582 242Q582 212 601 199.50Q620 187 645 187Z"  horiz-adv-x="1353" vert-adv-y="1000"  />

      
      <glyph glyph-name="uni41" unicode="&#x41;" d="M461 107L225 107L171 0L-62 0L321 708L577 708L711 0L477 0L461 107M436 274L407 471L308 274L436 274Z"  horiz-adv-x="773" vert-adv-y="1000"  />

      
      <glyph glyph-name="uni42" unicode="&#x42;" d="M673 524Q662 462 622 419.50Q582 377 526 363Q578 350 606 313Q634 276 634 227Q634 211 631 194Q614 101 544 50.50Q474 0 359 0L-12 0L112 708L473 708Q570 708 623.50 671Q677 634 677 562Q677 550 673 524M439 481Q441 491 441 495Q441 532 389 532L303 532L286 432L372 432Q402 432 418.50 444Q435 456 439 481M410 227Q411 232 411 240Q411 278 360 278L259 278L241 178L342 178Q373 178 389.50 189.50Q406 201 410 227Z"  horiz-adv-x="684" vert-adv-y="1000"  />

      
      <glyph glyph-name="uni43" unicode="&#x43;" d="M443 715Q535 715 601.50 680.50Q668 646 703 583Q738 520 737 436L503 436Q494 471 467.50 490.50Q441 510 403 510Q347 510 307.50 468Q268 426 255 355Q251 335 251 312Q251 260 276.50 230Q302 200 349 200Q387 200 420 219.50Q453 239 475 274L709 274Q664 147 559.50 71Q455-5 317-5Q224-5 158 30Q92 65 57.50 128.50Q23 192 23 276Q23 316 30 355Q48 460 105 542Q162 624 249 669.50Q336 715 443 715Z"  horiz-adv-x="753" vert-adv-y="1000"  />

      
      <glyph glyph-name="uni44" unicode="&#x44;" d="M713 356Q695 255 636 174Q577 93 485.50 46.50Q394 0 283 0L-12 0L112 708L407 708Q505 708 575 672.50Q645 637 682 573.50Q719 510 719 427Q719 394 713 356M297 198Q372 198 423.50 239Q475 280 488 356Q492 382 492 394Q492 452 455 483Q418 514 353 514L300 514L244 198L297 198Z"  horiz-adv-x="743" vert-adv-y="1000"  />

      
      <glyph glyph-name="uni45" unicode="&#x45;" d="M303 532L288 444L508 444L478 277L258 277L241 177L491 177L460 0L-12 0L112 708L584 708L553 532L303 532Z"  horiz-adv-x="556" vert-adv-y="1000"  />

      
      <glyph glyph-name="uni46" unicode="&#x46;" d="M612 708L581 532L303 532L286 434L486 434L457 267L257 267L210 0L-12 0L112 708L612 708Z"  horiz-adv-x="575" vert-adv-y="1000"  />

      
      <glyph glyph-name="uni47" unicode="&#x47;" d="M451 715Q542 715 606 683Q670 651 702.50 594.50Q735 538 738 466L504 466Q495 487 473 498.50Q451 510 417 510Q353 510 310.50 468.50Q268 427 255 355Q250 327 250 307Q250 248 283 219Q316 190 385 190Q462 190 520 252L343 252L371 409L732 409L693 187Q574-5 327-5Q232-5 163.50 31Q95 67 59 132.50Q23 198 23 285Q23 326 30 365Q48 467 105.50 546.50Q163 626 252.50 670.50Q342 715 451 715Z"  horiz-adv-x="752" vert-adv-y="1000"  />

      
      <glyph glyph-name="uni48" unicode="&#x48;" d="M767 708L643 0L421 0L469 276L258 276L210 0L-12 0L112 708L334 708L289 453L500 453L545 708L767 708Z"  horiz-adv-x="755" vert-adv-y="1000"  />

      
      <glyph glyph-name="uni49" unicode="&#x49;" d="M334 708L210 0L-12 0L112 708L334 708Z"  horiz-adv-x="322" vert-adv-y="1000"  />

      
      <glyph glyph-name="uni4a" unicode="&#x4a;" d="M607 708L526 251Q504 124 426 58.50Q348-7 228-7Q117-7 53.50 46.50Q-10 100-10 204Q-10 235-4 271L215 271Q212 253 212 240Q212 193 253 193Q273 193 286 206Q299 219 305 251L386 708L607 708Z"  horiz-adv-x="590" vert-adv-y="1000"  />

      
      <glyph glyph-name="uni4b" unicode="&#x4b;" d="M485 364L683 0L416 0L264 307L210 0L-12 0L112 708L334 708L282 409L542 708L807 708L485 364Z"  horiz-adv-x="755" vert-adv-y="1000"  />

      
      <glyph glyph-name="uni4c" unicode="&#x4c;" d="M239 168L453 168L424 0L-12 0L112 708L334 708L239 168Z"  horiz-adv-x="506" vert-adv-y="1000"  />

      
      <glyph glyph-name="uni4d" unicode="&#x4d;" d="M963 708L839 0L618 0L680 354L509 0L319 0L272 353L210 0L-12 0L112 708L384 708L466 284L692 708L963 708Z"  horiz-adv-x="951" vert-adv-y="1000"  />

      
      <glyph glyph-name="uni4e" unicode="&#x4e;" d="M667 0L445 0L272 356L210 0L-12 0L112 708L334 708L506 346L569 708L791 708L667 0Z"  horiz-adv-x="779" vert-adv-y="1000"  />

      
      <glyph glyph-name="uni4f" unicode="&#x4f;" d="M421 720Q522 720 596 680.50Q670 641 709 569.50Q748 498 748 404Q748 365 740 317Q723 222 671 148.50Q619 75 537.50 34Q456-7 353-7Q249-7 175 32Q101 71 62.50 142Q24 213 24 307Q24 356 32 397Q49 492 101.50 565Q154 638 236 679Q318 720 421 720M405 515Q342 515 301 475.50Q260 436 248 367Q244 347 244 324Q244 266 275.50 233Q307 200 369 200Q431 200 472.50 240Q514 280 525 347Q529 368 529 391Q529 450 497.50 482.50Q466 515 405 515Z"  horiz-adv-x="772" vert-adv-y="1000"  />

      
      <glyph glyph-name="uni50" unicode="&#x50;" d="M249 225L210 0L-12 0L112 708L422 708Q536 708 595 657Q654 606 654 517Q654 495 649 465Q637 398 596.50 343.50Q556 289 489.50 257Q423 225 337 225L249 225M343 400Q412 400 424 465Q425 471 425 481Q425 530 366 530L303 530L280 400L343 400Z"  horiz-adv-x="649" vert-adv-y="1000"  />

      
      <glyph glyph-name="uni51" unicode="&#x51;" d="M740 317Q725 232 681.50 164Q638 96 572 53L667-115L405-115L359-7L353-7Q249-7 175 32Q101 71 62.50 142Q24 213 24 307Q24 356 32 397Q49 492 101.50 565Q154 638 236 679Q318 720 421 720Q522 720 596 680.50Q670 641 709 569.50Q748 498 748 404Q748 365 740 317M248 367Q244 347 244 324Q244 266 275.50 233Q307 200 369 200Q431 200 472.50 240Q514 280 525 347Q529 368 529 391Q529 450 497.50 482.50Q466 515 405 515Q342 515 301 475.50Q260 436 248 367Z"  horiz-adv-x="772" vert-adv-y="1000"  />

      
      <glyph glyph-name="uni52" unicode="&#x52;" d="M442 708Q556 708 615.50 656.50Q675 605 675 520Q675 496 671 476Q658 404 608.50 349.50Q559 295 481 271L588 0L344 0L254 254L210 0L-12 0L112 708L442 708M280 402L368 402Q433 402 443 462Q444 467 444 475Q444 497 430.50 509.50Q417 522 390 522L302 522L280 402Z"  horiz-adv-x="670" vert-adv-y="1000"  />

      
      <glyph glyph-name="uni53" unicode="&#x53;" d="M569 179Q560 127 522.50 84.50Q485 42 424 17.50Q363-7 285-7Q154-7 81 54Q8 115 7 227L243 227Q237 166 287 166Q306 166 319 177Q332 188 332 209Q332 233 308.50 249Q285 265 234 287Q178 310 140.50 332.50Q103 355 76 394.50Q49 434 49 493Q49 514 54 544Q69 628 147.50 674Q226 720 333 720Q470 720 537 660Q604 600 607 491L368 491Q373 547 332 547Q316 547 304.50 536.50Q293 526 293 506Q293 484 315.50 469.50Q338 455 387 435Q444 412 481.50 390.50Q519 369 546.50 329.50Q574 290 574 230Q574 209 569 179Z"  horiz-adv-x="621" vert-adv-y="1000"  />

      
      <glyph glyph-name="uni54" unicode="&#x54;" d="M668 708L637 532L449 532L356 0L134 0L227 532L41 532L72 708L668 708Z"  horiz-adv-x="616" vert-adv-y="1000"  />

      
      <glyph glyph-name="uni55" unicode="&#x55;" d="M330 708L260 309Q257 293 257 276Q257 242 275 222.50Q293 203 332 203Q380 203 408 231.50Q436 260 445 309L515 708L736 708L666 309Q648 208 593 136.50Q538 65 459 29Q380-7 290-7Q171-7 101.50 55Q32 117 32 233Q32 271 39 309L109 708L330 708Z"  horiz-adv-x="719" vert-adv-y="1000"  />

      
      <glyph glyph-name="uni56" unicode="&#x56;" d="M298 708L359 221L589 708L825 708L463 0L176 0L62 708L298 708Z"  horiz-adv-x="763" vert-adv-y="1000"  />

      
      <glyph glyph-name="uni57" unicode="&#x57;" d="M1132 708L846 0L570 0L558 402L406 0L130 0L92 708L331 708L317 262L491 708L733 708L750 262L893 708L1132 708Z"  horiz-adv-x="1100" vert-adv-y="1000"  />

      
      <glyph glyph-name="uni58" unicode="&#x58;" d="M516 350L702 0L439 0L341 184L201 0L-52 0L245 365L62 708L325 708L419 531L554 708L807 708L516 350Z"  horiz-adv-x="764" vert-adv-y="1000"  />

      
      <glyph glyph-name="uni59" unicode="&#x59;" d="M792 708L451 215L414 0L192 0L229 215L62 708L316 708L385 457L542 708L792 708Z"  horiz-adv-x="730" vert-adv-y="1000"  />

      
      <glyph glyph-name="uni5a" unicode="&#x5a;" d="M265 177L549 177L518 0L-12 0L17 167L361 532L81 532L112 708L642 708L613 541L265 177Z"  horiz-adv-x="630" vert-adv-y="1000"  />

      
      <glyph glyph-name="uni5b" unicode="&#x5b;" d="M579 955L547 777L373 777L233-21L407-21L375-199L-7-199L197 955L579 955Z"  horiz-adv-x="533" vert-adv-y="1000"  />

      
      <glyph glyph-name="uni5c" unicode="&#x5c;" d="M338-198L302 955L514 955L550-198L338-198Z"  horiz-adv-x="878" vert-adv-y="1000"  />

      
      <glyph glyph-name="uni5d" unicode="&#x5d;" d="M-48-199L-16-21L159-21L299 777L124 777L156 955L538 955L334-199L-48-199Z"  horiz-adv-x="530" vert-adv-y="1000"  />

      
      <glyph glyph-name="uni5e" unicode="&#x5e;" d="M197 162L-23 162L319 711L537 711L685 162L465 162L384 460L197 162Z"  horiz-adv-x="758" vert-adv-y="1000"  />

      
      <glyph glyph-name="uni5f" unicode="&#x5f;" d="M683-42L645-258L-30-258L8-42L683-42Z"  horiz-adv-x="734" vert-adv-y="1000"  />

      
      <glyph glyph-name="uni60" unicode="&#x60;" d="M332 750L306 602L64 696L93 860L332 750Z"  horiz-adv-x="324" vert-adv-y="1000"  />

      
      <glyph glyph-name="uni61" unicode="&#x61;" d="M297 571Q356 571 395 548.50Q434 526 448 487L462 564L683 564L583 0L362 0L376 77Q348 38 304 15.50Q260-7 205-7Q116-7 65.50 51.50Q15 110 15 215Q15 252 23 302Q38 385 78.50 446Q119 507 176.50 539Q234 571 297 571M347 377Q311 377 283.50 352Q256 327 248 282Q246 273 246 258Q246 224 264 205.50Q282 187 313 187Q349 187 376.50 212Q404 237 412 282Q414 291 414 306Q414 340 396 358.50Q378 377 347 377Z"  horiz-adv-x="683" vert-adv-y="1000"  />

      
      <glyph glyph-name="uni62" unicode="&#x62;" d="M0 0L131 740L353 740L308 487Q336 526 379.50 548.50Q423 571 478 571Q563 571 615 514Q667 457 667 356Q667 318 660 282Q644 193 602 127.50Q560 62 501 27.50Q442-7 376-7Q321-7 285.50 15.50Q250 38 236 77L222 0L0 0M336 187Q372 187 399.50 212Q427 237 435 282Q437 291 437 306Q437 340 419 358.50Q401 377 370 377Q334 377 306.50 352Q279 327 271 282Q269 273 269 258Q269 224 287 205.50Q305 187 336 187Z"  horiz-adv-x="682" vert-adv-y="1000"  />

      
      <glyph glyph-name="uni63" unicode="&#x63;" d="M351 571Q465 571 532.50 509Q600 447 601 337L366 337Q359 381 322 381Q295 381 275.50 356Q256 331 247 282Q243 254 243 245Q243 214 255 198.50Q267 183 288 183Q326 183 346 227L581 227Q542 117 455.50 55Q369-7 259-7Q148-7 81.50 56.50Q15 120 15 231Q15 258 22 302Q37 384 83.50 445Q130 506 199.50 538.50Q269 571 351 571Z"  horiz-adv-x="616" vert-adv-y="1000"  />

      
      <glyph glyph-name="uni64" unicode="&#x64;" d="M713 740L582 0L360 0L374 77Q346 38 302.50 15.50Q259-7 204-7Q119-7 67 53.50Q15 114 15 221Q15 261 22 302Q37 385 77.50 446Q118 507 175.50 539Q233 571 296 571Q355 571 393.50 548.50Q432 526 446 487L491 740L713 740M346 377Q310 377 282.50 352Q255 327 247 282Q245 273 245 258Q245 224 263 205.50Q281 187 312 187Q348 187 375.50 212Q403 237 411 282Q413 291 413 306Q413 340 395 358.50Q377 377 346 377Z"  horiz-adv-x="676" vert-adv-y="1000"  />

      
      <glyph glyph-name="uni65" unicode="&#x65;" d="M358 571Q470 571 536 511.50Q602 452 602 349Q602 320 596 287Q590 260 583 243L229 243Q228 236 228 223Q228 193 240.50 181.50Q253 170 276 170Q313 170 334 203L569 203Q534 110 450.50 51.50Q367-7 256-7Q145-7 80 54.50Q15 116 15 225Q15 257 21 293Q36 378 84 441Q132 504 203 537.50Q274 571 358 571M379 334Q380 339 380 349Q380 373 365 385Q350 397 327 397Q267 397 246 334L379 334Z"  horiz-adv-x="617" vert-adv-y="1000"  />

      
      <glyph glyph-name="uni66" unicode="&#x66;" d="M411 604Q393 606 387 606Q361 606 346 596Q331 586 323 564L404 564L372 379L289 379L222 0L0 0L66 379L7 379L39 564L99 564Q120 674 198.50 734.50Q277 795 399 795Q413 795 445 793L411 604Z"  horiz-adv-x="385" vert-adv-y="1000"  />

      
      <glyph glyph-name="uni67" unicode="&#x67;" d="M205-7Q120-7 68 53.50Q16 114 16 221Q16 261 23 302Q38 385 78.50 446Q119 507 176.50 539Q234 571 297 571Q356 571 395 548.50Q434 526 448 487L462 564L683 564L585 10Q563-114 481.50-195.50Q400-277 256-277Q123-277 52.50-214Q-18-151-18-41L200-41Q202-85 264-85Q303-85 328.50-65Q354-45 364 10L376 77Q348 38 304 15.50Q260-7 205-7M347 377Q311 377 283.50 352Q256 327 248 282Q246 273 246 258Q246 224 264 205.50Q282 187 313 187Q349 187 376.50 212Q404 237 412 282Q414 291 414 306Q414 340 396 358.50Q378 377 347 377Z"  horiz-adv-x="679" vert-adv-y="1000"  />

      
      <glyph glyph-name="uni68" unicode="&#x68;" d="M495 568Q576 568 620 521Q664 474 664 391Q664 362 658 327L601 0L380 0L432 299Q434 315 434 321Q434 352 417 369Q400 386 369 386Q335 386 310.50 366Q286 346 276 310L222 0L0 0L130 740L352 740L306 479Q340 519 388 543.50Q436 568 495 568Z"  horiz-adv-x="696" vert-adv-y="1000"  />

      
      <glyph glyph-name="uni69" unicode="&#x69;" d="M108 700Q108 735 127.50 764.50Q147 794 181.50 811.50Q216 829 258 829Q309 829 338 803.50Q367 778 367 738Q367 703 348 673.50Q329 644 295 626.50Q261 609 219 609Q167 609 137.50 634.50Q108 660 108 700M321 564L222 0L0 0L99 564L321 564Z"  horiz-adv-x="320" vert-adv-y="1000"  />

      
      <glyph glyph-name="uni6a" unicode="&#x6a;" d="M225 609Q173 609 143.50 634.50Q114 660 114 700Q114 735 133.50 764.50Q153 794 187.50 811.50Q222 829 264 829Q315 829 344 803.50Q373 778 373 738Q373 703 354 673.50Q335 644 301 626.50Q267 609 225 609M-94-81L-51-81Q-29-81-18-72Q-7-63-3-43L104 564L326 564L219-39Q179-270-53-270L-127-270L-94-81Z"  horiz-adv-x="320" vert-adv-y="1000"  />

      
      <glyph glyph-name="uni6b" unicode="&#x6b;" d="M458 288L615 0L361 0L263 233L222 0L0 0L130 740L352 740L285 360L462 564L720 564L458 288Z"  horiz-adv-x="676" vert-adv-y="1000"  />

      
      <glyph glyph-name="uni6c" unicode="&#x6c;" d="M352 740L222 0L0 0L130 740L352 740Z"  horiz-adv-x="317" vert-adv-y="1000"  />

      
      <glyph glyph-name="uni6d" unicode="&#x6d;" d="M853 568Q945 568 994 519.50Q1043 471 1043 386Q1043 353 1038 327L980 0L759 0L812 299Q813 305 813 315Q813 344 795.50 360Q778 376 746 376Q710 376 686 356.50Q662 337 655 303L601 0L380 0L433 299Q434 305 434 315Q434 344 416.50 360Q399 376 367 376Q330 376 305.50 355.50Q281 335 275 299L275 304L222 0L0 0L99 564L321 564L308 487Q338 523 383 545.50Q428 568 485 568Q546 568 588.50 541.50Q631 515 650 466Q689 511 741.50 539.50Q794 568 853 568Z"  horiz-adv-x="1076" vert-adv-y="1000"  />

      
      <glyph glyph-name="uni6e" unicode="&#x6e;" d="M495 568Q577 568 621 520.50Q665 473 665 389Q665 360 659 327L601 0L380 0L433 299Q435 313 435 320Q435 351 417.50 368.50Q400 386 369 386Q332 386 307 362.50Q282 339 275 299L275 304L222 0L0 0L99 564L321 564L306 478Q340 518 387.50 543Q435 568 495 568Z"  horiz-adv-x="697" vert-adv-y="1000"  />

      
      <glyph glyph-name="uni6f" unicode="&#x6f;" d="M364 571Q440 571 499 542Q558 513 590.50 458Q623 403 623 328Q623 297 617 262Q602 180 553.50 119Q505 58 433 25.50Q361-7 278-7Q200-7 140.50 22.50Q81 52 48 107Q15 162 15 237Q15 268 21 302Q36 384 85 445Q134 506 207 538.50Q280 571 364 571M336 379Q305 379 280 354.50Q255 330 246 282Q243 266 243 253Q243 219 259 202Q275 185 302 185Q333 185 358 209.50Q383 234 392 282Q395 297 395 311Q395 345 378.50 362Q362 379 336 379Z"  horiz-adv-x="638" vert-adv-y="1000"  />

      
      <glyph glyph-name="uni70" unicode="&#x70;" d="M477 571Q562 571 614 514Q666 457 666 356Q666 318 659 282Q643 193 601 127.50Q559 62 500 27.50Q441-7 375-7Q320-7 284.50 15.50Q249 38 235 77L174-270L-48-270L99 564L321 564L307 487Q335 526 378.50 548.50Q422 571 477 571M335 187Q371 187 398.50 212Q426 237 434 282Q436 291 436 306Q436 340 418 358.50Q400 377 369 377Q333 377 305.50 352Q278 327 270 282Q268 273 268 258Q268 224 286 205.50Q304 187 335 187Z"  horiz-adv-x="681" vert-adv-y="1000"  />

      
      <glyph glyph-name="uni71" unicode="&#x71;" d="M682 564L535-270L314-270L373 62Q336 27 300 10.50Q264-6 221-6Q124-6 69.50 55.50Q15 117 15 222Q15 260 22 298Q36 384 80 445Q124 506 185 537Q246 568 312 568Q361 568 395.50 555.50Q430 543 452 514L461 564L682 564M346 376Q316 376 285.50 351.50Q255 327 247 278Q245 269 245 255Q245 219 265.50 203Q286 187 313 187Q344 187 373.50 210Q403 233 411 282Q413 291 413 306Q413 342 392.50 359Q372 376 346 376Z"  horiz-adv-x="675" vert-adv-y="1000"  />

      
      <glyph glyph-name="uni72" unicode="&#x72;" d="M303 460Q346 509 400 538.50Q454 568 507 568L465 331L402 331Q339 331 305.50 309Q272 287 263 231L222 0L0 0L99 564L321 564L303 460Z"  horiz-adv-x="467" vert-adv-y="1000"  />

      
      <glyph glyph-name="uni73" unicode="&#x73;" d="M298 571Q424 571 490.50 515.50Q557 460 567 369L350 369Q345 417 279 417Q259 417 247.50 412Q236 407 236 394Q236 380 257.50 371.50Q279 363 325 352Q390 336 433 319.50Q476 303 508.50 269Q541 235 541 180Q541 160 537 143Q524 76 457.50 34.50Q391-7 277-7Q158-7 85 45.50Q12 98 5 195L222 195Q220 168 241 157Q262 146 295 146Q333 146 338 168Q341 184 320.50 193Q300 202 250 213Q187 227 144.50 243Q102 259 70 292.50Q38 326 38 381Q38 393 42 419Q53 485 119 528Q185 571 298 571Z"  horiz-adv-x="579" vert-adv-y="1000"  />

      
      <glyph glyph-name="uni74" unicode="&#x74;" d="M285 227Q284 223 284 217Q284 189 320 189L373 189L339 0L255 0Q58 0 58 167Q58 197 64 231L90 379L20 379L53 564L123 564L147 700L369 700L345 564L437 564L404 379L312 379L285 227Z"  horiz-adv-x="436" vert-adv-y="1000"  />

      
      <glyph glyph-name="uni75" unicode="&#x75;" d="M687 564L588 0L366 0L381 86Q347 46 299.50 21Q252-4 192-4Q110-4 66 43.50Q22 91 22 175Q22 204 28 237L86 564L307 564L254 265Q252 251 252 244Q252 213 269.50 195.50Q287 178 318 178Q355 178 380 201.50Q405 225 412 265L412 260L465 564L687 564Z"  horiz-adv-x="687" vert-adv-y="1000"  />

      
      <glyph glyph-name="uni76" unicode="&#x76;" d="M293 211L446 564L682 564L394 0L117 0L29 564L265 564L293 211Z"  horiz-adv-x="641" vert-adv-y="1000"  />

      
      <glyph glyph-name="uni77" unicode="&#x77;" d="M936 564L702 0L452 0L440 318L312 0L62 0L29 564L249 564L236 221L369 564L606 564L622 217L731 564L936 564Z"  horiz-adv-x="883" vert-adv-y="1000"  />

      
      <glyph glyph-name="uni78" unicode="&#x78;" d="M442 274L598 0L350 0L278 127L184 0L-60 0L182 297L30 564L278 564L350 436L445 564L689 564L442 274Z"  horiz-adv-x="648" vert-adv-y="1000"  />

      
      <glyph glyph-name="uni79" unicode="&#x79;" d="M271 564L326 278L476 564L721 564L212-270L-31-270L164 28L24 564L271 564Z"  horiz-adv-x="667" vert-adv-y="1000"  />

      
      <glyph glyph-name="uni7a" unicode="&#x7a;" d="M246 184L481 184L448 0L-30 0L1 174L252 380L40 380L73 564L538 564L507 390L246 184Z"  horiz-adv-x="518" vert-adv-y="1000"  />

      
      <glyph glyph-name="uni7b" unicode="&#x7b;" d="M247 371Q291 363 312.50 340.50Q334 318 334 277Q334 262 331 242Q325 212 307 148Q289 93 282 52Q275 14 275-21Q275-92 303-137Q331-182 378-201L375-217L148-217Q114-201 83-153.50Q52-106 52-23Q52 14 59 55Q65 93 85 152Q88 161 96.50 190.50Q105 220 110 248Q112 260 112 267Q112 297 92.50 316.50Q73 336 31 336L43 408Q94 408 120.50 433Q147 458 154 496Q160 530 162 589Q164 652 171 689Q186 773 220.50 831Q255 889 291 919Q327 949 356 961L583 961L580 945Q513 921 462.50 858Q412 795 394 692Q388 651 386 597Q386 590 384 560Q382 530 377 502Q367 444 336 414Q305 384 247 373L247 371Z"  horiz-adv-x="513" vert-adv-y="1000"  />

      
      <glyph glyph-name="uni7c" unicode="&#x7c;" d="M156-144L-66-144L106 828L328 828L156-144Z"  horiz-adv-x="262" vert-adv-y="1000"  />

      
      <glyph glyph-name="uni7d" unicode="&#x7d;" d="M268 373Q222 382 200 401.50Q178 421 178 457Q178 473 180 482Q185 511 204 575Q224 636 230 672Q237 716 237 745Q237 820 209.50 873.50Q182 927 137 945L140 961L366 961Q400 945 431 897.50Q462 850 462 767Q462 730 455 689Q449 651 429 592Q426 583 417.50 553.50Q409 524 404 496Q402 484 402 476Q402 447 419 427Q436 407 470 407L483 408L471 336Q466 337 456 337Q416 337 391 310Q366 283 360 248Q354 214 352 155Q350 92 343 55Q328-29 293.50-87Q259-145 223-175Q187-205 158-217L-68-217L-65-201Q-23-186 16-147Q55-108 83.50-51Q112 6 124 72Q129 100 130.50 130Q132 160 133 168Q135 222 142 262Q150 310 180.50 335.50Q211 361 268 371L268 373Z"  horiz-adv-x="489" vert-adv-y="1000"  />

      
      <glyph glyph-name="uni7e" unicode="&#x7e;" d="M278 445Q314 445 342 434.50Q370 424 403 405Q429 391 444.50 384.50Q460 378 477 378Q504 378 520.50 394Q537 410 548 447L714 447Q669 311 596 247Q523 183 432 183Q396 183 369 193.50Q342 204 308 223Q282 237 266 243.50Q250 250 233 250Q206 250 189.50 234Q173 218 161 181L-3 181Q43 317 115 381Q187 445 278 445Z"  horiz-adv-x="711" vert-adv-y="1000"  />

      
      <glyph glyph-name="unia1" unicode="&#xa1;" d="M21.39-184L137.88 290L339.09 290L277.67-184L21.39-184M134.70 359L174.95 571L407.93 571L367.69 359L134.70 359Z"  horiz-adv-x="463" vert-adv-y="1000"  />

      
      <glyph glyph-name="unia2" unicode="&#xa2;" d="M316 337Q282 337 260.50 315Q239 293 232 253Q230 244 230 228Q230 170 286 170Q304 170 322 179Q340 188 348 205L551 205Q530 116 460 61.50Q390 7 299-5L285-83L194-83L208-6Q116 5 65.50 56Q15 107 15 195Q15 228 20 254Q40 367 114 433.50Q188 500 299 511L312 589L403 589L390 511Q469 501 519.50 454Q570 407 570 329Q570 320 568 302L365 302Q361 321 347 329Q333 337 316 337Z"  horiz-adv-x="579" vert-adv-y="1000"  />

      
      <glyph glyph-name="unia3" unicode="&#xa3;" d="M455 531Q458 591 411 591Q359 591 347 522Q345 506 345 496Q345 475 351 421L519 421L493 274L342 274Q317 204 262 165L597 165L566-6L14-6L6 98Q59 134 89.50 175.50Q120 217 135 274L32 274L58 421L135 421Q133 449 133 466Q133 507 140 548Q158 652 239.50 711.50Q321 771 435 771Q547 771 604 716Q661 661 661 569Q661 557 659 531L455 531Z"  horiz-adv-x="659" vert-adv-y="1000"  />

      
      <glyph glyph-name="unia4" unicode="&#xa4;" d="M512 491Q535 457 535 412Q535 397 532 379Q520 314 474 268L515 219L420 138L365 206Q323 193 271 193Q220 193 178 207L97 138L32 219L93 271Q73 303 73 345Q73 361 76 379Q88 444 132 488L88 541L183 622L243 549Q287 561 336 561Q381 561 422 550L506 622L571 541L512 491M245 377Q244 372 244 364Q244 341 257.50 330.50Q271 320 293 320Q321 320 342 338Q363 356 363 393Q363 415 349.50 425.50Q336 436 314 436Q289 436 270 422Q251 408 245 377Z"  horiz-adv-x="603" vert-adv-y="1000"  />

      
      <glyph glyph-name="unia5" unicode="&#xa5;" d="M615 452L692 452L667 308L515 308L490 272L661 272L635 128L436 128L414 0L192 0L214 128L13 128L39 272L210 272L197 308L45 308L70 452L149 452L62 708L316 708L379 424L542 708L792 708L615 452Z"  horiz-adv-x="730" vert-adv-y="1000"  />

      
      <glyph glyph-name="unia6" unicode="&#xa6;" d="M191 828L413 828L337 398L115 398L191 828M241-144L19-144L95 287L317 287L241-144Z"  horiz-adv-x="432" vert-adv-y="1000"  />

      
      <glyph glyph-name="unia7" unicode="&#xa7;" d="M370 513Q372 531 372 537Q372 567 356 567Q347 567 341 558.50Q335 550 335 534Q335 511 362 489.50Q389 468 464 427Q577 358 577 269Q577 262 575 244Q567 198 539 162.50Q511 127 453 101Q488 53 488-7Q488-26 485-44Q470-130 396.50-182.50Q323-235 207-235Q108-235 56.50-185.50Q5-136 5-53Q5-34 6-25L225-25Q223-43 223-49Q223-79 239-79Q248-79 254-71Q260-63 260-46Q260-23 233.50-1.50Q207 20 131 62Q19 126 19 218Q19 235 21 244Q39 348 142 388Q107 434 107 495Q107 514 110 532Q125 618 198.50 670.50Q272 723 388 723Q487 723 538.50 673.50Q590 624 590 541Q590 522 589 513L370 513M340 261Q340 299 310 299Q288 299 272.50 278.50Q257 258 257 228Q257 189 287 189Q310 189 325 210Q340 231 340 261Z"  horiz-adv-x="595" vert-adv-y="1000"  />

      
      <glyph glyph-name="unia8" unicode="&#xa8;" d="M68 689Q68 732 98.50 762Q129 792 170 792Q203 792 223.50 772.50Q244 753 244 722Q244 680 213 650Q182 620 140 620Q109 620 88.50 639.50Q68 659 68 689M293 689Q293 732 323.50 762Q354 792 395 792Q428 792 448.50 772.50Q469 753 469 722Q469 680 438 650Q407 620 365 620Q334 620 313.50 639.50Q293 659 293 689Z"  horiz-adv-x="417" vert-adv-y="1000"  />

      
      <glyph glyph-name="unia9" unicode="&#xa9;" d="M450 720Q346 720 257 674Q168 628 108.50 545.50Q49 463 30 358Q23 322 23 283Q23 197 59.50 131.50Q96 66 163.50 30Q231-6 322-6Q426-6 515 40.50Q604 87 663.50 170Q723 253 741 358Q748 396 748 435Q748 520 712 584.50Q676 649 608.50 684.50Q541 720 450 720M439 655Q552 655 615 594.50Q678 534 678 428Q678 394 672 358Q656 268 609 200.50Q562 133 491 96Q420 59 333 59Q219 59 156.50 120.50Q94 182 94 288Q94 322 100 358Q116 448 162.50 515Q209 582 280 618.50Q351 655 439 655M429 578Q482 578 524 556Q566 534 588.50 493Q611 452 609 398L425 398Q421 433 393 433Q348 433 335 357Q332 341 332 328Q332 281 367 281Q395 281 411 316L595 316Q568 234 500.50 185Q433 136 351 136Q262 136 211 182Q160 228 160 309Q160 334 164 357Q182 458 254.50 518Q327 578 429 578Z"  horiz-adv-x="771" vert-adv-y="1000"  />

      
      <glyph glyph-name="uniaa" unicode="&#xaa;" d="M216 712Q256 712 280.50 699Q305 686 319 658L328 708L492 708L430 355L266 355L275 404Q250 376 222 363Q194 350 154 350Q92 350 54 385.50Q16 421 16 486Q16 509 20 530Q35 616 89.50 664Q144 712 216 712M252 582Q226 582 207 564.50Q188 547 188 518Q188 499 200.50 490Q213 481 234 481Q260 481 279 497Q298 513 298 542Q298 561 285 571.50Q272 582 252 582Z"  horiz-adv-x="461" vert-adv-y="1000"  />

      
      <glyph glyph-name="uniab" unicode="&#xab;" d="M91 120L45 295L153 470L354 470L244 295L292 120L91 120M346 120L300 295L408 470L609 470L499 295L547 120L346 120Z"  horiz-adv-x="618" vert-adv-y="1000"  />

      
      <glyph glyph-name="uniac" unicode="&#xac;" d="M755 448L703 155L481 155L504 282L18 282L47 448L755 448Z"  horiz-adv-x="794" vert-adv-y="1000"  />

      
      <glyph glyph-name="uniad" unicode="&#xad;" d="M557 433L525 250L59 250L91 433L557 433Z"  horiz-adv-x="576" vert-adv-y="1000"  />

      
      <glyph glyph-name="uniae" unicode="&#xae;" d="M474 720Q572 720 645 684Q718 648 757 582.50Q796 517 796 431Q796 402 789 358Q771 252 708.50 169.50Q646 87 551.50 40.50Q457-6 346-6Q247-6 174.50 30.50Q102 67 63 133.50Q24 200 24 287Q24 321 30 358Q49 463 111.50 545.50Q174 628 268 674Q362 720 474 720M720 358Q726 393 726 423Q726 531 656.50 593Q587 655 463 655Q368 655 291.50 618.50Q215 582 165.50 515Q116 448 100 358Q94 324 94 293Q94 185 163 122Q232 59 357 59Q451 59 528 96Q605 133 654.50 200.50Q704 268 720 358M475 571Q546 571 579 541Q612 511 612 464Q612 419 585 378.50Q558 338 506 319L569 153L423 153L374 291L350 153L215 153L289 571L475 571M392 390L429 390Q470 390 470 426Q470 449 439 449L402 449L392 390Z"  horiz-adv-x="819" vert-adv-y="1000"  />

      
      <glyph glyph-name="uniaf" unicode="&#xaf;" d="M514 769L488 622L57 622L83 769L514 769Z"  horiz-adv-x="451" vert-adv-y="1000"  />

      
      <glyph glyph-name="unib0" unicode="&#xb0;" d="M281 715Q372 715 424 676.50Q476 638 476 569Q476 551 473 533Q458 447 390 397Q322 347 221 347Q129 347 74.50 388Q20 429 20 500Q20 517 23 533Q39 618 108.50 666.50Q178 715 281 715M262 600Q239 600 218.50 583Q198 566 192 531Q190 519 190 515Q190 490 205.50 477Q221 464 241 464Q262 464 280 480.50Q298 497 304 531Q306 545 306 550Q306 576 293 588Q280 600 262 600Z"  horiz-adv-x="496" vert-adv-y="1000"  />

      
      <glyph glyph-name="unib1" unicode="&#xb1;" d="M389 344L381 297L529 297L494 96L-17 96L18 297L168 297L176 344L27 344L62 545L211 545L226 630L439 630L424 545L573 545L538 344L389 344Z"  horiz-adv-x="551" vert-adv-y="1000"  />

      
      <glyph glyph-name="unib2" unicode="&#xb2;" d="M275 717Q348 717 382.50 690Q417 663 417 625Q417 583 380.50 553Q344 523 256 492L213 477L383 477L361 352L16 352L37 474L185 544Q236 568 241 595Q241 603 233 603Q216 603 209 569L46 569Q63 635 124 676Q185 717 275 717Z"  horiz-adv-x="422" vert-adv-y="1000"  />

      
      <glyph glyph-name="unib3" unicode="&#xb3;" d="M241 717Q313 717 352 692.50Q391 668 391 627Q391 616 390 611Q378 549 302 537L301 533Q339 524 355.50 508.50Q372 493 372 468Q372 458 371 452Q362 402 311.50 375.50Q261 349 181 349Q84 349 43.50 378.50Q3 408 3 464Q3 476 4 482L176 482Q175 478 175 473Q175 462 186 462Q199 462 203 483Q204 486 204 492Q204 508 181 508L151 508L160 562L181 562Q195 562 202 568Q209 574 212 588L212 593Q212 605 203 605Q188 605 184 577L28 577Q38 636 89.50 676.50Q141 717 241 717Z"  horiz-adv-x="403" vert-adv-y="1000"  />

      
      <glyph glyph-name="unib4" unicode="&#xb4;" d="M323 696L47 602L73 750L352 860L323 696Z"  horiz-adv-x="279" vert-adv-y="1000"  />

      
      <glyph glyph-name="unib5" unicode="&#xb5;" d="M700 564L600 0L378 0L392 77Q362 42 318 19.50Q274-3 220-4L172-270L-49-270L99 564L320 564L267 266Q266 260 266 249Q266 220 283.50 204Q301 188 332 188Q369 188 394 209Q419 230 425 266L425 264L478 564L700 564Z"  horiz-adv-x="701" vert-adv-y="1000"  />

      
      <glyph glyph-name="unib6" unicode="&#xb6;" d="M641 0L464 0L559 542L501 542L406 0L230 0L276 265L245 265Q140 265 90.50 315Q41 365 41 442Q41 466 45 486Q55 544 88.50 594.50Q122 645 181.50 676.50Q241 708 323 708L765 708L641 0Z"  horiz-adv-x="778" vert-adv-y="1000"  />

      
      <glyph glyph-name="unib7" unicode="&#xb7;" d="M281 407L243 195L23 195L61 407L281 407Z"  horiz-adv-x="306" vert-adv-y="1000"  />

      
      <glyph glyph-name="unib8" unicode="&#xb8;" d="M222-27Q263-27 297.50-50Q332-73 332-123Q332-140 330-149Q318-214 268-242.50Q218-271 158-271L-15-271L5-158L155-158Q167-158 175-153.50Q183-149 184-142L184-139Q184-127 161-127L76-127L100 7L228 7L222-27Z"  horiz-adv-x="343" vert-adv-y="1000"  />

      
      <glyph glyph-name="unib9" unicode="&#xb9;" d="M29 577L51 704L281 704L219 352L55 352L95 577L29 577Z"  horiz-adv-x="285" vert-adv-y="1000"  />

      
      <glyph glyph-name="uniba" unicode="&#xba;" d="M267 709Q355 709 404 668.50Q453 628 453 561Q453 546 450 529Q441 478 407.50 436.50Q374 395 321 371Q268 347 203 347Q115 347 66 389Q17 431 17 497Q17 513 20 529Q29 581 62.50 621.50Q96 662 148.50 685.50Q201 709 267 709M245 584Q224 584 208 570Q192 556 187 529Q185 517 185 514Q185 494 196 483.50Q207 473 225 473Q246 473 262 487.50Q278 502 283 529Q285 541 285 544Q285 564 274 574Q263 584 245 584Z"  horiz-adv-x="450" vert-adv-y="1000"  />

      
      <glyph glyph-name="unibb" unicode="&#xbb;" d="M130 295L81 470L283 470L328 295L221 120L19 120L130 295M385 295L336 470L538 470L583 295L476 120L274 120L385 295Z"  horiz-adv-x="618" vert-adv-y="1000"  />

      
      <glyph glyph-name="unibc" unicode="&#xbc;" d="M766 708L254 0L37 0L550 708L766 708M11 577L33 704L263 704L201 352L37 352L77 577L11 577M824 58L789 58L779 0L614 0L624 58L421 58L436 142L614 351L841 351L805 146L840 146L824 58M667 250L591 151L650 151L667 250Z"  horiz-adv-x="899" vert-adv-y="1000"  />

      
      <glyph glyph-name="unibd" unicode="&#xbd;" d="M785 711L262 0L45 0L569 711L785 711M107 577L41 577L63 704L293 704L231 352L67 352L107 577M734 364Q807 364 841.50 337Q876 310 876 272Q876 230 839.50 200Q803 170 715 139L672 124L842 124L820-1L475-1L496 121L644 191Q695 215 700 242Q700 250 692 250Q675 250 668 216L505 216Q522 282 583 323Q644 364 734 364Z"  horiz-adv-x="928" vert-adv-y="1000"  />

      
      <glyph glyph-name="unibe" unicode="&#xbe;" d="M271 717Q343 717 382 692.50Q421 668 421 627Q421 616 420 611Q408 549 332 537L331 533Q369 524 385.50 508.50Q402 493 402 468Q402 458 401 452Q392 402 341.50 375.50Q291 349 211 349Q114 349 73.50 378.50Q33 408 33 464Q33 476 34 482L206 482Q205 478 205 473Q205 462 216 462Q229 462 233 483Q234 486 234 492Q234 508 211 508L181 508L190 562L211 562Q225 562 232 568Q239 574 242 588L242 593Q242 605 233 605Q218 605 214 577L58 577Q68 636 119.50 676.50Q171 717 271 717M879 711L384 0L168 0L662 711L879 711M956 58L921 58L911 0L747 0L757 58L553 58L568 142L726 351L973 351L937 146L972 146L956 58M803 270L723 146L782 146L803 270Z"  horiz-adv-x="1024" vert-adv-y="1000"  />

      
      <glyph glyph-name="unibf" unicode="&#xbf;" d="M199-200Q102-200 45.50-157.50Q-11-115-11-32Q-11-12-6 16Q10 105 79 159.50Q148 214 244 216L257 287L465 287L427 75L343 75Q283 75 250 61.50Q217 48 211 17L210 9Q210-5 218-12.50Q226-20 239-20Q258-20 269.50-7.50Q281 5 285 25L494 25Q486-36 449.50-87.50Q413-139 349-169.50Q285-200 199-200M263 361L300 573L520 573L483 361L263 361Z"  horiz-adv-x="539" vert-adv-y="1000"  />

      
      <glyph glyph-name="unic0" unicode="&#xc0;" d="M462 107L226 107L172 0L-61 0L322 708L578 708L712 0L478 0L462 107M437 274L408 471L309 274L437 274M606 894L580 746L338 840L367 1004L606 894Z"  horiz-adv-x="773" vert-adv-y="1000"  />

      
      <glyph glyph-name="unic1" unicode="&#xc1;" d="M462 107L226 107L172 0L-61 0L322 708L578 708L712 0L478 0L462 107M437 274L408 471L309 274L437 274M596 840L320 746L346 894L625 1004L596 840Z"  horiz-adv-x="773" vert-adv-y="1000"  />

      
      <glyph glyph-name="unic2" unicode="&#xc2;" d="M466 107L230 107L176 0L-57 0L326 708L582 708L716 0L482 0L466 107M441 274L412 471L313 274L441 274M472 824L291 736L316 880L497 965L647 880L622 736L472 824Z"  horiz-adv-x="773" vert-adv-y="1000"  />

      
      <glyph glyph-name="unic3" unicode="&#xc3;" d="M468 107L232 107L178 0L-55 0L328 708L584 708L718 0L484 0L468 107M443 274L414 471L315 274L443 274M426 932Q450 932 469 925Q488 918 511 905Q530 895 540 890.50Q550 886 562 886Q599 886 615 933L724 933Q691 840 643.50 799Q596 758 532 758Q508 758 489 765Q470 772 447 785Q444 787 433 792.50Q422 798 413 800.50Q404 803 396 803Q359 803 342 756L234 756Q267 849 314.50 890.50Q362 932 426 932Z"  horiz-adv-x="773" vert-adv-y="1000"  />

      
      </font>
</defs>
</svg>
