<?xml version="1.0" encoding="UTF-8"?>
<svg xmlns="http://www.w3.org/2000/svg" xmlns:xlink="http://www.w3.org/1999/xlink" width="181px" height="40px" viewBox="0 0 181 40" version="1.1">
<g id="surface1">
<path style=" stroke:none;fill-rule:nonzero;fill:rgb(14.117647%,80%,65.490196%);fill-opacity:1;" d="M 4.695312 9.523438 L 24.957031 3.851562 L 23.886719 1.628906 C 23.183594 0.183594 21.46875 -0.414062 20.0625 0.304688 L 1.917969 9.523438 Z M 4.695312 9.523438 "/>
<path style=" stroke:none;fill-rule:nonzero;fill:rgb(14.117647%,80%,65.490196%);fill-opacity:1;" d="M 31.015625 3.808594 C 30.773438 3.808594 30.527344 3.847656 30.285156 3.917969 L 25.65625 5.304688 L 11.519531 9.523438 L 34.558594 9.523438 L 33.691406 6.050781 C 33.359375 4.695312 32.238281 3.808594 31.015625 3.808594 Z M 31.015625 3.808594 "/>
<path style=" stroke:none;fill-rule:nonzero;fill:rgb(29.019608%,33.72549%,88.627451%);fill-opacity:1;" d="M 35.449219 10.714844 L 2.25 10.714844 C 1.539062 10.714844 0.90625 11.042969 0.492188 11.554688 C 0.304688 11.789062 0.160156 12.0625 0.0820312 12.359375 C 0.03125 12.546875 0 12.742188 0 12.945312 L 0 37.773438 C 0 39 1.007812 40 2.246094 40 L 35.445312 40 C 36.683594 40 37.691406 39 37.691406 37.773438 L 37.691406 31.554688 L 24.363281 31.554688 C 22.257812 31.554688 20.546875 29.855469 20.546875 27.765625 L 20.546875 22.8125 C 20.546875 21.785156 20.960938 20.855469 21.628906 20.171875 C 22.222656 19.566406 23.015625 19.15625 23.90625 19.054688 C 24.054688 19.035156 24.207031 19.027344 24.359375 19.027344 L 37.691406 19.027344 L 37.691406 12.945312 C 37.695312 11.714844 36.691406 10.714844 35.449219 10.714844 Z M 35.449219 10.714844 "/>
<path style=" stroke:none;fill-rule:nonzero;fill:rgb(29.019608%,33.72549%,88.627451%);fill-opacity:1;" d="M 39.269531 21.15625 C 39.042969 20.953125 38.777344 20.796875 38.480469 20.695312 C 38.253906 20.617188 38.011719 20.574219 37.753906 20.574219 L 24.363281 20.574219 C 23.125 20.574219 22.117188 21.570312 22.117188 22.800781 L 22.117188 27.761719 C 22.117188 28.992188 23.125 29.992188 24.363281 29.992188 L 37.753906 29.992188 C 38.011719 29.992188 38.253906 29.945312 38.480469 29.871094 C 38.777344 29.773438 39.042969 29.613281 39.269531 29.40625 C 39.71875 29 40 28.414062 40 27.761719 L 40 22.800781 C 40 22.152344 39.71875 21.5625 39.269531 21.15625 Z M 29.054688 25.726562 C 29.054688 26.339844 28.550781 26.839844 27.929688 26.839844 L 27.183594 26.839844 C 26.566406 26.839844 26.0625 26.339844 26.0625 25.726562 L 26.0625 24.984375 C 26.0625 24.628906 26.226562 24.3125 26.492188 24.113281 C 26.6875 23.964844 26.925781 23.871094 27.183594 23.871094 L 27.929688 23.871094 C 28.550781 23.871094 29.054688 24.371094 29.054688 24.984375 Z M 29.054688 25.726562 "/>
<path style=" stroke:none;fill-rule:nonzero;fill:rgb(0%,0%,0%);fill-opacity:1;" d="M 90.839844 9.941406 L 85.351562 31 L 79.140625 31 L 75.78125 17.140625 L 72.300781 31 L 66.089844 31 L 60.75 9.941406 L 66.238281 9.941406 L 69.269531 25.269531 L 73.019531 9.941406 L 78.660156 9.941406 L 82.261719 25.269531 L 85.320312 9.941406 Z M 92.394531 22.601562 C 92.394531 20.878906 92.710938 19.371094 93.351562 18.070312 C 94.011719 16.769531 94.902344 15.769531 96.023438 15.070312 C 97.144531 14.371094 98.394531 14.019531 99.773438 14.019531 C 100.953125 14.019531 101.984375 14.261719 102.863281 14.738281 C 103.761719 15.21875 104.453125 15.851562 104.933594 16.628906 L 104.933594 14.261719 L 110.0625 14.261719 L 110.0625 31 L 104.933594 31 L 104.933594 28.628906 C 104.433594 29.410156 103.734375 30.039062 102.832031 30.519531 C 101.953125 31 100.921875 31.238281 99.742188 31.238281 C 98.382812 31.238281 97.144531 30.890625 96.023438 30.191406 C 94.902344 29.46875 94.011719 28.460938 93.351562 27.160156 C 92.710938 25.839844 92.394531 24.320312 92.394531 22.601562 Z M 104.933594 22.628906 C 104.933594 21.351562 104.574219 20.339844 103.851562 19.601562 C 103.152344 18.859375 102.292969 18.488281 101.273438 18.488281 C 100.253906 18.488281 99.382812 18.859375 98.664062 19.601562 C 97.960938 20.320312 97.613281 21.320312 97.613281 22.601562 C 97.613281 23.878906 97.960938 24.898438 98.664062 25.660156 C 99.382812 26.398438 100.253906 26.769531 101.273438 26.769531 C 102.292969 26.769531 103.152344 26.398438 103.851562 25.660156 C 104.574219 24.921875 104.933594 23.910156 104.933594 22.628906 Z M 118.902344 8.800781 L 118.902344 31 L 113.773438 31 L 113.773438 8.800781 Z M 127.753906 8.800781 L 127.753906 31 L 122.621094 31 L 122.621094 8.800781 Z M 147.25 22.359375 C 147.25 22.839844 147.21875 23.339844 147.160156 23.859375 L 135.550781 23.859375 C 135.628906 24.898438 135.960938 25.699219 136.539062 26.261719 C 137.140625 26.800781 137.867188 27.070312 138.730469 27.070312 C 140.007812 27.070312 140.898438 26.53125 141.398438 25.449219 L 146.859375 25.449219 C 146.578125 26.550781 146.070312 27.539062 145.328125 28.421875 C 144.609375 29.300781 143.699219 29.988281 142.597656 30.488281 C 141.5 30.988281 140.269531 31.238281 138.910156 31.238281 C 137.269531 31.238281 135.808594 30.890625 134.527344 30.191406 C 133.25 29.488281 132.25 28.488281 131.527344 27.191406 C 130.808594 25.890625 130.449219 24.371094 130.449219 22.628906 C 130.449219 20.890625 130.800781 19.371094 131.5 18.070312 C 132.21875 16.769531 133.21875 15.769531 134.5 15.070312 C 135.777344 14.371094 137.25 14.019531 138.910156 14.019531 C 140.527344 14.019531 141.96875 14.359375 143.230469 15.039062 C 144.488281 15.71875 145.46875 16.691406 146.167969 17.949219 C 146.890625 19.210938 147.25 20.679688 147.25 22.359375 Z M 142 21.011719 C 142 20.128906 141.699219 19.429688 141.097656 18.910156 C 140.5 18.390625 139.75 18.128906 138.847656 18.128906 C 137.988281 18.128906 137.257812 18.378906 136.660156 18.878906 C 136.078125 19.378906 135.71875 20.089844 135.578125 21.011719 Z M 159.285156 26.648438 L 159.285156 31 L 156.675781 31 C 154.816406 31 153.367188 30.550781 152.324219 29.648438 C 151.285156 28.730469 150.765625 27.238281 150.765625 25.179688 L 150.765625 18.519531 L 148.726562 18.519531 L 148.726562 14.261719 L 150.765625 14.261719 L 150.765625 10.179688 L 155.894531 10.179688 L 155.894531 14.261719 L 159.257812 14.261719 L 159.257812 18.519531 L 155.894531 18.519531 L 155.894531 25.238281 C 155.894531 25.738281 156.015625 26.101562 156.257812 26.320312 C 156.496094 26.539062 156.894531 26.648438 157.457031 26.648438 Z M 159.285156 26.648438 "/>
</g>
</svg>
